<svg xmlns="http://www.w3.org/2000/svg" xmlns:xlink="http://www.w3.org/1999/xlink" width="579.63" height="758" viewBox="0 0 579.63 758">
  <defs>
    <filter id="Trazado_716098" x="462.16" y="716.982" width="44.843" height="36.262" filterUnits="userSpaceOnUse">
      <feOffset dy="3" input="SourceAlpha"/>
      <feGaussianBlur stdDeviation="3" result="blur"/>
      <feFlood flood-opacity="0.161"/>
      <feComposite operator="in" in2="blur"/>
      <feComposite in="SourceGraphic"/>
    </filter>
    <filter id="Trazado_716100" x="1" y="606.999" width="85" height="110" filterUnits="userSpaceOnUse">
      <feOffset dy="3" input="SourceAlpha"/>
      <feGaussianBlur stdDeviation="3" result="blur-2"/>
      <feFlood flood-opacity="0.161"/>
      <feComposite operator="in" in2="blur-2"/>
      <feComposite in="SourceGraphic"/>
    </filter>
    <filter id="Trazado_716113" x="456.16" y="396.572" width="44.574" height="36.262" filterUnits="userSpaceOnUse">
      <feOffset dy="3" input="SourceAlpha"/>
      <feGaussianBlur stdDeviation="3" result="blur-3"/>
      <feFlood flood-opacity="0.161"/>
      <feComposite operator="in" in2="blur-3"/>
      <feComposite in="SourceGraphic"/>
    </filter>
    <filter id="Trazado_716115" x="0" y="285.999" width="85" height="110" filterUnits="userSpaceOnUse">
      <feOffset dy="3" input="SourceAlpha"/>
      <feGaussianBlur stdDeviation="3" result="blur-4"/>
      <feFlood flood-opacity="0.161"/>
      <feComposite operator="in" in2="blur-4"/>
      <feComposite in="SourceGraphic"/>
    </filter>
    <clipPath id="clip-path">
      <path id="path2568" d="M0-682.665H48.8v48.8H0Z" transform="translate(0 682.665)" fill="#fff"/>
    </clipPath>
    <filter id="Trazado_716107" x="459.16" y="476.982" width="44.306" height="36.262" filterUnits="userSpaceOnUse">
      <feOffset dy="3" input="SourceAlpha"/>
      <feGaussianBlur stdDeviation="3" result="blur-5"/>
      <feFlood flood-opacity="0.161"/>
      <feComposite operator="in" in2="blur-5"/>
      <feComposite in="SourceGraphic"/>
    </filter>
    <filter id="Trazado_716108" x="0" y="446" width="85" height="110" filterUnits="userSpaceOnUse">
      <feOffset dy="3" input="SourceAlpha"/>
      <feGaussianBlur stdDeviation="3" result="blur-6"/>
      <feFlood flood-opacity="0.161"/>
      <feComposite operator="in" in2="blur-6"/>
      <feComposite in="SourceGraphic"/>
    </filter>
    <clipPath id="clip-path-2">
      <path id="path252" d="M10.448-682.665H0v10.448H10.448Z" transform="translate(0 682.665)"/>
    </clipPath>
    <filter id="Rectángulo_344369" x="0" y="125.999" width="85" height="110" filterUnits="userSpaceOnUse">
      <feOffset dy="3" input="SourceAlpha"/>
      <feGaussianBlur stdDeviation="3" result="blur-7"/>
      <feFlood flood-opacity="0.161"/>
      <feComposite operator="in" in2="blur-7"/>
      <feComposite in="SourceGraphic"/>
    </filter>
    <filter id="Trazado_716121" x="463.977" y="149.981" width="40.961" height="36.262" filterUnits="userSpaceOnUse">
      <feOffset dy="3" input="SourceAlpha"/>
      <feGaussianBlur stdDeviation="3" result="blur-8"/>
      <feFlood flood-opacity="0.161"/>
      <feComposite operator="in" in2="blur-8"/>
      <feComposite in="SourceGraphic"/>
    </filter>
    <filter id="Trazado_716122" x="22.5" y="0" width="478" height="83.999" filterUnits="userSpaceOnUse">
      <feOffset dy="3" input="SourceAlpha"/>
      <feGaussianBlur stdDeviation="3" result="blur-9"/>
      <feFlood flood-opacity="0.161"/>
      <feComposite operator="in" in2="blur-9"/>
      <feComposite in="SourceGraphic"/>
    </filter>
  </defs>
  <g id="Grupo_1010189" data-name="Grupo 1010189" transform="translate(9634 6490.999)">
    <path id="Trazado_716096" data-name="Trazado 716096" d="M0,0H505V138H0Z" transform="translate(-9119 -5733) rotate(180)" fill="#4db1f0"/>
    <path id="Trazado_716097" data-name="Trazado 716097" d="M0,0A55.062,55.062,0,0,0,43.9,43.094V0Z" transform="translate(-9162.9 -5871)" fill="#4db1f0"/>
    <g transform="matrix(1, 0, 0, 1, -9634, -6491)" filter="url(#Trazado_716098)">
      <path id="Trazado_716098-2" data-name="Trazado 716098" d="M13.171-7.349a9,9,0,0,1-1.526,5.64A5.326,5.326,0,0,1,7.178.244,5.363,5.363,0,0,1,2.734-1.672,8.74,8.74,0,0,1,1.16-7.166v-3.271A8.886,8.886,0,0,1,2.7-16.089a5.366,5.366,0,0,1,4.449-1.929,5.371,5.371,0,0,1,4.443,1.91,8.713,8.713,0,0,1,1.575,5.487Zm-3.528-3.6a6.508,6.508,0,0,0-.6-3.22,2.042,2.042,0,0,0-1.886-1.008,2.006,2.006,0,0,0-1.837.959,6.091,6.091,0,0,0-.629,3v4.325A6.832,6.832,0,0,0,5.28-3.657,2.015,2.015,0,0,0,7.178-2.6,1.981,1.981,0,0,0,9.045-3.614a6.669,6.669,0,0,0,.6-3.1ZM25.989-6.689H28v2.844H25.989V0H22.461V-3.845H15.173l-.159-2.222,7.41-11.707h3.564Zm-7.458,0h3.931v-6.274l-.232.4Z" transform="translate(470 741)" fill="#12263f"/>
    </g>
    <path id="Trazado_716099" data-name="Trazado 716099" d="M6,0l6,9H0Z" transform="translate(-9563 -5878)" fill="#12263f"/>
    <g transform="matrix(1, 0, 0, 1, -9634, -6491)" filter="url(#Trazado_716100)">
      <path id="Trazado_716100-2" data-name="Trazado 716100" d="M0,0H67V92H0Z" transform="translate(10 613)" fill="#1f4168"/>
    </g>
    <path id="Trazado_716101" data-name="Trazado 716101" d="M1.143,19V6.2H5.08a5.98,5.98,0,0,1,3.019.76,5.3,5.3,0,0,1,2.079,2.162,6.669,6.669,0,0,1,.747,3.186V12.9a6.688,6.688,0,0,1-.734,3.173,5.256,5.256,0,0,1-2.07,2.153A6.025,6.025,0,0,1,5.106,19ZM3.779,8.339v8.543H5.054a2.863,2.863,0,0,0,2.364-1.011,4.567,4.567,0,0,0,.835-2.892V12.3a4.64,4.64,0,0,0-.809-2.958A2.854,2.854,0,0,0,5.08,8.339ZM15.354,19H12.806V9.49h2.549Zm-2.7-11.971a1.251,1.251,0,0,1,.382-.94A1.436,1.436,0,0,1,14.08,5.72a1.44,1.44,0,0,1,1.037.369,1.244,1.244,0,0,1,.387.94,1.247,1.247,0,0,1-.391.949,1.629,1.629,0,0,1-2.065,0A1.247,1.247,0,0,1,12.656,7.029Zm8.745,10.1a1.666,1.666,0,0,0,1.143-.387A1.355,1.355,0,0,0,23,15.713h2.382a3.258,3.258,0,0,1-.527,1.771,3.48,3.48,0,0,1-1.419,1.248,4.442,4.442,0,0,1-1.991.444,4.129,4.129,0,0,1-3.217-1.3A5.13,5.13,0,0,1,17.051,14.3v-.167a5.071,5.071,0,0,1,1.169-3.507,4.08,4.08,0,0,1,3.208-1.31,4,4,0,0,1,2.861,1.015,3.594,3.594,0,0,1,1.094,2.7H23a1.745,1.745,0,0,0-.457-1.206,1.7,1.7,0,0,0-2.5.183,3.749,3.749,0,0,0-.453,2.1v.264a3.8,3.8,0,0,0,.448,2.113A1.549,1.549,0,0,0,21.4,17.128Zm9.387,0a1.666,1.666,0,0,0,1.143-.387,1.355,1.355,0,0,0,.457-1.028H34.77a3.258,3.258,0,0,1-.527,1.771,3.48,3.48,0,0,1-1.419,1.248,4.442,4.442,0,0,1-1.991.444,4.129,4.129,0,0,1-3.217-1.3A5.13,5.13,0,0,1,26.438,14.3v-.167a5.071,5.071,0,0,1,1.169-3.507,4.08,4.08,0,0,1,3.208-1.31,4,4,0,0,1,2.861,1.015,3.594,3.594,0,0,1,1.094,2.7H32.388a1.745,1.745,0,0,0-.457-1.206,1.7,1.7,0,0,0-2.5.183,3.749,3.749,0,0,0-.453,2.1v.264a3.8,3.8,0,0,0,.448,2.113A1.549,1.549,0,0,0,30.788,17.128ZM38.9,19H36.352V9.49H38.9ZM36.2,7.029a1.251,1.251,0,0,1,.382-.94,1.648,1.648,0,0,1,2.079,0,1.244,1.244,0,0,1,.387.94,1.247,1.247,0,0,1-.391.949,1.629,1.629,0,0,1-2.065,0A1.247,1.247,0,0,1,36.2,7.029ZM40.6,14.157a5.64,5.64,0,0,1,.545-2.522A3.989,3.989,0,0,1,42.71,9.921a4.577,4.577,0,0,1,2.377-.606,4.33,4.33,0,0,1,3.142,1.178,4.727,4.727,0,0,1,1.358,3.2l.018.65a4.97,4.97,0,0,1-1.222,3.511,4.735,4.735,0,0,1-6.561,0A5.058,5.058,0,0,1,40.6,14.271Zm2.54.18a3.555,3.555,0,0,0,.51,2.073,1.831,1.831,0,0,0,2.9.009,3.89,3.89,0,0,0,.519-2.267,3.519,3.519,0,0,0-.519-2.06,1.686,1.686,0,0,0-1.459-.731,1.658,1.658,0,0,0-1.441.726A3.955,3.955,0,0,0,43.137,14.338ZM53.508,9.49l.079,1.1A3.32,3.32,0,0,1,56.32,9.314a2.759,2.759,0,0,1,2.25.888,4.142,4.142,0,0,1,.756,2.654V19h-2.54V12.918a1.648,1.648,0,0,0-.352-1.173,1.574,1.574,0,0,0-1.169-.365,1.747,1.747,0,0,0-1.608.914V19h-2.54V9.49ZM66.762,19a2.821,2.821,0,0,1-.255-.853,3.073,3.073,0,0,1-2.4,1.028,3.376,3.376,0,0,1-2.316-.809,2.6,2.6,0,0,1-.918-2.039,2.687,2.687,0,0,1,1.121-2.32,5.529,5.529,0,0,1,3.239-.817H66.4v-.545a1.567,1.567,0,0,0-.338-1.055A1.331,1.331,0,0,0,65,11.2a1.513,1.513,0,0,0-1.006.308,1.045,1.045,0,0,0-.365.844h-2.54a2.551,2.551,0,0,1,.51-1.529,3.37,3.37,0,0,1,1.441-1.1,5.253,5.253,0,0,1,2.092-.4,4.15,4.15,0,0,1,2.791.883,3.09,3.09,0,0,1,1.033,2.483V16.8a4.546,4.546,0,0,0,.378,2.048V19Zm-2.1-1.767a2.188,2.188,0,0,0,1.037-.25,1.645,1.645,0,0,0,.7-.672V14.676h-.949q-1.907,0-2.03,1.318l-.009.149a1.017,1.017,0,0,0,.334.782A1.3,1.3,0,0,0,64.661,17.233Zm11.584-5.361a6.9,6.9,0,0,0-.914-.07,1.86,1.86,0,0,0-1.89.976V19H70.9V9.49h2.4l.07,1.134a2.354,2.354,0,0,1,2.118-1.31,2.662,2.662,0,0,1,.791.114ZM80.147,19H77.6V9.49h2.549Zm-2.7-11.971a1.251,1.251,0,0,1,.382-.94,1.648,1.648,0,0,1,2.079,0,1.244,1.244,0,0,1,.387.94,1.247,1.247,0,0,1-.391.949,1.629,1.629,0,0,1-2.065,0A1.247,1.247,0,0,1,77.449,7.029Zm4.395,7.128a5.64,5.64,0,0,1,.545-2.522,3.989,3.989,0,0,1,1.569-1.714,4.577,4.577,0,0,1,2.377-.606,4.33,4.33,0,0,1,3.142,1.178,4.727,4.727,0,0,1,1.358,3.2l.018.65a4.97,4.97,0,0,1-1.222,3.511,4.735,4.735,0,0,1-6.561,0,5.058,5.058,0,0,1-1.226-3.586Zm2.54.18a3.555,3.555,0,0,0,.51,2.073,1.831,1.831,0,0,0,2.9.009,3.89,3.89,0,0,0,.519-2.267,3.519,3.519,0,0,0-.519-2.06,1.686,1.686,0,0,0-1.459-.731,1.658,1.658,0,0,0-1.441.726A3.955,3.955,0,0,0,84.384,14.338Zm13.184,2.035a.818.818,0,0,0-.461-.734,5.241,5.241,0,0,0-1.481-.479q-3.393-.712-3.393-2.883a2.613,2.613,0,0,1,1.05-2.114,4.237,4.237,0,0,1,2.747-.848,4.56,4.56,0,0,1,2.9.853,2.687,2.687,0,0,1,1.085,2.215h-2.54a1.229,1.229,0,0,0-.352-.9,1.488,1.488,0,0,0-1.1-.356,1.52,1.52,0,0,0-.993.29.916.916,0,0,0-.352.738.783.783,0,0,0,.4.681,4.114,4.114,0,0,0,1.349.448,11.019,11.019,0,0,1,1.6.426,2.628,2.628,0,0,1,2.013,2.558,2.481,2.481,0,0,1-1.116,2.1,4.815,4.815,0,0,1-2.883.8,5.029,5.029,0,0,1-2.123-.426,3.561,3.561,0,0,1-1.455-1.169,2.716,2.716,0,0,1-.527-1.6h2.408a1.326,1.326,0,0,0,.5,1.037,1.987,1.987,0,0,0,1.248.36,1.839,1.839,0,0,0,1.1-.277A.861.861,0,0,0,97.567,16.372Zm17.147-2.039a5.7,5.7,0,0,1-1,3.52,3.2,3.2,0,0,1-2.694,1.323,2.963,2.963,0,0,1-2.329-1v4.482h-2.54V9.49h2.355l.088.932a2.985,2.985,0,0,1,2.408-1.107,3.22,3.22,0,0,1,2.733,1.3,5.858,5.858,0,0,1,.976,3.586Zm-2.54-.185a3.743,3.743,0,0,0-.47-2.048,1.532,1.532,0,0,0-1.367-.721,1.663,1.663,0,0,0-1.644.914v3.894a1.692,1.692,0,0,0,1.661.94Q112.175,17.128,112.175,14.148ZM121.8,19a2.821,2.821,0,0,1-.255-.853,3.073,3.073,0,0,1-2.4,1.028,3.376,3.376,0,0,1-2.316-.809,2.6,2.6,0,0,1-.918-2.039,2.687,2.687,0,0,1,1.121-2.32,5.529,5.529,0,0,1,3.239-.817h1.169v-.545a1.567,1.567,0,0,0-.338-1.055,1.331,1.331,0,0,0-1.068-.4,1.513,1.513,0,0,0-1.006.308,1.045,1.045,0,0,0-.365.844h-2.54a2.551,2.551,0,0,1,.51-1.529,3.37,3.37,0,0,1,1.441-1.1,5.253,5.253,0,0,1,2.092-.4,4.15,4.15,0,0,1,2.791.883,3.09,3.09,0,0,1,1.033,2.483V16.8a4.546,4.546,0,0,0,.378,2.048V19Zm-2.1-1.767a2.188,2.188,0,0,0,1.037-.25,1.645,1.645,0,0,0,.7-.672V14.676h-.949q-1.907,0-2.03,1.318l-.009.149a1.017,1.017,0,0,0,.334.782A1.3,1.3,0,0,0,119.7,17.233Zm11.584-5.361a6.9,6.9,0,0,0-.914-.07,1.86,1.86,0,0,0-1.89.976V19h-2.54V9.49h2.4l.07,1.134a2.354,2.354,0,0,1,2.118-1.31,2.662,2.662,0,0,1,.791.114ZM137.751,19a2.821,2.821,0,0,1-.255-.853,3.073,3.073,0,0,1-2.4,1.028,3.376,3.376,0,0,1-2.316-.809,2.6,2.6,0,0,1-.918-2.039,2.687,2.687,0,0,1,1.121-2.32,5.529,5.529,0,0,1,3.239-.817h1.169v-.545a1.567,1.567,0,0,0-.338-1.055,1.331,1.331,0,0,0-1.068-.4,1.513,1.513,0,0,0-1.006.308,1.045,1.045,0,0,0-.365.844h-2.54a2.551,2.551,0,0,1,.51-1.529,3.37,3.37,0,0,1,1.441-1.1,5.253,5.253,0,0,1,2.092-.4,4.15,4.15,0,0,1,2.791.883,3.09,3.09,0,0,1,1.033,2.483V16.8a4.546,4.546,0,0,0,.378,2.048V19Zm-2.1-1.767a2.188,2.188,0,0,0,1.037-.25,1.645,1.645,0,0,0,.7-.672V14.676h-.949q-1.907,0-2.03,1.318l-.009.149a1.017,1.017,0,0,0,.334.782A1.3,1.3,0,0,0,135.65,17.233ZM149.414,7.152V9.49h1.626v1.863h-1.626V16.1a1.133,1.133,0,0,0,.2.756,1.015,1.015,0,0,0,.773.229,4.051,4.051,0,0,0,.747-.062v1.925a5.229,5.229,0,0,1-1.538.229,2.425,2.425,0,0,1-2.725-2.7V11.354h-1.389V9.49h1.389V7.152Zm8.385,4.72a6.9,6.9,0,0,0-.914-.07,1.86,1.86,0,0,0-1.89.976V19h-2.54V9.49h2.4l.07,1.134a2.354,2.354,0,0,1,2.118-1.31,2.662,2.662,0,0,1,.791.114ZM164.268,19a2.821,2.821,0,0,1-.255-.853,3.073,3.073,0,0,1-2.4,1.028,3.376,3.376,0,0,1-2.316-.809,2.6,2.6,0,0,1-.918-2.039,2.687,2.687,0,0,1,1.121-2.32,5.529,5.529,0,0,1,3.239-.817h1.169v-.545a1.567,1.567,0,0,0-.338-1.055,1.331,1.331,0,0,0-1.068-.4,1.513,1.513,0,0,0-1.006.308,1.045,1.045,0,0,0-.365.844h-2.54a2.551,2.551,0,0,1,.51-1.529,3.37,3.37,0,0,1,1.441-1.1,5.253,5.253,0,0,1,2.092-.4,4.15,4.15,0,0,1,2.791.883,3.09,3.09,0,0,1,1.033,2.483V16.8a4.546,4.546,0,0,0,.378,2.048V19Zm-2.1-1.767a2.188,2.188,0,0,0,1.037-.25,1.645,1.645,0,0,0,.7-.672V14.676h-.949q-1.907,0-2.03,1.318l-.009.149a1.017,1.017,0,0,0,.334.782A1.3,1.3,0,0,0,162.167,17.233Zm5.845-3.059a5.731,5.731,0,0,1,1-3.542,3.237,3.237,0,0,1,2.729-1.318,2.913,2.913,0,0,1,2.294,1.037V5.5h2.549V19h-2.294l-.123-1.011a2.989,2.989,0,0,1-2.443,1.187,3.228,3.228,0,0,1-2.694-1.323A5.916,5.916,0,0,1,168.012,14.175Zm2.54.189a3.754,3.754,0,0,0,.466,2.051,1.517,1.517,0,0,0,1.354.713,1.7,1.7,0,0,0,1.661-.995V12.375a1.675,1.675,0,0,0-1.644-.995Q170.552,11.38,170.552,14.364Zm13.693,3.669a3.185,3.185,0,0,1-2.6,1.143,3,3,0,0,1-2.333-.879,3.752,3.752,0,0,1-.822-2.575V9.49h2.54v6.151q0,1.487,1.354,1.487a1.834,1.834,0,0,0,1.775-.9V9.49h2.549V19h-2.391Zm8.332-.905a1.666,1.666,0,0,0,1.143-.387,1.355,1.355,0,0,0,.457-1.028h2.382a3.258,3.258,0,0,1-.527,1.771,3.48,3.48,0,0,1-1.419,1.248,4.442,4.442,0,0,1-1.991.444,4.129,4.129,0,0,1-3.217-1.3,5.13,5.13,0,0,1-1.178-3.582v-.167a5.071,5.071,0,0,1,1.169-3.507,4.08,4.08,0,0,1,3.208-1.31,4,4,0,0,1,2.861,1.015,3.594,3.594,0,0,1,1.094,2.7h-2.382a1.745,1.745,0,0,0-.457-1.206,1.7,1.7,0,0,0-2.5.183,3.749,3.749,0,0,0-.453,2.1v.264a3.8,3.8,0,0,0,.448,2.113A1.549,1.549,0,0,0,192.577,17.128Zm8.473-9.976V9.49h1.626v1.863H201.05V16.1a1.133,1.133,0,0,0,.2.756,1.015,1.015,0,0,0,.773.229,4.051,4.051,0,0,0,.747-.062v1.925a5.229,5.229,0,0,1-1.538.229,2.425,2.425,0,0,1-2.725-2.7V11.354h-1.389V9.49h1.389V7.152Zm2.382,7a5.64,5.64,0,0,1,.545-2.522,3.989,3.989,0,0,1,1.569-1.714,4.577,4.577,0,0,1,2.377-.606,4.33,4.33,0,0,1,3.142,1.178,4.727,4.727,0,0,1,1.358,3.2l.018.65a4.97,4.97,0,0,1-1.222,3.511,4.735,4.735,0,0,1-6.561,0,5.058,5.058,0,0,1-1.226-3.586Zm2.54.18a3.555,3.555,0,0,0,.51,2.073,1.831,1.831,0,0,0,2.9.009,3.89,3.89,0,0,0,.519-2.267,3.519,3.519,0,0,0-.519-2.06,1.686,1.686,0,0,0-1.459-.731,1.658,1.658,0,0,0-1.441.726A3.955,3.955,0,0,0,205.972,14.338Zm13.377-2.465a6.9,6.9,0,0,0-.914-.07,1.86,1.86,0,0,0-1.89.976V19H214V9.49h2.4l.07,1.134a2.354,2.354,0,0,1,2.118-1.31,2.662,2.662,0,0,1,.791.114Zm5.6,7.3a4.668,4.668,0,0,1-3.406-1.283,4.561,4.561,0,0,1-1.314-3.419v-.246a5.745,5.745,0,0,1,.554-2.562,4.064,4.064,0,0,1,1.569-1.74,4.4,4.4,0,0,1,2.316-.611,3.947,3.947,0,0,1,3.072,1.23,5,5,0,0,1,1.121,3.489v1.037H222.8a2.36,2.36,0,0,0,.743,1.494,2.245,2.245,0,0,0,1.569.563,2.742,2.742,0,0,0,2.294-1.063l1.248,1.4a3.813,3.813,0,0,1-1.547,1.261A5.075,5.075,0,0,1,224.947,19.176Zm-.29-7.813a1.587,1.587,0,0,0-1.226.512,2.651,2.651,0,0,0-.6,1.466h3.533v-.2a1.891,1.891,0,0,0-.457-1.311A1.638,1.638,0,0,0,224.657,11.362Zm10.793,5.01a.818.818,0,0,0-.461-.734,5.241,5.241,0,0,0-1.481-.479q-3.393-.712-3.393-2.883a2.613,2.613,0,0,1,1.05-2.114,4.237,4.237,0,0,1,2.747-.848,4.56,4.56,0,0,1,2.9.853,2.687,2.687,0,0,1,1.085,2.215h-2.54a1.229,1.229,0,0,0-.352-.9,1.488,1.488,0,0,0-1.1-.356,1.52,1.52,0,0,0-.993.29.916.916,0,0,0-.352.738.783.783,0,0,0,.4.681,4.114,4.114,0,0,0,1.349.448,11.019,11.019,0,0,1,1.6.426,2.628,2.628,0,0,1,2.013,2.558,2.481,2.481,0,0,1-1.116,2.1,4.815,4.815,0,0,1-2.883.8,5.029,5.029,0,0,1-2.123-.426,3.561,3.561,0,0,1-1.455-1.169,2.716,2.716,0,0,1-.527-1.6h2.408a1.326,1.326,0,0,0,.5,1.037,1.987,1.987,0,0,0,1.248.36,1.839,1.839,0,0,0,1.1-.277A.861.861,0,0,0,235.45,16.372Zm4.236,1.38a1.279,1.279,0,0,1,.409-.984,1.588,1.588,0,0,1,2.057,0,1.279,1.279,0,0,1,.409.984,1.261,1.261,0,0,1-.4.971,1.614,1.614,0,0,1-2.065,0A1.261,1.261,0,0,1,239.687,17.752Z" transform="translate(-9508.377 -5813)" fill="#12263f"/>
    <path id="Trazado_708720" data-name="Trazado 708720" d="M77.679,137.234a11.555,11.555,0,0,1,3.254-1.593.456.456,0,0,1,.607.458v3.711a.476.476,0,0,1-.34.456,11.083,11.083,0,0,0-2.957,1.429.487.487,0,0,1-.757-.385v-3.693A.476.476,0,0,1,77.679,137.234Zm.758,3.211a11.962,11.962,0,0,1,2.15-.983v-2.7a10.406,10.406,0,0,0-2.15,1.1Z" transform="translate(-9661.337 -5969.149)" fill="#fff"/>
    <path id="Trazado_708721" data-name="Trazado 708721" d="M78.523,61.541c-.148.033-.522.124-.562.124a.477.477,0,0,1-.121-.937q.235-.062.473-.116a.476.476,0,1,1,.21.929Z" transform="translate(-9658.69 -5904.341)" fill="#fff"/>
    <path id="Trazado_708722" data-name="Trazado 708722" d="M108.26,70.385a17.926,17.926,0,0,0-5.273,3.745.562.562,0,0,1-.673.03.464.464,0,0,1-.03-.673,18.567,18.567,0,0,1,5.589-3.973.476.476,0,1,1,.386.87Z" transform="translate(-9691.695 -5912.006)" fill="#fff"/>
    <path id="Trazado_708723" data-name="Trazado 708723" d="M86.854,87.4a19.739,19.739,0,0,0-8.549,4.932.469.469,0,0,1-.673.012.49.49,0,0,1-.013-.673,20.31,20.31,0,0,1,9.024-5.2.476.476,0,1,1,.21.929Z" transform="translate(-9667.021 -5926.677)" fill="#fff"/>
    <path id="Trazado_708724" data-name="Trazado 708724" d="M86.653,112.325a.476.476,0,1,1,.21.929,19.7,19.7,0,0,0-8.549,4.932.543.543,0,0,1-.673.012.465.465,0,0,1-.013-.673A20.3,20.3,0,0,1,86.653,112.325Z" transform="translate(-9667.031 -5949.017)" fill="#fff"/>
    <path id="Trazado_708725" data-name="Trazado 708725" d="M121.115,155.851a.476.476,0,1,1,.463.832,15.425,15.425,0,0,0-3.221,2.576.54.54,0,0,1-.673.025.472.472,0,0,1-.025-.673A16.137,16.137,0,0,1,121.115,155.851Z" transform="translate(-9707.066 -5986.58)" fill="#fff"/>
    <path id="Trazado_708726" data-name="Trazado 708726" d="M121.113,181.706a.476.476,0,1,1,.463.832,15.425,15.425,0,0,0-3.221,2.576.541.541,0,0,1-.673.025.475.475,0,0,1-.025-.673A16.134,16.134,0,0,1,121.113,181.706Z" transform="translate(-9707.064 -6008.917)" fill="#fff"/>
    <path id="Trazado_708727" data-name="Trazado 708727" d="M7.238,32.611A23.743,23.743,0,0,1,17.7,30.154a.476.476,0,0,1,.014.952,22.853,22.853,0,0,0-9.78,2.225V57.646c7.717-3.427,15.1-2.236,20.816.019V33.34c-.367-.164-1.952-.759-2.977-1.1a.456.456,0,0,1-.313-.434.479.479,0,0,1,.628-.468c.958.317,2.518.895,2.935,1.078,3.2-4.952,8.3-8.768,17.144-9.563a.474.474,0,0,1,.511.475v7.619a24.123,24.123,0,0,1,4.414,1.669.472.472,0,0,1,.249.419V62.4a.488.488,0,0,1-.606.475,37.445,37.445,0,0,0-21.51-.014,37.955,37.955,0,0,0-21.636.014c-.39.072-.606-.127-.606-.472V33.036a.475.475,0,0,1,.26-.425Zm43.146.716a23.771,23.771,0,0,0-3.711-1.388V48.652a.476.476,0,0,1-.442.475c-8.085.737-12.605,3.934-15.846,8.258,5.913-2.077,12.3-3.05,20,.261ZM29.7,61.752c5.989-1.671,12.053-2.106,20.686.041V60.775c-9.249-4.034-19.2-.572-20.686-.01Zm0-2c5.571-1.906,13.267-3.017,20.686-.009V58.7C42.945,55.1,34.95,56.423,29.7,58.7Zm0-3.048c.619-.864,4.952-7.685,16.023-8.488V23.846c-8.136.774-13.345,4.806-16.023,9.307ZM7.93,61.793a40.11,40.11,0,0,1,20.816-.039v-.978c-1.4-.529-11.506-4.062-20.816,0Zm0-2.054c7.406-3.017,15.264-1.883,20.816.021V58.705c-1.7-.755-11.3-4.608-20.816-.008Z" transform="translate(-9621.539 -5871.728)" fill="#fff"/>
    <path id="Trazado_708728" data-name="Trazado 708728" d="M191.572,73.846a.476.476,0,0,1,.451-.325h1.858a.476.476,0,0,1,.452.325l3.283,9.785a.479.479,0,0,1-.451.628H194.9a.476.476,0,0,1-.445-.305l-.531-1.379h-1.938l-.531,1.38a.476.476,0,0,1-.444.305H188.74a.479.479,0,0,1-.452-.628Zm-.891,9.461.531-1.38a.476.476,0,0,1,.444-.305h2.592a.476.476,0,0,1,.444.305l.531,1.38H196.5l-2.964-8.833h-1.173L189.4,83.306Z" transform="translate(-9792.507 -5915.503)" fill="#fff"/>
    <path id="Trazado_708729" data-name="Trazado 708729" d="M214.486,98.5a.476.476,0,0,1,.451.325l.893,2.663a.479.479,0,0,1-.451.628h-1.787a.479.479,0,0,1-.451-.628l.893-2.663A.476.476,0,0,1,214.486,98.5Zm.231,2.663-.231-.69-.231.69Z" transform="translate(-9814.104 -5937.083)" fill="#fff"/>
    <path id="Trazado_708730" data-name="Trazado 708730" d="M262.363,163.759a.476.476,0,0,1,.043.4l-.5,1.481a.475.475,0,0,1-.5.322,9.477,9.477,0,0,1-3.739-1.113,9.474,9.474,0,0,1-3.739,1.113.476.476,0,0,1-.5-.322l-.5-1.481a.447.447,0,0,1,.373-.622,9.21,9.21,0,0,0,1.992-.64c-2.411-2.643-1.891-6.778-1.866-6.963a.476.476,0,0,1,.472-.413h2.29v-1.085a.476.476,0,0,1,.476-.476h2a.476.476,0,0,1,.476.476v1.085h2.217a.476.476,0,0,1,.476.476v1.777a.476.476,0,0,1-.476.476H256.28a5.019,5.019,0,0,0,1.391,3.016,4.868,4.868,0,0,0,1.171-1.943.479.479,0,0,1,.67-.281l1.6.815a.476.476,0,0,1,.231.587,8.588,8.588,0,0,1-1.356,2.427,9.25,9.25,0,0,0,2.046.665A.476.476,0,0,1,262.363,163.759ZM259,163.444a.479.479,0,0,1-.123-.743,7.575,7.575,0,0,0,1.416-2.193l-.736-.376a6.205,6.205,0,0,1-1.565,2.151.476.476,0,0,1-.644,0,6.106,6.106,0,0,1-2.052-4.5.479.479,0,0,1,.476-.488h5.114v-.825H258.67a.476.476,0,0,1-.476-.476V154.91h-1.045v1.085a.476.476,0,0,1-.476.476h-2.329c-.065,1.138-.04,4.354,2.083,6.194a.479.479,0,0,1-.086.779,10.556,10.556,0,0,1-2.334.911l.207.614a8.206,8.206,0,0,0,3.209-1.08.476.476,0,0,1,.495,0,8.206,8.206,0,0,0,3.21,1.08l.207-.614a10.553,10.553,0,0,1-2.335-.911Z" transform="translate(-9866.094 -5984.997)" fill="#fff"/>
    <path id="Trazado_708731" data-name="Trazado 708731" d="M197.534,181.674a.476.476,0,0,1,.273-.615l1.666-.641a.495.495,0,0,1,.7.24l.675,1.755a.476.476,0,1,1-.889.342l-.263-.684a6.988,6.988,0,0,1-2.7,2.8.476.476,0,1,1-.474-.826,6.039,6.039,0,0,0,2.3-2.356l-.676.26A.476.476,0,0,1,197.534,181.674Z" transform="translate(-9796.842 -6007.799)" fill="#fff"/>
    <path id="Trazado_708732" data-name="Trazado 708732" d="M275.675,107.99a.476.476,0,0,1-.274.615l-1.664.639a.492.492,0,0,1-.706-.239l-.675-1.755a.476.476,0,1,1,.889-.342l.263.684a6.989,6.989,0,0,1,2.7-2.8.476.476,0,1,1,.474.826,6.039,6.039,0,0,0-2.3,2.357l.677-.26a.476.476,0,0,1,.615.275Z" transform="translate(-9883.229 -5942.466)" fill="#fff"/>
    <path id="Trazado_716102" data-name="Trazado 716102" d="M0,83.477H84.368A95.039,95.039,0,0,0,0,0Z" transform="translate(-9119 -5787.521) rotate(180)" fill="#bfe5f9"/>
    <path id="Trazado_716103" data-name="Trazado 716103" d="M55,0A55,55,0,1,1,0,55,55,55,0,0,1,55,0Z" transform="translate(-9164.369 -5937.89)" fill="#bfe5f9"/>
    <path id="Trazado_716110" data-name="Trazado 716110" d="M0,0H505V138H0Z" transform="translate(-9625 -6190)" fill="#4db1f0"/>
    <path id="Trazado_716111" data-name="Trazado 716111" d="M0,0A55.062,55.062,0,0,0,43.9,43.094V0Z" transform="translate(-9163.9 -6190)" fill="#4db1f0"/>
    <path id="Trazado_716112" data-name="Trazado 716112" d="M11.268,17.383a4.577,4.577,0,0,1-2.013,1.323,8.429,8.429,0,0,1-2.883.47,5.711,5.711,0,0,1-2.914-.725,4.836,4.836,0,0,1-1.934-2.1,7.408,7.408,0,0,1-.7-3.243v-.87a7.868,7.868,0,0,1,.646-3.318A4.779,4.779,0,0,1,3.335,6.77a5.367,5.367,0,0,1,2.852-.743,5.345,5.345,0,0,1,3.56,1.085,4.639,4.639,0,0,1,1.521,3.16H8.7a2.552,2.552,0,0,0-.778-1.608,2.484,2.484,0,0,0-1.657-.51A2.338,2.338,0,0,0,4.219,9.165a5.315,5.315,0,0,0-.712,3.006v.817a5.06,5.06,0,0,0,.765,3.041,2.618,2.618,0,0,0,2.241,1.028,2.925,2.925,0,0,0,2.118-.633V14.219h-2.4V12.276h5.036ZM15.917,19H13.368V5.5h2.549Zm1.7-4.843a5.64,5.64,0,0,1,.545-2.522,3.989,3.989,0,0,1,1.569-1.714A4.577,4.577,0,0,1,22.1,9.314a4.33,4.33,0,0,1,3.142,1.178,4.727,4.727,0,0,1,1.358,3.2l.018.65A4.97,4.97,0,0,1,25.4,17.853a4.247,4.247,0,0,1-3.278,1.323,4.268,4.268,0,0,1-3.283-1.318,5.058,5.058,0,0,1-1.226-3.586Zm2.54.18a3.555,3.555,0,0,0,.51,2.073,1.831,1.831,0,0,0,2.9.009,3.89,3.89,0,0,0,.519-2.267,3.519,3.519,0,0,0-.519-2.06,1.686,1.686,0,0,0-1.459-.731,1.658,1.658,0,0,0-1.441.726A3.955,3.955,0,0,0,20.153,14.338Zm13.184,2.035a.818.818,0,0,0-.461-.734,5.241,5.241,0,0,0-1.481-.479Q28,14.447,28,12.276a2.613,2.613,0,0,1,1.05-2.114A4.237,4.237,0,0,1,31.8,9.314a4.56,4.56,0,0,1,2.9.853,2.687,2.687,0,0,1,1.085,2.215H33.24a1.229,1.229,0,0,0-.352-.9,1.488,1.488,0,0,0-1.1-.356,1.52,1.52,0,0,0-.993.29.916.916,0,0,0-.352.738.783.783,0,0,0,.4.681,4.114,4.114,0,0,0,1.349.448,11.019,11.019,0,0,1,1.6.426,2.628,2.628,0,0,1,2.013,2.558,2.481,2.481,0,0,1-1.116,2.1,4.815,4.815,0,0,1-2.883.8,5.029,5.029,0,0,1-2.123-.426,3.561,3.561,0,0,1-1.455-1.169,2.716,2.716,0,0,1-.527-1.6h2.408a1.326,1.326,0,0,0,.5,1.037,1.987,1.987,0,0,0,1.248.36,1.839,1.839,0,0,0,1.1-.277A.861.861,0,0,0,33.337,16.372ZM42.952,19a2.821,2.821,0,0,1-.255-.853,3.073,3.073,0,0,1-2.4,1.028,3.376,3.376,0,0,1-2.316-.809,2.6,2.6,0,0,1-.918-2.039,2.687,2.687,0,0,1,1.121-2.32,5.529,5.529,0,0,1,3.239-.817h1.169v-.545a1.567,1.567,0,0,0-.338-1.055,1.331,1.331,0,0,0-1.068-.4,1.513,1.513,0,0,0-1.006.308,1.045,1.045,0,0,0-.365.844h-2.54a2.551,2.551,0,0,1,.51-1.529,3.37,3.37,0,0,1,1.441-1.1,5.253,5.253,0,0,1,2.092-.4,4.15,4.15,0,0,1,2.791.883,3.09,3.09,0,0,1,1.033,2.483V16.8a4.546,4.546,0,0,0,.378,2.048V19Zm-2.1-1.767a2.188,2.188,0,0,0,1.037-.25,1.645,1.645,0,0,0,.7-.672V14.676h-.949q-1.907,0-2.03,1.318l-.009.149a1.017,1.017,0,0,0,.334.782A1.3,1.3,0,0,0,40.852,17.233Zm11.584-5.361a6.9,6.9,0,0,0-.914-.07,1.86,1.86,0,0,0-1.89.976V19h-2.54V9.49h2.4l.07,1.134a2.354,2.354,0,0,1,2.118-1.31,2.662,2.662,0,0,1,.791.114ZM56.338,19H53.789V9.49h2.549ZM53.64,7.029a1.251,1.251,0,0,1,.382-.94,1.648,1.648,0,0,1,2.079,0,1.244,1.244,0,0,1,.387.94,1.247,1.247,0,0,1-.391.949,1.629,1.629,0,0,1-2.065,0A1.247,1.247,0,0,1,53.64,7.029Zm4.395,7.128a5.64,5.64,0,0,1,.545-2.522,3.989,3.989,0,0,1,1.569-1.714,4.577,4.577,0,0,1,2.377-.606,4.33,4.33,0,0,1,3.142,1.178,4.727,4.727,0,0,1,1.358,3.2l.018.65a4.97,4.97,0,0,1-1.222,3.511,4.735,4.735,0,0,1-6.561,0,5.058,5.058,0,0,1-1.226-3.586Zm2.54.18a3.555,3.555,0,0,0,.51,2.073,1.831,1.831,0,0,0,2.9.009,3.89,3.89,0,0,0,.519-2.267,3.519,3.519,0,0,0-.519-2.06,1.686,1.686,0,0,0-1.459-.731,1.658,1.658,0,0,0-1.441.726A3.955,3.955,0,0,0,60.574,14.338Zm13.184,2.035a.818.818,0,0,0-.461-.734,5.241,5.241,0,0,0-1.481-.479q-3.393-.712-3.393-2.883a2.613,2.613,0,0,1,1.05-2.114,4.237,4.237,0,0,1,2.747-.848,4.56,4.56,0,0,1,2.9.853A2.687,2.687,0,0,1,76.2,12.382h-2.54a1.229,1.229,0,0,0-.352-.9,1.488,1.488,0,0,0-1.1-.356,1.52,1.52,0,0,0-.993.29.916.916,0,0,0-.352.738.783.783,0,0,0,.4.681,4.114,4.114,0,0,0,1.349.448,11.019,11.019,0,0,1,1.6.426,2.628,2.628,0,0,1,2.013,2.558,2.481,2.481,0,0,1-1.116,2.1,4.815,4.815,0,0,1-2.883.8,5.029,5.029,0,0,1-2.123-.426,3.561,3.561,0,0,1-1.455-1.169,2.716,2.716,0,0,1-.527-1.6h2.408a1.326,1.326,0,0,0,.5,1.037,1.987,1.987,0,0,0,1.248.36,1.839,1.839,0,0,0,1.1-.277A.861.861,0,0,0,73.758,16.372Zm8.191-2.2a5.731,5.731,0,0,1,1-3.542,3.237,3.237,0,0,1,2.729-1.318,2.913,2.913,0,0,1,2.294,1.037V5.5h2.549V19H88.225L88.1,17.989a2.989,2.989,0,0,1-2.443,1.187,3.228,3.228,0,0,1-2.694-1.323A5.916,5.916,0,0,1,81.949,14.175Zm2.54.189a3.754,3.754,0,0,0,.466,2.051,1.517,1.517,0,0,0,1.354.713,1.7,1.7,0,0,0,1.661-.995V12.375a1.675,1.675,0,0,0-1.644-.995Q84.489,11.38,84.489,14.364Zm12.375,4.812a4.668,4.668,0,0,1-3.406-1.283,4.561,4.561,0,0,1-1.314-3.419v-.246a5.745,5.745,0,0,1,.554-2.562,4.064,4.064,0,0,1,1.569-1.74,4.4,4.4,0,0,1,2.316-.611,3.947,3.947,0,0,1,3.072,1.23,5,5,0,0,1,1.121,3.489v1.037H94.72a2.36,2.36,0,0,0,.743,1.494,2.245,2.245,0,0,0,1.569.563,2.742,2.742,0,0,0,2.294-1.063l1.248,1.4a3.813,3.813,0,0,1-1.547,1.261A5.075,5.075,0,0,1,96.864,19.176Zm-.29-7.813a1.587,1.587,0,0,0-1.226.512,2.651,2.651,0,0,0-.6,1.466h3.533v-.2a1.891,1.891,0,0,0-.457-1.311A1.638,1.638,0,0,0,96.574,11.362Zm13.166-4.21V9.49h1.626v1.863H109.74V16.1a1.133,1.133,0,0,0,.2.756,1.015,1.015,0,0,0,.773.229,4.051,4.051,0,0,0,.747-.062v1.925a5.229,5.229,0,0,1-1.538.229,2.425,2.425,0,0,1-2.725-2.7V11.354h-1.389V9.49H107.2V7.152Zm8.385,4.72a6.9,6.9,0,0,0-.914-.07,1.86,1.86,0,0,0-1.89.976V19h-2.54V9.49h2.4l.07,1.134a2.354,2.354,0,0,1,2.118-1.31,2.662,2.662,0,0,1,.791.114ZM124.594,19a2.821,2.821,0,0,1-.255-.853,3.073,3.073,0,0,1-2.4,1.028,3.376,3.376,0,0,1-2.316-.809,2.6,2.6,0,0,1-.918-2.039,2.687,2.687,0,0,1,1.121-2.32,5.529,5.529,0,0,1,3.239-.817h1.169v-.545a1.567,1.567,0,0,0-.338-1.055,1.331,1.331,0,0,0-1.068-.4,1.513,1.513,0,0,0-1.006.308,1.045,1.045,0,0,0-.365.844h-2.54a2.551,2.551,0,0,1,.51-1.529,3.37,3.37,0,0,1,1.441-1.1,5.253,5.253,0,0,1,2.092-.4,4.15,4.15,0,0,1,2.791.883,3.09,3.09,0,0,1,1.033,2.483V16.8a4.546,4.546,0,0,0,.378,2.048V19Zm-2.1-1.767a2.188,2.188,0,0,0,1.037-.25,1.645,1.645,0,0,0,.7-.672V14.676h-.949q-1.907,0-2.03,1.318l-.009.149a1.017,1.017,0,0,0,.334.782A1.3,1.3,0,0,0,122.493,17.233Zm5.845-3.059a5.731,5.731,0,0,1,1-3.542,3.237,3.237,0,0,1,2.729-1.318,2.913,2.913,0,0,1,2.294,1.037V5.5h2.549V19h-2.294l-.123-1.011a2.989,2.989,0,0,1-2.443,1.187,3.228,3.228,0,0,1-2.694-1.323A5.916,5.916,0,0,1,128.338,14.175Zm2.54.189a3.754,3.754,0,0,0,.466,2.051,1.517,1.517,0,0,0,1.354.713,1.7,1.7,0,0,0,1.661-.995V12.375a1.675,1.675,0,0,0-1.644-.995Q130.878,11.38,130.878,14.364Zm13.693,3.669a3.185,3.185,0,0,1-2.6,1.143,3,3,0,0,1-2.333-.879,3.752,3.752,0,0,1-.822-2.575V9.49h2.54v6.151q0,1.487,1.354,1.487a1.834,1.834,0,0,0,1.775-.9V9.49h2.549V19h-2.391Zm8.332-.905a1.666,1.666,0,0,0,1.143-.387,1.355,1.355,0,0,0,.457-1.028h2.382a3.258,3.258,0,0,1-.527,1.771,3.48,3.48,0,0,1-1.419,1.248,4.442,4.442,0,0,1-1.991.444,4.129,4.129,0,0,1-3.217-1.3,5.13,5.13,0,0,1-1.178-3.582v-.167a5.071,5.071,0,0,1,1.169-3.507,4.08,4.08,0,0,1,3.208-1.31,4,4,0,0,1,2.861,1.015,3.594,3.594,0,0,1,1.094,2.7H154.5a1.745,1.745,0,0,0-.457-1.206,1.7,1.7,0,0,0-2.5.183,3.749,3.749,0,0,0-.453,2.1v.264a3.8,3.8,0,0,0,.448,2.113A1.549,1.549,0,0,0,152.9,17.128Zm9.387,0a1.666,1.666,0,0,0,1.143-.387,1.355,1.355,0,0,0,.457-1.028h2.382a3.258,3.258,0,0,1-.527,1.771,3.48,3.48,0,0,1-1.419,1.248,4.442,4.442,0,0,1-1.991.444,4.129,4.129,0,0,1-3.217-1.3,5.13,5.13,0,0,1-1.178-3.582v-.167a5.071,5.071,0,0,1,1.169-3.507,4.08,4.08,0,0,1,3.208-1.31,4,4,0,0,1,2.861,1.015,3.594,3.594,0,0,1,1.094,2.7H163.89a1.745,1.745,0,0,0-.457-1.206,1.7,1.7,0,0,0-2.5.183,3.749,3.749,0,0,0-.453,2.1v.264a3.8,3.8,0,0,0,.448,2.113A1.549,1.549,0,0,0,162.29,17.128ZM170.4,19h-2.549V9.49H170.4ZM167.7,7.029a1.251,1.251,0,0,1,.382-.94,1.648,1.648,0,0,1,2.079,0,1.244,1.244,0,0,1,.387.94,1.247,1.247,0,0,1-.391.949,1.629,1.629,0,0,1-2.065,0A1.247,1.247,0,0,1,167.7,7.029Zm4.395,7.128a5.64,5.64,0,0,1,.545-2.522,3.989,3.989,0,0,1,1.569-1.714,4.577,4.577,0,0,1,2.377-.606,4.33,4.33,0,0,1,3.142,1.178,4.727,4.727,0,0,1,1.358,3.2l.018.65a4.97,4.97,0,0,1-1.222,3.511,4.735,4.735,0,0,1-6.561,0,5.058,5.058,0,0,1-1.226-3.586Zm2.54.18a3.555,3.555,0,0,0,.51,2.073,1.831,1.831,0,0,0,2.9.009,3.89,3.89,0,0,0,.519-2.267,3.519,3.519,0,0,0-.519-2.06,1.686,1.686,0,0,0-1.459-.731,1.658,1.658,0,0,0-1.441.726A3.955,3.955,0,0,0,174.639,14.338ZM177.091,5.5h2.769l-2.435,2.725h-2.065Zm7.919,3.99.079,1.1a3.32,3.32,0,0,1,2.733-1.274,2.759,2.759,0,0,1,2.25.888,4.142,4.142,0,0,1,.756,2.654V19h-2.54V12.918a1.648,1.648,0,0,0-.352-1.173,1.574,1.574,0,0,0-1.169-.365,1.747,1.747,0,0,0-1.608.914V19h-2.54V9.49Zm7.875,8.262a1.279,1.279,0,0,1,.409-.984,1.588,1.588,0,0,1,2.057,0,1.279,1.279,0,0,1,.409.984,1.261,1.261,0,0,1-.4.971,1.614,1.614,0,0,1-2.065,0A1.261,1.261,0,0,1,192.885,17.752Z" transform="translate(-9518.478 -6127.686)" fill="#12263f"/>
    <g transform="matrix(1, 0, 0, 1, -9634, -6491)" filter="url(#Trazado_716113)">
      <path id="Trazado_716113-2" data-name="Trazado 716113" d="M13.171-7.349a9,9,0,0,1-1.526,5.64A5.326,5.326,0,0,1,7.178.244,5.363,5.363,0,0,1,2.734-1.672,8.74,8.74,0,0,1,1.16-7.166v-3.271A8.886,8.886,0,0,1,2.7-16.089a5.366,5.366,0,0,1,4.449-1.929,5.371,5.371,0,0,1,4.443,1.91,8.713,8.713,0,0,1,1.575,5.487Zm-3.528-3.6a6.508,6.508,0,0,0-.6-3.22,2.042,2.042,0,0,0-1.886-1.008,2.006,2.006,0,0,0-1.837.959,6.091,6.091,0,0,0-.629,3v4.325A6.832,6.832,0,0,0,5.28-3.657,2.015,2.015,0,0,0,7.178-2.6,1.981,1.981,0,0,0,9.045-3.614a6.669,6.669,0,0,0,.6-3.1ZM27.734,0H15.552V-2.417L21.3-8.545A14.184,14.184,0,0,0,23.053-10.8a3.628,3.628,0,0,0,.568-1.831,2.715,2.715,0,0,0-.6-1.862,2.159,2.159,0,0,0-1.709-.677,2.329,2.329,0,0,0-1.886.824,3.264,3.264,0,0,0-.69,2.167H15.2a5.827,5.827,0,0,1,.775-2.966,5.463,5.463,0,0,1,2.191-2.106,6.66,6.66,0,0,1,3.21-.763A6.306,6.306,0,0,1,25.641-16.7a4.664,4.664,0,0,1,1.52,3.723,5.976,5.976,0,0,1-.684,2.686A14.924,14.924,0,0,1,24.133-7.1l-4.041,4.26h7.642Z" transform="translate(464 420.59)" fill="#12263f"/>
    </g>
    <path id="Trazado_716114" data-name="Trazado 716114" d="M6,0l6,9H0Z" transform="translate(-9564 -6199)" fill="#112e4c"/>
    <g transform="matrix(1, 0, 0, 1, -9634, -6491)" filter="url(#Trazado_716115)">
      <path id="Trazado_716115-2" data-name="Trazado 716115" d="M0,0H67V92H0Z" transform="translate(9 292)" fill="#1f4168"/>
    </g>
    <g id="g2564" transform="translate(-9615.4 -6172)">
      <g id="g2566" transform="translate(0 0)" clip-path="url(#clip-path)">
        <g id="g2572" transform="translate(4.384 0.953)">
          <path id="path2574" d="M-501.4-609.108a4.289,4.289,0,0,1-4.289-4.289,4.289,4.289,0,0,1,4.289-4.289h1.43V-656h-35.74A4.289,4.289,0,0,0-540-651.71V-613.4" transform="translate(539.999 655.998)" fill="none" stroke="#fff" stroke-linecap="round" stroke-linejoin="round" stroke-miterlimit="10" stroke-width="2"/>
        </g>
        <g id="g2576" transform="translate(10.102 35.835)">
          <path id="path2578" d="M0-44.569V-48" transform="translate(0 48)" fill="none" stroke="#fff" stroke-linecap="round" stroke-linejoin="round" stroke-miterlimit="10" stroke-width="2"/>
        </g>
        <g id="g2580" transform="translate(10.102 0.953)">
          <path id="path2582" d="M0-44.569V-48" transform="translate(0 48)" fill="none" stroke="#fff" stroke-linecap="round" stroke-linejoin="round" stroke-miterlimit="10" stroke-width="2"/>
        </g>
        <g id="g2584" transform="translate(10.102 10.102)">
          <path id="path2586" d="M0,0V2.859" fill="none" stroke="#fff" stroke-linecap="round" stroke-linejoin="round" stroke-miterlimit="10" stroke-width="2"/>
        </g>
        <g id="g2588" transform="translate(10.102 18.68)">
          <path id="path2590" d="M0,0V2.859" fill="none" stroke="#fff" stroke-linecap="round" stroke-linejoin="round" stroke-miterlimit="10" stroke-width="2"/>
        </g>
        <g id="g2592" transform="translate(10.102 27.257)">
          <path id="path2594" d="M0,0V2.859" fill="none" stroke="#fff" stroke-linecap="round" stroke-linejoin="round" stroke-miterlimit="10" stroke-width="2"/>
        </g>
        <g id="g2596" transform="translate(27.257 18.68)">
          <path id="path2598" d="M0-148.563l1.43-2.859L5.718-160l4.289,8.577,1.43,2.859" transform="translate(0 160)" fill="none" stroke="#fff" stroke-linecap="round" stroke-linejoin="round" stroke-miterlimit="10" stroke-width="2"/>
        </g>
        <g id="g2600" transform="translate(28.687 27.257)">
          <path id="path2602" d="M0,0H8.577" fill="none" stroke="#fff" stroke-linecap="round" stroke-linejoin="round" stroke-miterlimit="10" stroke-width="2"/>
        </g>
        <g id="g2604" transform="translate(15.821 12.962)">
          <path id="path2606" d="M0,0H11.437" fill="none" stroke="#fff" stroke-linecap="round" stroke-linejoin="round" stroke-miterlimit="10" stroke-width="2"/>
        </g>
        <g id="g2608" transform="translate(21.539 10.102)">
          <path id="path2610" d="M0,0V2.859" fill="none" stroke="#fff" stroke-linecap="round" stroke-linejoin="round" stroke-miterlimit="10" stroke-width="2"/>
        </g>
        <g id="g2612" transform="translate(18.68 12.962)">
          <path id="path2614" d="M0,0A9.3,9.3,0,0,0,2.859,6.029,9.3,9.3,0,0,0,8.577,8.577" fill="none" stroke="#fff" stroke-linecap="round" stroke-linejoin="round" stroke-miterlimit="10" stroke-width="2"/>
        </g>
        <g id="g2616" transform="translate(15.821 12.962)">
          <path id="path2618" d="M-111.422,0a9.3,9.3,0,0,1-2.859,6.029A9.3,9.3,0,0,1-120,8.577" transform="translate(120)" fill="none" stroke="#fff" stroke-linecap="round" stroke-linejoin="round" stroke-miterlimit="10" stroke-width="2"/>
        </g>
        <g id="g2620" transform="translate(23.445 46.89)">
          <path id="path2622" d="M-24.76-12.38a.953.953,0,0,1-.953.953.953.953,0,0,1-.953-.953.953.953,0,0,1,.953-.953.953.953,0,0,1,.953.953" transform="translate(26.667 13.333)" fill="#fff"/>
        </g>
        <g id="g2624" transform="translate(28.687 39.266)">
          <path id="path2626" d="M-204.274,0V8.577H-220" transform="translate(219.999)" fill="none" stroke="#fff" stroke-linecap="round" stroke-linejoin="round" stroke-miterlimit="10" stroke-width="2"/>
        </g>
        <g id="g2628" transform="translate(4.384 39.266)">
          <path id="path2630" d="M-204.274-111.422h-11.437A4.289,4.289,0,0,1-220-115.711,4.289,4.289,0,0,1-215.711-120h34.31" transform="translate(219.999 120)" fill="none" stroke="#fff" stroke-linecap="round" stroke-linejoin="round" stroke-miterlimit="10" stroke-width="2"/>
        </g>
      </g>
    </g>
    <path id="Trazado_716116" data-name="Trazado 716116" d="M0,83.478H84.368A95.039,95.039,0,0,0,0,0Z" transform="translate(-9120 -6106.521) rotate(180)" fill="#1f4168"/>
    <path id="Trazado_716117" data-name="Trazado 716117" d="M55,0A55,55,0,1,1,0,55,55,55,0,0,1,55,0Z" transform="translate(-9165.369 -6256.891)" fill="#1f4168"/>
    <path id="Trazado_716104" data-name="Trazado 716104" d="M6,0l6,9H0Z" transform="translate(-9564 -6038.999)" fill="#112e4c"/>
    <path id="Trazado_716105" data-name="Trazado 716105" d="M505,139H0V43.093A55.376,55.376,0,0,0,43.9,0H505V139Z" transform="translate(-9120 -5891) rotate(180)" fill="#2c4d72"/>
    <path id="Trazado_716106" data-name="Trazado 716106" d="M8.842,13.771H3.779V19H1.143V6.2H9.475V8.339h-5.7v3.3H8.842Zm1.415.387a5.64,5.64,0,0,1,.545-2.522,3.989,3.989,0,0,1,1.569-1.714,4.577,4.577,0,0,1,2.377-.606,4.33,4.33,0,0,1,3.142,1.178,4.727,4.727,0,0,1,1.358,3.2l.018.65a4.97,4.97,0,0,1-1.222,3.511,4.247,4.247,0,0,1-3.278,1.323,4.268,4.268,0,0,1-3.283-1.318,5.058,5.058,0,0,1-1.226-3.586Zm2.54.18a3.555,3.555,0,0,0,.51,2.073,1.831,1.831,0,0,0,2.9.009,3.89,3.89,0,0,0,.519-2.267,3.519,3.519,0,0,0-.519-2.06,1.686,1.686,0,0,0-1.459-.731,1.658,1.658,0,0,0-1.441.726A3.955,3.955,0,0,0,12.8,14.338Zm13.377-2.465a6.9,6.9,0,0,0-.914-.07,1.86,1.86,0,0,0-1.89.976V19H20.83V9.49h2.4l.07,1.134a2.354,2.354,0,0,1,2.118-1.31,2.662,2.662,0,0,1,.791.114Zm.51,2.285a5.64,5.64,0,0,1,.545-2.522A3.989,3.989,0,0,1,28.8,9.921a4.577,4.577,0,0,1,2.377-.606,4.33,4.33,0,0,1,3.142,1.178,4.727,4.727,0,0,1,1.358,3.2l.018.65a4.97,4.97,0,0,1-1.222,3.511,4.247,4.247,0,0,1-3.278,1.323,4.268,4.268,0,0,1-3.283-1.318,5.058,5.058,0,0,1-1.226-3.586Zm2.54.18a3.555,3.555,0,0,0,.51,2.073,1.831,1.831,0,0,0,2.9.009,3.89,3.89,0,0,0,.519-2.267,3.519,3.519,0,0,0-.519-2.06,1.686,1.686,0,0,0-1.459-.731,1.658,1.658,0,0,0-1.441.726A3.955,3.955,0,0,0,29.224,14.338Zm13.184,2.035a.818.818,0,0,0-.461-.734,5.241,5.241,0,0,0-1.481-.479q-3.393-.712-3.393-2.883a2.613,2.613,0,0,1,1.05-2.114,4.237,4.237,0,0,1,2.747-.848,4.56,4.56,0,0,1,2.9.853,2.687,2.687,0,0,1,1.085,2.215h-2.54a1.229,1.229,0,0,0-.352-.9,1.488,1.488,0,0,0-1.1-.356,1.52,1.52,0,0,0-.993.29.916.916,0,0,0-.352.738.783.783,0,0,0,.4.681,4.114,4.114,0,0,0,1.349.448,11.019,11.019,0,0,1,1.6.426,2.628,2.628,0,0,1,2.013,2.558,2.481,2.481,0,0,1-1.116,2.1,4.815,4.815,0,0,1-2.883.8,5.029,5.029,0,0,1-2.123-.426A3.561,3.561,0,0,1,37.3,17.581a2.716,2.716,0,0,1-.527-1.6h2.408a1.326,1.326,0,0,0,.5,1.037,1.987,1.987,0,0,0,1.248.36,1.839,1.839,0,0,0,1.1-.277A.861.861,0,0,0,42.407,16.372Zm8.191-2.2a5.731,5.731,0,0,1,1-3.542,3.237,3.237,0,0,1,2.729-1.318,2.913,2.913,0,0,1,2.294,1.037V5.5h2.549V19H56.874l-.123-1.011a2.989,2.989,0,0,1-2.443,1.187,3.228,3.228,0,0,1-2.694-1.323A5.916,5.916,0,0,1,50.6,14.175Zm2.54.189a3.754,3.754,0,0,0,.466,2.051,1.517,1.517,0,0,0,1.354.713,1.7,1.7,0,0,0,1.661-.995V12.375a1.675,1.675,0,0,0-1.644-.995Q53.139,11.38,53.139,14.364Zm12.375,4.812a4.668,4.668,0,0,1-3.406-1.283,4.561,4.561,0,0,1-1.314-3.419v-.246a5.745,5.745,0,0,1,.554-2.562,4.064,4.064,0,0,1,1.569-1.74,4.4,4.4,0,0,1,2.316-.611,3.947,3.947,0,0,1,3.072,1.23,5,5,0,0,1,1.121,3.489v1.037H63.369a2.36,2.36,0,0,0,.743,1.494,2.245,2.245,0,0,0,1.569.563,2.742,2.742,0,0,0,2.294-1.063l1.248,1.4a3.813,3.813,0,0,1-1.547,1.261A5.075,5.075,0,0,1,65.514,19.176Zm-.29-7.813A1.587,1.587,0,0,0,64,11.874a2.651,2.651,0,0,0-.6,1.466h3.533v-.2a1.891,1.891,0,0,0-.457-1.311A1.638,1.638,0,0,0,65.224,11.362ZM78.39,7.152V9.49h1.626v1.863H78.39V16.1a1.133,1.133,0,0,0,.2.756,1.015,1.015,0,0,0,.773.229,4.051,4.051,0,0,0,.747-.062v1.925a5.229,5.229,0,0,1-1.538.229,2.425,2.425,0,0,1-2.725-2.7V11.354H74.461V9.49H75.85V7.152Zm8.385,4.72a6.9,6.9,0,0,0-.914-.07,1.86,1.86,0,0,0-1.89.976V19h-2.54V9.49h2.4l.07,1.134a2.354,2.354,0,0,1,2.118-1.31,2.662,2.662,0,0,1,.791.114ZM93.243,19a2.821,2.821,0,0,1-.255-.853,3.073,3.073,0,0,1-2.4,1.028,3.376,3.376,0,0,1-2.316-.809,2.6,2.6,0,0,1-.918-2.039,2.687,2.687,0,0,1,1.121-2.32,5.529,5.529,0,0,1,3.239-.817h1.169v-.545a1.567,1.567,0,0,0-.338-1.055,1.331,1.331,0,0,0-1.068-.4,1.513,1.513,0,0,0-1.006.308,1.045,1.045,0,0,0-.365.844h-2.54a2.551,2.551,0,0,1,.51-1.529,3.37,3.37,0,0,1,1.441-1.1,5.253,5.253,0,0,1,2.092-.4A4.15,4.15,0,0,1,94.4,10.2a3.09,3.09,0,0,1,1.033,2.483V16.8a4.546,4.546,0,0,0,.378,2.048V19Zm-2.1-1.767a2.188,2.188,0,0,0,1.037-.25,1.645,1.645,0,0,0,.7-.672V14.676h-.949q-1.907,0-2.03,1.318l-.009.149a1.017,1.017,0,0,0,.334.782A1.3,1.3,0,0,0,91.143,17.233Zm5.845-3.059a5.731,5.731,0,0,1,1-3.542,3.237,3.237,0,0,1,2.729-1.318,2.913,2.913,0,0,1,2.294,1.037V5.5h2.549V19h-2.294l-.123-1.011a2.989,2.989,0,0,1-2.443,1.187A3.228,3.228,0,0,1,98,17.853,5.916,5.916,0,0,1,96.987,14.175Zm2.54.189a3.754,3.754,0,0,0,.466,2.051,1.517,1.517,0,0,0,1.354.713,1.7,1.7,0,0,0,1.661-.995V12.375a1.675,1.675,0,0,0-1.644-.995Q99.527,11.38,99.527,14.364Zm13.693,3.669a3.185,3.185,0,0,1-2.6,1.143,3,3,0,0,1-2.333-.879,3.752,3.752,0,0,1-.822-2.575V9.49H110v6.151q0,1.487,1.354,1.487a1.834,1.834,0,0,0,1.775-.9V9.49h2.549V19h-2.391Zm8.332-.905a1.666,1.666,0,0,0,1.143-.387,1.355,1.355,0,0,0,.457-1.028h2.382a3.258,3.258,0,0,1-.527,1.771,3.48,3.48,0,0,1-1.419,1.248,4.442,4.442,0,0,1-1.991.444,4.129,4.129,0,0,1-3.217-1.3A5.13,5.13,0,0,1,117.2,14.3v-.167a5.071,5.071,0,0,1,1.169-3.507,4.08,4.08,0,0,1,3.208-1.31,4,4,0,0,1,2.861,1.015,3.594,3.594,0,0,1,1.094,2.7h-2.382a1.745,1.745,0,0,0-.457-1.206,1.7,1.7,0,0,0-2.5.183,3.749,3.749,0,0,0-.453,2.1v.264a3.8,3.8,0,0,0,.448,2.113A1.549,1.549,0,0,0,121.553,17.128Zm9.387,0a1.666,1.666,0,0,0,1.143-.387,1.355,1.355,0,0,0,.457-1.028h2.382a3.258,3.258,0,0,1-.527,1.771,3.48,3.48,0,0,1-1.419,1.248,4.442,4.442,0,0,1-1.991.444,4.129,4.129,0,0,1-3.217-1.3,5.13,5.13,0,0,1-1.178-3.582v-.167a5.071,5.071,0,0,1,1.169-3.507,4.08,4.08,0,0,1,3.208-1.31,4,4,0,0,1,2.861,1.015,3.594,3.594,0,0,1,1.094,2.7h-2.382a1.745,1.745,0,0,0-.457-1.206,1.7,1.7,0,0,0-2.5.183,3.749,3.749,0,0,0-.453,2.1v.264a3.8,3.8,0,0,0,.448,2.113A1.549,1.549,0,0,0,130.939,17.128ZM139.052,19H136.5V9.49h2.549Zm-2.7-11.971a1.251,1.251,0,0,1,.382-.94,1.648,1.648,0,0,1,2.079,0,1.244,1.244,0,0,1,.387.94,1.247,1.247,0,0,1-.391.949,1.629,1.629,0,0,1-2.065,0A1.247,1.247,0,0,1,136.354,7.029Zm4.395,7.128a5.64,5.64,0,0,1,.545-2.522,3.989,3.989,0,0,1,1.569-1.714,4.577,4.577,0,0,1,2.377-.606,4.33,4.33,0,0,1,3.142,1.178,4.727,4.727,0,0,1,1.358,3.2l.018.65a4.97,4.97,0,0,1-1.222,3.511,4.735,4.735,0,0,1-6.561,0,5.058,5.058,0,0,1-1.226-3.586Zm2.54.18a3.555,3.555,0,0,0,.51,2.073,1.831,1.831,0,0,0,2.9.009,3.89,3.89,0,0,0,.519-2.267,3.519,3.519,0,0,0-.519-2.06,1.686,1.686,0,0,0-1.459-.731,1.658,1.658,0,0,0-1.441.726A3.955,3.955,0,0,0,143.288,14.338ZM145.74,5.5h2.769l-2.435,2.725h-2.065Zm7.919,3.99.079,1.1a3.32,3.32,0,0,1,2.733-1.274,2.759,2.759,0,0,1,2.25.888,4.142,4.142,0,0,1,.756,2.654V19h-2.54V12.918a1.648,1.648,0,0,0-.352-1.173,1.574,1.574,0,0,0-1.169-.365,1.747,1.747,0,0,0-1.608.914V19h-2.54V9.49Zm7.875,8.262a1.279,1.279,0,0,1,.409-.984,1.588,1.588,0,0,1,2.057,0,1.279,1.279,0,0,1,.409.984,1.261,1.261,0,0,1-.4.971,1.614,1.614,0,0,1-2.065,0A1.261,1.261,0,0,1,161.534,17.752Z" transform="translate(-9519.366 -5968.999)" fill="#fff"/>
    <g transform="matrix(1, 0, 0, 1, -9634, -6491)" filter="url(#Trazado_716107)">
      <path id="Trazado_716107-2" data-name="Trazado 716107" d="M13.171-7.349a9,9,0,0,1-1.526,5.64A5.326,5.326,0,0,1,7.178.244,5.363,5.363,0,0,1,2.734-1.672,8.74,8.74,0,0,1,1.16-7.166v-3.271A8.886,8.886,0,0,1,2.7-16.089a5.366,5.366,0,0,1,4.449-1.929,5.371,5.371,0,0,1,4.443,1.91,8.713,8.713,0,0,1,1.575,5.487Zm-3.528-3.6a6.508,6.508,0,0,0-.6-3.22,2.042,2.042,0,0,0-1.886-1.008,2.006,2.006,0,0,0-1.837.959,6.091,6.091,0,0,0-.629,3v4.325A6.832,6.832,0,0,0,5.28-3.657,2.015,2.015,0,0,0,7.178-2.6,1.981,1.981,0,0,0,9.045-3.614a6.669,6.669,0,0,0,.6-3.1Zm9.5.5h1.88a2.649,2.649,0,0,0,1.99-.671,2.46,2.46,0,0,0,.647-1.782,2.175,2.175,0,0,0-.641-1.672,2.484,2.484,0,0,0-1.764-.6,2.6,2.6,0,0,0-1.7.555,1.776,1.776,0,0,0-.684,1.447H15.344a4.339,4.339,0,0,1,.751-2.5,5,5,0,0,1,2.1-1.727,7.007,7.007,0,0,1,2.972-.623,6.646,6.646,0,0,1,4.419,1.349,4.6,4.6,0,0,1,1.6,3.717,3.74,3.74,0,0,1-.745,2.246,4.838,4.838,0,0,1-1.953,1.575,4.416,4.416,0,0,1,2.24,1.611,4.371,4.371,0,0,1,.739,2.539,4.679,4.679,0,0,1-1.727,3.8A6.945,6.945,0,0,1,21.167.244a6.585,6.585,0,0,1-4.352-1.4,4.585,4.585,0,0,1-1.691-3.711h3.528A2.044,2.044,0,0,0,19.4-3.235a2.766,2.766,0,0,0,1.849.635,2.779,2.779,0,0,0,1.971-.665,2.3,2.3,0,0,0,.714-1.764q0-2.661-2.93-2.661H19.141Z" transform="translate(467 501)" fill="#fff"/>
    </g>
    <g transform="matrix(1, 0, 0, 1, -9634, -6491)" filter="url(#Trazado_716108)">
      <path id="Trazado_716108-2" data-name="Trazado 716108" d="M0,0H67V92H0Z" transform="translate(9 452)" fill="#bfe5f9"/>
    </g>
    <g id="grupo-de-chat" transform="translate(-9617.891 -6012.89)">
      <path id="Trazado_708733" data-name="Trazado 708733" d="M208.01,223.74l.36-.124a4.7,4.7,0,0,1-.622-1.4,7.907,7.907,0,0,1-9.949-7.631v-4.622a7.913,7.913,0,0,1,5.824-7.618.831.831,0,1,1,.436,1.6,6.247,6.247,0,0,0-4.6,6.015v4.621a6.243,6.243,0,0,0,9.89,5.057.831.831,0,0,1,.975,1.347,7.954,7.954,0,0,1-1.013.623,3.05,3.05,0,0,0,.708,1.433l1.869-.643a4.041,4.041,0,0,0,1.446-.868.831.831,0,0,1,1.132,1.217,5.783,5.783,0,0,1-.58.472A5.836,5.836,0,0,0,222,225.047a.831.831,0,1,1,.9,1.4,7.49,7.49,0,0,1-10.492-2.458l-3.854,1.326a4.072,4.072,0,0,0-2.747,3.85v1.176a.831.831,0,1,1-1.662,0v-1.177A5.734,5.734,0,0,1,208.01,223.74Z" transform="translate(-193.96 -181.301)"/>
      <path id="Trazado_708734" data-name="Trazado 708734" d="M18.514,192.619a5.735,5.735,0,0,1-3.739-4.233A9.786,9.786,0,0,1,2.4,179.343,3.192,3.192,0,0,1,0,176.269v-8.111a.831.831,0,1,1,1.662,0v8.111a1.522,1.522,0,0,0,.727,1.274V173.1a5.174,5.174,0,0,1,5.159-5.179h9.206a5.165,5.165,0,0,1,5.17,5.165v5.865a9.816,9.816,0,0,1-5.567,8.844,4.067,4.067,0,0,0,2.7,3.257l1.949.67a3.044,3.044,0,0,0,.733-1.46,7.971,7.971,0,0,1-1.141-.718.831.831,0,0,1,1-1.327,6.232,6.232,0,0,0,9.991-4.981v-4.621a6.247,6.247,0,0,0-4.6-6.015.831.831,0,0,1,.435-1.6,7.913,7.913,0,0,1,5.826,7.619v4.622a7.916,7.916,0,0,1-4.37,7.066,3.036,3.036,0,0,0,1.98,2.26l3.061,1.053a4.7,4.7,0,0,1,3.169,4.442v.928a.831.831,0,1,1-1.662,0v-.928a3.036,3.036,0,0,0-2.048-2.87l-3.061-1.053a4.709,4.709,0,0,1-3.009-3.242,7.932,7.932,0,0,1-4.008-.024,4.7,4.7,0,0,1-.641,1.424l.275.095A5.735,5.735,0,0,1,26.8,197.8v1.177a.831.831,0,1,1-1.662,0V197.8a4.072,4.072,0,0,0-2.747-3.85l-3.881-1.335Zm1.748-13.672v-5.864a3.5,3.5,0,0,0-3.507-3.5H7.549a3.51,3.51,0,0,0-3.5,3.515c0,.32,0-1.527,0,5.869a8.105,8.105,0,1,0,16.21-.016Z" transform="translate(12.779 -149.943)"/>
      <path id="Trazado_708735" data-name="Trazado 708735" d="M136.9,99.564a3.277,3.277,0,0,1,2.712,3.216v8.761a.831.831,0,1,1-1.662,0v-8.756a1.612,1.612,0,0,0-1.613-1.607.831.831,0,0,1-.771-.522,6.339,6.339,0,0,0-5.915-3.994h-4.82a.831.831,0,0,1,0-1.662h4.82A7.992,7.992,0,0,1,136.9,99.564Z" transform="translate(-102.628 -85.13)"/>
      <path id="Trazado_708736" data-name="Trazado 708736" d="M412.6,410.846l3.061-1.053a.831.831,0,1,1,.541,1.572l-3.061,1.053a3.035,3.035,0,0,0-2.048,2.87v.928a.831.831,0,1,1-1.662,0v-.928A4.7,4.7,0,0,1,412.6,410.846Z" transform="translate(-409.429 -367.178)"/>
      <path id="Trazado_708737" data-name="Trazado 708737" d="M288.324,40h13.61a3.328,3.328,0,0,1,3.325,3.325v5.195a3.328,3.328,0,0,1-3.325,3.325h-9.1a3.706,3.706,0,0,0,.559,1.671.832.832,0,0,1-.754,1.27,4.253,4.253,0,0,1-3.892-2.941h-.418A3.328,3.328,0,0,1,285,48.519V43.325A3.328,3.328,0,0,1,288.324,40Zm-1.662,8.519a1.664,1.664,0,0,0,1.662,1.662h1.053a.831.831,0,0,1,.815.667,2.822,2.822,0,0,0,1.071,1.772,5.353,5.353,0,0,1-.072-1.7.831.831,0,0,1,.826-.735h9.917a1.664,1.664,0,0,0,1.662-1.662V43.325a1.664,1.664,0,0,0-1.662-1.662h-13.61a1.664,1.664,0,0,0-1.662,1.662Z" transform="translate(-285 -35.844)"/>
      <path id="Trazado_708738" data-name="Trazado 708738" d="M352.03,89.381a.831.831,0,1,1,.768,1.15A.832.832,0,0,1,352.03,89.381Z" transform="translate(-340.327 -79.637)"/>
      <path id="Trazado_708739" data-name="Trazado 708739" d="M401.066,89.369a.831.831,0,1,1,.306,1.01A.832.832,0,0,1,401.066,89.369Z" transform="translate(-394.458 -79.625)"/>
      <path id="Trazado_708740" data-name="Trazado 708740" d="M16.934,16.1h-.418a4.253,4.253,0,0,1-3.892,2.941.832.832,0,0,1-.754-1.27,3.707,3.707,0,0,0,.559-1.671H9.86a.831.831,0,1,1,0-1.662h3.382a.831.831,0,0,1,.826.735A5.359,5.359,0,0,1,14,16.88a2.823,2.823,0,0,0,1.071-1.772.831.831,0,0,1,.815-.667h1.053A1.664,1.664,0,0,0,18.6,12.779V3.325a1.664,1.664,0,0,0-1.662-1.662H3.325A1.664,1.664,0,0,0,1.662,3.325V7.445A.831.831,0,0,1,0,7.445V3.325A3.328,3.328,0,0,1,3.325,0h13.61a3.328,3.328,0,0,1,3.325,3.325v9.454A3.328,3.328,0,0,1,16.934,16.1Z" transform="translate(29.609 0)"/>
      <g id="g246" transform="translate(35.985 3.163)">
        <g id="g248">
          <g id="g250" clip-path="url(#clip-path-2)">
            <g id="g256" transform="translate(0.204 3.877)">
              <path id="path258" d="M6.2-170.735v1.958a.653.653,0,0,1-.653.653H2.592l-1.347,1.1v-1.1H.653A.653.653,0,0,1,0-168.777v-3.959a.653.653,0,0,1,.653-.653h3.06" transform="translate(0 173.389)" fill="none" stroke="#000" stroke-linecap="round" stroke-linejoin="round" stroke-miterlimit="10" stroke-width="0.7"/>
            </g>
            <g id="g260" transform="translate(2.232 5.307)">
              <path id="path262" d="M-140.309-157.441l1.074-2.447,1.074,2.447" transform="translate(140.309 159.888)" fill="none" stroke="#000" stroke-linecap="round" stroke-linejoin="round" stroke-miterlimit="10" stroke-width="0.7"/>
            </g>
            <g id="g264" transform="translate(2.377 6.929)">
              <path id="path266" d="M-121.344,0h1.857" transform="translate(121.344)" fill="none" stroke="#000" stroke-linecap="round" stroke-linejoin="round" stroke-miterlimit="10" stroke-width="0.7"/>
            </g>
            <g id="g268" transform="translate(3.917 0.204)">
              <path id="path270" d="M-21.85-101.6a3.149,3.149,0,0,1,.425,1.584,3.149,3.149,0,0,1-.6,1.86l.39.857-.965-.252h0a3.15,3.15,0,0,1-1.984.7,3.163,3.163,0,0,1-3.163-3.163,3.163,3.163,0,0,1,3.163-3.163,3.149,3.149,0,0,1,1.58.423" transform="translate(27.752 103.174)" fill="none" stroke="#000" stroke-linecap="round" stroke-linejoin="round" stroke-miterlimit="10" stroke-width="0.7"/>
            </g>
            <g id="g272" transform="translate(9.317 1.13)">
              <path id="path274" d="M0,0H0" transform="translate(0)" fill="none" stroke="#000" stroke-linecap="round" stroke-linejoin="round" stroke-miterlimit="10" stroke-width="0.7"/>
            </g>
            <g id="g276" transform="translate(5.96 3.001)">
              <path id="path278" d="M2.073,0H0" fill="none" stroke="#000" stroke-linecap="round" stroke-linejoin="round" stroke-miterlimit="10" stroke-width="0.7"/>
            </g>
            <g id="g280" transform="translate(7.092 1.947)">
              <path id="path282" d="M1.108-182.833h0A2.134,2.134,0,0,1,0-184.7v-.97" transform="translate(0 185.674)" fill="none" stroke="#000" stroke-linecap="round" stroke-linejoin="round" stroke-miterlimit="10" stroke-width="0.7"/>
            </g>
            <g id="g284" transform="translate(5.984 1.947)">
              <path id="path286" d="M-72.4-182.833h0a2.134,2.134,0,0,0,1.108-1.871v-.97" transform="translate(72.401 185.674)" fill="none" stroke="#000" stroke-linecap="round" stroke-linejoin="round" stroke-miterlimit="10" stroke-width="0.7"/>
            </g>
          </g>
        </g>
      </g>
    </g>
    <path id="Trazado_716109" data-name="Trazado 716109" d="M40.287,83.477H0A94.94,94.94,0,0,1,84.366,0V41.208A54.756,54.756,0,0,0,40.287,83.476Z" transform="translate(-9204.366 -5974.478)" fill="#1f4168"/>
    <path id="Trazado_716118" data-name="Trazado 716118" d="M461.1,138H0V0H505V94.907A55.379,55.379,0,0,0,461.1,138Z" transform="translate(-9625 -6350)" fill="#1f4168"/>
    <g id="Grupo_1003774" data-name="Grupo 1003774" transform="translate(-9910 -11706)">
      <path id="Polígono_20" data-name="Polígono 20" d="M6,0l6,9H0Z" transform="translate(346 5347)" fill="#112e4c"/>
      <g transform="matrix(1, 0, 0, 1, 276, 5215)" filter="url(#Rectángulo_344369)">
        <rect id="Rectángulo_344369-2" data-name="Rectángulo 344369" width="67" height="92" transform="translate(9 132)" fill="#bfe5f9"/>
      </g>
    </g>
    <path id="Trazado_716119" data-name="Trazado 716119" d="M3.779,16.882h5.6V19H1.143V6.2H3.779ZM13.4,19H10.854V9.49H13.4Zm-2.7-11.971a1.251,1.251,0,0,1,.382-.94,1.436,1.436,0,0,1,1.042-.369,1.44,1.44,0,0,1,1.037.369,1.244,1.244,0,0,1,.387.94,1.247,1.247,0,0,1-.391.949,1.443,1.443,0,0,1-1.033.369A1.443,1.443,0,0,1,11.1,7.979,1.247,1.247,0,0,1,10.705,7.029Zm13.359,7.3a5.758,5.758,0,0,1-.976,3.564,3.231,3.231,0,0,1-2.725,1.279,2.969,2.969,0,0,1-2.47-1.187L17.78,19H15.5V5.5h2.54v4.843a2.893,2.893,0,0,1,2.312-1.028,3.258,3.258,0,0,1,2.729,1.279,5.767,5.767,0,0,1,.989,3.6Zm-2.54-.185a3.783,3.783,0,0,0-.457-2.1,1.545,1.545,0,0,0-1.362-.664,1.676,1.676,0,0,0-1.67.993v3.753a1.7,1.7,0,0,0,1.688,1,1.568,1.568,0,0,0,1.617-1.213A6.257,6.257,0,0,0,21.524,14.148Zm9.448-2.276a6.9,6.9,0,0,0-.914-.07,1.86,1.86,0,0,0-1.89.976V19h-2.54V9.49h2.4l.07,1.134a2.354,2.354,0,0,1,2.118-1.31,2.662,2.662,0,0,1,.791.114Zm.51,2.285a5.64,5.64,0,0,1,.545-2.522A3.989,3.989,0,0,1,33.6,9.921a4.577,4.577,0,0,1,2.377-.606,4.33,4.33,0,0,1,3.142,1.178,4.727,4.727,0,0,1,1.358,3.2l.018.65a4.97,4.97,0,0,1-1.222,3.511,4.247,4.247,0,0,1-3.278,1.323,4.268,4.268,0,0,1-3.283-1.318,5.058,5.058,0,0,1-1.226-3.586Zm2.54.18a3.555,3.555,0,0,0,.51,2.073,1.831,1.831,0,0,0,2.9.009,3.89,3.89,0,0,0,.519-2.267,3.519,3.519,0,0,0-.519-2.06,1.686,1.686,0,0,0-1.459-.731,1.658,1.658,0,0,0-1.441.726A3.955,3.955,0,0,0,34.022,14.338Zm13.184,2.035a.818.818,0,0,0-.461-.734,5.241,5.241,0,0,0-1.481-.479q-3.393-.712-3.393-2.883a2.613,2.613,0,0,1,1.05-2.114,4.237,4.237,0,0,1,2.747-.848,4.56,4.56,0,0,1,2.9.853,2.687,2.687,0,0,1,1.085,2.215h-2.54a1.229,1.229,0,0,0-.352-.9,1.488,1.488,0,0,0-1.1-.356,1.52,1.52,0,0,0-.993.29.916.916,0,0,0-.352.738.783.783,0,0,0,.4.681,4.114,4.114,0,0,0,1.349.448,11.019,11.019,0,0,1,1.6.426,2.628,2.628,0,0,1,2.013,2.558,2.481,2.481,0,0,1-1.116,2.1,4.815,4.815,0,0,1-2.883.8,5.029,5.029,0,0,1-2.123-.426A3.561,3.561,0,0,1,42.1,17.581a2.716,2.716,0,0,1-.527-1.6H43.98a1.326,1.326,0,0,0,.5,1.037,1.987,1.987,0,0,0,1.248.36,1.839,1.839,0,0,0,1.1-.277A.861.861,0,0,0,47.206,16.372Zm12.138-.967L61.1,9.49h2.725L60,20.477l-.211.5a2.9,2.9,0,0,1-2.812,1.863,4,4,0,0,1-1.125-.167V20.749l.387.009a2.09,2.09,0,0,0,1.077-.22,1.443,1.443,0,0,0,.558-.729l.3-.782L54.844,9.49h2.733Zm15.311-3.533a6.9,6.9,0,0,0-.914-.07,1.86,1.86,0,0,0-1.89.976V19h-2.54V9.49h2.4l.07,1.134A2.354,2.354,0,0,1,73.9,9.314a2.662,2.662,0,0,1,.791.114Zm5.6,7.3a4.668,4.668,0,0,1-3.406-1.283,4.561,4.561,0,0,1-1.314-3.419v-.246a5.745,5.745,0,0,1,.554-2.562,4.064,4.064,0,0,1,1.569-1.74,4.4,4.4,0,0,1,2.316-.611,3.947,3.947,0,0,1,3.072,1.23,5,5,0,0,1,1.121,3.489v1.037H78.108a2.36,2.36,0,0,0,.743,1.494,2.245,2.245,0,0,0,1.569.563,2.742,2.742,0,0,0,2.294-1.063l1.248,1.4a3.813,3.813,0,0,1-1.547,1.261A5.075,5.075,0,0,1,80.253,19.176Zm-.29-7.813a1.587,1.587,0,0,0-1.226.512,2.651,2.651,0,0,0-.6,1.466h3.533v-.2a1.891,1.891,0,0,0-.457-1.311A1.638,1.638,0,0,0,79.963,11.362ZM89.051,15.9,90.817,9.49h2.654L90.264,19H87.838L84.63,9.49h2.654ZM97.269,19H94.72V9.49h2.549ZM94.57,7.029a1.251,1.251,0,0,1,.382-.94,1.648,1.648,0,0,1,2.079,0,1.244,1.244,0,0,1,.387.94,1.247,1.247,0,0,1-.391.949,1.629,1.629,0,0,1-2.065,0A1.247,1.247,0,0,1,94.57,7.029Zm9.94,9.343a.818.818,0,0,0-.461-.734,5.241,5.241,0,0,0-1.481-.479q-3.393-.712-3.393-2.883a2.613,2.613,0,0,1,1.05-2.114,4.237,4.237,0,0,1,2.747-.848,4.56,4.56,0,0,1,2.9.853,2.687,2.687,0,0,1,1.085,2.215h-2.54a1.229,1.229,0,0,0-.352-.9,1.488,1.488,0,0,0-1.1-.356,1.52,1.52,0,0,0-.993.29.916.916,0,0,0-.352.738.783.783,0,0,0,.4.681,4.114,4.114,0,0,0,1.349.448,11.019,11.019,0,0,1,1.6.426,2.628,2.628,0,0,1,2.013,2.558,2.481,2.481,0,0,1-1.116,2.1,4.815,4.815,0,0,1-2.883.8,5.029,5.029,0,0,1-2.123-.426A3.561,3.561,0,0,1,99.4,17.581a2.716,2.716,0,0,1-.527-1.6h2.408a1.326,1.326,0,0,0,.5,1.037,1.987,1.987,0,0,0,1.248.36,1.839,1.839,0,0,0,1.1-.277A.861.861,0,0,0,104.511,16.372Zm7.146-9.22V9.49h1.626v1.863h-1.626V16.1a1.133,1.133,0,0,0,.2.756,1.015,1.015,0,0,0,.773.229,4.051,4.051,0,0,0,.747-.062v1.925a5.229,5.229,0,0,1-1.538.229,2.425,2.425,0,0,1-2.725-2.7V11.354h-1.389V9.49h1.389V7.152ZM120.208,19a2.821,2.821,0,0,1-.255-.853,3.073,3.073,0,0,1-2.4,1.028,3.376,3.376,0,0,1-2.316-.809,2.6,2.6,0,0,1-.918-2.039,2.687,2.687,0,0,1,1.121-2.32,5.529,5.529,0,0,1,3.239-.817h1.169v-.545a1.567,1.567,0,0,0-.338-1.055,1.331,1.331,0,0,0-1.068-.4,1.513,1.513,0,0,0-1.006.308,1.045,1.045,0,0,0-.365.844h-2.54a2.551,2.551,0,0,1,.51-1.529,3.37,3.37,0,0,1,1.441-1.1,5.253,5.253,0,0,1,2.092-.4,4.15,4.15,0,0,1,2.791.883,3.09,3.09,0,0,1,1.033,2.483V16.8a4.546,4.546,0,0,0,.378,2.048V19Zm-2.1-1.767a2.188,2.188,0,0,0,1.037-.25,1.645,1.645,0,0,0,.7-.672V14.676H118.9q-1.907,0-2.03,1.318l-.009.149a1.017,1.017,0,0,0,.334.782A1.3,1.3,0,0,0,118.107,17.233Zm11.391-.861a.818.818,0,0,0-.461-.734,5.241,5.241,0,0,0-1.481-.479q-3.393-.712-3.393-2.883a2.613,2.613,0,0,1,1.05-2.114,4.237,4.237,0,0,1,2.747-.848,4.56,4.56,0,0,1,2.9.853,2.687,2.687,0,0,1,1.085,2.215H129.4a1.229,1.229,0,0,0-.352-.9,1.488,1.488,0,0,0-1.1-.356,1.52,1.52,0,0,0-.993.29.916.916,0,0,0-.352.738.783.783,0,0,0,.4.681,4.114,4.114,0,0,0,1.349.448,11.019,11.019,0,0,1,1.6.426,2.628,2.628,0,0,1,2.013,2.558,2.481,2.481,0,0,1-1.116,2.1,4.815,4.815,0,0,1-2.883.8,5.029,5.029,0,0,1-2.123-.426,3.561,3.561,0,0,1-1.455-1.169,2.716,2.716,0,0,1-.527-1.6h2.408a1.326,1.326,0,0,0,.5,1.037,1.987,1.987,0,0,0,1.248.36,1.839,1.839,0,0,0,1.1-.277A.861.861,0,0,0,129.5,16.372Zm8.191-2.2a5.731,5.731,0,0,1,1-3.542,3.237,3.237,0,0,1,2.729-1.318,2.913,2.913,0,0,1,2.294,1.037V5.5h2.549V19h-2.294l-.123-1.011a2.989,2.989,0,0,1-2.443,1.187,3.228,3.228,0,0,1-2.694-1.323A5.916,5.916,0,0,1,137.689,14.175Zm2.54.189a3.754,3.754,0,0,0,.466,2.051,1.517,1.517,0,0,0,1.354.713,1.7,1.7,0,0,0,1.661-.995V12.375a1.675,1.675,0,0,0-1.644-.995Q140.229,11.38,140.229,14.364ZM152.6,19.176a4.668,4.668,0,0,1-3.406-1.283,4.561,4.561,0,0,1-1.314-3.419v-.246a5.745,5.745,0,0,1,.554-2.562,4.064,4.064,0,0,1,1.569-1.74,4.4,4.4,0,0,1,2.316-.611,3.947,3.947,0,0,1,3.072,1.23,5,5,0,0,1,1.121,3.489v1.037H150.46a2.36,2.36,0,0,0,.743,1.494,2.245,2.245,0,0,0,1.569.563,2.742,2.742,0,0,0,2.294-1.063l1.248,1.4a3.813,3.813,0,0,1-1.547,1.261A5.075,5.075,0,0,1,152.6,19.176Zm-.29-7.813a1.587,1.587,0,0,0-1.226.512,2.651,2.651,0,0,0-.6,1.466h3.533v-.2a1.891,1.891,0,0,0-.457-1.311A1.638,1.638,0,0,0,152.314,11.362Zm13.166-4.21V9.49h1.626v1.863H165.48V16.1a1.133,1.133,0,0,0,.2.756,1.015,1.015,0,0,0,.773.229,4.051,4.051,0,0,0,.747-.062v1.925a5.229,5.229,0,0,1-1.538.229,2.425,2.425,0,0,1-2.725-2.7V11.354h-1.389V9.49h1.389V7.152Zm8.385,4.72a6.9,6.9,0,0,0-.914-.07,1.86,1.86,0,0,0-1.89.976V19h-2.54V9.49h2.4l.07,1.134a2.354,2.354,0,0,1,2.118-1.31,2.662,2.662,0,0,1,.791.114ZM180.334,19a2.821,2.821,0,0,1-.255-.853,3.073,3.073,0,0,1-2.4,1.028,3.376,3.376,0,0,1-2.316-.809,2.6,2.6,0,0,1-.918-2.039,2.687,2.687,0,0,1,1.121-2.32,5.529,5.529,0,0,1,3.239-.817h1.169v-.545a1.567,1.567,0,0,0-.338-1.055,1.331,1.331,0,0,0-1.068-.4,1.513,1.513,0,0,0-1.006.308,1.045,1.045,0,0,0-.365.844h-2.54a2.551,2.551,0,0,1,.51-1.529,3.37,3.37,0,0,1,1.441-1.1,5.253,5.253,0,0,1,2.092-.4,4.15,4.15,0,0,1,2.791.883,3.09,3.09,0,0,1,1.033,2.483V16.8a4.546,4.546,0,0,0,.378,2.048V19Zm-2.1-1.767a2.188,2.188,0,0,0,1.037-.25,1.645,1.645,0,0,0,.7-.672V14.676h-.949q-1.907,0-2.03,1.318l-.009.149a1.017,1.017,0,0,0,.334.782A1.3,1.3,0,0,0,178.233,17.233Zm5.845-3.059a5.731,5.731,0,0,1,1-3.542A3.237,3.237,0,0,1,187.8,9.314a2.913,2.913,0,0,1,2.294,1.037V5.5h2.549V19h-2.294l-.123-1.011a2.989,2.989,0,0,1-2.443,1.187,3.228,3.228,0,0,1-2.694-1.323A5.916,5.916,0,0,1,184.078,14.175Zm2.54.189a3.754,3.754,0,0,0,.466,2.051,1.517,1.517,0,0,0,1.354.713,1.7,1.7,0,0,0,1.661-.995V12.375a1.675,1.675,0,0,0-1.644-.995Q186.618,11.38,186.618,14.364Zm13.693,3.669a3.185,3.185,0,0,1-2.6,1.143,3,3,0,0,1-2.333-.879,3.752,3.752,0,0,1-.822-2.575V9.49h2.54v6.151q0,1.487,1.354,1.487a1.834,1.834,0,0,0,1.775-.9V9.49h2.549V19h-2.391Zm8.332-.905a1.666,1.666,0,0,0,1.143-.387,1.355,1.355,0,0,0,.457-1.028h2.382a3.258,3.258,0,0,1-.527,1.771,3.48,3.48,0,0,1-1.419,1.248,4.442,4.442,0,0,1-1.991.444,4.129,4.129,0,0,1-3.217-1.3,5.13,5.13,0,0,1-1.178-3.582v-.167a5.071,5.071,0,0,1,1.169-3.507,4.08,4.08,0,0,1,3.208-1.31,4,4,0,0,1,2.861,1.015,3.594,3.594,0,0,1,1.094,2.7h-2.382a1.745,1.745,0,0,0-.457-1.206,1.7,1.7,0,0,0-2.5.183,3.749,3.749,0,0,0-.453,2.1v.264a3.8,3.8,0,0,0,.448,2.113A1.549,1.549,0,0,0,208.644,17.128Zm9.387,0a1.666,1.666,0,0,0,1.143-.387,1.355,1.355,0,0,0,.457-1.028h2.382a3.258,3.258,0,0,1-.527,1.771,3.48,3.48,0,0,1-1.419,1.248,4.442,4.442,0,0,1-1.991.444,4.129,4.129,0,0,1-3.217-1.3A5.13,5.13,0,0,1,213.68,14.3v-.167a5.071,5.071,0,0,1,1.169-3.507,4.08,4.08,0,0,1,3.208-1.31,4,4,0,0,1,2.861,1.015,3.594,3.594,0,0,1,1.094,2.7H219.63a1.745,1.745,0,0,0-.457-1.206,1.7,1.7,0,0,0-2.5.183,3.749,3.749,0,0,0-.453,2.1v.264a3.8,3.8,0,0,0,.448,2.113A1.549,1.549,0,0,0,218.03,17.128ZM226.143,19h-2.549V9.49h2.549Zm-2.7-11.971a1.251,1.251,0,0,1,.382-.94,1.648,1.648,0,0,1,2.079,0,1.244,1.244,0,0,1,.387.94,1.247,1.247,0,0,1-.391.949,1.629,1.629,0,0,1-2.065,0A1.247,1.247,0,0,1,223.444,7.029Zm4.395,7.128a5.64,5.64,0,0,1,.545-2.522,3.989,3.989,0,0,1,1.569-1.714,4.577,4.577,0,0,1,2.377-.606,4.33,4.33,0,0,1,3.142,1.178,4.727,4.727,0,0,1,1.358,3.2l.018.65a4.97,4.97,0,0,1-1.222,3.511,4.735,4.735,0,0,1-6.561,0,5.058,5.058,0,0,1-1.226-3.586Zm2.54.18a3.555,3.555,0,0,0,.51,2.073,1.831,1.831,0,0,0,2.9.009,3.89,3.89,0,0,0,.519-2.267,3.519,3.519,0,0,0-.519-2.06,1.686,1.686,0,0,0-1.459-.731,1.658,1.658,0,0,0-1.441.726A3.955,3.955,0,0,0,230.379,14.338ZM232.831,5.5H235.6l-2.435,2.725H231.1Zm7.919,3.99.079,1.1a3.32,3.32,0,0,1,2.733-1.274,2.759,2.759,0,0,1,2.25.888,4.142,4.142,0,0,1,.756,2.654V19h-2.54V12.918a1.648,1.648,0,0,0-.352-1.173,1.574,1.574,0,0,0-1.169-.365,1.747,1.747,0,0,0-1.608.914V19h-2.54V9.49Zm7.875,8.262a1.279,1.279,0,0,1,.409-.984,1.588,1.588,0,0,1,2.057,0,1.279,1.279,0,0,1,.409.984,1.261,1.261,0,0,1-.4.971,1.614,1.614,0,0,1-2.065,0A1.261,1.261,0,0,1,248.625,17.752Z" transform="translate(-9518.478 -6284.064)" fill="#fff"/>
    <g id="Page-1" transform="translate(-9613 -6330.999)">
      <g id="_002---Open-Book" data-name="002---Open-Book" transform="translate(0 0)">
        <path id="Shape" d="M43.331,6.105a1.467,1.467,0,0,0-1.393-.114l-.2.089-1.76-2.2a2.192,2.192,0,0,0-2.1-.8c-.909.163-1.8.362-2.683.587V.733a.733.733,0,0,0-.265-.565.741.741,0,0,0-.6-.156C26.294,1.519,23.184,6.079,22,9,20.809,6.074,17.7,1.518,9.667.013a.742.742,0,0,0-.6.156A.733.733,0,0,0,8.8.733V3.675c-.88-.227-1.775-.426-2.683-.587a2.2,2.2,0,0,0-2.1.8l-1.76,2.2L2.058,6A1.467,1.467,0,0,0,0,7.333V35.062A1.467,1.467,0,0,0,.876,36.4l16.865,7.421a1.4,1.4,0,0,0,1.274-.06A1.451,1.451,0,0,0,19.8,44h4.4a1.451,1.451,0,0,0,.782-.231,1.456,1.456,0,0,0,.683.185,1.471,1.471,0,0,0,.592-.125L43.121,36.4A1.467,1.467,0,0,0,44,35.062V7.333a1.462,1.462,0,0,0-.665-1.227ZM38.138,4.53a.738.738,0,0,1,.693.269l1.516,1.893-15.274,6.72c-.021.009-.037.026-.058.036A1.46,1.46,0,0,0,24.2,13.2H22.731v-1.44c.309-1.033,6.4-5.618,15.407-7.229ZM24.2,14.666V17.6H19.8V14.666Zm-4.4,4.4h4.4v1.467H19.8ZM19.8,22h4.4V35.2H19.8Zm0,14.665h4.4V38.13H19.8ZM33.73,1.634V4.083A34.281,34.281,0,0,0,23.66,8.854c1.2-2.467,3.924-5.822,10.07-7.22Zm-23.465,0c6.142,1.393,8.867,4.748,10.068,7.218A34.275,34.275,0,0,0,10.266,4.083ZM5.165,4.8a.738.738,0,0,1,.693-.269c8.986,1.607,15.075,6.179,15.4,7.181l.011.073V13.2H19.8a1.46,1.46,0,0,0-.817.249c-.021-.01-.037-.027-.059-.037L3.649,6.692Zm-3.7,30.263V7.333l16.865,7.421V42.483ZM19.8,42.53V39.6h4.4V42.53Zm5.866-.047V14.754L42.53,7.333V35.062Z" transform="translate(0 0)" fill="#12263f"/>
        <path id="Shape-2" data-name="Shape" d="M50.592,17.114a.733.733,0,0,0-.705-.045L37.421,22.936A.733.733,0,0,0,37,23.6v7.333a.733.733,0,0,0,1.046.664L50.511,25.73a.733.733,0,0,0,.421-.664V17.733A.733.733,0,0,0,50.592,17.114ZM49.466,24.6l-11,5.176V24.065l11-5.176Z" transform="translate(-9.869 -4.535)" fill="#12263f"/>
        <path id="Shape-3" data-name="Shape" d="M17.511,22.941,5.046,17.075A.733.733,0,0,0,4,17.735v7.333a.733.733,0,0,0,.421.664L16.887,31.6a.734.734,0,0,0,1.046-.664V23.6a.733.733,0,0,0-.421-.66Zm-1.046,6.837-11-5.176V18.89l11,5.176Z" transform="translate(-1.067 -4.536)" fill="#12263f"/>
        <path id="Shape-4" data-name="Shape" d="M17.511,37.941,5.046,32.075A.733.733,0,1,0,4.421,33.4l12.466,5.866a.733.733,0,1,0,.625-1.327Z" transform="translate(-1.067 -8.537)" fill="#12263f"/>
        <path id="Shape-5" data-name="Shape" d="M16.559,42.489l-9.5-4.473a.733.733,0,1,0-.62,1.329l9.5,4.473a.733.733,0,1,0,.625-1.326Z" transform="translate(-1.6 -10.12)" fill="#12263f"/>
        <path id="Shape-6" data-name="Shape" d="M49.886,32.075,37.421,37.941a.733.733,0,0,0,.625,1.327L50.511,33.4a.733.733,0,1,0-.625-1.327Z" transform="translate(-9.869 -8.537)" fill="#12263f"/>
        <path id="Shape-7" data-name="Shape" d="M48.949,38.017l-9.5,4.471a.733.733,0,0,0,.625,1.326l9.5-4.473a.733.733,0,1,0-.624-1.326Z" transform="translate(-10.414 -10.119)" fill="#12263f"/>
      </g>
    </g>
    <path id="Trazado_716120" data-name="Trazado 716120" d="M3609.289,11783.479H3569a94.941,94.941,0,0,1,84.368-83.477v41.208a54.756,54.756,0,0,0-44.08,42.269Z" transform="translate(-12773.369 -17995.479)" fill="#bfe5f9"/>
    <g transform="matrix(1, 0, 0, 1, -9634, -6491)" filter="url(#Trazado_716121)">
      <path id="Trazado_716121-2" data-name="Trazado 716121" d="M13.171-7.349a9,9,0,0,1-1.526,5.64A5.326,5.326,0,0,1,7.178.244,5.363,5.363,0,0,1,2.734-1.672,8.74,8.74,0,0,1,1.16-7.166v-3.271A8.886,8.886,0,0,1,2.7-16.089a5.366,5.366,0,0,1,4.449-1.929,5.371,5.371,0,0,1,4.443,1.91,8.713,8.713,0,0,1,1.575,5.487Zm-3.528-3.6a6.508,6.508,0,0,0-.6-3.22,2.042,2.042,0,0,0-1.886-1.008,2.006,2.006,0,0,0-1.837.959,6.091,6.091,0,0,0-.629,3v4.325A6.832,6.832,0,0,0,5.28-3.657,2.015,2.015,0,0,0,7.178-2.6,1.981,1.981,0,0,0,9.045-3.614a6.669,6.669,0,0,0,.6-3.1ZM24.121,0H20.593V-13.6l-4.211,1.306v-2.869L23.743-17.8h.378Z" transform="translate(471.82 174)" fill="#fff"/>
    </g>
    <g transform="matrix(1, 0, 0, 1, -9634, -6491)" filter="url(#Trazado_716122)">
      <path id="Trazado_716122-2" data-name="Trazado 716122" d="M-595,12786h34l-17,21Zm-190.5,0a22.5,22.5,0,0,1-22.5-22.5,22.5,22.5,0,0,1,22.5-22.5h415a22.5,22.5,0,0,1,22.5,22.5,22.5,22.5,0,0,1-22.5,22.5Z" transform="translate(839.5 -12735)" fill="#112e4c"/>
    </g>
    <path id="Trazado_716123" data-name="Trazado 716123" d="M-196.765-4.685h-2.1V0H-201.5V-12.8h4.755a5.375,5.375,0,0,1,3.5,1.011,3.488,3.488,0,0,1,1.23,2.856,3.937,3.937,0,0,1-.567,2.184A3.866,3.866,0,0,1-194.3-5.353l2.769,5.229V0h-2.83Zm-2.1-2.136h2.127a2.178,2.178,0,0,0,1.538-.505,1.806,1.806,0,0,0,.545-1.393,1.933,1.933,0,0,0-.514-1.424,2.137,2.137,0,0,0-1.578-.519h-2.118Zm13.061,7a4.668,4.668,0,0,1-3.406-1.283,4.561,4.561,0,0,1-1.314-3.419v-.246a5.745,5.745,0,0,1,.554-2.562,4.064,4.064,0,0,1,1.569-1.74,4.4,4.4,0,0,1,2.316-.611,3.947,3.947,0,0,1,3.072,1.23,5,5,0,0,1,1.121,3.489v1.037h-6.056a2.36,2.36,0,0,0,.743,1.494,2.245,2.245,0,0,0,1.569.563,2.742,2.742,0,0,0,2.294-1.063l1.248,1.4a3.813,3.813,0,0,1-1.547,1.261A5.075,5.075,0,0,1-185.805.176Zm-.29-7.813a1.587,1.587,0,0,0-1.226.512,2.651,2.651,0,0,0-.6,1.466h3.533v-.2a1.891,1.891,0,0,0-.457-1.311A1.638,1.638,0,0,0-186.1-7.638Zm9.6,5.766a1.666,1.666,0,0,0,1.143-.387,1.355,1.355,0,0,0,.457-1.028h2.382a3.258,3.258,0,0,1-.527,1.771,3.48,3.48,0,0,1-1.419,1.248,4.442,4.442,0,0,1-1.991.444,4.129,4.129,0,0,1-3.217-1.3A5.13,5.13,0,0,1-180.848-4.7v-.167a5.071,5.071,0,0,1,1.169-3.507,4.08,4.08,0,0,1,3.208-1.31A4,4,0,0,1-173.61-8.67a3.594,3.594,0,0,1,1.094,2.7H-174.9a1.745,1.745,0,0,0-.457-1.206,1.524,1.524,0,0,0-1.16-.464,1.53,1.53,0,0,0-1.34.647,3.749,3.749,0,0,0-.453,2.1v.264a3.8,3.8,0,0,0,.448,2.113A1.549,1.549,0,0,0-176.5-1.872Zm11.127.905a3.185,3.185,0,0,1-2.6,1.143A3,3,0,0,1-170.306-.7a3.752,3.752,0,0,1-.822-2.575V-9.51h2.54v6.151q0,1.487,1.354,1.487a1.834,1.834,0,0,0,1.775-.9V-9.51h2.549V0H-165.3Zm9.721-6.161a6.9,6.9,0,0,0-.914-.07,1.86,1.86,0,0,0-1.89.976V0h-2.54V-9.51h2.4l.07,1.134a2.354,2.354,0,0,1,2.118-1.31,2.662,2.662,0,0,1,.791.114Zm6.372,4.5a.818.818,0,0,0-.461-.734,5.241,5.241,0,0,0-1.481-.479q-3.393-.712-3.393-2.883a2.613,2.613,0,0,1,1.05-2.114,4.237,4.237,0,0,1,2.747-.848,4.56,4.56,0,0,1,2.9.853,2.687,2.687,0,0,1,1.085,2.215h-2.54a1.229,1.229,0,0,0-.352-.9,1.488,1.488,0,0,0-1.1-.356,1.52,1.52,0,0,0-.993.29.916.916,0,0,0-.352.738.783.783,0,0,0,.4.681,4.114,4.114,0,0,0,1.349.448,11.019,11.019,0,0,1,1.6.426,2.628,2.628,0,0,1,2.013,2.558,2.481,2.481,0,0,1-1.116,2.1,4.815,4.815,0,0,1-2.883.8A5.029,5.029,0,0,1-152.93-.25a3.561,3.561,0,0,1-1.455-1.169,2.716,2.716,0,0,1-.527-1.6h2.408a1.326,1.326,0,0,0,.5,1.037,1.987,1.987,0,0,0,1.248.36,1.839,1.839,0,0,0,1.1-.277A.861.861,0,0,0-149.278-2.628Zm3.709-2.215a5.64,5.64,0,0,1,.545-2.522,3.989,3.989,0,0,1,1.569-1.714,4.577,4.577,0,0,1,2.377-.606,4.33,4.33,0,0,1,3.142,1.178,4.727,4.727,0,0,1,1.358,3.2l.018.65a4.97,4.97,0,0,1-1.222,3.511A4.247,4.247,0,0,1-141.06.176a4.268,4.268,0,0,1-3.283-1.318,5.058,5.058,0,0,1-1.226-3.586Zm2.54.18a3.555,3.555,0,0,0,.51,2.073,1.682,1.682,0,0,0,1.459.717,1.686,1.686,0,0,0,1.441-.709,3.89,3.89,0,0,0,.519-2.267,3.519,3.519,0,0,0-.519-2.06,1.686,1.686,0,0,0-1.459-.731,1.658,1.658,0,0,0-1.441.726A3.955,3.955,0,0,0-143.029-4.662Zm13.184,2.035a.818.818,0,0,0-.461-.734,5.241,5.241,0,0,0-1.481-.479q-3.393-.712-3.393-2.883a2.613,2.613,0,0,1,1.05-2.114,4.237,4.237,0,0,1,2.747-.848,4.56,4.56,0,0,1,2.9.853A2.687,2.687,0,0,1-127.4-6.618h-2.54a1.229,1.229,0,0,0-.352-.9,1.488,1.488,0,0,0-1.1-.356,1.52,1.52,0,0,0-.993.29.916.916,0,0,0-.352.738.783.783,0,0,0,.4.681,4.114,4.114,0,0,0,1.349.448,11.019,11.019,0,0,1,1.6.426,2.628,2.628,0,0,1,2.013,2.558,2.481,2.481,0,0,1-1.116,2.1,4.815,4.815,0,0,1-2.883.8A5.029,5.029,0,0,1-133.5-.25a3.561,3.561,0,0,1-1.455-1.169,2.716,2.716,0,0,1-.527-1.6h2.408a1.326,1.326,0,0,0,.5,1.037,1.987,1.987,0,0,0,1.248.36,1.839,1.839,0,0,0,1.1-.277A.861.861,0,0,0-129.845-2.628Zm11.628-9.22V-9.51h1.626v1.863h-1.626V-2.9a1.133,1.133,0,0,0,.2.756,1.015,1.015,0,0,0,.773.229,4.051,4.051,0,0,0,.747-.062V-.053a5.229,5.229,0,0,1-1.538.229,2.425,2.425,0,0,1-2.725-2.7V-7.646h-1.389V-9.51h1.389v-2.338ZM-110.8.176a4.668,4.668,0,0,1-3.406-1.283,4.561,4.561,0,0,1-1.314-3.419v-.246a5.745,5.745,0,0,1,.554-2.562,4.064,4.064,0,0,1,1.569-1.74,4.4,4.4,0,0,1,2.316-.611,3.947,3.947,0,0,1,3.072,1.23,5,5,0,0,1,1.121,3.489v1.037h-6.056a2.36,2.36,0,0,0,.743,1.494,2.245,2.245,0,0,0,1.569.563,2.742,2.742,0,0,0,2.294-1.063l1.248,1.4a3.813,3.813,0,0,1-1.547,1.261A5.075,5.075,0,0,1-110.8.176Zm-.29-7.813a1.587,1.587,0,0,0-1.226.512,2.651,2.651,0,0,0-.6,1.466h3.533v-.2a1.891,1.891,0,0,0-.457-1.311A1.638,1.638,0,0,0-111.089-7.638Zm.229-5.862h2.769l-2.435,2.725h-2.065Zm9.369,11.628a1.666,1.666,0,0,0,1.143-.387,1.355,1.355,0,0,0,.457-1.028h2.382a3.258,3.258,0,0,1-.527,1.771A3.48,3.48,0,0,1-99.457-.268a4.442,4.442,0,0,1-1.991.444,4.129,4.129,0,0,1-3.217-1.3A5.13,5.13,0,0,1-105.842-4.7v-.167a5.071,5.071,0,0,1,1.169-3.507,4.08,4.08,0,0,1,3.208-1.31A4,4,0,0,1-98.6-8.67a3.594,3.594,0,0,1,1.094,2.7h-2.382a1.745,1.745,0,0,0-.457-1.206,1.524,1.524,0,0,0-1.16-.464,1.53,1.53,0,0,0-1.34.647,3.749,3.749,0,0,0-.453,2.1v.264a3.8,3.8,0,0,0,.448,2.113A1.549,1.549,0,0,0-101.492-1.872Zm7.77-7.638.079,1.1A3.32,3.32,0,0,1-90.91-9.686a2.759,2.759,0,0,1,2.25.888A4.142,4.142,0,0,1-87.9-6.144V0h-2.54V-6.082A1.648,1.648,0,0,0-90.8-7.255a1.574,1.574,0,0,0-1.169-.365,1.747,1.747,0,0,0-1.608.914V0h-2.54V-9.51ZM-83.3,0h-2.549V-9.51H-83.3ZM-86-11.971a1.251,1.251,0,0,1,.382-.94,1.436,1.436,0,0,1,1.042-.369,1.44,1.44,0,0,1,1.037.369,1.244,1.244,0,0,1,.387.94,1.247,1.247,0,0,1-.391.949,1.443,1.443,0,0,1-1.033.369,1.443,1.443,0,0,1-1.033-.369A1.247,1.247,0,0,1-86-11.971Zm8.745,10.1a1.666,1.666,0,0,0,1.143-.387,1.355,1.355,0,0,0,.457-1.028h2.382A3.258,3.258,0,0,1-73.8-1.516,3.48,3.48,0,0,1-75.217-.268a4.442,4.442,0,0,1-1.991.444,4.129,4.129,0,0,1-3.217-1.3A5.13,5.13,0,0,1-81.6-4.7v-.167a5.071,5.071,0,0,1,1.169-3.507,4.08,4.08,0,0,1,3.208-1.31A4,4,0,0,1-74.364-8.67a3.594,3.594,0,0,1,1.094,2.7h-2.382a1.745,1.745,0,0,0-.457-1.206,1.524,1.524,0,0,0-1.16-.464,1.53,1.53,0,0,0-1.34.647,3.749,3.749,0,0,0-.453,2.1v.264a3.8,3.8,0,0,0,.448,2.113A1.549,1.549,0,0,0-77.251-1.872Zm5.036-2.971a5.64,5.64,0,0,1,.545-2.522A3.989,3.989,0,0,1-70.1-9.079a4.577,4.577,0,0,1,2.377-.606,4.33,4.33,0,0,1,3.142,1.178,4.727,4.727,0,0,1,1.358,3.2l.018.65a4.97,4.97,0,0,1-1.222,3.511A4.247,4.247,0,0,1-67.707.176a4.268,4.268,0,0,1-3.283-1.318,5.058,5.058,0,0,1-1.226-3.586Zm2.54.18a3.555,3.555,0,0,0,.51,2.073,1.682,1.682,0,0,0,1.459.717,1.686,1.686,0,0,0,1.441-.709,3.89,3.89,0,0,0,.519-2.267,3.519,3.519,0,0,0-.519-2.06,1.686,1.686,0,0,0-1.459-.731,1.658,1.658,0,0,0-1.441.726A3.955,3.955,0,0,0-69.675-4.662Zm13.184,2.035a.818.818,0,0,0-.461-.734,5.241,5.241,0,0,0-1.481-.479q-3.393-.712-3.393-2.883a2.613,2.613,0,0,1,1.05-2.114,4.237,4.237,0,0,1,2.747-.848,4.56,4.56,0,0,1,2.9.853,2.687,2.687,0,0,1,1.085,2.215h-2.54a1.229,1.229,0,0,0-.352-.9,1.488,1.488,0,0,0-1.1-.356,1.52,1.52,0,0,0-.993.29.916.916,0,0,0-.352.738.783.783,0,0,0,.4.681,4.114,4.114,0,0,0,1.349.448,11.019,11.019,0,0,1,1.6.426,2.628,2.628,0,0,1,2.013,2.558,2.481,2.481,0,0,1-1.116,2.1,4.815,4.815,0,0,1-2.883.8A5.029,5.029,0,0,1-60.144-.25,3.561,3.561,0,0,1-61.6-1.419a2.716,2.716,0,0,1-.527-1.6h2.408a1.326,1.326,0,0,0,.5,1.037,1.987,1.987,0,0,0,1.248.36,1.839,1.839,0,0,0,1.1-.277A.861.861,0,0,0-56.492-2.628Zm12.138-.967L-42.6-9.51h2.725L-43.695,1.477l-.211.5a2.9,2.9,0,0,1-2.812,1.863,4,4,0,0,1-1.125-.167V1.749l.387.009a2.09,2.09,0,0,0,1.077-.22,1.443,1.443,0,0,0,.558-.729l.3-.782L-48.854-9.51h2.733Zm13.008-8.253V-9.51h1.626v1.863h-1.626V-2.9a1.133,1.133,0,0,0,.2.756,1.015,1.015,0,0,0,.773.229,4.051,4.051,0,0,0,.747-.062V-.053a5.229,5.229,0,0,1-1.538.229,2.425,2.425,0,0,1-2.725-2.7V-7.646h-1.389V-9.51h1.389v-2.338ZM-23.928.176a4.668,4.668,0,0,1-3.406-1.283,4.561,4.561,0,0,1-1.314-3.419v-.246a5.745,5.745,0,0,1,.554-2.562,4.064,4.064,0,0,1,1.569-1.74,4.4,4.4,0,0,1,2.316-.611,3.947,3.947,0,0,1,3.072,1.23,5,5,0,0,1,1.121,3.489v1.037h-6.056a2.36,2.36,0,0,0,.743,1.494,2.245,2.245,0,0,0,1.569.563,2.742,2.742,0,0,0,2.294-1.063l1.248,1.4A3.813,3.813,0,0,1-21.766-.277,5.075,5.075,0,0,1-23.928.176Zm-.29-7.813a1.587,1.587,0,0,0-1.226.512,2.651,2.651,0,0,0-.6,1.466h3.533v-.2a1.891,1.891,0,0,0-.457-1.311A1.638,1.638,0,0,0-24.218-7.638Zm9.6,5.766a1.666,1.666,0,0,0,1.143-.387,1.355,1.355,0,0,0,.457-1.028h2.382a3.258,3.258,0,0,1-.527,1.771A3.48,3.48,0,0,1-12.586-.268a4.442,4.442,0,0,1-1.991.444,4.129,4.129,0,0,1-3.217-1.3A5.13,5.13,0,0,1-18.971-4.7v-.167A5.071,5.071,0,0,1-17.8-8.376a4.08,4.08,0,0,1,3.208-1.31A4,4,0,0,1-11.733-8.67a3.594,3.594,0,0,1,1.094,2.7h-2.382a1.745,1.745,0,0,0-.457-1.206,1.524,1.524,0,0,0-1.16-.464,1.53,1.53,0,0,0-1.34.647,3.749,3.749,0,0,0-.453,2.1v.264a3.8,3.8,0,0,0,.448,2.113A1.549,1.549,0,0,0-14.621-1.872Zm7.77-7.638.079,1.1A3.32,3.32,0,0,1-4.039-9.686a2.759,2.759,0,0,1,2.25.888,4.142,4.142,0,0,1,.756,2.654V0h-2.54V-6.082a1.648,1.648,0,0,0-.352-1.173A1.574,1.574,0,0,0-5.093-7.62,1.747,1.747,0,0,0-6.7-6.706V0h-2.54V-9.51ZM.5-4.843a5.64,5.64,0,0,1,.545-2.522A3.989,3.989,0,0,1,2.61-9.079a4.577,4.577,0,0,1,2.377-.606A4.33,4.33,0,0,1,8.13-8.508a4.727,4.727,0,0,1,1.358,3.2l.018.65A4.97,4.97,0,0,1,8.284-1.147,4.247,4.247,0,0,1,5.005.176,4.268,4.268,0,0,1,1.723-1.143,5.058,5.058,0,0,1,.5-4.729Zm2.54.18a3.555,3.555,0,0,0,.51,2.073,1.682,1.682,0,0,0,1.459.717,1.686,1.686,0,0,0,1.441-.709,3.89,3.89,0,0,0,.519-2.267,3.519,3.519,0,0,0-.519-2.06,1.686,1.686,0,0,0-1.459-.731,1.658,1.658,0,0,0-1.441.726A3.955,3.955,0,0,0,3.037-4.662ZM13.75,0H11.2V-13.5H13.75Zm1.7-4.843a5.64,5.64,0,0,1,.545-2.522,3.989,3.989,0,0,1,1.569-1.714,4.577,4.577,0,0,1,2.377-.606A4.33,4.33,0,0,1,23.08-8.508a4.727,4.727,0,0,1,1.358,3.2l.018.65a4.97,4.97,0,0,1-1.222,3.511A4.247,4.247,0,0,1,19.956.176a4.268,4.268,0,0,1-3.283-1.318,5.058,5.058,0,0,1-1.226-3.586Zm2.54.18a3.555,3.555,0,0,0,.51,2.073,1.682,1.682,0,0,0,1.459.717A1.686,1.686,0,0,0,21.4-2.581a3.89,3.89,0,0,0,.519-2.267,3.519,3.519,0,0,0-.519-2.06,1.686,1.686,0,0,0-1.459-.731,1.658,1.658,0,0,0-1.441.726A3.955,3.955,0,0,0,17.987-4.662ZM20.439-13.5h2.769l-2.435,2.725H18.708Zm5.212,8.675A5.573,5.573,0,0,1,26.692-8.35,3.375,3.375,0,0,1,29.5-9.686a2.96,2.96,0,0,1,2.435,1.072l.105-.9h2.3V-.316a4.064,4.064,0,0,1-.567,2.171,3.641,3.641,0,0,1-1.6,1.406,5.608,5.608,0,0,1-2.408.483,5.215,5.215,0,0,1-2.039-.417,3.619,3.619,0,0,1-1.5-1.077L27.356.7a2.975,2.975,0,0,0,2.3,1.063,2.178,2.178,0,0,0,1.573-.541,2.027,2.027,0,0,0,.563-1.534v-.51a2.938,2.938,0,0,1-2.312.993,3.366,3.366,0,0,1-2.773-1.34A5.572,5.572,0,0,1,25.651-4.72Zm2.54.189a3.47,3.47,0,0,0,.519,2.029,1.65,1.65,0,0,0,1.424.735,1.764,1.764,0,0,0,1.661-.871V-6.749a1.76,1.76,0,0,0-1.644-.871,1.66,1.66,0,0,0-1.437.748A3.911,3.911,0,0,0,28.191-4.636ZM38.975,0H36.426V-9.51h2.549Zm-2.7-11.971a1.251,1.251,0,0,1,.382-.94A1.436,1.436,0,0,1,37.7-13.28a1.44,1.44,0,0,1,1.037.369,1.244,1.244,0,0,1,.387.94,1.247,1.247,0,0,1-.391.949,1.443,1.443,0,0,1-1.033.369,1.443,1.443,0,0,1-1.033-.369A1.247,1.247,0,0,1,36.277-11.971Zm8.745,10.1a1.666,1.666,0,0,0,1.143-.387,1.355,1.355,0,0,0,.457-1.028H49a3.258,3.258,0,0,1-.527,1.771A3.48,3.48,0,0,1,47.057-.268a4.442,4.442,0,0,1-1.991.444,4.129,4.129,0,0,1-3.217-1.3A5.13,5.13,0,0,1,40.671-4.7v-.167A5.071,5.071,0,0,1,41.84-8.376a4.08,4.08,0,0,1,3.208-1.31A4,4,0,0,1,47.909-8.67,3.594,3.594,0,0,1,49-5.968H46.622a1.745,1.745,0,0,0-.457-1.206A1.524,1.524,0,0,0,45-7.638a1.53,1.53,0,0,0-1.34.647,3.749,3.749,0,0,0-.453,2.1v.264a3.8,3.8,0,0,0,.448,2.113A1.549,1.549,0,0,0,45.022-1.872Zm5.036-2.971A5.64,5.64,0,0,1,50.6-7.365a3.989,3.989,0,0,1,1.569-1.714,4.577,4.577,0,0,1,2.377-.606,4.33,4.33,0,0,1,3.142,1.178,4.727,4.727,0,0,1,1.358,3.2l.018.65a4.97,4.97,0,0,1-1.222,3.511A4.247,4.247,0,0,1,54.567.176a4.268,4.268,0,0,1-3.283-1.318,5.058,5.058,0,0,1-1.226-3.586Zm2.54.18a3.555,3.555,0,0,0,.51,2.073,1.682,1.682,0,0,0,1.459.717,1.686,1.686,0,0,0,1.441-.709,3.89,3.89,0,0,0,.519-2.267,3.519,3.519,0,0,0-.519-2.06,1.686,1.686,0,0,0-1.459-.731,1.658,1.658,0,0,0-1.441.726A3.955,3.955,0,0,0,52.6-4.662ZM65.782-2.628a.818.818,0,0,0-.461-.734,5.241,5.241,0,0,0-1.481-.479q-3.393-.712-3.393-2.883A2.613,2.613,0,0,1,61.5-8.837a4.237,4.237,0,0,1,2.747-.848,4.56,4.56,0,0,1,2.9.853,2.687,2.687,0,0,1,1.085,2.215h-2.54a1.229,1.229,0,0,0-.352-.9,1.488,1.488,0,0,0-1.1-.356,1.52,1.52,0,0,0-.993.29.916.916,0,0,0-.352.738.783.783,0,0,0,.4.681,4.114,4.114,0,0,0,1.349.448,11.019,11.019,0,0,1,1.6.426,2.628,2.628,0,0,1,2.013,2.558,2.481,2.481,0,0,1-1.116,2.1,4.815,4.815,0,0,1-2.883.8A5.029,5.029,0,0,1,62.13-.25a3.561,3.561,0,0,1-1.455-1.169,2.716,2.716,0,0,1-.527-1.6h2.408a1.326,1.326,0,0,0,.5,1.037,1.987,1.987,0,0,0,1.248.36,1.839,1.839,0,0,0,1.1-.277A.861.861,0,0,0,65.782-2.628ZM78.746.176A4.668,4.668,0,0,1,75.34-1.107a4.561,4.561,0,0,1-1.314-3.419v-.246a5.745,5.745,0,0,1,.554-2.562,4.064,4.064,0,0,1,1.569-1.74,4.4,4.4,0,0,1,2.316-.611,3.947,3.947,0,0,1,3.072,1.23,5,5,0,0,1,1.121,3.489v1.037H76.6a2.36,2.36,0,0,0,.743,1.494,2.245,2.245,0,0,0,1.569.563,2.742,2.742,0,0,0,2.294-1.063l1.248,1.4A3.813,3.813,0,0,1,80.908-.277,5.075,5.075,0,0,1,78.746.176Zm-.29-7.813a1.587,1.587,0,0,0-1.226.512,2.651,2.651,0,0,0-.6,1.466h3.533v-.2A1.891,1.891,0,0,0,79.7-7.174,1.638,1.638,0,0,0,78.456-7.638Zm7.98-1.872.079,1.1a3.32,3.32,0,0,1,2.733-1.274A2.759,2.759,0,0,1,91.5-8.8a4.142,4.142,0,0,1,.756,2.654V0h-2.54V-6.082a1.648,1.648,0,0,0-.352-1.173,1.574,1.574,0,0,0-1.169-.365,1.747,1.747,0,0,0-1.608.914V0h-2.54V-9.51ZM101.342,0H98.793V-13.5h2.549Zm7.6,0a2.821,2.821,0,0,1-.255-.853,3.073,3.073,0,0,1-2.4,1.028,3.376,3.376,0,0,1-2.316-.809,2.6,2.6,0,0,1-.918-2.039,2.687,2.687,0,0,1,1.121-2.32,5.529,5.529,0,0,1,3.239-.817h1.169v-.545a1.567,1.567,0,0,0-.338-1.055,1.331,1.331,0,0,0-1.068-.4,1.513,1.513,0,0,0-1.006.308,1.045,1.045,0,0,0-.365.844h-2.54a2.551,2.551,0,0,1,.51-1.529,3.37,3.37,0,0,1,1.441-1.1,5.253,5.253,0,0,1,2.092-.4A4.15,4.15,0,0,1,110.1-8.8a3.09,3.09,0,0,1,1.033,2.483V-2.2a4.546,4.546,0,0,0,.378,2.048V0Zm-2.1-1.767a2.188,2.188,0,0,0,1.037-.25,1.645,1.645,0,0,0,.7-.672V-4.324h-.949q-1.907,0-2.03,1.318l-.009.149a1.017,1.017,0,0,0,.334.782A1.3,1.3,0,0,0,106.844-1.767Zm13.764-10.081V-9.51h1.626v1.863h-1.626V-2.9a1.133,1.133,0,0,0,.2.756,1.015,1.015,0,0,0,.773.229,4.051,4.051,0,0,0,.747-.062V-.053a5.229,5.229,0,0,1-1.538.229,2.425,2.425,0,0,1-2.725-2.7V-7.646h-1.389V-9.51h1.389v-2.338Zm8.385,4.72a6.9,6.9,0,0,0-.914-.07,1.86,1.86,0,0,0-1.89.976V0h-2.54V-9.51h2.4l.07,1.134a2.354,2.354,0,0,1,2.118-1.31,2.662,2.662,0,0,1,.791.114ZM135.461,0a2.821,2.821,0,0,1-.255-.853,3.073,3.073,0,0,1-2.4,1.028,3.376,3.376,0,0,1-2.316-.809,2.6,2.6,0,0,1-.918-2.039,2.687,2.687,0,0,1,1.121-2.32,5.529,5.529,0,0,1,3.239-.817H135.1v-.545a1.567,1.567,0,0,0-.338-1.055,1.331,1.331,0,0,0-1.068-.4,1.513,1.513,0,0,0-1.006.308,1.045,1.045,0,0,0-.365.844h-2.54a2.551,2.551,0,0,1,.51-1.529,3.37,3.37,0,0,1,1.441-1.1,5.253,5.253,0,0,1,2.092-.4,4.15,4.15,0,0,1,2.791.883,3.09,3.09,0,0,1,1.033,2.483V-2.2a4.546,4.546,0,0,0,.378,2.048V0Zm-2.1-1.767a2.188,2.188,0,0,0,1.037-.25,1.645,1.645,0,0,0,.7-.672V-4.324h-.949q-1.907,0-2.03,1.318l-.009.149a1.017,1.017,0,0,0,.334.782A1.3,1.3,0,0,0,133.361-1.767Zm5.845-3.059a5.731,5.731,0,0,1,1-3.542,3.237,3.237,0,0,1,2.729-1.318,2.913,2.913,0,0,1,2.294,1.037V-13.5h2.549V0h-2.294l-.123-1.011A2.989,2.989,0,0,1,142.915.176a3.228,3.228,0,0,1-2.694-1.323A5.916,5.916,0,0,1,139.206-4.825Zm2.54.189a3.754,3.754,0,0,0,.466,2.051,1.517,1.517,0,0,0,1.354.713,1.7,1.7,0,0,0,1.661-.995V-6.625a1.675,1.675,0,0,0-1.644-.995Q141.746-7.62,141.746-4.636ZM155.439-.967a3.185,3.185,0,0,1-2.6,1.143A3,3,0,0,1,150.5-.7a3.752,3.752,0,0,1-.822-2.575V-9.51h2.54v6.151q0,1.487,1.354,1.487a1.834,1.834,0,0,0,1.775-.9V-9.51H157.9V0h-2.391Zm8.332-.905a1.666,1.666,0,0,0,1.143-.387,1.355,1.355,0,0,0,.457-1.028h2.382a3.258,3.258,0,0,1-.527,1.771,3.48,3.48,0,0,1-1.419,1.248,4.442,4.442,0,0,1-1.991.444,4.129,4.129,0,0,1-3.217-1.3A5.13,5.13,0,0,1,159.42-4.7v-.167a5.071,5.071,0,0,1,1.169-3.507,4.08,4.08,0,0,1,3.208-1.31,4,4,0,0,1,2.861,1.015,3.594,3.594,0,0,1,1.094,2.7h-2.382a1.745,1.745,0,0,0-.457-1.206,1.524,1.524,0,0,0-1.16-.464,1.53,1.53,0,0,0-1.34.647,3.749,3.749,0,0,0-.453,2.1v.264a3.8,3.8,0,0,0,.448,2.113A1.549,1.549,0,0,0,163.771-1.872Zm9.387,0a1.666,1.666,0,0,0,1.143-.387,1.355,1.355,0,0,0,.457-1.028h2.382a3.258,3.258,0,0,1-.527,1.771,3.48,3.48,0,0,1-1.419,1.248A4.442,4.442,0,0,1,173.2.176a4.129,4.129,0,0,1-3.217-1.3A5.13,5.13,0,0,1,168.807-4.7v-.167a5.071,5.071,0,0,1,1.169-3.507,4.08,4.08,0,0,1,3.208-1.31,4,4,0,0,1,2.861,1.015,3.594,3.594,0,0,1,1.094,2.7h-2.382a1.745,1.745,0,0,0-.457-1.206,1.524,1.524,0,0,0-1.16-.464,1.53,1.53,0,0,0-1.34.647,3.749,3.749,0,0,0-.453,2.1v.264a3.8,3.8,0,0,0,.448,2.113A1.549,1.549,0,0,0,173.158-1.872ZM181.27,0h-2.549V-9.51h2.549Zm-2.7-11.971a1.251,1.251,0,0,1,.382-.94A1.436,1.436,0,0,1,180-13.28a1.44,1.44,0,0,1,1.037.369,1.244,1.244,0,0,1,.387.94,1.247,1.247,0,0,1-.391.949,1.443,1.443,0,0,1-1.033.369,1.443,1.443,0,0,1-1.033-.369A1.247,1.247,0,0,1,178.572-11.971Zm4.395,7.128a5.64,5.64,0,0,1,.545-2.522,3.989,3.989,0,0,1,1.569-1.714,4.577,4.577,0,0,1,2.377-.606A4.33,4.33,0,0,1,190.6-8.508a4.727,4.727,0,0,1,1.358,3.2l.018.65a4.97,4.97,0,0,1-1.222,3.511A4.247,4.247,0,0,1,187.475.176a4.268,4.268,0,0,1-3.283-1.318,5.058,5.058,0,0,1-1.226-3.586Zm2.54.18a3.555,3.555,0,0,0,.51,2.073,1.682,1.682,0,0,0,1.459.717,1.686,1.686,0,0,0,1.441-.709,3.89,3.89,0,0,0,.519-2.267,3.519,3.519,0,0,0-.519-2.06,1.686,1.686,0,0,0-1.459-.731,1.658,1.658,0,0,0-1.441.726A3.955,3.955,0,0,0,185.506-4.662Zm2.452-8.838h2.769l-2.435,2.725h-2.065Zm7.919,3.99.079,1.1a3.32,3.32,0,0,1,2.733-1.274,2.759,2.759,0,0,1,2.25.888,4.142,4.142,0,0,1,.756,2.654V0h-2.54V-6.082a1.648,1.648,0,0,0-.352-1.173,1.574,1.574,0,0,0-1.169-.365,1.747,1.747,0,0,0-1.608.914V0h-2.54V-9.51Z" transform="translate(-9372.499 -6456.001)" fill="#fff"/>
  </g>
</svg>
