<svg xmlns="http://www.w3.org/2000/svg" xmlns:xlink="http://www.w3.org/1999/xlink" width="85" height="78" viewBox="0 0 85 78">
  <defs>
    <filter id="Elipse_7683" x="5" y="3" width="75" height="75" filterUnits="userSpaceOnUse">
      <feOffset dy="3" input="SourceAlpha"/>
      <feGaussianBlur stdDeviation="3" result="blur"/>
      <feFlood flood-opacity="0.161"/>
      <feComposite operator="in" in2="blur"/>
      <feComposite in="SourceGraphic"/>
    </filter>
  </defs>
  <g id="Grupo_1005921" data-name="Grupo 1005921" transform="translate(-180 -5774)">
    <rect id="Rectángulo_345652" data-name="Rectángulo 345652" width="85" height="75" rx="5" transform="translate(180 5774)" fill="#4db1f0"/>
    <g id="Grupo_1003705" data-name="Grupo 1003705" transform="translate(-1.762 5368.238)">
      <g transform="matrix(1, 0, 0, 1, 181.76, 405.76)" filter="url(#Elipse_7683)">
        <circle id="Elipse_7683-2" data-name="Elipse 7683" cx="28.5" cy="28.5" r="28.5" transform="translate(14 9)" fill="#bfe5f9"/>
      </g>
    </g>
    <g id="flat" transform="translate(195.576 5789.152)">
      <path id="Trazado_695581" data-name="Trazado 695581" d="M3,11H50.848V39.874H3Z" transform="translate(0 -1.4)" fill="#394d5c"/>
      <path id="Trazado_695582" data-name="Trazado 695582" d="M45.949,7H9.65A1.65,1.65,0,0,0,8,8.65V30.924a1.65,1.65,0,0,0,1.65,1.65h16.5a1.65,1.65,0,0,0,3.3,0h16.5a1.65,1.65,0,0,0,1.65-1.65V8.65A1.65,1.65,0,0,0,45.949,7Z" transform="translate(-0.875 -0.7)" fill="#f9bb4b"/>
      <path id="Trazado_695583" data-name="Trazado 695583" d="M3,46H50.848v2.475a1.65,1.65,0,0,1-1.65,1.65H4.65A1.65,1.65,0,0,1,3,48.475Z" transform="translate(0 -7.526)" fill="#7d8d9c"/>
      <path id="Trazado_695584" data-name="Trazado 695584" d="M26.3,51h8.25l3.3,4.95H23Z" transform="translate(-3.501 -8.402)" fill="#aabece"/>
      <path id="Trazado_695585" data-name="Trazado 695585" d="M14,57H43.7v3.3H14Z" transform="translate(-1.925 -9.452)" fill="#7d8d9c"/>
      <path id="Trazado_695586" data-name="Trazado 695586" d="M21.075,3A27.231,27.231,0,0,0,12,4.65V28.574s6.6-2.475,16.5,0V5.475C26.849,3.825,25.2,3,21.075,3Z" transform="translate(-1.575 0)" fill="#f4f4e6"/>
      <path id="Trazado_695587" data-name="Trazado 695587" d="M39.425,3C35.3,3,33.65,3.825,32,5.475v23.1c9.9-2.475,16.5,0,16.5,0V4.65A27.231,27.231,0,0,0,39.425,3Z" transform="translate(-5.076 0)" fill="#dddcca"/>
      <path id="Trazado_695588" data-name="Trazado 695588" d="M56,41h1.65v1.65H56Z" transform="translate(-9.277 -6.651)" fill="#aabece"/>
      <path id="Trazado_695589" data-name="Trazado 695589" d="M52,41h1.65v1.65H52Z" transform="translate(-8.577 -6.651)" fill="#aabece"/>
      <path id="Trazado_695590" data-name="Trazado 695590" d="M6,41H7.65v1.65H6Z" transform="translate(-0.525 -6.651)" fill="#aabece"/>
      <g id="Grupo_955113" data-name="Grupo 955113" transform="translate(12.9 6.3)">
        <path id="Trazado_695591" data-name="Trazado 695591" d="M24.2,10.3h1.65V8.65H21.725V7h-1.65V8.65H15.95V10.3h6.6a5.309,5.309,0,0,1-1.867,3.254,14.9,14.9,0,0,1-1.548-2.03l-1.414.851a16.034,16.034,0,0,0,1.628,2.166,15.236,15.236,0,0,1-3.636,1.567l.474,1.581a16.507,16.507,0,0,0,4.359-1.951A8.467,8.467,0,0,0,24,17.7l.4-1.6a6.538,6.538,0,0,1-2.526-1.389A6.765,6.765,0,0,0,24.2,10.3Z" transform="translate(-15.125 -7)" fill="#195c85"/>
        <path id="Trazado_695592" data-name="Trazado 695592" d="M43.635,18.117l1.592-.434L42.752,8.608a.825.825,0,0,0-.8-.608h-1.65a.825.825,0,0,0-.8.608l-2.475,9.074,1.592.434.959-3.517h3.09Zm-3.6-5.167.9-3.3h.389l.9,3.3Z" transform="translate(-18.857 -7.175)" fill="#195c85"/>
        <path id="Trazado_695593" data-name="Trazado 695593" d="M15,23h5.775v1.65H15Z" transform="translate(-15 -9.801)" fill="#195c85"/>
        <path id="Trazado_695594" data-name="Trazado 695594" d="M24,23h4.125v1.65H24Z" transform="translate(-16.575 -9.801)" fill="#195c85"/>
        <path id="Trazado_695595" data-name="Trazado 695595" d="M15,27h3.3v1.65H15Z" transform="translate(-15 -10.501)" fill="#195c85"/>
        <path id="Trazado_695596" data-name="Trazado 695596" d="M21,27h6.6v1.65H21Z" transform="translate(-16.05 -10.501)" fill="#195c85"/>
        <path id="Trazado_695597" data-name="Trazado 695597" d="M35,23h4.125v1.65H35Z" transform="translate(-18.501 -9.801)" fill="#195c85"/>
        <path id="Trazado_695598" data-name="Trazado 695598" d="M42,23h5.775v1.65H42Z" transform="translate(-19.726 -9.801)" fill="#195c85"/>
        <path id="Trazado_695599" data-name="Trazado 695599" d="M35,27h2.475v1.65H35Z" transform="translate(-18.501 -10.501)" fill="#195c85"/>
        <path id="Trazado_695600" data-name="Trazado 695600" d="M40,27h3.3v1.65H40Z" transform="translate(-19.376 -10.501)" fill="#195c85"/>
        <path id="Trazado_695601" data-name="Trazado 695601" d="M46,27h2.475v1.65H46Z" transform="translate(-20.426 -10.501)" fill="#195c85"/>
      </g>
    </g>
  </g>
</svg>
