<svg xmlns="http://www.w3.org/2000/svg" xmlns:xlink="http://www.w3.org/1999/xlink" width="117" height="117" viewBox="0 0 117 117">
  <defs>
    <filter id="Elipse_7694" x="0" y="0" width="117" height="117" filterUnits="userSpaceOnUse">
      <feOffset dy="3" input="SourceAlpha"/>
      <feGaussianBlur stdDeviation="3" result="blur"/>
      <feFlood flood-opacity="0.161"/>
      <feComposite operator="in" in2="blur"/>
      <feComposite in="SourceGraphic"/>
    </filter>
  </defs>
  <g id="Grupo_1010191" data-name="Grupo 1010191" transform="translate(-269 -588)">
    <g transform="matrix(1, 0, 0, 1, 269, 588)" filter="url(#Elipse_7694)">
      <circle id="Elipse_7694-2" data-name="Elipse 7694" cx="49.5" cy="49.5" r="49.5" transform="translate(9 6)" fill="#0098e8"/>
    </g>
    <g id="traductor" transform="translate(298 601)">
      <path id="Trazado_715409" data-name="Trazado 715409" d="M39.569,350.9v-6.628H19.052V350.9a2.931,2.931,0,0,1-2.069,2.8L4.138,357.658A5.862,5.862,0,0,0,0,363.261v5.929a2.931,2.931,0,0,0,2.931,2.931H55.69a2.931,2.931,0,0,0,2.931-2.931v-5.929a5.862,5.862,0,0,0-4.138-5.6l-12.844-3.952A2.931,2.931,0,0,1,39.569,350.9Z" transform="translate(0 -287.121)" fill="#e6af78"/>
      <path id="Trazado_715410" data-name="Trazado 715410" d="M104.564,353.52c13.906,4.638,22.148-8.267,22.148-8.267l.011-.977H106.257v6.628A2.9,2.9,0,0,1,104.564,353.52Z" transform="translate(-87.205 -287.122)" fill="#d29b6e"/>
      <path id="Trazado_715411" data-name="Trazado 715411" d="M54.483,407.441,43.2,403.969c-1.93,2.69-7.344,9.438-13.889,10.607-6.545-1.169-11.96-7.917-13.889-10.607L4.138,407.441A5.862,5.862,0,0,0,0,413.044v5.929A2.931,2.931,0,0,0,2.931,421.9H55.69a2.931,2.931,0,0,0,2.931-2.931v-5.929A5.862,5.862,0,0,0,54.483,407.441Z" transform="translate(0 -336.904)" fill="#00d2ff"/>
      <path id="Trazado_715412" data-name="Trazado 715412" d="M402.375,17.655h-8.362l-8.1,22.96a1.466,1.466,0,0,0,1.382,1.953h15.084a4.4,4.4,0,0,0,4.4-4.4V22.052A4.4,4.4,0,0,0,402.375,17.655Z" transform="translate(-321.772 -14.724)" fill="#28aff0"/>
      <path id="Trazado_715413" data-name="Trazado 715413" d="M295.707,0a4.4,4.4,0,0,0-4.4,4.4V20.517a4.4,4.4,0,0,0,4.4,4.4v4.851a1.026,1.026,0,0,0,1.751.725l5.576-5.576h4.4l8.1-22.96A1.466,1.466,0,0,0,314.153,0Z" transform="translate(-242.948)" fill="#e4eaf6"/>
      <path id="Trazado_715414" data-name="Trazado 715414" d="M96.624,157.705l5.882-4.9a5.862,5.862,0,0,0,2.036-3.577l3.343-20.891a11.724,11.724,0,0,0-11.577-13.576H85.7a11.724,11.724,0,0,0-11.577,13.576l3.343,20.891A5.862,5.862,0,0,0,79.5,152.8l5.882,4.9a4.4,4.4,0,0,0,2.814,1.019h5.61A4.4,4.4,0,0,0,96.624,157.705Z" transform="translate(-61.694 -95.707)" fill="#f0c087"/>
      <path id="Trazado_715415" data-name="Trazado 715415" d="M88.826,198.6h14.655v-4.4H75.208l-.33.387,3.343,20.891a5.863,5.863,0,0,0,2.036,3.577l5.882,4.9a4.4,4.4,0,0,0,2.815,1.019h1.339l-2.4-7.214a10.26,10.26,0,0,1-.526-3.244V200.069A1.465,1.465,0,0,1,88.826,198.6Z" transform="translate(-62.447 -161.966)" fill="#e6af78"/>
      <g id="Grupo_1006114" data-name="Grupo 1006114" transform="translate(0 72.026)">
        <path id="Trazado_715416" data-name="Trazado 715416" d="M8.677,439.7,1.714,433.92A5.854,5.854,0,0,0,0,438.054v5.9a2.931,2.931,0,0,0,2.931,2.931h7.328v-3.8A4.4,4.4,0,0,0,8.677,439.7Z" transform="translate(0 -433.909)" fill="#14c0f7"/>
        <path id="Trazado_715417" data-name="Trazado 715417" d="M301.569,443.894V438a5.855,5.855,0,0,0-1.724-4.146l-6.952,5.794a4.4,4.4,0,0,0-1.582,3.377v3.8h7.328A2.931,2.931,0,0,0,301.569,443.894Z" transform="translate(-242.948 -433.851)" fill="#14c0f7"/>
      </g>
      <path id="Trazado_715418" data-name="Trazado 715418" d="M200.2,298.724c-.073.249-1.909,6.1-13.081,6.1v2.931c13.556,0,15.819-7.92,15.909-8.258Z" transform="translate(-156.055 -249.131)" fill="#464655"/>
      <circle id="Elipse_7776" data-name="Elipse 7776" cx="1.466" cy="1.466" r="1.466" transform="translate(29.6 55.69)" fill="#5b5d6e"/>
      <g id="Grupo_1006115" data-name="Grupo 1006115" transform="translate(10.658 42.5)">
        <path id="Trazado_715419" data-name="Trazado 715419" d="M67.552,256H65.666a1.466,1.466,0,0,0-1.466,1.466v5.862a1.466,1.466,0,0,0,1.466,1.466h3.293Z" transform="translate(-64.2 -256)" fill="#707487"/>
        <path id="Trazado_715420" data-name="Trazado 715420" d="M263.931,256h-2.286l-1.407,8.793h3.693a1.466,1.466,0,0,0,1.466-1.466v-5.862A1.466,1.466,0,0,0,263.931,256Z" transform="translate(-227.693 -256)" fill="#707487"/>
      </g>
      <path id="Trazado_715421" data-name="Trazado 715421" d="M433.924,64.287l-2.931-10.259a1.467,1.467,0,0,0-1.41-1.063h-1.466a1.467,1.467,0,0,0-1.41,1.063l-2.931,10.259a1.466,1.466,0,0,0,2.819.806l.533-1.869h3.441l.534,1.868a1.466,1.466,0,0,0,2.82-.806Zm-5.957-3.994.883-3.092.883,3.092Z" transform="translate(-353.376 -44.173)" fill="#fff"/>
      <path id="Trazado_715422" data-name="Trazado 715422" d="M330.981,27.948h-4.4a1.466,1.466,0,0,0-2.931,0h-4.4a1.466,1.466,0,0,0,0,2.931H326.4a10.534,10.534,0,0,1-1.258,3.272,9.916,9.916,0,0,1-.544-.946,1.466,1.466,0,0,0-2.668,1.217,12.784,12.784,0,0,0,1.218,2.111,10.515,10.515,0,0,1-2.971,1.778,1.466,1.466,0,1,0,1.088,2.722,13.488,13.488,0,0,0,3.872-2.332,13.417,13.417,0,0,0,3.834,2.332,1.465,1.465,0,1,0,1.088-2.721,10.474,10.474,0,0,1-2.953-1.8,13.561,13.561,0,0,0,2.271-5.636h1.6a1.466,1.466,0,1,0,0-2.931Z" transform="translate(-265.033 -22.086)" fill="#707487"/>
      <path id="Trazado_715423" data-name="Trazado 715423" d="M96.306,114.759H85.7a11.724,11.724,0,0,0-11.577,13.576l1.58,9.872h2.334a1.465,1.465,0,0,0,1.445-1.225l1.057-6.344a1.466,1.466,0,0,1,1.445-1.225H100.02a1.465,1.465,0,0,1,1.446,1.225l1.057,6.344a1.466,1.466,0,0,0,1.445,1.225H106.3l1.579-9.872A11.724,11.724,0,0,0,96.306,114.759Z" transform="translate(-61.693 -95.707)" fill="#5a4146"/>
      <path id="Trazado_715424" data-name="Trazado 715424" d="M75.162,404.876c1.432,2.132,7.887,11.082,16.317,12.587l.515.092.515-.092c8.43-1.505,14.885-10.455,16.317-12.587l-2.943-.905c-1.93,2.69-7.344,9.438-13.889,10.607-6.545-1.169-11.96-7.917-13.889-10.607Z" transform="translate(-62.684 -336.905)" fill="#14c0f7"/>
    </g>
  </g>
</svg>
