<svg xmlns="http://www.w3.org/2000/svg" xmlns:xlink="http://www.w3.org/1999/xlink" width="117" height="117" viewBox="0 0 117 117">
  <defs>
    <filter id="Elipse_7696" x="0" y="0" width="117" height="117" filterUnits="userSpaceOnUse">
      <feOffset dy="3" input="SourceAlpha"/>
      <feGaussianBlur stdDeviation="3" result="blur"/>
      <feFlood flood-opacity="0.161"/>
      <feComposite operator="in" in2="blur"/>
      <feComposite in="SourceGraphic"/>
    </filter>
  </defs>
  <g id="Grupo_1010193" data-name="Grupo 1010193" transform="translate(-899 -588)">
    <g transform="matrix(1, 0, 0, 1, 899, 588)" filter="url(#Elipse_7696)">
      <circle id="Elipse_7696-2" data-name="Elipse 7696" cx="49.5" cy="49.5" r="49.5" transform="translate(9 6)" fill="#81c8f4"/>
    </g>
    <g id="idioma_1_" data-name="idioma (1)" transform="translate(913 595.305)">
      <path id="Trazado_715394" data-name="Trazado 715394" d="M9.713,12H78.267a5.713,5.713,0,0,1,5.713,5.713V66.272H4V17.713A5.713,5.713,0,0,1,9.713,12Z" transform="translate(0.856 2.997)" fill="#574d56"/>
      <path id="Trazado_715395" data-name="Trazado 715395" d="M8,16.038H76.554V58.884H8Z" transform="translate(2.569 4.727)" fill="#f7ebe7"/>
      <path id="Trazado_715396" data-name="Trazado 715396" d="M8,16.038V53.172H63.7a4.285,4.285,0,0,0,4.285-4.285V16.038Z" transform="translate(2.569 4.727)" fill="#fbf7f7"/>
      <path id="Trazado_715397" data-name="Trazado 715397" d="M12,5H43.421V36.421H12Z" transform="translate(4.282)" fill="#0088d4"/>
      <path id="Trazado_715398" data-name="Trazado 715398" d="M12,5V30.708H31.995a5.713,5.713,0,0,0,5.713-5.713V5Z" transform="translate(4.282)" fill="#309ada"/>
      <path id="Trazado_715399" data-name="Trazado 715399" d="M30,22H61.421V50.564H30Z" transform="translate(11.99 7.28)" fill="#f3a845"/>
      <path id="Trazado_715400" data-name="Trazado 715400" d="M30,22V46.28H52.851a5.713,5.713,0,0,0,5.713-5.713V22Z" transform="translate(11.99 7.28)" fill="#eecc61"/>
      <path id="Trazado_715401" data-name="Trazado 715401" d="M2,50H87.693v5.713a5.713,5.713,0,0,1-5.713,5.713H7.713A5.713,5.713,0,0,1,2,55.713Z" transform="translate(0 19.27)" fill="#6c5e69"/>
      <path id="Trazado_715402" data-name="Trazado 715402" d="M23,50l2.856,5.713H45.851L48.708,50Z" transform="translate(8.992 19.27)" fill="#a9a9a9"/>
      <g id="Grupo_1006113" data-name="Grupo 1006113" transform="translate(23.423 9.285)">
        <path id="Trazado_715403" data-name="Trazado 715403" d="M59.426,52.428A1.428,1.428,0,0,1,58,53.856H49.428a1.428,1.428,0,1,1,0-2.856H58A1.428,1.428,0,0,1,59.426,52.428Z" transform="translate(-3.725 10.413)" fill="#fff"/>
        <path id="Trazado_715404" data-name="Trazado 715404" d="M61.285,52.428a1.428,1.428,0,0,1-1.428,1.428H58.428a1.428,1.428,0,1,1,0-2.856h1.428A1.428,1.428,0,0,1,61.285,52.428Z" transform="translate(0.129 10.413)" fill="#fff"/>
        <path id="Trazado_715405" data-name="Trazado 715405" d="M43.141,25A7.15,7.15,0,0,0,36,32.141V44.995h2.856V40.71h8.569v4.285h2.856V32.141A7.15,7.15,0,0,0,43.141,25ZM38.856,37.854V32.141a4.285,4.285,0,1,1,8.569,0v5.713Z" transform="translate(-8.864 -0.72)" fill="#fff"/>
        <path id="Trazado_715406" data-name="Trazado 715406" d="M27,8H24.141v4.285H17v2.856H29.764a16.436,16.436,0,0,1-4.195,9.693,16.616,16.616,0,0,1-2.928-4.552l-2.624,1.131a19.468,19.468,0,0,0,3.456,5.357,16.851,16.851,0,0,1-1.428,1.021L19.1,29.635l1.514,2.428L23.56,30.22a19.948,19.948,0,0,0,2.018-1.447,19.556,19.556,0,0,0,2,1.447l2.948,1.842,1.514-2.428-2.948-1.842a16.738,16.738,0,0,1-1.428-1.017A19.281,19.281,0,0,0,32.62,15.141h1.518V12.285H27Z" transform="translate(-17 -8)" fill="#fff"/>
      </g>
      <path id="Trazado_715407" data-name="Trazado 715407" d="M23.851,28.545l-2.542,1.3a17.249,17.249,0,0,0,8.119,7.789l1.193-2.6a14.385,14.385,0,0,1-6.77-6.493Z" transform="translate(8.268 10.082)" fill="#a9a9a9"/>
      <path id="Trazado_715408" data-name="Trazado 715408" d="M37.845,13.309l-1.3,2.544a14.3,14.3,0,0,1,6.817,7.531l2.662-1.038a17.139,17.139,0,0,0-8.179-9.036Z" transform="translate(14.793 3.558)" fill="#a9a9a9"/>
    </g>
  </g>
</svg>
