<svg xmlns="http://www.w3.org/2000/svg" xmlns:xlink="http://www.w3.org/1999/xlink" width="117" height="117" viewBox="0 0 117 117">
  <defs>
    <filter id="Elipse_7697" x="0" y="0" width="117" height="117" filterUnits="userSpaceOnUse">
      <feOffset dy="3" input="SourceAlpha"/>
      <feGaussianBlur stdDeviation="3" result="blur"/>
      <feFlood flood-opacity="0.161"/>
      <feComposite operator="in" in2="blur"/>
      <feComposite in="SourceGraphic"/>
    </filter>
  </defs>
  <g id="Grupo_1010194" data-name="Grupo 1010194" transform="translate(-1214 -588)">
    <g transform="matrix(1, 0, 0, 1, 1214, 588)" filter="url(#Elipse_7697)">
      <circle id="Elipse_7697-2" data-name="Elipse 7697" cx="49.5" cy="49.5" r="49.5" transform="translate(9 6)" fill="#81c8f4" opacity="0.996"/>
    </g>
    <g id="traduccion" transform="translate(1235 599)">
      <path id="Trazado_715425" data-name="Trazado 715425" d="M253.679,165.886h-.506V159.3a2.2,2.2,0,0,0-2.419-2.186,16.116,16.116,0,0,0-12.088,8.772h-19.4a2.2,2.2,0,0,0-2.2,2.2V202.5a6.6,6.6,0,0,0,6.589,6.589h30.025a6.6,6.6,0,0,0,6.589-6.589V172.475A6.6,6.6,0,0,0,253.679,165.886Z" transform="translate(-185.268 -134.09)" fill="#9fdafe"/>
      <path id="Trazado_715426" data-name="Trazado 715426" d="M379.545,209.09a6.6,6.6,0,0,0,6.589-6.589V172.476a6.6,6.6,0,0,0-6.589-6.589h-.506V159.3a2.2,2.2,0,0,0-2.419-2.186,16.116,16.116,0,0,0-12.088,8.772v43.2Z" transform="translate(-311.134 -134.091)" fill="#1fcbff"/>
      <path id="Trazado_715427" data-name="Trazado 715427" d="M311.12,308.175l-8.82-17.64a2.2,2.2,0,0,0-3.931,0l-8.82,17.64a2.2,2.2,0,1,0,3.93,1.965l1.6-3.2h10.514l1.6,3.2a2.2,2.2,0,0,0,3.931-1.965Zm-13.846-5.625,3.06-6.12,3.06,6.12Z" transform="translate(-246.936 -246.939)" fill="#364251"/>
      <path id="Trazado_715428" data-name="Trazado 715428" d="M366.5,290.535a2.2,2.2,0,0,0-1.965-1.215v7.111l3.06,6.12h-3.06v4.395h5.257l1.6,3.2a2.2,2.2,0,0,0,3.931-1.965Z" transform="translate(-311.135 -246.939)" fill="#232a32"/>
      <path id="Trazado_715429" data-name="Trazado 715429" d="M36.614,0H6.589A6.6,6.6,0,0,0,0,6.589V36.614A6.6,6.6,0,0,0,6.589,43.2H7.1V49.79a2.2,2.2,0,0,0,2.2,2.2,2.169,2.169,0,0,0,.222-.011A16.116,16.116,0,0,0,21.6,43.2h15.01A6.6,6.6,0,0,0,43.2,36.614V6.589A6.6,6.6,0,0,0,36.614,0Z" transform="translate(0 0)" fill="#f5f5fc"/>
      <path id="Trazado_715430" data-name="Trazado 715430" d="M162.493,0h-15.01V43.2h15.01a6.6,6.6,0,0,0,6.589-6.589V6.589A6.6,6.6,0,0,0,162.493,0Z" transform="translate(-125.879 0)" fill="#dfdff2"/>
      <path id="Trazado_715431" data-name="Trazado 715431" d="M92.1,89.9a13.607,13.607,0,0,1-5.437-1.426,15.578,15.578,0,0,0,3.111-8.292h2.317a2.2,2.2,0,0,0,0-4.395H85.469V74.452a2.2,2.2,0,1,0-4.395,0v1.331H74.451a2.2,2.2,0,0,0,0,4.395h2.317a15.579,15.579,0,0,0,3.111,8.292A13.615,13.615,0,0,1,74.451,89.9a2.2,2.2,0,0,0,0,4.395A17.88,17.88,0,0,0,82.1,92.267c.384-.205.777-.437,1.171-.694.394.258.787.489,1.171.694a17.88,17.88,0,0,0,7.649,2.023A2.2,2.2,0,0,0,92.1,89.9Zm-6.747-9.718a11.236,11.236,0,0,1-2.082,5.482,11.238,11.238,0,0,1-2.082-5.482Z" transform="translate(-61.67 -61.671)" fill="#364251"/>
      <path id="Trazado_715432" data-name="Trazado 715432" d="M338.651,4.43l.68-.68A2.2,2.2,0,0,0,336.223.643l-4.41,4.41a2.2,2.2,0,0,0,0,3.107l4.41,4.41a2.2,2.2,0,1,0,3.107-3.107l-.631-.631a15.462,15.462,0,0,1,14.52,15.415,2.2,2.2,0,1,0,4.395,0A19.861,19.861,0,0,0,338.651,4.43Z" transform="translate(-282.658)" fill="#232a32"/>
      <path id="Trazado_715433" data-name="Trazado 715433" d="M25.8,349.453l-4.41-4.41a2.2,2.2,0,0,0-3.107,3.107l.631.631a15.462,15.462,0,0,1-14.52-15.415,2.2,2.2,0,1,0-4.395,0,19.861,19.861,0,0,0,18.964,19.817l-.68.68a2.2,2.2,0,1,0,3.107,3.107l4.41-4.41A2.2,2.2,0,0,0,25.8,349.453Z" transform="translate(0 -282.658)" fill="#364251"/>
      <path id="Trazado_715434" data-name="Trazado 715434" d="M156.31,89.9a13.607,13.607,0,0,1-5.437-1.426,15.578,15.578,0,0,0,3.111-8.292H156.3a2.2,2.2,0,0,0,0-4.395h-6.623V74.453a2.2,2.2,0,0,0-2.2-2.2v7.922h2.08a11.239,11.239,0,0,1-2.08,5.479v5.918c.393.257.785.488,1.169.693a17.88,17.88,0,0,0,7.649,2.023,2.2,2.2,0,0,0,.009-4.395Z" transform="translate(-125.879 -61.672)" fill="#232a32"/>
    </g>
  </g>
</svg>
