<svg xmlns="http://www.w3.org/2000/svg" xmlns:xlink="http://www.w3.org/1999/xlink" width="85" height="91" viewBox="0 0 85 91">
  <defs>
    <filter id="Elipse_7683" x="6" y="10" width="77" height="77" filterUnits="userSpaceOnUse">
      <feOffset dy="3" input="SourceAlpha"/>
      <feGaussianBlur stdDeviation="3" result="blur"/>
      <feFlood flood-opacity="0.161"/>
      <feComposite operator="in" in2="blur"/>
      <feComposite in="SourceGraphic"/>
    </filter>
  </defs>
  <g id="Grupo_1006100" data-name="Grupo 1006100" transform="translate(-180 -837)">
    <rect id="Rectángulo_345654" data-name="Rectángulo 345654" width="85" height="91" rx="5" transform="translate(180 837)" fill="#4db1f0"/>
    <g id="Grupo_1003781" data-name="Grupo 1003781" transform="translate(195.197 853.281)">
      <g transform="matrix(1, 0, 0, 1, -15.2, -16.28)" filter="url(#Elipse_7683)">
        <circle id="Elipse_7683-2" data-name="Elipse 7683" cx="29.5" cy="29.5" r="29.5" transform="translate(15 16)" fill="#bfe5f9"/>
      </g>
    </g>
    <g id="perdedor" transform="translate(187.69 851.281)">
      <path id="Trazado_708800" data-name="Trazado 708800" d="M46.426,49.572A6.74,6.74,0,0,1,44,44.394V43.62H32v.774a6.74,6.74,0,0,1-2.426,5.178L34,54h8Z" fill="#cf8c78"/>
      <path id="Trazado_708801" data-name="Trazado 708801" d="M46.427,49.572a6.729,6.729,0,0,1-2.409-4.847c-.131.08-.26.163-.4.238a11.465,11.465,0,0,1-9.763.672.468.468,0,0,0-.629.337l-.012.048A6.675,6.675,0,0,1,29.8,50.213l-1,.531,2.864,4.005,2.631.438S36.3,54.512,37.476,54H42Z" fill="#f1b8a0"/>
      <path id="Trazado_708802" data-name="Trazado 708802" d="M53,14.574v2.355a99.371,99.371,0,0,1-.7,11.8H23.7a99.37,99.37,0,0,1-.7-11.8v-.907Z" fill="#4c4c4c"/>
      <g id="Grupo_1003782" data-name="Grupo 1003782">
        <path id="Trazado_708803" data-name="Trazado 708803" d="M26,28a4,4,0,0,0,0,8h.368" fill="#cf8c78"/>
        <path id="Trazado_708804" data-name="Trazado 708804" d="M50,28a4,4,0,0,1,0,8h-.368" fill="#cf8c78"/>
        <path id="Trazado_708805" data-name="Trazado 708805" d="M48.6,19.2l.06.121A12.7,12.7,0,0,1,50,25v8a12.4,12.4,0,0,1-6.378,10.839,11.561,11.561,0,0,1-11.244,0A12.4,12.4,0,0,1,26,33V25a12.7,12.7,0,0,1,1.342-5.684l.22-.44" fill="#cf8c78"/>
      </g>
      <path id="Trazado_708806" data-name="Trazado 708806" d="M34.378,43.839A11.567,11.567,0,0,0,39,45.232a11.567,11.567,0,0,0,4.622-1.393A12.4,12.4,0,0,0,50,33V25a12.7,12.7,0,0,0-1.342-5.684L48.6,19.2l-19.051-.29-.2.411A12.7,12.7,0,0,0,28,25v8a12.4,12.4,0,0,0,6.378,10.839Z" fill="#f1b8a0"/>
      <path id="Trazado_708808" data-name="Trazado 708808" d="M24.587,8.522a5.133,5.133,0,0,0,.054,8.945A28.073,28.073,0,0,0,38.275,21H41.28a15.758,15.758,0,0,0,7.046-1.663A10.263,10.263,0,0,0,54,10.157V8L52.688,9.312A2.348,2.348,0,0,1,51.027,10a8.577,8.577,0,0,1-3.842-.908A29.306,29.306,0,0,0,34.083,6a19.136,19.136,0,0,0-9.5,2.522Z" fill="#212121"/>
      <path id="Trazado_708809" data-name="Trazado 708809" d="M51.027,10a8.577,8.577,0,0,1-3.842-.908A29.306,29.306,0,0,0,34.083,6a19.142,19.142,0,0,0-9.432,2.488,5.121,5.121,0,0,0,1.99,6.979A28.073,28.073,0,0,0,40.275,19h3a15.758,15.758,0,0,0,7.046-1.663,10.162,10.162,0,0,0,1.589-1.011,10.408,10.408,0,0,0,.623-.889A10.262,10.262,0,0,0,54,10.157V8L52.688,9.312A2.348,2.348,0,0,1,51.027,10Z" fill="#383838"/>
      <path id="Trazado_708810" data-name="Trazado 708810" d="M61,63V59.516a8.489,8.489,0,0,0-6.051-8.128L47,49l-.466.465a12.07,12.07,0,0,1-17.07,0L29,49,16,52V63.045Z" fill="#0059bd"/>
      <path id="Trazado_708811" data-name="Trazado 708811" d="M61,59.516a8.49,8.49,0,0,0-6.049-8.131L47,49l-.466.465a12.07,12.07,0,0,1-17.07,0L29,49l-9.77,2.254a11.039,11.039,0,0,0,10.814,8.78L61,60Z" fill="#006bda"/>
      <path id="Trazado_708812" data-name="Trazado 708812" d="M29.273,29.3l.385-.513,2.519-1.259a23.507,23.507,0,0,0,6.116-4.409,2.406,2.406,0,0,0-1.556-4.106h-.3A9.5,9.5,0,0,0,31.294,20.6l-.7.469-2.65.662-.135-2.855h-.243l-.22.441A12.7,12.7,0,0,0,26,25v7.332A12.616,12.616,0,0,0,29.273,29.3Z" fill="#b7796a"/>
      <path id="Trazado_708813" data-name="Trazado 708813" d="M27.809,18.974v-.095h-.221C27.659,18.907,27.733,18.944,27.809,18.974Z" fill="#212121"/>
      <path id="Trazado_708814" data-name="Trazado 708814" d="M31.907,20.255A28.107,28.107,0,0,0,38.275,21h.685a2.413,2.413,0,0,0-2.223-1.985h-.3a9.492,9.492,0,0,0-4.53,1.24Z" fill="#111"/>
      <path id="Trazado_708815" data-name="Trazado 708815" d="M16,52l-3-1,9-18a11.614,11.614,0,0,0,6.474-4.3L29,28l2.729-1.365a22.519,22.519,0,0,0,5.857-4.221,1.414,1.414,0,0,0-1-2.414,8.545,8.545,0,0,0-4.738,1.434L31,22l-4,1L26.091,3.921A2.019,2.019,0,0,0,24.067,2h-.05A2.016,2.016,0,0,0,22,4.016V14l-2.847,1A4.387,4.387,0,0,0,15,18H14a3,3,0,0,0-3,3,20.189,20.189,0,0,0,.392,3.963L13,33,3.7,49.74a5.561,5.561,0,0,0,2.532,7.75L16,62Z" fill="#cf8c78"/>
      <path id="Trazado_708816" data-name="Trazado 708816" d="M35.586,21a8.539,8.539,0,0,0-4.738,1.434L30,23l-4,1L25.091,4.921A2.019,2.019,0,0,0,23.067,3h-.05a2,2,0,0,0-.833.184A2.017,2.017,0,0,0,22,4.016V14l-2.847,1A4.387,4.387,0,0,0,15,18H14a3,3,0,0,0-3,3,20.189,20.189,0,0,0,.392,3.963L13,33,3.7,49.74a5.562,5.562,0,0,0,2.531,7.751L16,62V52l-3-1,9-18a11.611,11.611,0,0,0,6.474-4.3L29,28l2.729-1.365a22.485,22.485,0,0,0,4.992-3.423A1.38,1.38,0,0,0,35.586,21Z" fill="#f1b8a0"/>
      <path id="Trazado_708817" data-name="Trazado 708817" d="M15.7,24.909a.624.624,0,0,1-.321.091.907.907,0,0,1-.862-.622l-.565-1.694-1.9.632.565,1.7A2.908,2.908,0,0,0,15.376,27a2.6,2.6,0,0,0,1.459-.455,2.664,2.664,0,0,0,3.7-.724A2.675,2.675,0,0,0,21.5,26a2.7,2.7,0,0,0,2.679-2.364l.653-5.229a22,22,0,0,0,.168-2.7H23a20.127,20.127,0,0,1-.152,2.452l-.654,5.229a.7.7,0,0,1-1.388,0l-.654-5.229A20.126,20.126,0,0,1,20,15.707v-1l-.847.3A4.377,4.377,0,0,0,18,15.168v.539a22,22,0,0,0,.168,2.7l.653,5.229a2.654,2.654,0,0,0,.179.655v.024a.685.685,0,0,1-1.35.166l-1.68-6.723-1.94.484Z" fill="#cf8c78"/>
    </g>
  </g>
</svg>
