<svg xmlns="http://www.w3.org/2000/svg" xmlns:xlink="http://www.w3.org/1999/xlink" width="684.558" height="475.673" viewBox="0 0 684.558 475.673">
  <defs>
    <filter id="Unión_1" x="9.558" y="0" width="608.098" height="84" filterUnits="userSpaceOnUse">
      <feOffset dy="3" input="SourceAlpha"/>
      <feGaussianBlur stdDeviation="3" result="blur"/>
      <feFlood flood-opacity="0.161"/>
      <feComposite operator="in" in2="blur"/>
      <feComposite in="SourceGraphic"/>
    </filter>
    <filter id="Trazado_725949" x="0" y="129.535" width="66.44" height="66.44" filterUnits="userSpaceOnUse">
      <feOffset dy="3" input="SourceAlpha"/>
      <feGaussianBlur stdDeviation="3" result="blur-2"/>
      <feFlood flood-opacity="0.161"/>
      <feComposite operator="in" in2="blur-2"/>
      <feComposite in="SourceGraphic"/>
    </filter>
    <filter id="Trazado_725955" x="0" y="197.535" width="66.44" height="66.44" filterUnits="userSpaceOnUse">
      <feOffset dy="3" input="SourceAlpha"/>
      <feGaussianBlur stdDeviation="3" result="blur-3"/>
      <feFlood flood-opacity="0.161"/>
      <feComposite operator="in" in2="blur-3"/>
      <feComposite in="SourceGraphic"/>
    </filter>
    <filter id="Trazado_725959" x="0" y="268.815" width="66.44" height="66.44" filterUnits="userSpaceOnUse">
      <feOffset dy="3" input="SourceAlpha"/>
      <feGaussianBlur stdDeviation="3" result="blur-4"/>
      <feFlood flood-opacity="0.161"/>
      <feComposite operator="in" in2="blur-4"/>
      <feComposite in="SourceGraphic"/>
    </filter>
    <filter id="Trazado_725964" x="0" y="338.815" width="66.44" height="66.44" filterUnits="userSpaceOnUse">
      <feOffset dy="3" input="SourceAlpha"/>
      <feGaussianBlur stdDeviation="3" result="blur-5"/>
      <feFlood flood-opacity="0.161"/>
      <feComposite operator="in" in2="blur-5"/>
      <feComposite in="SourceGraphic"/>
    </filter>
    <filter id="Trazado_725969" x="0" y="409.233" width="66.44" height="66.44" filterUnits="userSpaceOnUse">
      <feOffset dy="3" input="SourceAlpha"/>
      <feGaussianBlur stdDeviation="3" result="blur-6"/>
      <feFlood flood-opacity="0.161"/>
      <feComposite operator="in" in2="blur-6"/>
      <feComposite in="SourceGraphic"/>
    </filter>
    <clipPath id="clip-path">
      <rect id="Rectángulo_345661" data-name="Rectángulo 345661" width="328" height="382" transform="translate(859 1556)" fill="#fff" stroke="#707070" stroke-width="1" opacity="0.57"/>
    </clipPath>
    <clipPath id="clip-path-2">
      <rect id="Rectángulo_345659" data-name="Rectángulo 345659" width="321.795" height="423.665" fill="none"/>
    </clipPath>
    <clipPath id="clip-path-3">
      <rect id="Rectángulo_345660" data-name="Rectángulo 345660" width="116" height="293" transform="translate(633.974 1397.776)" fill="#fff" stroke="#707070" stroke-width="1" opacity="0.22"/>
    </clipPath>
  </defs>
  <g id="Grupo_1010283" data-name="Grupo 1010283" transform="translate(-454.708 -1408.465)">
    <path id="Trazado_725967" data-name="Trazado 725967" d="M0,0H512.552V41a29,29,0,0,1-29,29H30A30,30,0,0,1,0,40Z" transform="translate(490.428 1812.5)" fill="#ffc9ce"/>
    <path id="Trazado_725948" data-name="Trazado 725948" d="M27,0H512.552V70H0V27A27,27,0,0,1,27,0Z" transform="translate(490.428 1532.5)" fill="#ffc9ce" opacity="0.47"/>
    <path id="Trazado_725957" data-name="Trazado 725957" d="M0,0H512.552V70H0Z" transform="translate(490.428 1672.5)" fill="#ffc9ce" opacity="0.58"/>
    <path id="Trazado_725962" data-name="Trazado 725962" d="M0,0H512.552V70H0Z" transform="translate(490.428 1742.5)" fill="#ffd7d8"/>
    <path id="Trazado_725951" data-name="Trazado 725951" d="M0,0H512.552V70H0Z" transform="translate(490.428 1602.5)" fill="#ffc9ce" opacity="0.52"/>
    <path id="Trazado_725952" data-name="Trazado 725952" d="M3.359,15.117H8.336V17H1.016V5.625H3.359ZM14.43,17a2.507,2.507,0,0,1-.227-.758,2.732,2.732,0,0,1-2.133.914,3,3,0,0,1-2.059-.719A2.312,2.312,0,0,1,9.2,14.625a2.389,2.389,0,0,1,1-2.062,4.915,4.915,0,0,1,2.879-.727h1.039v-.484a1.393,1.393,0,0,0-.3-.937,1.183,1.183,0,0,0-.949-.352,1.345,1.345,0,0,0-.895.273.929.929,0,0,0-.324.75H9.383a2.268,2.268,0,0,1,.453-1.359,3,3,0,0,1,1.281-.98,4.669,4.669,0,0,1,1.859-.355,3.689,3.689,0,0,1,2.48.785,2.747,2.747,0,0,1,.918,2.207v3.664a4.041,4.041,0,0,0,.336,1.82V17Zm-1.867-1.57a1.945,1.945,0,0,0,.922-.223,1.462,1.462,0,0,0,.625-.6V13.156h-.844q-1.7,0-1.8,1.172l-.008.133a.9.9,0,0,0,.3.7A1.153,1.153,0,0,0,12.563,15.43ZM24.8,6.469V8.547h1.445V10.2H24.8v4.219a1.007,1.007,0,0,0,.18.672.9.9,0,0,0,.688.2,3.6,3.6,0,0,0,.664-.055v1.711a4.648,4.648,0,0,1-1.367.2,2.156,2.156,0,0,1-2.422-2.4V10.2H21.3V8.547h1.234V6.469Zm7.453,4.2a6.134,6.134,0,0,0-.812-.062,1.654,1.654,0,0,0-1.68.867V17H27.5V8.547h2.133L29.7,9.555a2.092,2.092,0,0,1,1.883-1.164,2.366,2.366,0,0,1,.7.1ZM38,17a2.507,2.507,0,0,1-.227-.758,2.732,2.732,0,0,1-2.133.914,3,3,0,0,1-2.059-.719,2.312,2.312,0,0,1-.816-1.812,2.389,2.389,0,0,1,1-2.062,4.915,4.915,0,0,1,2.879-.727H37.68v-.484a1.393,1.393,0,0,0-.3-.937,1.183,1.183,0,0,0-.949-.352,1.345,1.345,0,0,0-.895.273.929.929,0,0,0-.324.75H32.953a2.268,2.268,0,0,1,.453-1.359,3,3,0,0,1,1.281-.98,4.669,4.669,0,0,1,1.859-.355,3.689,3.689,0,0,1,2.48.785,2.747,2.747,0,0,1,.918,2.207v3.664a4.041,4.041,0,0,0,.336,1.82V17Zm-1.867-1.57a1.945,1.945,0,0,0,.922-.223,1.462,1.462,0,0,0,.625-.6V13.156h-.844q-1.7,0-1.8,1.172l-.008.133a.9.9,0,0,0,.3.7A1.153,1.153,0,0,0,36.133,15.43Zm5.2-2.719a5.094,5.094,0,0,1,.887-3.148,2.877,2.877,0,0,1,2.426-1.172,2.589,2.589,0,0,1,2.039.922V5h2.266V17H46.906l-.109-.9a2.657,2.657,0,0,1-2.172,1.055A2.869,2.869,0,0,1,42.23,15.98,5.258,5.258,0,0,1,41.328,12.711Zm2.258.168A3.337,3.337,0,0,0,44,14.7a1.349,1.349,0,0,0,1.2.634,1.511,1.511,0,0,0,1.477-.884V11.111a1.489,1.489,0,0,0-1.461-.884Q43.586,10.227,43.586,12.879Zm12.172,3.262a2.831,2.831,0,0,1-2.312,1.016,2.67,2.67,0,0,1-2.074-.781,3.335,3.335,0,0,1-.73-2.289V8.547H52.9v5.467q0,1.322,1.2,1.322a1.63,1.63,0,0,0,1.578-.8V8.547h2.266V17H55.82Zm7.406-.8a1.481,1.481,0,0,0,1.016-.344,1.2,1.2,0,0,0,.406-.914H66.7a2.9,2.9,0,0,1-.469,1.574,3.093,3.093,0,0,1-1.262,1.109,3.949,3.949,0,0,1-1.77.395A3.67,3.67,0,0,1,60.344,16,4.56,4.56,0,0,1,59.3,12.82v-.148a4.508,4.508,0,0,1,1.039-3.117,3.627,3.627,0,0,1,2.852-1.164,3.555,3.555,0,0,1,2.543.9,3.2,3.2,0,0,1,.973,2.4H64.586a1.551,1.551,0,0,0-.406-1.072,1.51,1.51,0,0,0-2.223.163,3.333,3.333,0,0,0-.4,1.866v.235a3.375,3.375,0,0,0,.4,1.878A1.377,1.377,0,0,0,63.164,15.336Zm8.344,0a1.481,1.481,0,0,0,1.016-.344,1.2,1.2,0,0,0,.406-.914h2.117a2.9,2.9,0,0,1-.469,1.574,3.093,3.093,0,0,1-1.262,1.109,3.949,3.949,0,0,1-1.77.395A3.67,3.67,0,0,1,68.688,16a4.56,4.56,0,0,1-1.047-3.184v-.148A4.508,4.508,0,0,1,68.68,9.555a3.627,3.627,0,0,1,2.852-1.164,3.555,3.555,0,0,1,2.543.9,3.2,3.2,0,0,1,.973,2.4H72.93a1.551,1.551,0,0,0-.406-1.072,1.51,1.51,0,0,0-2.223.163,3.333,3.333,0,0,0-.4,1.866v.235a3.375,3.375,0,0,0,.4,1.878A1.377,1.377,0,0,0,71.508,15.336ZM78.719,17H76.453V8.547h2.266ZM76.32,6.359a1.112,1.112,0,0,1,.34-.836,1.465,1.465,0,0,1,1.848,0,1.105,1.105,0,0,1,.344.836A1.108,1.108,0,0,1,78.5,7.2a1.448,1.448,0,0,1-1.836,0A1.108,1.108,0,0,1,76.32,6.359ZM80.227,12.7a5.013,5.013,0,0,1,.484-2.242A3.546,3.546,0,0,1,82.105,8.93a4.069,4.069,0,0,1,2.113-.539,3.849,3.849,0,0,1,2.793,1.047,4.2,4.2,0,0,1,1.207,2.844l.016.578a4.418,4.418,0,0,1-1.086,3.121,4.209,4.209,0,0,1-5.832,0,4.5,4.5,0,0,1-1.09-3.187Zm2.258.16a3.16,3.16,0,0,0,.453,1.843,1.628,1.628,0,0,0,2.578.008,3.457,3.457,0,0,0,.461-2.015,3.128,3.128,0,0,0-.461-1.831,1.5,1.5,0,0,0-1.3-.649,1.474,1.474,0,0,0-1.281.646A3.516,3.516,0,0,0,82.484,12.856ZM84.664,5h2.461L84.961,7.422H83.125ZM91.7,8.547l.07.977A2.951,2.951,0,0,1,94.2,8.391a2.453,2.453,0,0,1,2,.789,3.682,3.682,0,0,1,.672,2.359V17H94.617V11.594a1.465,1.465,0,0,0-.312-1.043,1.4,1.4,0,0,0-1.039-.324,1.553,1.553,0,0,0-1.43.813V17H89.578V8.547Zm10.516,4.164a5.094,5.094,0,0,1,.887-3.148,2.877,2.877,0,0,1,2.426-1.172,2.589,2.589,0,0,1,2.039.922V5h2.266V17H107.8l-.109-.9a2.657,2.657,0,0,1-2.172,1.055,2.869,2.869,0,0,1-2.395-1.176A5.258,5.258,0,0,1,102.219,12.711Zm2.258.168a3.337,3.337,0,0,0,.414,1.823,1.349,1.349,0,0,0,1.2.634,1.511,1.511,0,0,0,1.477-.884V11.111a1.489,1.489,0,0,0-1.461-.884Q104.477,10.227,104.477,12.879Zm11,4.277a4.15,4.15,0,0,1-3.027-1.141,4.054,4.054,0,0,1-1.168-3.039v-.219a5.106,5.106,0,0,1,.492-2.277,3.612,3.612,0,0,1,1.395-1.547,3.914,3.914,0,0,1,2.059-.543,3.508,3.508,0,0,1,2.73,1.094,4.444,4.444,0,0,1,1,3.1v.922H113.57a2.1,2.1,0,0,0,.66,1.328,2,2,0,0,0,1.395.5,2.437,2.437,0,0,0,2.039-.945l1.109,1.242a3.389,3.389,0,0,1-1.375,1.121A4.511,4.511,0,0,1,115.477,17.156Zm-.258-6.945a1.411,1.411,0,0,0-1.09.455,2.357,2.357,0,0,0-.535,1.3h3.141v-.181a1.681,1.681,0,0,0-.406-1.165A1.456,1.456,0,0,0,115.219,10.211Zm12.891,6.945a4.15,4.15,0,0,1-3.027-1.141,4.054,4.054,0,0,1-1.168-3.039v-.219a5.106,5.106,0,0,1,.492-2.277A3.612,3.612,0,0,1,125.8,8.934a3.914,3.914,0,0,1,2.059-.543,3.508,3.508,0,0,1,2.73,1.094,4.444,4.444,0,0,1,1,3.1v.922H126.2a2.1,2.1,0,0,0,.66,1.328,2,2,0,0,0,1.395.5,2.437,2.437,0,0,0,2.039-.945l1.109,1.242a3.389,3.389,0,0,1-1.375,1.121A4.511,4.511,0,0,1,128.109,17.156Zm-.258-6.945a1.411,1.411,0,0,0-1.09.455,2.357,2.357,0,0,0-.535,1.3h3.141v-.181a1.681,1.681,0,0,0-.406-1.165A1.456,1.456,0,0,0,127.852,10.211Zm4.664,2.484a5.053,5.053,0,0,1,.887-3.148,2.9,2.9,0,0,1,2.434-1.156A2.6,2.6,0,0,1,138,9.43l.148-.883h1.984v11.7h-2.266V16.273a2.6,2.6,0,0,1-2.047.883,2.878,2.878,0,0,1-2.406-1.172A5.3,5.3,0,0,1,132.516,12.7Zm2.258.16A3.314,3.314,0,0,0,135.2,14.7a1.363,1.363,0,0,0,1.2.634,1.518,1.518,0,0,0,1.469-.829v-3.5a1.506,1.506,0,0,0-1.453-.8,1.38,1.38,0,0,0-1.211.634A3.661,3.661,0,0,0,134.773,12.856Zm12.2,3.285a2.831,2.831,0,0,1-2.312,1.016,2.67,2.67,0,0,1-2.074-.781,3.335,3.335,0,0,1-.73-2.289V8.547h2.258v5.467q0,1.322,1.2,1.322a1.63,1.63,0,0,0,1.578-.8V8.547h2.266V17h-2.125Zm6.273.859h-2.266V8.547h2.266Zm-2.4-10.641a1.112,1.112,0,0,1,.34-.836,1.465,1.465,0,0,1,1.848,0,1.105,1.105,0,0,1,.344.836,1.109,1.109,0,0,1-.348.844,1.448,1.448,0,0,1-1.836,0A1.109,1.109,0,0,1,150.844,6.359Zm7.422,7.883,1.57-5.7H162.2L159.344,17h-2.156l-2.852-8.453H156.7Zm9.7,2.758a2.507,2.507,0,0,1-.227-.758,2.732,2.732,0,0,1-2.133.914,3,3,0,0,1-2.059-.719,2.312,2.312,0,0,1-.816-1.812,2.389,2.389,0,0,1,1-2.062,4.915,4.915,0,0,1,2.879-.727h1.039v-.484a1.393,1.393,0,0,0-.3-.937,1.183,1.183,0,0,0-.949-.352,1.345,1.345,0,0,0-.895.273.929.929,0,0,0-.324.75h-2.258a2.268,2.268,0,0,1,.453-1.359,3,3,0,0,1,1.281-.98,4.669,4.669,0,0,1,1.859-.355,3.689,3.689,0,0,1,2.48.785,2.747,2.747,0,0,1,.918,2.207v3.664a4.041,4.041,0,0,0,.336,1.82V17ZM166.1,15.43a1.945,1.945,0,0,0,.922-.223,1.462,1.462,0,0,0,.625-.6V13.156H166.8q-1.7,0-1.8,1.172l-.008.133a.9.9,0,0,0,.3.7A1.153,1.153,0,0,0,166.1,15.43Zm7.93,1.57h-2.266V5h2.266Zm5.75.156a4.15,4.15,0,0,1-3.027-1.141,4.054,4.054,0,0,1-1.168-3.039v-.219a5.106,5.106,0,0,1,.492-2.277,3.612,3.612,0,0,1,1.395-1.547,3.914,3.914,0,0,1,2.059-.543,3.508,3.508,0,0,1,2.73,1.094,4.444,4.444,0,0,1,1,3.1v.922h-5.383a2.1,2.1,0,0,0,.66,1.328,2,2,0,0,0,1.395.5,2.437,2.437,0,0,0,2.039-.945l1.109,1.242a3.389,3.389,0,0,1-1.375,1.121A4.511,4.511,0,0,1,179.781,17.156Zm-.258-6.945a1.411,1.411,0,0,0-1.09.455,2.357,2.357,0,0,0-.535,1.3h3.141v-.181a1.681,1.681,0,0,0-.406-1.165A1.456,1.456,0,0,0,179.523,10.211Zm7.094-1.664.07.977a2.951,2.951,0,0,1,2.43-1.133,2.453,2.453,0,0,1,2,.789,3.682,3.682,0,0,1,.672,2.359V17h-2.258V11.594a1.465,1.465,0,0,0-.312-1.043,1.4,1.4,0,0,0-1.039-.324,1.553,1.553,0,0,0-1.43.813V17h-2.258V8.547Zm10.4,6.789a1.481,1.481,0,0,0,1.016-.344,1.2,1.2,0,0,0,.406-.914h2.117a2.9,2.9,0,0,1-.469,1.574,3.093,3.093,0,0,1-1.262,1.109,3.949,3.949,0,0,1-1.77.395A3.67,3.67,0,0,1,194.2,16a4.56,4.56,0,0,1-1.047-3.184v-.148a4.508,4.508,0,0,1,1.039-3.117,3.627,3.627,0,0,1,2.852-1.164,3.555,3.555,0,0,1,2.543.9,3.2,3.2,0,0,1,.973,2.4h-2.117a1.551,1.551,0,0,0-.406-1.072,1.51,1.51,0,0,0-2.223.163,3.333,3.333,0,0,0-.4,1.866v.235a3.375,3.375,0,0,0,.4,1.878A1.377,1.377,0,0,0,197.016,15.336ZM204.227,17h-2.266V8.547h2.266Zm-2.4-10.641a1.112,1.112,0,0,1,.34-.836,1.465,1.465,0,0,1,1.848,0,1.105,1.105,0,0,1,.344.836,1.109,1.109,0,0,1-.348.844,1.448,1.448,0,0,1-1.836,0A1.109,1.109,0,0,1,201.828,6.359ZM210.984,17a2.507,2.507,0,0,1-.227-.758,2.732,2.732,0,0,1-2.133.914,3,3,0,0,1-2.059-.719,2.312,2.312,0,0,1-.816-1.812,2.389,2.389,0,0,1,1-2.062,4.915,4.915,0,0,1,2.879-.727h1.039v-.484a1.393,1.393,0,0,0-.3-.937,1.183,1.183,0,0,0-.949-.352,1.345,1.345,0,0,0-.895.273.929.929,0,0,0-.324.75h-2.258a2.268,2.268,0,0,1,.453-1.359,3,3,0,0,1,1.281-.98,4.669,4.669,0,0,1,1.859-.355,3.689,3.689,0,0,1,2.48.785,2.747,2.747,0,0,1,.918,2.207v3.664a4.041,4.041,0,0,0,.336,1.82V17Zm-1.867-1.57a1.945,1.945,0,0,0,.922-.223,1.462,1.462,0,0,0,.625-.6V13.156h-.844q-1.7,0-1.8,1.172l-.008.133a.9.9,0,0,0,.3.7A1.153,1.153,0,0,0,209.117,15.43ZM.516,34.711A5.094,5.094,0,0,1,1.4,31.563a2.877,2.877,0,0,1,2.426-1.172,2.589,2.589,0,0,1,2.039.922V27H8.133V39H6.094l-.109-.9a2.657,2.657,0,0,1-2.172,1.055A2.869,2.869,0,0,1,1.418,37.98,5.258,5.258,0,0,1,.516,34.711Zm2.258.168A3.337,3.337,0,0,0,3.188,36.7a1.349,1.349,0,0,0,1.2.634,1.511,1.511,0,0,0,1.477-.884V33.111a1.489,1.489,0,0,0-1.461-.884Q2.773,32.227,2.773,34.879ZM12.266,39H10V30.547h2.266Zm-2.4-10.641a1.112,1.112,0,0,1,.34-.836,1.277,1.277,0,0,1,.926-.328,1.28,1.28,0,0,1,.922.328,1.193,1.193,0,0,1,0,1.68,1.283,1.283,0,0,1-.918.328,1.283,1.283,0,0,1-.918-.328A1.108,1.108,0,0,1,9.867,28.359ZM16.2,30.547l.07.977a2.951,2.951,0,0,1,2.43-1.133,2.453,2.453,0,0,1,2,.789,3.682,3.682,0,0,1,.672,2.359V39H19.117V33.594a1.465,1.465,0,0,0-.312-1.043,1.4,1.4,0,0,0-1.039-.324,1.553,1.553,0,0,0-1.43.813V39H14.078V30.547ZM27.984,39a2.507,2.507,0,0,1-.227-.758,2.732,2.732,0,0,1-2.133.914,3,3,0,0,1-2.059-.719,2.312,2.312,0,0,1-.816-1.812,2.389,2.389,0,0,1,1-2.062,4.915,4.915,0,0,1,2.879-.727h1.039v-.484a1.393,1.393,0,0,0-.3-.937,1.183,1.183,0,0,0-.949-.352,1.345,1.345,0,0,0-.895.273.929.929,0,0,0-.324.75H22.938a2.268,2.268,0,0,1,.453-1.359,3,3,0,0,1,1.281-.98,4.669,4.669,0,0,1,1.859-.355,3.689,3.689,0,0,1,2.48.785,2.747,2.747,0,0,1,.918,2.207v3.664a4.041,4.041,0,0,0,.336,1.82V39Zm-1.867-1.57a1.945,1.945,0,0,0,.922-.223,1.462,1.462,0,0,0,.625-.6V35.156H26.82q-1.7,0-1.8,1.172l-.008.133a.9.9,0,0,0,.3.7A1.153,1.153,0,0,0,26.117,37.43ZM26.977,27h2.461l-2.164,2.422H25.438Zm6.8,3.547.07.945a2.971,2.971,0,0,1,2.43-1.1,2.255,2.255,0,0,1,2.242,1.289,2.9,2.9,0,0,1,2.539-1.289,2.521,2.521,0,0,1,2.047.8,3.681,3.681,0,0,1,.672,2.41V39H41.516V33.609a1.61,1.61,0,0,0-.281-1.051,1.246,1.246,0,0,0-.992-.332,1.409,1.409,0,0,0-1.406.969l.008,5.8H36.586V33.617a1.59,1.59,0,0,0-.289-1.062,1.259,1.259,0,0,0-.984-.328,1.463,1.463,0,0,0-1.391.8V39H31.664V30.547ZM47.9,39H45.633V30.547H47.9ZM45.5,28.359a1.112,1.112,0,0,1,.34-.836,1.465,1.465,0,0,1,1.848,0,1.193,1.193,0,0,1,0,1.68,1.448,1.448,0,0,1-1.836,0A1.108,1.108,0,0,1,45.5,28.359Zm7.773,8.977a1.481,1.481,0,0,0,1.016-.344,1.2,1.2,0,0,0,.406-.914h2.117a2.9,2.9,0,0,1-.469,1.574,3.093,3.093,0,0,1-1.262,1.109,3.949,3.949,0,0,1-1.77.395A3.67,3.67,0,0,1,50.453,38a4.56,4.56,0,0,1-1.047-3.184v-.148a4.508,4.508,0,0,1,1.039-3.117A3.627,3.627,0,0,1,53.3,30.391a3.555,3.555,0,0,1,2.543.9,3.2,3.2,0,0,1,.973,2.4H54.7a1.551,1.551,0,0,0-.406-1.072,1.51,1.51,0,0,0-2.223.163,3.333,3.333,0,0,0-.4,1.866v.235a3.375,3.375,0,0,0,.4,1.878A1.377,1.377,0,0,0,53.273,37.336ZM63,39a2.507,2.507,0,0,1-.227-.758,2.732,2.732,0,0,1-2.133.914,3,3,0,0,1-2.059-.719,2.312,2.312,0,0,1-.816-1.812,2.389,2.389,0,0,1,1-2.062,4.915,4.915,0,0,1,2.879-.727H62.68v-.484a1.393,1.393,0,0,0-.3-.937,1.183,1.183,0,0,0-.949-.352,1.345,1.345,0,0,0-.895.273.929.929,0,0,0-.324.75H57.953a2.268,2.268,0,0,1,.453-1.359,3,3,0,0,1,1.281-.98,4.669,4.669,0,0,1,1.859-.355,3.689,3.689,0,0,1,2.48.785,2.747,2.747,0,0,1,.918,2.207v3.664a4.041,4.041,0,0,0,.336,1.82V39Zm-1.867-1.57a1.945,1.945,0,0,0,.922-.223,1.462,1.462,0,0,0,.625-.6V35.156h-.844q-1.7,0-1.8,1.172l-.008.133a.9.9,0,0,0,.3.7A1.153,1.153,0,0,0,61.133,37.43Zm9.18-2.734a5.013,5.013,0,0,1,.484-2.242,3.546,3.546,0,0,1,1.395-1.523,4.069,4.069,0,0,1,2.113-.539A3.849,3.849,0,0,1,77.1,31.438,4.2,4.2,0,0,1,78.3,34.281l.016.578a4.418,4.418,0,0,1-1.086,3.121,4.209,4.209,0,0,1-5.832,0,4.5,4.5,0,0,1-1.09-3.187Zm2.258.16a3.16,3.16,0,0,0,.453,1.843,1.628,1.628,0,0,0,2.578.008,3.457,3.457,0,0,0,.461-2.015A3.128,3.128,0,0,0,75.6,32.86a1.5,1.5,0,0,0-1.3-.649,1.474,1.474,0,0,0-1.281.646A3.516,3.516,0,0,0,72.57,34.856Zm10.773-.145a5.094,5.094,0,0,1,.887-3.148,2.877,2.877,0,0,1,2.426-1.172,2.589,2.589,0,0,1,2.039.922V27h2.266V39H88.922l-.109-.9a2.657,2.657,0,0,1-2.172,1.055,2.869,2.869,0,0,1-2.395-1.176A5.258,5.258,0,0,1,83.344,34.711Zm2.258.168a3.337,3.337,0,0,0,.414,1.823,1.349,1.349,0,0,0,1.2.634,1.511,1.511,0,0,0,1.477-.884V33.111a1.489,1.489,0,0,0-1.461-.884Q85.6,32.227,85.6,34.879Zm11,4.277a4.15,4.15,0,0,1-3.027-1.141,4.054,4.054,0,0,1-1.168-3.039v-.219A5.106,5.106,0,0,1,92.9,32.48a3.612,3.612,0,0,1,1.395-1.547,3.914,3.914,0,0,1,2.059-.543,3.508,3.508,0,0,1,2.73,1.094,4.444,4.444,0,0,1,1,3.1v.922H94.7a2.1,2.1,0,0,0,.66,1.328,2,2,0,0,0,1.395.5,2.437,2.437,0,0,0,2.039-.945L99.9,37.633a3.389,3.389,0,0,1-1.375,1.121A4.511,4.511,0,0,1,96.6,39.156Zm-.258-6.945a1.411,1.411,0,0,0-1.09.455,2.357,2.357,0,0,0-.535,1.3h3.141v-.181a1.681,1.681,0,0,0-.406-1.165A1.456,1.456,0,0,0,96.344,32.211Zm12.891,6.945a4.15,4.15,0,0,1-3.027-1.141,4.054,4.054,0,0,1-1.168-3.039v-.219a5.106,5.106,0,0,1,.492-2.277,3.612,3.612,0,0,1,1.395-1.547,3.914,3.914,0,0,1,2.059-.543,3.508,3.508,0,0,1,2.73,1.094,4.444,4.444,0,0,1,1,3.1v.922h-5.383a2.1,2.1,0,0,0,.66,1.328,2,2,0,0,0,1.395.5,2.437,2.437,0,0,0,2.039-.945l1.109,1.242a3.389,3.389,0,0,1-1.375,1.121A4.511,4.511,0,0,1,109.234,39.156Zm-.258-6.945a1.411,1.411,0,0,0-1.09.455,2.357,2.357,0,0,0-.535,1.3h3.141v-.181a1.681,1.681,0,0,0-.406-1.165A1.456,1.456,0,0,0,108.977,32.211ZM114.609,39V32.2h-1.258V30.547h1.258v-.719a2.918,2.918,0,0,1,.816-2.207,3.162,3.162,0,0,1,2.285-.785,5.278,5.278,0,0,1,1.148.156l-.023,1.75a2.878,2.878,0,0,0-.687-.07q-1.273,0-1.273,1.2v.68h1.68V32.2h-1.68V39Zm9.008.156a4.15,4.15,0,0,1-3.027-1.141,4.054,4.054,0,0,1-1.168-3.039v-.219a5.106,5.106,0,0,1,.492-2.277,3.612,3.612,0,0,1,1.395-1.547,3.914,3.914,0,0,1,2.059-.543,3.508,3.508,0,0,1,2.73,1.094,4.444,4.444,0,0,1,1,3.1v.922h-5.383a2.1,2.1,0,0,0,.66,1.328,2,2,0,0,0,1.395.5,2.437,2.437,0,0,0,2.039-.945l1.109,1.242a3.389,3.389,0,0,1-1.375,1.121A4.511,4.511,0,0,1,123.617,39.156Zm-.258-6.945a1.411,1.411,0,0,0-1.09.455,2.357,2.357,0,0,0-.535,1.3h3.141v-.181a1.681,1.681,0,0,0-.406-1.165A1.456,1.456,0,0,0,123.359,32.211Zm8.531,5.125a1.481,1.481,0,0,0,1.016-.344,1.2,1.2,0,0,0,.406-.914h2.117a2.9,2.9,0,0,1-.469,1.574,3.093,3.093,0,0,1-1.262,1.109,3.949,3.949,0,0,1-1.77.395A3.67,3.67,0,0,1,129.07,38a4.56,4.56,0,0,1-1.047-3.184v-.148a4.508,4.508,0,0,1,1.039-3.117,3.627,3.627,0,0,1,2.852-1.164,3.555,3.555,0,0,1,2.543.9,3.2,3.2,0,0,1,.973,2.4h-2.117a1.551,1.551,0,0,0-.406-1.072,1.51,1.51,0,0,0-2.223.163,3.333,3.333,0,0,0-.4,1.866v.235a3.375,3.375,0,0,0,.4,1.878A1.377,1.377,0,0,0,131.891,37.336Zm7.531-8.867v2.078h1.445V32.2h-1.445v4.219a1.007,1.007,0,0,0,.18.672.9.9,0,0,0,.688.2,3.6,3.6,0,0,0,.664-.055v1.711a4.648,4.648,0,0,1-1.367.2,2.156,2.156,0,0,1-2.422-2.4V32.2H135.93V30.547h1.234V28.469Zm2.117,6.227a5.013,5.013,0,0,1,.484-2.242,3.546,3.546,0,0,1,1.395-1.523,4.069,4.069,0,0,1,2.113-.539,3.849,3.849,0,0,1,2.793,1.047,4.2,4.2,0,0,1,1.207,2.844l.016.578a4.418,4.418,0,0,1-1.086,3.121,4.209,4.209,0,0,1-5.832,0,4.5,4.5,0,0,1-1.09-3.187Zm2.258.16a3.16,3.16,0,0,0,.453,1.843,1.628,1.628,0,0,0,2.578.008,3.457,3.457,0,0,0,.461-2.015,3.128,3.128,0,0,0-.461-1.831,1.5,1.5,0,0,0-1.3-.649,1.474,1.474,0,0,0-1.281.646A3.516,3.516,0,0,0,143.8,34.856Zm7.258,3.035a1.137,1.137,0,0,1,.363-.875,1.412,1.412,0,0,1,1.828,0,1.137,1.137,0,0,1,.363.875,1.121,1.121,0,0,1-.359.863,1.435,1.435,0,0,1-1.836,0A1.121,1.121,0,0,1,151.055,37.891Z" transform="translate(565.07 1616)" fill="#12263f"/>
    <path id="Trazado_725953" data-name="Trazado 725953" d="M3.359,15.117H8.336V17H1.016V5.625H3.359ZM14.43,17a2.507,2.507,0,0,1-.227-.758,2.732,2.732,0,0,1-2.133.914,3,3,0,0,1-2.059-.719A2.312,2.312,0,0,1,9.2,14.625a2.389,2.389,0,0,1,1-2.062,4.915,4.915,0,0,1,2.879-.727h1.039v-.484a1.393,1.393,0,0,0-.3-.937,1.183,1.183,0,0,0-.949-.352,1.345,1.345,0,0,0-.895.273.929.929,0,0,0-.324.75H9.383a2.268,2.268,0,0,1,.453-1.359,3,3,0,0,1,1.281-.98,4.669,4.669,0,0,1,1.859-.355,3.689,3.689,0,0,1,2.48.785,2.747,2.747,0,0,1,.918,2.207v3.664a4.041,4.041,0,0,0,.336,1.82V17Zm-1.867-1.57a1.945,1.945,0,0,0,.922-.223,1.462,1.462,0,0,0,.625-.6V13.156h-.844q-1.7,0-1.8,1.172l-.008.133a.9.9,0,0,0,.3.7A1.153,1.153,0,0,0,12.563,15.43ZM24.8,6.469V8.547h1.445V10.2H24.8v4.219a1.007,1.007,0,0,0,.18.672.9.9,0,0,0,.688.2,3.6,3.6,0,0,0,.664-.055v1.711a4.648,4.648,0,0,1-1.367.2,2.156,2.156,0,0,1-2.422-2.4V10.2H21.3V8.547h1.234V6.469Zm7.453,4.2a6.134,6.134,0,0,0-.812-.062,1.654,1.654,0,0,0-1.68.867V17H27.5V8.547h2.133L29.7,9.555a2.092,2.092,0,0,1,1.883-1.164,2.366,2.366,0,0,1,.7.1ZM38,17a2.507,2.507,0,0,1-.227-.758,2.732,2.732,0,0,1-2.133.914,3,3,0,0,1-2.059-.719,2.312,2.312,0,0,1-.816-1.812,2.389,2.389,0,0,1,1-2.062,4.915,4.915,0,0,1,2.879-.727H37.68v-.484a1.393,1.393,0,0,0-.3-.937,1.183,1.183,0,0,0-.949-.352,1.345,1.345,0,0,0-.895.273.929.929,0,0,0-.324.75H32.953a2.268,2.268,0,0,1,.453-1.359,3,3,0,0,1,1.281-.98,4.669,4.669,0,0,1,1.859-.355,3.689,3.689,0,0,1,2.48.785,2.747,2.747,0,0,1,.918,2.207v3.664a4.041,4.041,0,0,0,.336,1.82V17Zm-1.867-1.57a1.945,1.945,0,0,0,.922-.223,1.462,1.462,0,0,0,.625-.6V13.156h-.844q-1.7,0-1.8,1.172l-.008.133a.9.9,0,0,0,.3.7A1.153,1.153,0,0,0,36.133,15.43Zm5.2-2.719a5.094,5.094,0,0,1,.887-3.148,2.877,2.877,0,0,1,2.426-1.172,2.589,2.589,0,0,1,2.039.922V5h2.266V17H46.906l-.109-.9a2.657,2.657,0,0,1-2.172,1.055A2.869,2.869,0,0,1,42.23,15.98,5.258,5.258,0,0,1,41.328,12.711Zm2.258.168A3.337,3.337,0,0,0,44,14.7a1.349,1.349,0,0,0,1.2.634,1.511,1.511,0,0,0,1.477-.884V11.111a1.489,1.489,0,0,0-1.461-.884Q43.586,10.227,43.586,12.879Zm12.172,3.262a2.831,2.831,0,0,1-2.312,1.016,2.67,2.67,0,0,1-2.074-.781,3.335,3.335,0,0,1-.73-2.289V8.547H52.9v5.467q0,1.322,1.2,1.322a1.63,1.63,0,0,0,1.578-.8V8.547h2.266V17H55.82Zm7.406-.8a1.481,1.481,0,0,0,1.016-.344,1.2,1.2,0,0,0,.406-.914H66.7a2.9,2.9,0,0,1-.469,1.574,3.093,3.093,0,0,1-1.262,1.109,3.949,3.949,0,0,1-1.77.395A3.67,3.67,0,0,1,60.344,16,4.56,4.56,0,0,1,59.3,12.82v-.148a4.508,4.508,0,0,1,1.039-3.117,3.627,3.627,0,0,1,2.852-1.164,3.555,3.555,0,0,1,2.543.9,3.2,3.2,0,0,1,.973,2.4H64.586a1.551,1.551,0,0,0-.406-1.072,1.51,1.51,0,0,0-2.223.163,3.333,3.333,0,0,0-.4,1.866v.235a3.375,3.375,0,0,0,.4,1.878A1.377,1.377,0,0,0,63.164,15.336Zm8.344,0a1.481,1.481,0,0,0,1.016-.344,1.2,1.2,0,0,0,.406-.914h2.117a2.9,2.9,0,0,1-.469,1.574,3.093,3.093,0,0,1-1.262,1.109,3.949,3.949,0,0,1-1.77.395A3.67,3.67,0,0,1,68.688,16a4.56,4.56,0,0,1-1.047-3.184v-.148A4.508,4.508,0,0,1,68.68,9.555a3.627,3.627,0,0,1,2.852-1.164,3.555,3.555,0,0,1,2.543.9,3.2,3.2,0,0,1,.973,2.4H72.93a1.551,1.551,0,0,0-.406-1.072,1.51,1.51,0,0,0-2.223.163,3.333,3.333,0,0,0-.4,1.866v.235a3.375,3.375,0,0,0,.4,1.878A1.377,1.377,0,0,0,71.508,15.336ZM78.719,17H76.453V8.547h2.266ZM76.32,6.359a1.112,1.112,0,0,1,.34-.836,1.465,1.465,0,0,1,1.848,0,1.105,1.105,0,0,1,.344.836A1.108,1.108,0,0,1,78.5,7.2a1.448,1.448,0,0,1-1.836,0A1.108,1.108,0,0,1,76.32,6.359ZM80.227,12.7a5.013,5.013,0,0,1,.484-2.242A3.546,3.546,0,0,1,82.105,8.93a4.069,4.069,0,0,1,2.113-.539,3.849,3.849,0,0,1,2.793,1.047,4.2,4.2,0,0,1,1.207,2.844l.016.578a4.418,4.418,0,0,1-1.086,3.121,4.209,4.209,0,0,1-5.832,0,4.5,4.5,0,0,1-1.09-3.187Zm2.258.16a3.16,3.16,0,0,0,.453,1.843,1.628,1.628,0,0,0,2.578.008,3.457,3.457,0,0,0,.461-2.015,3.128,3.128,0,0,0-.461-1.831,1.5,1.5,0,0,0-1.3-.649,1.474,1.474,0,0,0-1.281.646A3.516,3.516,0,0,0,82.484,12.856ZM84.664,5h2.461L84.961,7.422H83.125ZM91.7,8.547l.07.977A2.951,2.951,0,0,1,94.2,8.391a2.453,2.453,0,0,1,2,.789,3.682,3.682,0,0,1,.672,2.359V17H94.617V11.594a1.465,1.465,0,0,0-.312-1.043,1.4,1.4,0,0,0-1.039-.324,1.553,1.553,0,0,0-1.43.813V17H89.578V8.547Zm10.516,4.164a5.094,5.094,0,0,1,.887-3.148,2.877,2.877,0,0,1,2.426-1.172,2.589,2.589,0,0,1,2.039.922V5h2.266V17H107.8l-.109-.9a2.657,2.657,0,0,1-2.172,1.055,2.869,2.869,0,0,1-2.395-1.176A5.258,5.258,0,0,1,102.219,12.711Zm2.258.168a3.337,3.337,0,0,0,.414,1.823,1.349,1.349,0,0,0,1.2.634,1.511,1.511,0,0,0,1.477-.884V11.111a1.489,1.489,0,0,0-1.461-.884Q104.477,10.227,104.477,12.879Zm11,4.277a4.15,4.15,0,0,1-3.027-1.141,4.054,4.054,0,0,1-1.168-3.039v-.219a5.106,5.106,0,0,1,.492-2.277,3.612,3.612,0,0,1,1.395-1.547,3.914,3.914,0,0,1,2.059-.543,3.508,3.508,0,0,1,2.73,1.094,4.444,4.444,0,0,1,1,3.1v.922H113.57a2.1,2.1,0,0,0,.66,1.328,2,2,0,0,0,1.395.5,2.437,2.437,0,0,0,2.039-.945l1.109,1.242a3.389,3.389,0,0,1-1.375,1.121A4.511,4.511,0,0,1,115.477,17.156Zm-.258-6.945a1.411,1.411,0,0,0-1.09.455,2.357,2.357,0,0,0-.535,1.3h3.141v-.181a1.681,1.681,0,0,0-.406-1.165A1.456,1.456,0,0,0,115.219,10.211Zm12.891,6.945a4.15,4.15,0,0,1-3.027-1.141,4.054,4.054,0,0,1-1.168-3.039v-.219a5.106,5.106,0,0,1,.492-2.277A3.612,3.612,0,0,1,125.8,8.934a3.914,3.914,0,0,1,2.059-.543,3.508,3.508,0,0,1,2.73,1.094,4.444,4.444,0,0,1,1,3.1v.922H126.2a2.1,2.1,0,0,0,.66,1.328,2,2,0,0,0,1.395.5,2.437,2.437,0,0,0,2.039-.945l1.109,1.242a3.389,3.389,0,0,1-1.375,1.121A4.511,4.511,0,0,1,128.109,17.156Zm-.258-6.945a1.411,1.411,0,0,0-1.09.455,2.357,2.357,0,0,0-.535,1.3h3.141v-.181a1.681,1.681,0,0,0-.406-1.165A1.456,1.456,0,0,0,127.852,10.211Zm4.664,2.484a5.053,5.053,0,0,1,.887-3.148,2.9,2.9,0,0,1,2.434-1.156A2.6,2.6,0,0,1,138,9.43l.148-.883h1.984v11.7h-2.266V16.273a2.6,2.6,0,0,1-2.047.883,2.878,2.878,0,0,1-2.406-1.172A5.3,5.3,0,0,1,132.516,12.7Zm2.258.16A3.314,3.314,0,0,0,135.2,14.7a1.363,1.363,0,0,0,1.2.634,1.518,1.518,0,0,0,1.469-.829v-3.5a1.506,1.506,0,0,0-1.453-.8,1.38,1.38,0,0,0-1.211.634A3.661,3.661,0,0,0,134.773,12.856Zm12.2,3.285a2.831,2.831,0,0,1-2.312,1.016,2.67,2.67,0,0,1-2.074-.781,3.335,3.335,0,0,1-.73-2.289V8.547h2.258v5.467q0,1.322,1.2,1.322a1.63,1.63,0,0,0,1.578-.8V8.547h2.266V17h-2.125Zm6.273.859h-2.266V8.547h2.266Zm-2.4-10.641a1.112,1.112,0,0,1,.34-.836,1.465,1.465,0,0,1,1.848,0,1.105,1.105,0,0,1,.344.836,1.109,1.109,0,0,1-.348.844,1.448,1.448,0,0,1-1.836,0A1.109,1.109,0,0,1,150.844,6.359Zm7.422,7.883,1.57-5.7H162.2L159.344,17h-2.156l-2.852-8.453H156.7Zm9.7,2.758a2.507,2.507,0,0,1-.227-.758,2.732,2.732,0,0,1-2.133.914,3,3,0,0,1-2.059-.719,2.312,2.312,0,0,1-.816-1.812,2.389,2.389,0,0,1,1-2.062,4.915,4.915,0,0,1,2.879-.727h1.039v-.484a1.393,1.393,0,0,0-.3-.937,1.183,1.183,0,0,0-.949-.352,1.345,1.345,0,0,0-.895.273.929.929,0,0,0-.324.75h-2.258a2.268,2.268,0,0,1,.453-1.359,3,3,0,0,1,1.281-.98,4.669,4.669,0,0,1,1.859-.355,3.689,3.689,0,0,1,2.48.785,2.747,2.747,0,0,1,.918,2.207v3.664a4.041,4.041,0,0,0,.336,1.82V17ZM166.1,15.43a1.945,1.945,0,0,0,.922-.223,1.462,1.462,0,0,0,.625-.6V13.156H166.8q-1.7,0-1.8,1.172l-.008.133a.9.9,0,0,0,.3.7A1.153,1.153,0,0,0,166.1,15.43Zm7.93,1.57h-2.266V5h2.266Zm5.75.156a4.15,4.15,0,0,1-3.027-1.141,4.054,4.054,0,0,1-1.168-3.039v-.219a5.106,5.106,0,0,1,.492-2.277,3.612,3.612,0,0,1,1.395-1.547,3.914,3.914,0,0,1,2.059-.543,3.508,3.508,0,0,1,2.73,1.094,4.444,4.444,0,0,1,1,3.1v.922h-5.383a2.1,2.1,0,0,0,.66,1.328,2,2,0,0,0,1.395.5,2.437,2.437,0,0,0,2.039-.945l1.109,1.242a3.389,3.389,0,0,1-1.375,1.121A4.511,4.511,0,0,1,179.781,17.156Zm-.258-6.945a1.411,1.411,0,0,0-1.09.455,2.357,2.357,0,0,0-.535,1.3h3.141v-.181a1.681,1.681,0,0,0-.406-1.165A1.456,1.456,0,0,0,179.523,10.211Zm7.094-1.664.07.977a2.951,2.951,0,0,1,2.43-1.133,2.453,2.453,0,0,1,2,.789,3.682,3.682,0,0,1,.672,2.359V17h-2.258V11.594a1.465,1.465,0,0,0-.312-1.043,1.4,1.4,0,0,0-1.039-.324,1.553,1.553,0,0,0-1.43.813V17h-2.258V8.547Zm10.4,6.789a1.481,1.481,0,0,0,1.016-.344,1.2,1.2,0,0,0,.406-.914h2.117a2.9,2.9,0,0,1-.469,1.574,3.093,3.093,0,0,1-1.262,1.109,3.949,3.949,0,0,1-1.77.395A3.67,3.67,0,0,1,194.2,16a4.56,4.56,0,0,1-1.047-3.184v-.148a4.508,4.508,0,0,1,1.039-3.117,3.627,3.627,0,0,1,2.852-1.164,3.555,3.555,0,0,1,2.543.9,3.2,3.2,0,0,1,.973,2.4h-2.117a1.551,1.551,0,0,0-.406-1.072,1.51,1.51,0,0,0-2.223.163,3.333,3.333,0,0,0-.4,1.866v.235a3.375,3.375,0,0,0,.4,1.878A1.377,1.377,0,0,0,197.016,15.336ZM204.227,17h-2.266V8.547h2.266Zm-2.4-10.641a1.112,1.112,0,0,1,.34-.836,1.465,1.465,0,0,1,1.848,0,1.105,1.105,0,0,1,.344.836,1.109,1.109,0,0,1-.348.844,1.448,1.448,0,0,1-1.836,0A1.109,1.109,0,0,1,201.828,6.359ZM210.984,17a2.507,2.507,0,0,1-.227-.758,2.732,2.732,0,0,1-2.133.914,3,3,0,0,1-2.059-.719,2.312,2.312,0,0,1-.816-1.812,2.389,2.389,0,0,1,1-2.062,4.915,4.915,0,0,1,2.879-.727h1.039v-.484a1.393,1.393,0,0,0-.3-.937,1.183,1.183,0,0,0-.949-.352,1.345,1.345,0,0,0-.895.273.929.929,0,0,0-.324.75h-2.258a2.268,2.268,0,0,1,.453-1.359,3,3,0,0,1,1.281-.98,4.669,4.669,0,0,1,1.859-.355,3.689,3.689,0,0,1,2.48.785,2.747,2.747,0,0,1,.918,2.207v3.664a4.041,4.041,0,0,0,.336,1.82V17Zm-1.867-1.57a1.945,1.945,0,0,0,.922-.223,1.462,1.462,0,0,0,.625-.6V13.156h-.844q-1.7,0-1.8,1.172l-.008.133a.9.9,0,0,0,.3.7A1.153,1.153,0,0,0,209.117,15.43ZM1.484,39V32.2H.227V30.547H1.484v-.719A2.918,2.918,0,0,1,2.3,27.621a3.162,3.162,0,0,1,2.285-.785,5.278,5.278,0,0,1,1.148.156l-.023,1.75a2.878,2.878,0,0,0-.687-.07q-1.273,0-1.273,1.2v.68H5.43V32.2H3.75V39ZM6.25,34.7a5.013,5.013,0,0,1,.484-2.242A3.546,3.546,0,0,1,8.129,30.93a4.069,4.069,0,0,1,2.113-.539,3.849,3.849,0,0,1,2.793,1.047,4.2,4.2,0,0,1,1.207,2.844l.016.578a4.418,4.418,0,0,1-1.086,3.121,3.775,3.775,0,0,1-2.914,1.176A3.793,3.793,0,0,1,7.34,37.984,4.5,4.5,0,0,1,6.25,34.8Zm2.258.16A3.16,3.16,0,0,0,8.961,36.7a1.5,1.5,0,0,0,1.3.638,1.5,1.5,0,0,0,1.281-.63A3.457,3.457,0,0,0,12,34.691a3.128,3.128,0,0,0-.461-1.831,1.5,1.5,0,0,0-1.3-.649,1.474,1.474,0,0,0-1.281.646A3.516,3.516,0,0,0,8.508,34.856ZM20.4,32.664a6.134,6.134,0,0,0-.812-.062,1.654,1.654,0,0,0-1.68.867V39H15.648V30.547h2.133l.063,1.008a2.092,2.092,0,0,1,1.883-1.164,2.366,2.366,0,0,1,.7.1Zm3.2-2.117.07.945a2.971,2.971,0,0,1,2.43-1.1,2.255,2.255,0,0,1,2.242,1.289,2.9,2.9,0,0,1,2.539-1.289,2.521,2.521,0,0,1,2.047.8A3.681,3.681,0,0,1,33.6,33.6V39H31.336V33.609a1.61,1.61,0,0,0-.281-1.051,1.246,1.246,0,0,0-.992-.332,1.409,1.409,0,0,0-1.406.969l.008,5.8H26.406V33.617a1.59,1.59,0,0,0-.289-1.062,1.259,1.259,0,0,0-.984-.328,1.463,1.463,0,0,0-1.391.8V39H21.484V30.547ZM40.234,39a2.507,2.507,0,0,1-.227-.758,2.732,2.732,0,0,1-2.133.914,3,3,0,0,1-2.059-.719A2.312,2.312,0,0,1,35,36.625a2.389,2.389,0,0,1,1-2.062,4.915,4.915,0,0,1,2.879-.727h1.039v-.484a1.393,1.393,0,0,0-.3-.937,1.183,1.183,0,0,0-.949-.352,1.345,1.345,0,0,0-.895.273.929.929,0,0,0-.324.75H35.188a2.268,2.268,0,0,1,.453-1.359,3,3,0,0,1,1.281-.98,4.669,4.669,0,0,1,1.859-.355,3.689,3.689,0,0,1,2.48.785,2.747,2.747,0,0,1,.918,2.207v3.664a4.041,4.041,0,0,0,.336,1.82V39Zm-1.867-1.57a1.945,1.945,0,0,0,.922-.223,1.462,1.462,0,0,0,.625-.6V35.156H39.07q-1.7,0-1.8,1.172l-.008.133a.9.9,0,0,0,.3.7A1.153,1.153,0,0,0,38.367,37.43ZM46.3,39H44.031V27H46.3Zm1.977-1.109a1.137,1.137,0,0,1,.363-.875,1.412,1.412,0,0,1,1.828,0,1.137,1.137,0,0,1,.363.875,1.121,1.121,0,0,1-.359.863,1.435,1.435,0,0,1-1.836,0A1.121,1.121,0,0,1,48.273,37.891Z" transform="translate(565.07 1548)" fill="#12263f"/>
    <path id="Trazado_725961" data-name="Trazado 725961" d="M7.859,12.07h-4.5v3.047H8.641V17H1.016V5.625H8.625v1.9H3.359v2.711h4.5Zm1.656.625A5.053,5.053,0,0,1,10.4,9.547a2.9,2.9,0,0,1,2.434-1.156A2.6,2.6,0,0,1,15,9.43l.148-.883h1.984v11.7H14.867V16.273a2.6,2.6,0,0,1-2.047.883,2.878,2.878,0,0,1-2.406-1.172A5.3,5.3,0,0,1,9.516,12.7Zm2.258.16A3.315,3.315,0,0,0,12.2,14.7a1.363,1.363,0,0,0,1.2.634,1.518,1.518,0,0,0,1.469-.829v-3.5a1.506,1.506,0,0,0-1.453-.8,1.38,1.38,0,0,0-1.211.634A3.661,3.661,0,0,0,11.773,12.856Zm12.2,3.285a2.831,2.831,0,0,1-2.312,1.016,2.67,2.67,0,0,1-2.074-.781,3.335,3.335,0,0,1-.73-2.289V8.547h2.258v5.467q0,1.322,1.2,1.322a1.63,1.63,0,0,0,1.578-.8V8.547h2.266V17H24.031ZM30.242,17H27.977V8.547h2.266Zm-2.4-10.641a1.112,1.112,0,0,1,.34-.836,1.465,1.465,0,0,1,1.848,0,1.105,1.105,0,0,1,.344.836,1.108,1.108,0,0,1-.348.844,1.448,1.448,0,0,1-1.836,0A1.108,1.108,0,0,1,27.844,6.359Zm7.422,7.883,1.57-5.7H39.2L36.344,17H34.188L31.336,8.547H33.7ZM44.969,17a2.507,2.507,0,0,1-.227-.758,2.732,2.732,0,0,1-2.133.914,3,3,0,0,1-2.059-.719,2.312,2.312,0,0,1-.816-1.812,2.389,2.389,0,0,1,1-2.062,4.915,4.915,0,0,1,2.879-.727h1.039v-.484a1.393,1.393,0,0,0-.3-.937,1.183,1.183,0,0,0-.949-.352,1.345,1.345,0,0,0-.895.273.929.929,0,0,0-.324.75H39.922a2.268,2.268,0,0,1,.453-1.359,3,3,0,0,1,1.281-.98,4.669,4.669,0,0,1,1.859-.355A3.689,3.689,0,0,1,46,9.176a2.747,2.747,0,0,1,.918,2.207v3.664a4.041,4.041,0,0,0,.336,1.82V17ZM43.1,15.43a1.945,1.945,0,0,0,.922-.223,1.462,1.462,0,0,0,.625-.6V13.156H43.8q-1.7,0-1.8,1.172l-.008.133a.9.9,0,0,0,.3.7A1.153,1.153,0,0,0,43.1,15.43ZM51.031,17H48.766V5h2.266Zm5.75.156a4.15,4.15,0,0,1-3.027-1.141,4.054,4.054,0,0,1-1.168-3.039v-.219a5.106,5.106,0,0,1,.492-2.277,3.612,3.612,0,0,1,1.395-1.547,3.914,3.914,0,0,1,2.059-.543,3.508,3.508,0,0,1,2.73,1.094,4.444,4.444,0,0,1,1,3.1v.922H54.875a2.1,2.1,0,0,0,.66,1.328,2,2,0,0,0,1.395.5,2.437,2.437,0,0,0,2.039-.945l1.109,1.242A3.389,3.389,0,0,1,58.7,16.754,4.511,4.511,0,0,1,56.781,17.156Zm-.258-6.945a1.411,1.411,0,0,0-1.09.455,2.357,2.357,0,0,0-.535,1.3h3.141v-.181a1.681,1.681,0,0,0-.406-1.165A1.456,1.456,0,0,0,56.523,10.211Zm7.094-1.664.07.977a2.951,2.951,0,0,1,2.43-1.133,2.453,2.453,0,0,1,2,.789,3.682,3.682,0,0,1,.672,2.359V17H66.531V11.594a1.465,1.465,0,0,0-.312-1.043,1.4,1.4,0,0,0-1.039-.324,1.553,1.553,0,0,0-1.43.813V17H61.492V8.547Zm10.4,6.789a1.481,1.481,0,0,0,1.016-.344,1.2,1.2,0,0,0,.406-.914h2.117a2.9,2.9,0,0,1-.469,1.574,3.093,3.093,0,0,1-1.262,1.109,3.949,3.949,0,0,1-1.77.395A3.67,3.67,0,0,1,71.2,16a4.56,4.56,0,0,1-1.047-3.184v-.148a4.508,4.508,0,0,1,1.039-3.117,3.627,3.627,0,0,1,2.852-1.164,3.555,3.555,0,0,1,2.543.9,3.2,3.2,0,0,1,.973,2.4H75.438a1.551,1.551,0,0,0-.406-1.072,1.51,1.51,0,0,0-2.223.163,3.333,3.333,0,0,0-.4,1.866v.235a3.375,3.375,0,0,0,.4,1.878A1.377,1.377,0,0,0,74.016,15.336ZM81.227,17H78.961V8.547h2.266Zm-2.4-10.641a1.112,1.112,0,0,1,.34-.836,1.465,1.465,0,0,1,1.848,0,1.105,1.105,0,0,1,.344.836,1.108,1.108,0,0,1-.348.844,1.448,1.448,0,0,1-1.836,0A1.108,1.108,0,0,1,78.828,6.359ZM87.984,17a2.507,2.507,0,0,1-.227-.758,2.732,2.732,0,0,1-2.133.914,3,3,0,0,1-2.059-.719,2.312,2.312,0,0,1-.816-1.812,2.389,2.389,0,0,1,1-2.062,4.915,4.915,0,0,1,2.879-.727h1.039v-.484a1.393,1.393,0,0,0-.3-.937,1.183,1.183,0,0,0-.949-.352,1.345,1.345,0,0,0-.895.273.929.929,0,0,0-.324.75H82.938a2.268,2.268,0,0,1,.453-1.359,3,3,0,0,1,1.281-.98,4.669,4.669,0,0,1,1.859-.355,3.689,3.689,0,0,1,2.48.785,2.747,2.747,0,0,1,.918,2.207v3.664a4.041,4.041,0,0,0,.336,1.82V17Zm-1.867-1.57a1.945,1.945,0,0,0,.922-.223,1.462,1.462,0,0,0,.625-.6V13.156H86.82q-1.7,0-1.8,1.172l-.008.133a.9.9,0,0,0,.3.7A1.153,1.153,0,0,0,86.117,15.43Zm13.047-.094a1.481,1.481,0,0,0,1.016-.344,1.2,1.2,0,0,0,.406-.914H102.7a2.9,2.9,0,0,1-.469,1.574,3.093,3.093,0,0,1-1.262,1.109,3.949,3.949,0,0,1-1.77.395A3.67,3.67,0,0,1,96.344,16,4.56,4.56,0,0,1,95.3,12.82v-.148a4.508,4.508,0,0,1,1.039-3.117,3.627,3.627,0,0,1,2.852-1.164,3.555,3.555,0,0,1,2.543.9,3.2,3.2,0,0,1,.973,2.4h-2.117a1.551,1.551,0,0,0-.406-1.072,1.51,1.51,0,0,0-2.223.163,3.333,3.333,0,0,0-.4,1.866v.235a3.375,3.375,0,0,0,.4,1.878A1.377,1.377,0,0,0,99.164,15.336Zm9.891.8a2.831,2.831,0,0,1-2.312,1.016,2.67,2.67,0,0,1-2.074-.781,3.335,3.335,0,0,1-.73-2.289V8.547H106.2v5.467q0,1.322,1.2,1.322a1.63,1.63,0,0,0,1.578-.8V8.547h2.266V17h-2.125Zm6.273.859h-2.266V5h2.266Zm4.563-10.531V8.547h1.445V10.2h-1.445v4.219a1.007,1.007,0,0,0,.18.672.9.9,0,0,0,.688.2,3.6,3.6,0,0,0,.664-.055v1.711a4.648,4.648,0,0,1-1.367.2,2.156,2.156,0,0,1-2.422-2.4V10.2H116.4V8.547h1.234V6.469Zm7.766,9.672a2.831,2.831,0,0,1-2.312,1.016,2.67,2.67,0,0,1-2.074-.781,3.335,3.335,0,0,1-.73-2.289V8.547H124.8v5.467q0,1.322,1.2,1.322a1.63,1.63,0,0,0,1.578-.8V8.547h2.266V17h-2.125Zm8.641-5.477a6.134,6.134,0,0,0-.812-.062,1.654,1.654,0,0,0-1.68.867V17h-2.258V8.547h2.133l.063,1.008a2.092,2.092,0,0,1,1.883-1.164,2.366,2.366,0,0,1,.7.1ZM142.047,17a2.507,2.507,0,0,1-.227-.758,2.732,2.732,0,0,1-2.133.914,3,3,0,0,1-2.059-.719,2.312,2.312,0,0,1-.816-1.812,2.389,2.389,0,0,1,1-2.062,4.915,4.915,0,0,1,2.879-.727h1.039v-.484a1.393,1.393,0,0,0-.3-.937,1.183,1.183,0,0,0-.949-.352,1.345,1.345,0,0,0-.895.273.929.929,0,0,0-.324.75H137a2.268,2.268,0,0,1,.453-1.359,3,3,0,0,1,1.281-.98,4.669,4.669,0,0,1,1.859-.355,3.689,3.689,0,0,1,2.48.785,2.747,2.747,0,0,1,.918,2.207v3.664a4.041,4.041,0,0,0,.336,1.82V17Zm-1.867-1.57a1.945,1.945,0,0,0,.922-.223,1.462,1.462,0,0,0,.625-.6V13.156h-.844q-1.7,0-1.8,1.172l-.008.133a.9.9,0,0,0,.3.7A1.153,1.153,0,0,0,140.18,15.43Zm7.93,1.57h-2.266V5h2.266Zm1.977-1.109a1.137,1.137,0,0,1,.363-.875,1.412,1.412,0,0,1,1.828,0,1.137,1.137,0,0,1,.363.875,1.121,1.121,0,0,1-.359.863,1.435,1.435,0,0,1-1.836,0A1.121,1.121,0,0,1,150.086,15.891Z" transform="translate(565.07 1697)" fill="#12263f"/>
    <path id="Trazado_725966" data-name="Trazado 725966" d="M7.859,12.07h-4.5v3.047H8.641V17H1.016V5.625H8.625v1.9H3.359v2.711h4.5Zm1.656.625A5.053,5.053,0,0,1,10.4,9.547a2.9,2.9,0,0,1,2.434-1.156A2.6,2.6,0,0,1,15,9.43l.148-.883h1.984v11.7H14.867V16.273a2.6,2.6,0,0,1-2.047.883,2.878,2.878,0,0,1-2.406-1.172A5.3,5.3,0,0,1,9.516,12.7Zm2.258.16A3.315,3.315,0,0,0,12.2,14.7a1.363,1.363,0,0,0,1.2.634,1.518,1.518,0,0,0,1.469-.829v-3.5a1.506,1.506,0,0,0-1.453-.8,1.38,1.38,0,0,0-1.211.634A3.661,3.661,0,0,0,11.773,12.856Zm12.2,3.285a2.831,2.831,0,0,1-2.312,1.016,2.67,2.67,0,0,1-2.074-.781,3.335,3.335,0,0,1-.73-2.289V8.547h2.258v5.467q0,1.322,1.2,1.322a1.63,1.63,0,0,0,1.578-.8V8.547h2.266V17H24.031ZM30.242,17H27.977V8.547h2.266Zm-2.4-10.641a1.112,1.112,0,0,1,.34-.836,1.465,1.465,0,0,1,1.848,0,1.105,1.105,0,0,1,.344.836,1.108,1.108,0,0,1-.348.844,1.448,1.448,0,0,1-1.836,0A1.108,1.108,0,0,1,27.844,6.359Zm7.422,7.883,1.57-5.7H39.2L36.344,17H34.188L31.336,8.547H33.7ZM44.969,17a2.507,2.507,0,0,1-.227-.758,2.732,2.732,0,0,1-2.133.914,3,3,0,0,1-2.059-.719,2.312,2.312,0,0,1-.816-1.812,2.389,2.389,0,0,1,1-2.062,4.915,4.915,0,0,1,2.879-.727h1.039v-.484a1.393,1.393,0,0,0-.3-.937,1.183,1.183,0,0,0-.949-.352,1.345,1.345,0,0,0-.895.273.929.929,0,0,0-.324.75H39.922a2.268,2.268,0,0,1,.453-1.359,3,3,0,0,1,1.281-.98,4.669,4.669,0,0,1,1.859-.355A3.689,3.689,0,0,1,46,9.176a2.747,2.747,0,0,1,.918,2.207v3.664a4.041,4.041,0,0,0,.336,1.82V17ZM43.1,15.43a1.945,1.945,0,0,0,.922-.223,1.462,1.462,0,0,0,.625-.6V13.156H43.8q-1.7,0-1.8,1.172l-.008.133a.9.9,0,0,0,.3.7A1.153,1.153,0,0,0,43.1,15.43ZM51.031,17H48.766V5h2.266Zm5.75.156a4.15,4.15,0,0,1-3.027-1.141,4.054,4.054,0,0,1-1.168-3.039v-.219a5.106,5.106,0,0,1,.492-2.277,3.612,3.612,0,0,1,1.395-1.547,3.914,3.914,0,0,1,2.059-.543,3.508,3.508,0,0,1,2.73,1.094,4.444,4.444,0,0,1,1,3.1v.922H54.875a2.1,2.1,0,0,0,.66,1.328,2,2,0,0,0,1.395.5,2.437,2.437,0,0,0,2.039-.945l1.109,1.242A3.389,3.389,0,0,1,58.7,16.754,4.511,4.511,0,0,1,56.781,17.156Zm-.258-6.945a1.411,1.411,0,0,0-1.09.455,2.357,2.357,0,0,0-.535,1.3h3.141v-.181a1.681,1.681,0,0,0-.406-1.165A1.456,1.456,0,0,0,56.523,10.211Zm7.094-1.664.07.977a2.951,2.951,0,0,1,2.43-1.133,2.453,2.453,0,0,1,2,.789,3.682,3.682,0,0,1,.672,2.359V17H66.531V11.594a1.465,1.465,0,0,0-.312-1.043,1.4,1.4,0,0,0-1.039-.324,1.553,1.553,0,0,0-1.43.813V17H61.492V8.547Zm10.4,6.789a1.481,1.481,0,0,0,1.016-.344,1.2,1.2,0,0,0,.406-.914h2.117a2.9,2.9,0,0,1-.469,1.574,3.093,3.093,0,0,1-1.262,1.109,3.949,3.949,0,0,1-1.77.395A3.67,3.67,0,0,1,71.2,16a4.56,4.56,0,0,1-1.047-3.184v-.148a4.508,4.508,0,0,1,1.039-3.117,3.627,3.627,0,0,1,2.852-1.164,3.555,3.555,0,0,1,2.543.9,3.2,3.2,0,0,1,.973,2.4H75.438a1.551,1.551,0,0,0-.406-1.072,1.51,1.51,0,0,0-2.223.163,3.333,3.333,0,0,0-.4,1.866v.235a3.375,3.375,0,0,0,.4,1.878A1.377,1.377,0,0,0,74.016,15.336ZM81.227,17H78.961V8.547h2.266Zm-2.4-10.641a1.112,1.112,0,0,1,.34-.836,1.465,1.465,0,0,1,1.848,0,1.105,1.105,0,0,1,.344.836,1.108,1.108,0,0,1-.348.844,1.448,1.448,0,0,1-1.836,0A1.108,1.108,0,0,1,78.828,6.359ZM87.984,17a2.507,2.507,0,0,1-.227-.758,2.732,2.732,0,0,1-2.133.914,3,3,0,0,1-2.059-.719,2.312,2.312,0,0,1-.816-1.812,2.389,2.389,0,0,1,1-2.062,4.915,4.915,0,0,1,2.879-.727h1.039v-.484a1.393,1.393,0,0,0-.3-.937,1.183,1.183,0,0,0-.949-.352,1.345,1.345,0,0,0-.895.273.929.929,0,0,0-.324.75H82.938a2.268,2.268,0,0,1,.453-1.359,3,3,0,0,1,1.281-.98,4.669,4.669,0,0,1,1.859-.355,3.689,3.689,0,0,1,2.48.785,2.747,2.747,0,0,1,.918,2.207v3.664a4.041,4.041,0,0,0,.336,1.82V17Zm-1.867-1.57a1.945,1.945,0,0,0,.922-.223,1.462,1.462,0,0,0,.625-.6V13.156H86.82q-1.7,0-1.8,1.172l-.008.133a.9.9,0,0,0,.3.7A1.153,1.153,0,0,0,86.117,15.43Zm9.18-2.719a5.094,5.094,0,0,1,.887-3.148,2.877,2.877,0,0,1,2.426-1.172,2.589,2.589,0,0,1,2.039.922V5h2.266V17h-2.039l-.109-.9a2.657,2.657,0,0,1-2.172,1.055A2.869,2.869,0,0,1,96.2,15.98,5.258,5.258,0,0,1,95.3,12.711Zm2.258.168a3.337,3.337,0,0,0,.414,1.823,1.349,1.349,0,0,0,1.2.634,1.511,1.511,0,0,0,1.477-.884V11.111a1.489,1.489,0,0,0-1.461-.884Q97.555,10.227,97.555,12.879ZM107.047,17h-2.266V8.547h2.266Zm-2.4-10.641a1.112,1.112,0,0,1,.34-.836,1.465,1.465,0,0,1,1.848,0,1.105,1.105,0,0,1,.344.836,1.108,1.108,0,0,1-.348.844A1.448,1.448,0,0,1,105,7.2,1.108,1.108,0,0,1,104.648,6.359Zm8.836,8.3a.727.727,0,0,0-.41-.652,4.659,4.659,0,0,0-1.316-.426q-3.016-.633-3.016-2.562a2.323,2.323,0,0,1,.934-1.879,3.766,3.766,0,0,1,2.441-.754,4.053,4.053,0,0,1,2.574.758,2.388,2.388,0,0,1,.965,1.969H113.4a1.092,1.092,0,0,0-.312-.8,1.322,1.322,0,0,0-.977-.316,1.351,1.351,0,0,0-.883.258.814.814,0,0,0-.312.656.7.7,0,0,0,.355.605,3.657,3.657,0,0,0,1.2.4,9.8,9.8,0,0,1,1.422.379,2.336,2.336,0,0,1,1.789,2.273,2.2,2.2,0,0,1-.992,1.871,4.28,4.28,0,0,1-2.562.715,4.47,4.47,0,0,1-1.887-.379,3.166,3.166,0,0,1-1.293-1.039,2.414,2.414,0,0,1-.469-1.426h2.141a1.179,1.179,0,0,0,.445.922,1.766,1.766,0,0,0,1.109.32,1.635,1.635,0,0,0,.98-.246A.766.766,0,0,0,113.484,14.664Zm7.164.672a1.481,1.481,0,0,0,1.016-.344,1.2,1.2,0,0,0,.406-.914h2.117a2.9,2.9,0,0,1-.469,1.574,3.093,3.093,0,0,1-1.262,1.109,3.949,3.949,0,0,1-1.77.395A3.67,3.67,0,0,1,117.828,16a4.56,4.56,0,0,1-1.047-3.184v-.148a4.508,4.508,0,0,1,1.039-3.117,3.627,3.627,0,0,1,2.852-1.164,3.555,3.555,0,0,1,2.543.9,3.2,3.2,0,0,1,.973,2.4H122.07a1.551,1.551,0,0,0-.406-1.072,1.51,1.51,0,0,0-2.223.163,3.333,3.333,0,0,0-.4,1.866v.235a3.375,3.375,0,0,0,.4,1.878A1.377,1.377,0,0,0,120.648,15.336Zm9.891.8a2.831,2.831,0,0,1-2.312,1.016,2.67,2.67,0,0,1-2.074-.781,3.335,3.335,0,0,1-.73-2.289V8.547h2.258v5.467q0,1.322,1.2,1.322a1.63,1.63,0,0,0,1.578-.8V8.547h2.266V17H130.6Zm8.641-5.477a6.134,6.134,0,0,0-.812-.062,1.654,1.654,0,0,0-1.68.867V17H134.43V8.547h2.133l.063,1.008a2.092,2.092,0,0,1,1.883-1.164,2.366,2.366,0,0,1,.7.1Zm5.664,4a.727.727,0,0,0-.41-.652,4.659,4.659,0,0,0-1.316-.426q-3.016-.633-3.016-2.562a2.323,2.323,0,0,1,.934-1.879,3.766,3.766,0,0,1,2.441-.754,4.053,4.053,0,0,1,2.574.758,2.388,2.388,0,0,1,.965,1.969h-2.258a1.092,1.092,0,0,0-.312-.8,1.322,1.322,0,0,0-.977-.316,1.351,1.351,0,0,0-.883.258.814.814,0,0,0-.312.656.7.7,0,0,0,.355.605,3.657,3.657,0,0,0,1.2.4,9.8,9.8,0,0,1,1.422.379,2.336,2.336,0,0,1,1.789,2.273,2.205,2.205,0,0,1-.992,1.871,4.28,4.28,0,0,1-2.562.715,4.47,4.47,0,0,1-1.887-.379,3.166,3.166,0,0,1-1.293-1.039,2.414,2.414,0,0,1-.469-1.426h2.141a1.179,1.179,0,0,0,.445.922,1.766,1.766,0,0,0,1.109.32,1.635,1.635,0,0,0,.98-.246A.766.766,0,0,0,144.844,14.664ZM150.875,17h-2.266V8.547h2.266Zm-2.4-10.641a1.112,1.112,0,0,1,.34-.836,1.465,1.465,0,0,1,1.848,0,1.105,1.105,0,0,1,.344.836,1.109,1.109,0,0,1-.348.844,1.448,1.448,0,0,1-1.836,0A1.109,1.109,0,0,1,148.477,6.359Zm7.422,7.883,1.57-5.7h2.359L156.977,17H154.82l-2.852-8.453h2.359ZM165.6,17a2.507,2.507,0,0,1-.227-.758,2.732,2.732,0,0,1-2.133.914,3,3,0,0,1-2.059-.719,2.312,2.312,0,0,1-.816-1.812,2.389,2.389,0,0,1,1-2.062,4.915,4.915,0,0,1,2.879-.727h1.039v-.484a1.393,1.393,0,0,0-.3-.937,1.183,1.183,0,0,0-.949-.352,1.345,1.345,0,0,0-.895.273.929.929,0,0,0-.324.75h-2.258a2.268,2.268,0,0,1,.453-1.359,3,3,0,0,1,1.281-.98,4.669,4.669,0,0,1,1.859-.355,3.689,3.689,0,0,1,2.48.785,2.747,2.747,0,0,1,.918,2.207v3.664a4.041,4.041,0,0,0,.336,1.82V17Zm-1.867-1.57a1.945,1.945,0,0,0,.922-.223,1.462,1.462,0,0,0,.625-.6V13.156h-.844q-1.7,0-1.8,1.172l-.008.133a.9.9,0,0,0,.3.7A1.153,1.153,0,0,0,163.734,15.43Zm5.664.461a1.137,1.137,0,0,1,.363-.875,1.412,1.412,0,0,1,1.828,0,1.137,1.137,0,0,1,.363.875,1.121,1.121,0,0,1-.359.863,1.435,1.435,0,0,1-1.836,0A1.121,1.121,0,0,1,169.4,15.891Z" transform="translate(565.07 1768.943)" fill="#12263f"/>
    <path id="Trazado_725971" data-name="Trazado 725971" d="M7.859,12.07h-4.5v3.047H8.641V17H1.016V5.625H8.625v1.9H3.359v2.711h4.5Zm1.656.625A5.053,5.053,0,0,1,10.4,9.547a2.9,2.9,0,0,1,2.434-1.156A2.6,2.6,0,0,1,15,9.43l.148-.883h1.984v11.7H14.867V16.273a2.6,2.6,0,0,1-2.047.883,2.878,2.878,0,0,1-2.406-1.172A5.3,5.3,0,0,1,9.516,12.7Zm2.258.16A3.315,3.315,0,0,0,12.2,14.7a1.363,1.363,0,0,0,1.2.634,1.518,1.518,0,0,0,1.469-.829v-3.5a1.506,1.506,0,0,0-1.453-.8,1.38,1.38,0,0,0-1.211.634A3.661,3.661,0,0,0,11.773,12.856Zm12.2,3.285a2.831,2.831,0,0,1-2.312,1.016,2.67,2.67,0,0,1-2.074-.781,3.335,3.335,0,0,1-.73-2.289V8.547h2.258v5.467q0,1.322,1.2,1.322a1.63,1.63,0,0,0,1.578-.8V8.547h2.266V17H24.031ZM30.242,17H27.977V8.547h2.266Zm-2.4-10.641a1.112,1.112,0,0,1,.34-.836,1.465,1.465,0,0,1,1.848,0,1.105,1.105,0,0,1,.344.836,1.108,1.108,0,0,1-.348.844,1.448,1.448,0,0,1-1.836,0A1.108,1.108,0,0,1,27.844,6.359Zm7.422,7.883,1.57-5.7H39.2L36.344,17H34.188L31.336,8.547H33.7ZM44.969,17a2.507,2.507,0,0,1-.227-.758,2.732,2.732,0,0,1-2.133.914,3,3,0,0,1-2.059-.719,2.312,2.312,0,0,1-.816-1.812,2.389,2.389,0,0,1,1-2.062,4.915,4.915,0,0,1,2.879-.727h1.039v-.484a1.393,1.393,0,0,0-.3-.937,1.183,1.183,0,0,0-.949-.352,1.345,1.345,0,0,0-.895.273.929.929,0,0,0-.324.75H39.922a2.268,2.268,0,0,1,.453-1.359,3,3,0,0,1,1.281-.98,4.669,4.669,0,0,1,1.859-.355A3.689,3.689,0,0,1,46,9.176a2.747,2.747,0,0,1,.918,2.207v3.664a4.041,4.041,0,0,0,.336,1.82V17ZM43.1,15.43a1.945,1.945,0,0,0,.922-.223,1.462,1.462,0,0,0,.625-.6V13.156H43.8q-1.7,0-1.8,1.172l-.008.133a.9.9,0,0,0,.3.7A1.153,1.153,0,0,0,43.1,15.43ZM51.031,17H48.766V5h2.266Zm5.75.156a4.15,4.15,0,0,1-3.027-1.141,4.054,4.054,0,0,1-1.168-3.039v-.219a5.106,5.106,0,0,1,.492-2.277,3.612,3.612,0,0,1,1.395-1.547,3.914,3.914,0,0,1,2.059-.543,3.508,3.508,0,0,1,2.73,1.094,4.444,4.444,0,0,1,1,3.1v.922H54.875a2.1,2.1,0,0,0,.66,1.328,2,2,0,0,0,1.395.5,2.437,2.437,0,0,0,2.039-.945l1.109,1.242A3.389,3.389,0,0,1,58.7,16.754,4.511,4.511,0,0,1,56.781,17.156Zm-.258-6.945a1.411,1.411,0,0,0-1.09.455,2.357,2.357,0,0,0-.535,1.3h3.141v-.181a1.681,1.681,0,0,0-.406-1.165A1.456,1.456,0,0,0,56.523,10.211Zm7.094-1.664.07.977a2.951,2.951,0,0,1,2.43-1.133,2.453,2.453,0,0,1,2,.789,3.682,3.682,0,0,1,.672,2.359V17H66.531V11.594a1.465,1.465,0,0,0-.312-1.043,1.4,1.4,0,0,0-1.039-.324,1.553,1.553,0,0,0-1.43.813V17H61.492V8.547Zm10.4,6.789a1.481,1.481,0,0,0,1.016-.344,1.2,1.2,0,0,0,.406-.914h2.117a2.9,2.9,0,0,1-.469,1.574,3.093,3.093,0,0,1-1.262,1.109,3.949,3.949,0,0,1-1.77.395A3.67,3.67,0,0,1,71.2,16a4.56,4.56,0,0,1-1.047-3.184v-.148a4.508,4.508,0,0,1,1.039-3.117,3.627,3.627,0,0,1,2.852-1.164,3.555,3.555,0,0,1,2.543.9,3.2,3.2,0,0,1,.973,2.4H75.438a1.551,1.551,0,0,0-.406-1.072,1.51,1.51,0,0,0-2.223.163,3.333,3.333,0,0,0-.4,1.866v.235a3.375,3.375,0,0,0,.4,1.878A1.377,1.377,0,0,0,74.016,15.336ZM81.227,17H78.961V8.547h2.266Zm-2.4-10.641a1.112,1.112,0,0,1,.34-.836,1.465,1.465,0,0,1,1.848,0,1.105,1.105,0,0,1,.344.836,1.108,1.108,0,0,1-.348.844,1.448,1.448,0,0,1-1.836,0A1.108,1.108,0,0,1,78.828,6.359ZM87.984,17a2.507,2.507,0,0,1-.227-.758,2.732,2.732,0,0,1-2.133.914,3,3,0,0,1-2.059-.719,2.312,2.312,0,0,1-.816-1.812,2.389,2.389,0,0,1,1-2.062,4.915,4.915,0,0,1,2.879-.727h1.039v-.484a1.393,1.393,0,0,0-.3-.937,1.183,1.183,0,0,0-.949-.352,1.345,1.345,0,0,0-.895.273.929.929,0,0,0-.324.75H82.938a2.268,2.268,0,0,1,.453-1.359,3,3,0,0,1,1.281-.98,4.669,4.669,0,0,1,1.859-.355,3.689,3.689,0,0,1,2.48.785,2.747,2.747,0,0,1,.918,2.207v3.664a4.041,4.041,0,0,0,.336,1.82V17Zm-1.867-1.57a1.945,1.945,0,0,0,.922-.223,1.462,1.462,0,0,0,.625-.6V13.156H86.82q-1.7,0-1.8,1.172l-.008.133a.9.9,0,0,0,.3.7A1.153,1.153,0,0,0,86.117,15.43Zm9.2-2.719a4.954,4.954,0,0,1,.926-3.133,3,3,0,0,1,2.5-1.187,2.631,2.631,0,0,1,2.164.953l.094-.8h2.047v8.172a3.613,3.613,0,0,1-.5,1.93,3.236,3.236,0,0,1-1.418,1.25,4.985,4.985,0,0,1-2.141.43,4.635,4.635,0,0,1-1.812-.371A3.217,3.217,0,0,1,95.836,19l1-1.375a2.645,2.645,0,0,0,2.047.945,1.936,1.936,0,0,0,1.4-.48,1.8,1.8,0,0,0,.5-1.363v-.453a2.612,2.612,0,0,1-2.055.883,2.992,2.992,0,0,1-2.465-1.191,4.953,4.953,0,0,1-.941-3.16Zm2.258.168a3.085,3.085,0,0,0,.461,1.8,1.466,1.466,0,0,0,1.266.653,1.568,1.568,0,0,0,1.477-.775V11a1.564,1.564,0,0,0-1.461-.775,1.476,1.476,0,0,0-1.277.665A3.477,3.477,0,0,0,97.578,12.879Zm11.953-2.215a6.134,6.134,0,0,0-.812-.062,1.654,1.654,0,0,0-1.68.867V17h-2.258V8.547h2.133l.063,1.008a2.092,2.092,0,0,1,1.883-1.164,2.366,2.366,0,0,1,.7.1ZM115.281,17a2.507,2.507,0,0,1-.227-.758,2.732,2.732,0,0,1-2.133.914,3,3,0,0,1-2.059-.719,2.312,2.312,0,0,1-.816-1.812,2.389,2.389,0,0,1,1-2.062,4.915,4.915,0,0,1,2.879-.727h1.039v-.484a1.393,1.393,0,0,0-.3-.937,1.183,1.183,0,0,0-.949-.352,1.345,1.345,0,0,0-.895.273.929.929,0,0,0-.324.75h-2.258a2.268,2.268,0,0,1,.453-1.359,3,3,0,0,1,1.281-.98,4.669,4.669,0,0,1,1.859-.355,3.689,3.689,0,0,1,2.48.785,2.747,2.747,0,0,1,.918,2.207v3.664a4.041,4.041,0,0,0,.336,1.82V17Zm-1.867-1.57a1.945,1.945,0,0,0,.922-.223,1.462,1.462,0,0,0,.625-.6V13.156h-.844q-1.7,0-1.8,1.172l-.008.133a.9.9,0,0,0,.3.7A1.153,1.153,0,0,0,113.414,15.43Zm7.664-6.883.07.945a2.971,2.971,0,0,1,2.43-1.1A2.255,2.255,0,0,1,125.82,9.68a2.9,2.9,0,0,1,2.539-1.289,2.521,2.521,0,0,1,2.047.8,3.681,3.681,0,0,1,.672,2.41V17h-2.266V11.609a1.61,1.61,0,0,0-.281-1.051,1.246,1.246,0,0,0-.992-.332,1.409,1.409,0,0,0-1.406.969l.008,5.8h-2.258V11.617a1.59,1.59,0,0,0-.289-1.062,1.259,1.259,0,0,0-.984-.328,1.463,1.463,0,0,0-1.391.8V17h-2.258V8.547ZM137.711,17a2.507,2.507,0,0,1-.227-.758,2.732,2.732,0,0,1-2.133.914,3,3,0,0,1-2.059-.719,2.312,2.312,0,0,1-.816-1.812,2.389,2.389,0,0,1,1-2.062,4.915,4.915,0,0,1,2.879-.727h1.039v-.484a1.393,1.393,0,0,0-.3-.937,1.183,1.183,0,0,0-.949-.352,1.345,1.345,0,0,0-.895.273.929.929,0,0,0-.324.75h-2.258a2.268,2.268,0,0,1,.453-1.359,3,3,0,0,1,1.281-.98,4.669,4.669,0,0,1,1.859-.355,3.689,3.689,0,0,1,2.48.785,2.747,2.747,0,0,1,.918,2.207v3.664a4.041,4.041,0,0,0,.336,1.82V17Zm-1.867-1.57a1.945,1.945,0,0,0,.922-.223,1.462,1.462,0,0,0,.625-.6V13.156h-.844q-1.7,0-1.8,1.172l-.008.133a.9.9,0,0,0,.3.7A1.153,1.153,0,0,0,135.844,15.43Zm8.25-8.961V8.547h1.445V10.2h-1.445v4.219a1.007,1.007,0,0,0,.18.672.9.9,0,0,0,.688.2,3.6,3.6,0,0,0,.664-.055v1.711a4.648,4.648,0,0,1-1.367.2,2.156,2.156,0,0,1-2.422-2.4V10.2H140.6V8.547h1.234V6.469ZM149.18,17h-2.266V8.547h2.266Zm-2.4-10.641a1.112,1.112,0,0,1,.34-.836,1.465,1.465,0,0,1,1.848,0,1.105,1.105,0,0,1,.344.836,1.109,1.109,0,0,1-.348.844,1.448,1.448,0,0,1-1.836,0A1.109,1.109,0,0,1,146.781,6.359Zm7.773,8.977a1.481,1.481,0,0,0,1.016-.344,1.2,1.2,0,0,0,.406-.914h2.117a2.9,2.9,0,0,1-.469,1.574,3.093,3.093,0,0,1-1.262,1.109,3.949,3.949,0,0,1-1.77.395A3.67,3.67,0,0,1,151.734,16a4.56,4.56,0,0,1-1.047-3.184v-.148a4.508,4.508,0,0,1,1.039-3.117,3.627,3.627,0,0,1,2.852-1.164,3.555,3.555,0,0,1,2.543.9,3.2,3.2,0,0,1,.973,2.4h-2.117a1.551,1.551,0,0,0-.406-1.072,1.51,1.51,0,0,0-2.223.163,3.333,3.333,0,0,0-.4,1.866v.235a3.375,3.375,0,0,0,.4,1.878A1.377,1.377,0,0,0,154.555,15.336ZM164.281,17a2.507,2.507,0,0,1-.227-.758,2.732,2.732,0,0,1-2.133.914,3,3,0,0,1-2.059-.719,2.312,2.312,0,0,1-.816-1.812,2.389,2.389,0,0,1,1-2.062,4.915,4.915,0,0,1,2.879-.727h1.039v-.484a1.393,1.393,0,0,0-.3-.937,1.183,1.183,0,0,0-.949-.352,1.345,1.345,0,0,0-.895.273.929.929,0,0,0-.324.75h-2.258a2.268,2.268,0,0,1,.453-1.359,3,3,0,0,1,1.281-.98,4.669,4.669,0,0,1,1.859-.355,3.689,3.689,0,0,1,2.48.785,2.747,2.747,0,0,1,.918,2.207v3.664a4.041,4.041,0,0,0,.336,1.82V17Zm-1.867-1.57a1.945,1.945,0,0,0,.922-.223,1.462,1.462,0,0,0,.625-.6V13.156h-.844q-1.7,0-1.8,1.172l-.008.133a.9.9,0,0,0,.3.7A1.153,1.153,0,0,0,162.414,15.43Zm7.93,1.57h-2.266V5h2.266Zm1.977-1.109a1.137,1.137,0,0,1,.363-.875,1.412,1.412,0,0,1,1.828,0,1.137,1.137,0,0,1,.363.875,1.121,1.121,0,0,1-.359.863,1.435,1.435,0,0,1-1.836,0A1.121,1.121,0,0,1,172.32,15.891Z" transform="translate(565.07 1837)" fill="#12263f"/>
    <g id="Grupo_1003692" data-name="Grupo 1003692" transform="translate(-53.646 -254.535)">
      <g id="Grupo_1003570" data-name="Grupo 1003570" transform="translate(526.91 1663)">
        <g transform="matrix(1, 0, 0, 1, -18.56, 0)" filter="url(#Unión_1)">
          <path id="Unión_1-2" data-name="Unión 1" d="M277,51h35.723L294.863,72ZM22.5,51a22.5,22.5,0,0,1,0-45H567.6a22.5,22.5,0,0,1,0,45Z" transform="translate(18.56 0)" fill="#112e4c"/>
        </g>
      </g>
      <path id="Trazado_725946" data-name="Trazado 725946" d="M-213.6-5.546h-5.062v3.428h5.941V0H-221.3V-12.8h8.561v2.136h-5.924v3.05h5.063Zm1.863.7a5.684,5.684,0,0,1,1-3.542,3.261,3.261,0,0,1,2.738-1.3,2.92,2.92,0,0,1,2.435,1.169l.167-.993h2.232V3.656h-2.549V-.817a2.928,2.928,0,0,1-2.3.993,3.237,3.237,0,0,1-2.707-1.318A5.963,5.963,0,0,1-211.742-4.843Zm2.54.18a3.729,3.729,0,0,0,.479,2.077,1.533,1.533,0,0,0,1.349.713,1.708,1.708,0,0,0,1.652-.933V-6.74a1.694,1.694,0,0,0-1.635-.9,1.552,1.552,0,0,0-1.362.713A4.118,4.118,0,0,0-209.2-4.662Zm13.72,3.7a3.185,3.185,0,0,1-2.6,1.143A3,3,0,0,1-200.417-.7a3.752,3.752,0,0,1-.822-2.575V-9.51h2.54v6.151q0,1.487,1.354,1.487a1.834,1.834,0,0,0,1.775-.9V-9.51h2.549V0h-2.391Zm7.058.967h-2.549V-9.51h2.549Zm-2.7-11.971a1.251,1.251,0,0,1,.382-.94,1.436,1.436,0,0,1,1.042-.369,1.44,1.44,0,0,1,1.037.369,1.244,1.244,0,0,1,.387.94,1.247,1.247,0,0,1-.391.949,1.443,1.443,0,0,1-1.033.369,1.443,1.443,0,0,1-1.033-.369A1.247,1.247,0,0,1-191.123-11.971Zm8.35,8.868,1.767-6.407h2.654L-181.56,0h-2.426l-3.208-9.51h2.654ZM-171.857,0a2.821,2.821,0,0,1-.255-.853,3.073,3.073,0,0,1-2.4,1.028,3.376,3.376,0,0,1-2.316-.809,2.6,2.6,0,0,1-.918-2.039,2.687,2.687,0,0,1,1.121-2.32,5.529,5.529,0,0,1,3.239-.817h1.169v-.545a1.567,1.567,0,0,0-.338-1.055,1.331,1.331,0,0,0-1.068-.4,1.513,1.513,0,0,0-1.006.308,1.045,1.045,0,0,0-.365.844h-2.54a2.551,2.551,0,0,1,.51-1.529,3.37,3.37,0,0,1,1.441-1.1,5.253,5.253,0,0,1,2.092-.4A4.15,4.15,0,0,1-170.7-8.8a3.09,3.09,0,0,1,1.033,2.483V-2.2a4.546,4.546,0,0,0,.378,2.048V0Zm-2.1-1.767a2.188,2.188,0,0,0,1.037-.25,1.645,1.645,0,0,0,.7-.672V-4.324h-.949q-1.907,0-2.03,1.318l-.009.149a1.017,1.017,0,0,0,.334.782A1.3,1.3,0,0,0-173.958-1.767ZM-165.037,0h-2.549V-13.5h2.549Zm6.469.176a4.668,4.668,0,0,1-3.406-1.283,4.561,4.561,0,0,1-1.314-3.419v-.246a5.745,5.745,0,0,1,.554-2.562,4.064,4.064,0,0,1,1.569-1.74,4.4,4.4,0,0,1,2.316-.611,3.947,3.947,0,0,1,3.072,1.23,5,5,0,0,1,1.121,3.489v1.037h-6.056a2.36,2.36,0,0,0,.743,1.494,2.245,2.245,0,0,0,1.569.563,2.742,2.742,0,0,0,2.294-1.063l1.248,1.4a3.813,3.813,0,0,1-1.547,1.261A5.075,5.075,0,0,1-158.568.176Zm-.29-7.813a1.587,1.587,0,0,0-1.226.512,2.651,2.651,0,0,0-.6,1.466h3.533v-.2a1.891,1.891,0,0,0-.457-1.311A1.638,1.638,0,0,0-158.858-7.638Zm7.98-1.872.079,1.1a3.32,3.32,0,0,1,2.733-1.274,2.759,2.759,0,0,1,2.25.888,4.142,4.142,0,0,1,.756,2.654V0h-2.54V-6.082a1.648,1.648,0,0,0-.352-1.173,1.574,1.574,0,0,0-1.169-.365,1.747,1.747,0,0,0-1.608.914V0h-2.54V-9.51Zm11.7,7.638a1.666,1.666,0,0,0,1.143-.387,1.355,1.355,0,0,0,.457-1.028h2.382a3.258,3.258,0,0,1-.527,1.771,3.48,3.48,0,0,1-1.419,1.248,4.442,4.442,0,0,1-1.991.444,4.129,4.129,0,0,1-3.217-1.3A5.13,5.13,0,0,1-143.53-4.7v-.167a5.071,5.071,0,0,1,1.169-3.507,4.08,4.08,0,0,1,3.208-1.31,4,4,0,0,1,2.861,1.015,3.594,3.594,0,0,1,1.094,2.7h-2.382a1.745,1.745,0,0,0-.457-1.206,1.524,1.524,0,0,0-1.16-.464,1.53,1.53,0,0,0-1.34.647,3.749,3.749,0,0,0-.453,2.1v.264a3.8,3.8,0,0,0,.448,2.113A1.549,1.549,0,0,0-139.179-1.872ZM-131.067,0h-2.549V-9.51h2.549Zm-2.7-11.971a1.251,1.251,0,0,1,.382-.94,1.436,1.436,0,0,1,1.042-.369,1.44,1.44,0,0,1,1.037.369,1.244,1.244,0,0,1,.387.94,1.247,1.247,0,0,1-.391.949,1.443,1.443,0,0,1-1.033.369,1.443,1.443,0,0,1-1.033-.369A1.247,1.247,0,0,1-133.765-11.971ZM-123.464,0a2.821,2.821,0,0,1-.255-.853,3.073,3.073,0,0,1-2.4,1.028,3.376,3.376,0,0,1-2.316-.809,2.6,2.6,0,0,1-.918-2.039,2.687,2.687,0,0,1,1.121-2.32,5.529,5.529,0,0,1,3.239-.817h1.169v-.545a1.567,1.567,0,0,0-.338-1.055,1.331,1.331,0,0,0-1.068-.4,1.513,1.513,0,0,0-1.006.308,1.045,1.045,0,0,0-.365.844h-2.54a2.551,2.551,0,0,1,.51-1.529,3.37,3.37,0,0,1,1.441-1.1,5.253,5.253,0,0,1,2.092-.4,4.15,4.15,0,0,1,2.791.883,3.09,3.09,0,0,1,1.033,2.483V-2.2A4.546,4.546,0,0,0-120.9-.149V0Zm-2.1-1.767a2.188,2.188,0,0,0,1.037-.25,1.645,1.645,0,0,0,.7-.672V-4.324h-.949q-1.907,0-2.03,1.318l-.009.149a1.017,1.017,0,0,0,.334.782A1.3,1.3,0,0,0-125.565-1.767Zm15.1,1.942a4.668,4.668,0,0,1-3.406-1.283,4.561,4.561,0,0,1-1.314-3.419v-.246a5.745,5.745,0,0,1,.554-2.562,4.064,4.064,0,0,1,1.569-1.74,4.4,4.4,0,0,1,2.316-.611,3.947,3.947,0,0,1,3.072,1.23,5,5,0,0,1,1.121,3.489v1.037h-6.056a2.36,2.36,0,0,0,.743,1.494,2.245,2.245,0,0,0,1.569.563A2.742,2.742,0,0,0-108-2.936l1.248,1.4A3.813,3.813,0,0,1-108.3-.277,5.075,5.075,0,0,1-110.465.176Zm-.29-7.813a1.587,1.587,0,0,0-1.226.512,2.651,2.651,0,0,0-.6,1.466h3.533v-.2a1.891,1.891,0,0,0-.457-1.311A1.638,1.638,0,0,0-110.755-7.638Zm7.98-1.872.079,1.1a3.32,3.32,0,0,1,2.733-1.274,2.759,2.759,0,0,1,2.25.888,4.142,4.142,0,0,1,.756,2.654V0H-99.5V-6.082a1.648,1.648,0,0,0-.352-1.173,1.574,1.574,0,0,0-1.169-.365,1.747,1.747,0,0,0-1.608.914V0h-2.54V-9.51Zm10.784-2.338V-9.51h1.626v1.863h-1.626V-2.9a1.133,1.133,0,0,0,.2.756,1.015,1.015,0,0,0,.773.229,4.051,4.051,0,0,0,.747-.062V-.053a5.229,5.229,0,0,1-1.538.229,2.425,2.425,0,0,1-2.725-2.7V-7.646h-1.389V-9.51h1.389v-2.338Zm8.385,4.72a6.9,6.9,0,0,0-.914-.07,1.86,1.86,0,0,0-1.89.976V0h-2.54V-9.51h2.4l.07,1.134a2.354,2.354,0,0,1,2.118-1.31,2.662,2.662,0,0,1,.791.114Zm5.6,7.3a4.668,4.668,0,0,1-3.406-1.283,4.561,4.561,0,0,1-1.314-3.419v-.246a5.745,5.745,0,0,1,.554-2.562A4.064,4.064,0,0,1-80.6-9.075a4.4,4.4,0,0,1,2.316-.611,3.947,3.947,0,0,1,3.072,1.23A5,5,0,0,1-74.1-4.966v1.037h-6.056a2.36,2.36,0,0,0,.743,1.494,2.245,2.245,0,0,0,1.569.563,2.742,2.742,0,0,0,2.294-1.063l1.248,1.4A3.813,3.813,0,0,1-75.845-.277,5.075,5.075,0,0,1-78.007.176Zm-.29-7.813a1.587,1.587,0,0,0-1.226.512,2.651,2.651,0,0,0-.6,1.466h3.533v-.2a1.891,1.891,0,0,0-.457-1.311A1.638,1.638,0,0,0-78.3-7.638ZM-65.492,0h-2.549V-13.5h2.549Zm6.469.176a4.668,4.668,0,0,1-3.406-1.283,4.561,4.561,0,0,1-1.314-3.419v-.246a5.745,5.745,0,0,1,.554-2.562,4.064,4.064,0,0,1,1.569-1.74A4.4,4.4,0,0,1-59.3-9.686a3.947,3.947,0,0,1,3.072,1.23,5,5,0,0,1,1.121,3.489v1.037h-6.056a2.36,2.36,0,0,0,.743,1.494,2.245,2.245,0,0,0,1.569.563,2.742,2.742,0,0,0,2.294-1.063l1.248,1.4A3.813,3.813,0,0,1-56.861-.277,5.075,5.075,0,0,1-59.023.176Zm-.29-7.813a1.587,1.587,0,0,0-1.226.512,2.651,2.651,0,0,0-.6,1.466h3.533v-.2a1.891,1.891,0,0,0-.457-1.311A1.638,1.638,0,0,0-59.313-7.638Zm7.98-1.872.079,1.1A3.32,3.32,0,0,1-48.52-9.686a2.759,2.759,0,0,1,2.25.888,4.142,4.142,0,0,1,.756,2.654V0h-2.54V-6.082a1.648,1.648,0,0,0-.352-1.173,1.574,1.574,0,0,0-1.169-.365,1.747,1.747,0,0,0-1.608.914V0h-2.54V-9.51Zm7.374,4.685A5.573,5.573,0,0,1-42.917-8.35a3.375,3.375,0,0,1,2.808-1.336,2.96,2.96,0,0,1,2.435,1.072l.105-.9h2.3V-.316a4.064,4.064,0,0,1-.567,2.171,3.641,3.641,0,0,1-1.6,1.406,5.608,5.608,0,0,1-2.408.483,5.215,5.215,0,0,1-2.039-.417,3.619,3.619,0,0,1-1.5-1.077L-42.253.7a2.975,2.975,0,0,0,2.3,1.063,2.178,2.178,0,0,0,1.573-.541,2.027,2.027,0,0,0,.563-1.534v-.51a2.938,2.938,0,0,1-2.312.993A3.366,3.366,0,0,1-42.9-1.165,5.572,5.572,0,0,1-43.958-4.72Zm2.54.189A3.47,3.47,0,0,0-40.9-2.607a1.65,1.65,0,0,0,1.424.735,1.764,1.764,0,0,0,1.661-.871V-6.749a1.76,1.76,0,0,0-1.644-.871,1.66,1.66,0,0,0-1.437.748A3.911,3.911,0,0,0-41.418-4.636Zm13.8,3.669a3.185,3.185,0,0,1-2.6,1.143A3,3,0,0,1-32.555-.7a3.752,3.752,0,0,1-.822-2.575V-9.51h2.54v6.151q0,1.487,1.354,1.487a1.834,1.834,0,0,0,1.775-.9V-9.51h2.549V0h-2.391ZM-17.732,0a2.821,2.821,0,0,1-.255-.853,3.073,3.073,0,0,1-2.4,1.028A3.376,3.376,0,0,1-22.7-.633a2.6,2.6,0,0,1-.918-2.039A2.687,2.687,0,0,1-22.5-4.992a5.529,5.529,0,0,1,3.239-.817h1.169v-.545a1.567,1.567,0,0,0-.338-1.055A1.331,1.331,0,0,0-19.5-7.8,1.513,1.513,0,0,0-20.5-7.5a1.045,1.045,0,0,0-.365.844h-2.54a2.551,2.551,0,0,1,.51-1.529,3.37,3.37,0,0,1,1.441-1.1,5.253,5.253,0,0,1,2.092-.4,4.15,4.15,0,0,1,2.791.883,3.09,3.09,0,0,1,1.033,2.483V-2.2a4.546,4.546,0,0,0,.378,2.048V0Zm-2.1-1.767a2.188,2.188,0,0,0,1.037-.25,1.645,1.645,0,0,0,.7-.672V-4.324h-.949q-1.907,0-2.03,1.318l-.009.149a1.017,1.017,0,0,0,.334.782A1.3,1.3,0,0,0-19.833-1.767Zm11.391-.861A.818.818,0,0,0-8.9-3.362a5.241,5.241,0,0,0-1.481-.479q-3.393-.712-3.393-2.883a2.613,2.613,0,0,1,1.05-2.114A4.237,4.237,0,0,1-9.98-9.686a4.56,4.56,0,0,1,2.9.853A2.687,2.687,0,0,1-6-6.618h-2.54a1.229,1.229,0,0,0-.352-.9,1.488,1.488,0,0,0-1.1-.356,1.52,1.52,0,0,0-.993.29.916.916,0,0,0-.352.738.783.783,0,0,0,.4.681,4.114,4.114,0,0,0,1.349.448,11.019,11.019,0,0,1,1.6.426A2.628,2.628,0,0,1-5.972-2.733a2.481,2.481,0,0,1-1.116,2.1,4.815,4.815,0,0,1-2.883.8A5.029,5.029,0,0,1-12.094-.25a3.561,3.561,0,0,1-1.455-1.169,2.716,2.716,0,0,1-.527-1.6h2.408a1.326,1.326,0,0,0,.5,1.037,1.987,1.987,0,0,0,1.248.36,1.839,1.839,0,0,0,1.1-.277A.861.861,0,0,0-8.442-2.628ZM4.522.176A4.668,4.668,0,0,1,1.116-1.107,4.561,4.561,0,0,1-.2-4.526v-.246A5.745,5.745,0,0,1,.356-7.334a4.064,4.064,0,0,1,1.569-1.74,4.4,4.4,0,0,1,2.316-.611,3.947,3.947,0,0,1,3.072,1.23A5,5,0,0,1,8.433-4.966v1.037H2.377A2.36,2.36,0,0,0,3.12-2.435a2.245,2.245,0,0,0,1.569.563A2.742,2.742,0,0,0,6.983-2.936l1.248,1.4A3.813,3.813,0,0,1,6.684-.277,5.075,5.075,0,0,1,4.522.176Zm-.29-7.813a1.587,1.587,0,0,0-1.226.512A2.651,2.651,0,0,0,2.4-5.66H5.937v-.2A1.891,1.891,0,0,0,5.48-7.174,1.638,1.638,0,0,0,4.232-7.638Zm7.98-1.872.079,1.1a3.32,3.32,0,0,1,2.733-1.274,2.759,2.759,0,0,1,2.25.888,4.142,4.142,0,0,1,.756,2.654V0h-2.54V-6.082a1.648,1.648,0,0,0-.352-1.173A1.574,1.574,0,0,0,13.97-7.62a1.747,1.747,0,0,0-1.608.914V0H9.822V-9.51ZM28.815.176a4.668,4.668,0,0,1-3.406-1.283A4.561,4.561,0,0,1,24.1-4.526v-.246a5.745,5.745,0,0,1,.554-2.562,4.064,4.064,0,0,1,1.569-1.74,4.4,4.4,0,0,1,2.316-.611,3.947,3.947,0,0,1,3.072,1.23,5,5,0,0,1,1.121,3.489v1.037H26.67a2.36,2.36,0,0,0,.743,1.494,2.245,2.245,0,0,0,1.569.563,2.742,2.742,0,0,0,2.294-1.063l1.248,1.4A3.813,3.813,0,0,1,30.977-.277,5.075,5.075,0,0,1,28.815.176Zm-.29-7.813a1.587,1.587,0,0,0-1.226.512,2.651,2.651,0,0,0-.6,1.466H30.23v-.2a1.891,1.891,0,0,0-.457-1.311A1.638,1.638,0,0,0,28.525-7.638ZM36.848,0H34.3V-13.5h2.549ZM51.983-4.667a5.7,5.7,0,0,1-1,3.52A3.2,3.2,0,0,1,48.292.176a2.963,2.963,0,0,1-2.329-1V3.656h-2.54V-9.51h2.355l.088.932a2.985,2.985,0,0,1,2.408-1.107,3.22,3.22,0,0,1,2.733,1.3A5.858,5.858,0,0,1,51.983-4.8Zm-2.54-.185a3.743,3.743,0,0,0-.47-2.048,1.532,1.532,0,0,0-1.367-.721,1.663,1.663,0,0,0-1.644.914v3.894a1.692,1.692,0,0,0,1.661.94Q49.443-1.872,49.443-4.852ZM58.9-7.128a6.9,6.9,0,0,0-.914-.07,1.86,1.86,0,0,0-1.89.976V0h-2.54V-9.51h2.4l.07,1.134a2.354,2.354,0,0,1,2.118-1.31,2.662,2.662,0,0,1,.791.114Zm.51,2.285a5.64,5.64,0,0,1,.545-2.522,3.989,3.989,0,0,1,1.569-1.714A4.577,4.577,0,0,1,63.9-9.686a4.33,4.33,0,0,1,3.142,1.178,4.727,4.727,0,0,1,1.358,3.2l.018.65A4.97,4.97,0,0,1,67.2-1.147,4.247,4.247,0,0,1,63.918.176a4.268,4.268,0,0,1-3.283-1.318A5.058,5.058,0,0,1,59.41-4.729Zm2.54.18a3.555,3.555,0,0,0,.51,2.073,1.682,1.682,0,0,0,1.459.717,1.686,1.686,0,0,0,1.441-.709,3.89,3.89,0,0,0,.519-2.267,3.519,3.519,0,0,0-.519-2.06A1.686,1.686,0,0,0,63.9-7.638a1.658,1.658,0,0,0-1.441.726A3.955,3.955,0,0,0,61.95-4.662Zm11.988,2.79a1.666,1.666,0,0,0,1.143-.387,1.355,1.355,0,0,0,.457-1.028h2.382a3.258,3.258,0,0,1-.527,1.771A3.48,3.48,0,0,1,75.973-.268a4.442,4.442,0,0,1-1.991.444,4.129,4.129,0,0,1-3.217-1.3A5.13,5.13,0,0,1,69.587-4.7v-.167a5.071,5.071,0,0,1,1.169-3.507,4.08,4.08,0,0,1,3.208-1.31A4,4,0,0,1,76.825-8.67a3.594,3.594,0,0,1,1.094,2.7H75.538a1.745,1.745,0,0,0-.457-1.206,1.524,1.524,0,0,0-1.16-.464,1.53,1.53,0,0,0-1.34.647,3.749,3.749,0,0,0-.453,2.1v.264a3.8,3.8,0,0,0,.448,2.113A1.549,1.549,0,0,0,73.938-1.872ZM83.747.176a4.668,4.668,0,0,1-3.406-1.283,4.561,4.561,0,0,1-1.314-3.419v-.246a5.745,5.745,0,0,1,.554-2.562,4.064,4.064,0,0,1,1.569-1.74,4.4,4.4,0,0,1,2.316-.611,3.947,3.947,0,0,1,3.072,1.23,5,5,0,0,1,1.121,3.489v1.037H81.6a2.36,2.36,0,0,0,.743,1.494,2.245,2.245,0,0,0,1.569.563,2.742,2.742,0,0,0,2.294-1.063l1.248,1.4A3.813,3.813,0,0,1,85.909-.277,5.075,5.075,0,0,1,83.747.176Zm-.29-7.813a1.587,1.587,0,0,0-1.226.512,2.651,2.651,0,0,0-.6,1.466h3.533v-.2A1.891,1.891,0,0,0,84.7-7.174,1.638,1.638,0,0,0,83.457-7.638ZM94.25-2.628a.818.818,0,0,0-.461-.734,5.241,5.241,0,0,0-1.481-.479q-3.393-.712-3.393-2.883a2.613,2.613,0,0,1,1.05-2.114,4.237,4.237,0,0,1,2.747-.848,4.56,4.56,0,0,1,2.9.853,2.687,2.687,0,0,1,1.085,2.215h-2.54a1.229,1.229,0,0,0-.352-.9,1.488,1.488,0,0,0-1.1-.356,1.52,1.52,0,0,0-.993.29.916.916,0,0,0-.352.738.783.783,0,0,0,.4.681,4.114,4.114,0,0,0,1.349.448,11.019,11.019,0,0,1,1.6.426,2.628,2.628,0,0,1,2.013,2.558A2.481,2.481,0,0,1,95.6-.628a4.815,4.815,0,0,1-2.883.8A5.029,5.029,0,0,1,90.6-.25a3.561,3.561,0,0,1-1.455-1.169,2.716,2.716,0,0,1-.527-1.6h2.408a1.326,1.326,0,0,0,.5,1.037,1.987,1.987,0,0,0,1.248.36,1.839,1.839,0,0,0,1.1-.277A.861.861,0,0,0,94.25-2.628Zm3.709-2.215A5.64,5.64,0,0,1,98.5-7.365a3.989,3.989,0,0,1,1.569-1.714,4.577,4.577,0,0,1,2.377-.606,4.33,4.33,0,0,1,3.142,1.178,4.727,4.727,0,0,1,1.358,3.2l.018.65a4.97,4.97,0,0,1-1.222,3.511A4.247,4.247,0,0,1,102.467.176a4.268,4.268,0,0,1-3.283-1.318,5.058,5.058,0,0,1-1.226-3.586Zm2.54.18a3.555,3.555,0,0,0,.51,2.073,1.682,1.682,0,0,0,1.459.717,1.686,1.686,0,0,0,1.441-.709,3.89,3.89,0,0,0,.519-2.267,3.519,3.519,0,0,0-.519-2.06,1.686,1.686,0,0,0-1.459-.731,1.658,1.658,0,0,0-1.441.726A3.955,3.955,0,0,0,100.5-4.662Zm12.12-.163a5.731,5.731,0,0,1,1-3.542,3.237,3.237,0,0,1,2.729-1.318,2.913,2.913,0,0,1,2.294,1.037V-13.5h2.549V0h-2.294l-.123-1.011A2.989,2.989,0,0,1,116.328.176a3.228,3.228,0,0,1-2.694-1.323A5.916,5.916,0,0,1,112.619-4.825Zm2.54.189a3.754,3.754,0,0,0,.466,2.051,1.517,1.517,0,0,0,1.354.713,1.7,1.7,0,0,0,1.661-.995V-6.625A1.675,1.675,0,0,0,117-7.62Q115.159-7.62,115.159-4.636ZM127.534.176a4.668,4.668,0,0,1-3.406-1.283,4.561,4.561,0,0,1-1.314-3.419v-.246a5.745,5.745,0,0,1,.554-2.562,4.064,4.064,0,0,1,1.569-1.74,4.4,4.4,0,0,1,2.316-.611,3.947,3.947,0,0,1,3.072,1.23,5,5,0,0,1,1.121,3.489v1.037h-6.056a2.36,2.36,0,0,0,.743,1.494,2.245,2.245,0,0,0,1.569.563,2.742,2.742,0,0,0,2.294-1.063l1.248,1.4A3.813,3.813,0,0,1,129.7-.277,5.075,5.075,0,0,1,127.534.176Zm-.29-7.813a1.587,1.587,0,0,0-1.226.512,2.651,2.651,0,0,0-.6,1.466h3.533v-.2a1.891,1.891,0,0,0-.457-1.311A1.638,1.638,0,0,0,127.244-7.638Zm13.166-4.21V-9.51h1.626v1.863H140.41V-2.9a1.133,1.133,0,0,0,.2.756,1.015,1.015,0,0,0,.773.229,4.051,4.051,0,0,0,.747-.062V-.053a5.229,5.229,0,0,1-1.538.229,2.425,2.425,0,0,1-2.725-2.7V-7.646h-1.389V-9.51h1.389v-2.338Zm8.385,4.72a6.9,6.9,0,0,0-.914-.07,1.86,1.86,0,0,0-1.89.976V0h-2.54V-9.51h2.4l.07,1.134a2.354,2.354,0,0,1,2.118-1.31,2.662,2.662,0,0,1,.791.114ZM155.263,0a2.821,2.821,0,0,1-.255-.853,3.073,3.073,0,0,1-2.4,1.028,3.376,3.376,0,0,1-2.316-.809,2.6,2.6,0,0,1-.918-2.039,2.687,2.687,0,0,1,1.121-2.32,5.529,5.529,0,0,1,3.239-.817H154.9v-.545a1.567,1.567,0,0,0-.338-1.055,1.331,1.331,0,0,0-1.068-.4,1.513,1.513,0,0,0-1.006.308,1.045,1.045,0,0,0-.365.844h-2.54a2.551,2.551,0,0,1,.51-1.529,3.37,3.37,0,0,1,1.441-1.1,5.253,5.253,0,0,1,2.092-.4,4.15,4.15,0,0,1,2.791.883,3.09,3.09,0,0,1,1.033,2.483V-2.2a4.546,4.546,0,0,0,.378,2.048V0Zm-2.1-1.767a2.188,2.188,0,0,0,1.037-.25,1.645,1.645,0,0,0,.7-.672V-4.324h-.949q-1.907,0-2.03,1.318l-.009.149a1.017,1.017,0,0,0,.334.782A1.3,1.3,0,0,0,153.163-1.767Zm5.845-3.059a5.731,5.731,0,0,1,1-3.542,3.237,3.237,0,0,1,2.729-1.318,2.913,2.913,0,0,1,2.294,1.037V-13.5h2.549V0h-2.294l-.123-1.011A2.989,2.989,0,0,1,162.716.176a3.228,3.228,0,0,1-2.694-1.323A5.916,5.916,0,0,1,159.007-4.825Zm2.54.189a3.754,3.754,0,0,0,.466,2.051,1.517,1.517,0,0,0,1.354.713,1.7,1.7,0,0,0,1.661-.995V-6.625a1.675,1.675,0,0,0-1.644-.995Q161.547-7.62,161.547-4.636ZM175.241-.967a3.185,3.185,0,0,1-2.6,1.143A3,3,0,0,1,170.306-.7a3.752,3.752,0,0,1-.822-2.575V-9.51h2.54v6.151q0,1.487,1.354,1.487a1.834,1.834,0,0,0,1.775-.9V-9.51H177.7V0h-2.391Zm8.332-.905a1.666,1.666,0,0,0,1.143-.387,1.355,1.355,0,0,0,.457-1.028h2.382a3.258,3.258,0,0,1-.527,1.771,3.48,3.48,0,0,1-1.419,1.248,4.442,4.442,0,0,1-1.991.444,4.129,4.129,0,0,1-3.217-1.3A5.13,5.13,0,0,1,179.222-4.7v-.167a5.071,5.071,0,0,1,1.169-3.507,4.08,4.08,0,0,1,3.208-1.31A4,4,0,0,1,186.46-8.67a3.594,3.594,0,0,1,1.094,2.7h-2.382a1.745,1.745,0,0,0-.457-1.206,1.524,1.524,0,0,0-1.16-.464,1.53,1.53,0,0,0-1.34.647,3.749,3.749,0,0,0-.453,2.1v.264a3.8,3.8,0,0,0,.448,2.113A1.549,1.549,0,0,0,183.573-1.872Zm9.387,0a1.666,1.666,0,0,0,1.143-.387,1.355,1.355,0,0,0,.457-1.028h2.382a3.258,3.258,0,0,1-.527,1.771,3.48,3.48,0,0,1-1.419,1.248A4.442,4.442,0,0,1,193,.176a4.129,4.129,0,0,1-3.217-1.3A5.13,5.13,0,0,1,188.609-4.7v-.167a5.071,5.071,0,0,1,1.169-3.507,4.08,4.08,0,0,1,3.208-1.31,4,4,0,0,1,2.861,1.015,3.594,3.594,0,0,1,1.094,2.7h-2.382a1.745,1.745,0,0,0-.457-1.206,1.524,1.524,0,0,0-1.16-.464,1.53,1.53,0,0,0-1.34.647,3.749,3.749,0,0,0-.453,2.1v.264a3.8,3.8,0,0,0,.448,2.113A1.549,1.549,0,0,0,192.959-1.872ZM201.072,0h-2.549V-9.51h2.549Zm-2.7-11.971a1.251,1.251,0,0,1,.382-.94,1.436,1.436,0,0,1,1.042-.369,1.44,1.44,0,0,1,1.037.369,1.244,1.244,0,0,1,.387.94,1.247,1.247,0,0,1-.391.949,1.443,1.443,0,0,1-1.033.369,1.443,1.443,0,0,1-1.033-.369A1.247,1.247,0,0,1,198.374-11.971Zm4.395,7.128a5.64,5.64,0,0,1,.545-2.522,3.989,3.989,0,0,1,1.569-1.714,4.577,4.577,0,0,1,2.377-.606A4.33,4.33,0,0,1,210.4-8.508a4.727,4.727,0,0,1,1.358,3.2l.018.65a4.97,4.97,0,0,1-1.222,3.511A4.247,4.247,0,0,1,207.277.176a4.268,4.268,0,0,1-3.283-1.318,5.058,5.058,0,0,1-1.226-3.586Zm2.54.18a3.555,3.555,0,0,0,.51,2.073,1.682,1.682,0,0,0,1.459.717,1.686,1.686,0,0,0,1.441-.709,3.89,3.89,0,0,0,.519-2.267,3.519,3.519,0,0,0-.519-2.06,1.686,1.686,0,0,0-1.459-.731,1.658,1.658,0,0,0-1.441.726A3.955,3.955,0,0,0,205.308-4.662ZM207.76-13.5h2.769l-2.435,2.725h-2.065Zm7.919,3.99.079,1.1a3.32,3.32,0,0,1,2.733-1.274,2.759,2.759,0,0,1,2.25.888,4.142,4.142,0,0,1,.756,2.654V0h-2.54V-6.082a1.648,1.648,0,0,0-.352-1.173,1.574,1.574,0,0,0-1.169-.365,1.747,1.747,0,0,0-1.608.914V0h-2.54V-9.51Z" transform="translate(821.911 1698)" fill="#fff"/>
    </g>
    <path id="Trazado_725947" data-name="Trazado 725947" d="M27.928,0A27.928,27.928,0,1,1,0,27.928,27.928,27.928,0,0,1,27.928,0Z" transform="translate(460 1539.994)" fill="#253b46"/>
    <path id="Trazado_725954" data-name="Trazado 725954" d="M27.928,0A27.928,27.928,0,1,1,0,27.928,27.928,27.928,0,0,1,27.928,0Z" transform="translate(460 1608.271)" fill="#253b46"/>
    <path id="Trazado_725958" data-name="Trazado 725958" d="M27.928,0A27.928,27.928,0,1,1,0,27.928,27.928,27.928,0,0,1,27.928,0Z" transform="translate(460 1679.994)" fill="#253b46"/>
    <path id="Trazado_725963" data-name="Trazado 725963" d="M27.928,0A27.928,27.928,0,1,1,0,27.928,27.928,27.928,0,0,1,27.928,0Z" transform="translate(460 1749.572)" fill="#253b46"/>
    <path id="Trazado_725968" data-name="Trazado 725968" d="M27.928,0A27.928,27.928,0,1,1,0,27.928,27.928,27.928,0,0,1,27.928,0Z" transform="translate(460 1819.547)" fill="#253b46"/>
    <g transform="matrix(1, 0, 0, 1, 454.71, 1408.47)" filter="url(#Trazado_725949)">
      <path id="Trazado_725949-2" data-name="Trazado 725949" d="M24.22,0A24.22,24.22,0,1,1,0,24.22,24.22,24.22,0,0,1,24.22,0Z" transform="translate(9 135.53)" fill="#f5d3ab"/>
    </g>
    <g transform="matrix(1, 0, 0, 1, 454.71, 1408.47)" filter="url(#Trazado_725955)">
      <path id="Trazado_725955-2" data-name="Trazado 725955" d="M24.22,0A24.22,24.22,0,1,1,0,24.22,24.22,24.22,0,0,1,24.22,0Z" transform="translate(9 203.53)" fill="#f5d3ab"/>
    </g>
    <g transform="matrix(1, 0, 0, 1, 454.71, 1408.47)" filter="url(#Trazado_725959)">
      <path id="Trazado_725959-2" data-name="Trazado 725959" d="M24.22,0A24.22,24.22,0,1,1,0,24.22,24.22,24.22,0,0,1,24.22,0Z" transform="translate(9 274.82)" fill="#f5d3ab"/>
    </g>
    <g transform="matrix(1, 0, 0, 1, 454.71, 1408.47)" filter="url(#Trazado_725964)">
      <path id="Trazado_725964-2" data-name="Trazado 725964" d="M24.22,0A24.22,24.22,0,1,1,0,24.22,24.22,24.22,0,0,1,24.22,0Z" transform="translate(9 344.82)" fill="#f5d3ab"/>
    </g>
    <g transform="matrix(1, 0, 0, 1, 454.71, 1408.47)" filter="url(#Trazado_725969)">
      <path id="Trazado_725969-2" data-name="Trazado 725969" d="M24.22,0A24.22,24.22,0,1,1,0,24.22,24.22,24.22,0,0,1,24.22,0Z" transform="translate(9 415.23)" fill="#f5d3ab"/>
    </g>
    <path id="Trazado_725950" data-name="Trazado 725950" d="M13.89,18.737a8.487,8.487,0,0,1-1.617,5.554,5.589,5.589,0,0,1-4.559,1.953,5.619,5.619,0,0,1-4.59-1.965A8.473,8.473,0,0,1,1.5,18.737V15.49A8.487,8.487,0,0,1,3.117,9.936,5.6,5.6,0,0,1,7.689,7.982a5.605,5.605,0,0,1,4.578,1.965A8.494,8.494,0,0,1,13.89,15.5ZM9.776,14.965a6.339,6.339,0,0,0-.5-2.863,1.673,1.673,0,0,0-1.587-.946,1.633,1.633,0,0,0-1.544.879A5.972,5.972,0,0,0,5.626,14.7v4.541a6.387,6.387,0,0,0,.5,2.911,1.679,1.679,0,0,0,1.587.922,1.657,1.657,0,0,0,1.55-.9,6.1,6.1,0,0,0,.513-2.814ZM25.145,26H21.019V12.865l-4.053,1.184V10.924l7.8-2.7h.378Z" transform="translate(473.371 1552)" fill="#12263f"/>
    <path id="Trazado_725956" data-name="Trazado 725956" d="M13.89,18.737a8.487,8.487,0,0,1-1.617,5.554,5.589,5.589,0,0,1-4.559,1.953,5.619,5.619,0,0,1-4.59-1.965A8.473,8.473,0,0,1,1.5,18.737V15.49A8.487,8.487,0,0,1,3.117,9.936,5.6,5.6,0,0,1,7.689,7.982a5.605,5.605,0,0,1,4.578,1.965A8.494,8.494,0,0,1,13.89,15.5ZM9.776,14.965a6.339,6.339,0,0,0-.5-2.863,1.673,1.673,0,0,0-1.587-.946,1.633,1.633,0,0,0-1.544.879A5.972,5.972,0,0,0,5.626,14.7v4.541a6.387,6.387,0,0,0,.5,2.911,1.679,1.679,0,0,0,1.587.922,1.657,1.657,0,0,0,1.55-.9,6.1,6.1,0,0,0,.513-2.814ZM28.428,26h-12.4V23.314l5.713-6.006q2.112-2.4,2.112-3.821a2.658,2.658,0,0,0-.5-1.746,1.787,1.787,0,0,0-1.453-.6,1.809,1.809,0,0,0-1.526.8,3.286,3.286,0,0,0-.586,2H15.66a5.837,5.837,0,0,1,.818-3.021,5.735,5.735,0,0,1,2.271-2.167A6.745,6.745,0,0,1,22,7.97,6.635,6.635,0,0,1,26.433,9.3a4.75,4.75,0,0,1,1.556,3.821,5.548,5.548,0,0,1-.391,2.045,8.967,8.967,0,0,1-1.215,2.087,30.6,30.6,0,0,1-2.655,2.924l-2.295,2.649h6.995Z" transform="translate(473.371 1620)" fill="#12263f"/>
    <path id="Trazado_725960" data-name="Trazado 725960" d="M13.89,18.737a8.487,8.487,0,0,1-1.617,5.554,5.589,5.589,0,0,1-4.559,1.953,5.619,5.619,0,0,1-4.59-1.965A8.473,8.473,0,0,1,1.5,18.737V15.49A8.487,8.487,0,0,1,3.117,9.936,5.6,5.6,0,0,1,7.689,7.982a5.605,5.605,0,0,1,4.578,1.965A8.494,8.494,0,0,1,13.89,15.5ZM9.776,14.965a6.339,6.339,0,0,0-.5-2.863,1.673,1.673,0,0,0-1.587-.946,1.633,1.633,0,0,0-1.544.879A5.972,5.972,0,0,0,5.626,14.7v4.541a6.387,6.387,0,0,0,.5,2.911,1.679,1.679,0,0,0,1.587.922,1.657,1.657,0,0,0,1.55-.9,6.1,6.1,0,0,0,.513-2.814Zm10.01.427h1.941a2.018,2.018,0,0,0,2.307-2.258,1.953,1.953,0,0,0-.549-1.434,2.083,2.083,0,0,0-1.55-.555,2.23,2.23,0,0,0-1.422.476,1.452,1.452,0,0,0-.6,1.184H15.794a4.211,4.211,0,0,1,.781-2.5,5.159,5.159,0,0,1,2.167-1.715,7.408,7.408,0,0,1,3.046-.616,7.279,7.279,0,0,1,4.663,1.355,4.5,4.5,0,0,1,1.7,3.723,3.754,3.754,0,0,1-.7,2.167A5,5,0,0,1,25.4,16.869a4.778,4.778,0,0,1,2.222,1.556,4.1,4.1,0,0,1,.806,2.582A4.586,4.586,0,0,1,26.6,24.816a7.6,7.6,0,0,1-4.81,1.428,7.882,7.882,0,0,1-3.241-.665,5.078,5.078,0,0,1-2.264-1.843,4.792,4.792,0,0,1-.769-2.679h4.138a1.852,1.852,0,0,0,.659,1.416,2.327,2.327,0,0,0,1.624.6,2.438,2.438,0,0,0,1.733-.6,2.02,2.02,0,0,0,.647-1.544,2.361,2.361,0,0,0-.671-1.9,2.807,2.807,0,0,0-1.855-.562h-2Z" transform="translate(473.371 1691)" fill="#12263f"/>
    <path id="Trazado_725965" data-name="Trazado 725965" d="M13.89,18.737a8.487,8.487,0,0,1-1.617,5.554,5.589,5.589,0,0,1-4.559,1.953,5.619,5.619,0,0,1-4.59-1.965A8.473,8.473,0,0,1,1.5,18.737V15.49A8.487,8.487,0,0,1,3.117,9.936,5.6,5.6,0,0,1,7.689,7.982a5.605,5.605,0,0,1,4.578,1.965A8.494,8.494,0,0,1,13.89,15.5ZM9.776,14.965a6.339,6.339,0,0,0-.5-2.863,1.673,1.673,0,0,0-1.587-.946,1.633,1.633,0,0,0-1.544.879A5.972,5.972,0,0,0,5.626,14.7v4.541a6.387,6.387,0,0,0,.5,2.911,1.679,1.679,0,0,0,1.587.922,1.657,1.657,0,0,0,1.55-.9,6.1,6.1,0,0,0,.513-2.814ZM26.89,19.054H28.7v3.174H26.89V26H22.777V22.228H15.9l-.244-2.515,7.117-11.45V8.227H26.89Zm-7.312,0h3.2V13.585L22.52,14Z" transform="translate(473.371 1760.943)" fill="#12263f"/>
    <path id="Trazado_725970" data-name="Trazado 725970" d="M13.89,18.737a8.487,8.487,0,0,1-1.617,5.554,5.589,5.589,0,0,1-4.559,1.953,5.619,5.619,0,0,1-4.59-1.965A8.473,8.473,0,0,1,1.5,18.737V15.49A8.487,8.487,0,0,1,3.117,9.936,5.6,5.6,0,0,1,7.689,7.982a5.605,5.605,0,0,1,4.578,1.965A8.494,8.494,0,0,1,13.89,15.5ZM9.776,14.965a6.339,6.339,0,0,0-.5-2.863,1.673,1.673,0,0,0-1.587-.946,1.633,1.633,0,0,0-1.544.879A5.972,5.972,0,0,0,5.626,14.7v4.541a6.387,6.387,0,0,0,.5,2.911,1.679,1.679,0,0,0,1.587.922,1.657,1.657,0,0,0,1.55-.9,6.1,6.1,0,0,0,.513-2.814Zm6.494,2.353,1.086-9.092H27.745v3.2H20.7l-.4,3.531a4.852,4.852,0,0,1,1.154-.454,5.263,5.263,0,0,1,1.4-.2,5.214,5.214,0,0,1,4.071,1.569,6.319,6.319,0,0,1,1.422,4.4,6.307,6.307,0,0,1-.763,3.094,5.244,5.244,0,0,1-2.142,2.13,6.764,6.764,0,0,1-3.259.745,7.278,7.278,0,0,1-3.137-.689,5.628,5.628,0,0,1-2.295-1.891,4.594,4.594,0,0,1-.818-2.714h4.126a2.334,2.334,0,0,0,.623,1.547,1.976,1.976,0,0,0,1.477.573q2.075,0,2.075-3.07,0-2.838-2.539-2.838a2.534,2.534,0,0,0-2.148.926Z" transform="translate(473.371 1830.918)" fill="#12263f"/>
    <g id="Enmascarar_grupo_927370" data-name="Enmascarar grupo 927370" transform="translate(-47.734 -55.734)" clip-path="url(#clip-path)">
      <g id="Grupo_1003798" data-name="Grupo 1003798" transform="translate(858.805 1555.902)">
        <g id="Grupo_1003797" data-name="Grupo 1003797" transform="translate(0 0)" clip-path="url(#clip-path-2)">
          <path id="Trazado_708850" data-name="Trazado 708850" d="M332.358,955.6l11.26,102.713c-21.4,4.316-78.393,7.59-78.393,7.59l-6.3-40.126-9.414,39.7s-49.827-1.916-70.117-5.671l12.8-101.758Z" transform="translate(-80.651 -642.241)" fill="#1f2930" fill-rule="evenodd"/>
          <path id="Trazado_708851" data-name="Trazado 708851" d="M429.538,1058.889s-.154,2.69-.426,6.314c-.145,1.927-.3,4.118-.519,6.3-.174,1.722-.386,3.438-.6,5.025-.569,4.223-1.129,7.514-1.129,7.514a1.326,1.326,0,1,1-2.639-.264s.1-3.337.382-7.589c.1-1.6.236-3.322.407-5.044.217-2.186.5-4.365.739-6.282.451-3.605.832-6.273.832-6.273a1.484,1.484,0,0,1,2.954.3Z" transform="translate(-246.862 -710.56)" fill="#10191f" fill-rule="evenodd"/>
          <path id="Trazado_708852" data-name="Trazado 708852" d="M421.52,1032.515s1.394,13.089,2.428,24.441c.208,2.285.388,4.5.54,6.527.292,3.872.5,7.04.6,8.651l8.811,2a1.327,1.327,0,0,1-.52,2.6l-10.121-1.752a1.593,1.593,0,0,1-1.275-1.425s-.477-4.131-1.026-9.771c-.2-2.02-.4-4.235-.587-6.522-.929-11.361-1.8-24.495-1.8-24.495a1.484,1.484,0,1,1,2.957-.256" transform="translate(-250.42 -693.019)" fill="#10191f" fill-rule="evenodd"/>
          <path id="Trazado_708858" data-name="Trazado 708858" d="M710.371,278.4s-.829.989-1.992,2.292c-.617.692-1.312,1.482-2.048,2.237-2.117,2.169-4.369,4.2-4.369,4.2a1.393,1.393,0,0,1-1.975-1.966s2.021-2.262,4.18-4.39c.751-.74,1.538-1.439,2.227-2.059,1.3-1.169,2.282-2,2.282-2a1.2,1.2,0,1,1,1.7,1.688Z" transform="translate(-618.333 -185.738)" fill="#f7907f" fill-rule="evenodd"/>
          <path id="Trazado_708859" data-name="Trazado 708859" d="M203.731,297.472c2.19.013,48.324,13.484,48.324,13.484s59.672,48.918,69.023,80.363c7.369,24.779-44.576,96.849-44.576,96.849l-21.7-17.533-2.663,12.678c-52.785,7.987-95.064,3.356-146.755-1.6,5.538-33.753.148-86.63,3.923-109.594,0,0-92.475-10.576-106.259-32.71-17.889-28.728,48.765-100.89,48.765-100.89L83.278,265.2,57.651,300.581l62.333-.922,32.767-2.21Zm47.326,94.721,4.531,47.324L271.2,408.3Z" transform="translate(0 -160.307)" fill="#baa19a" fill-rule="evenodd"/>
          <path id="Trazado_708860" data-name="Trazado 708860" d="M212.744,662.518s.485,2.609,1.078,6.139c.315,1.877.684,4.009.988,6.152.24,1.688.441,3.379.611,4.947.452,4.173.7,7.452.7,7.452a1.294,1.294,0,0,1-2.561.366s-.685-3.216-1.42-7.349c-.276-1.552-.556-3.233-.8-4.92-.308-2.142-.552-4.292-.774-6.183-.419-3.555-.684-6.2-.684-6.2a1.448,1.448,0,0,1,2.866-.41" transform="translate(36.847 -444.429)" fill="#582d2a" fill-rule="evenodd"/>
          <path id="Trazado_708861" data-name="Trazado 708861" d="M645.846,607.2s1.111,1.167,2.574,2.781c.777.857,1.665,1.825,2.513,2.831,2.44,2.894,4.73,5.909,4.73,5.909a1.393,1.393,0,0,1-2.144,1.78s-2.542-2.806-4.936-5.738c-.832-1.019-1.62-2.07-2.319-2.992-1.317-1.735-2.259-3.042-2.259-3.042a1.2,1.2,0,0,1,1.842-1.528" transform="translate(-545.283 -407.799)" fill="#582d2a" fill-rule="evenodd"/>
          <path id="Trazado_708862" data-name="Trazado 708862" d="M647.07,618.712s.368-4.465.618-8.394c.083-1.313.158-2.565.19-3.566a27.638,27.638,0,0,0-1.24-8.606,54.556,54.556,0,0,0-3.14-8.361,1.394,1.394,0,0,1,2.473-1.285,49.663,49.663,0,0,1,4.064,10.661,26.989,26.989,0,0,1,.819,7.747c-.1,1.331-.269,3.094-.474,4.861-.416,3.6-.932,7.209-.932,7.209a1.2,1.2,0,0,1-2.379-.267" transform="translate(-540.059 -395.014)" fill="#582d2a" fill-rule="evenodd"/>
          <path id="Trazado_708863" data-name="Trazado 708863" d="M150.048,746.41s.172-.407.376-.976c.108-.3.234-.638.328-.988a20.456,20.456,0,0,0,.422-2.034.872.872,0,0,0-1.691-.423,20.473,20.473,0,0,0-.585,1.993c-.082.353-.129.711-.175,1.026-.088.6-.127,1.038-.127,1.038a.749.749,0,1,0,1.452.363Z" transform="translate(121.874 -498.232)" fill="#582d2a" fill-rule="evenodd"/>
          <path id="Trazado_708864" data-name="Trazado 708864" d="M143.738,752.342s.531-.488,1.228-1.173c.37-.363.792-.772,1.191-1.206,1.147-1.247,2.2-2.573,2.2-2.573a.872.872,0,0,0-1.3-1.166s-1.208,1.189-2.328,2.461c-.389.442-.752.906-1.074,1.311-.608.765-1.038,1.345-1.038,1.345a.748.748,0,0,0,1.113,1Z" transform="translate(126.504 -501.327)" fill="#582d2a" fill-rule="evenodd"/>
          <path id="Trazado_708865" data-name="Trazado 708865" d="M307.908,813.507a60.583,60.583,0,0,0,20.446,3.237,79.805,79.805,0,0,0,20.532-2.76c14.406-3.906,27.3-11.885,33.215-23.336a.587.587,0,1,0-1.042-.54c-5.8,11.159-18.456,18.806-32.51,22.635a80.253,80.253,0,0,1-20.2,2.821,59.786,59.786,0,0,1-20.1-3.006.5.5,0,0,0-.338.95" transform="translate(-161.232 -530.802)" fill="#582d2a" fill-rule="evenodd"/>
          <path id="Trazado_708866" data-name="Trazado 708866" d="M359.759,300.746l33.613-.507s-1.388,22.967,2.064,30.72c3.136,7.042,6.506,6.774,6.506,6.774-9.255,18.685-39.211,21.934-51.22.773,0,0,3.74-.472,5.9-7,2.679-8.112,3.138-30.755,3.138-30.755" transform="translate(-195.158 -201.785)" fill="#fbbfa3" fill-rule="evenodd"/>
          <path id="Trazado_708867" data-name="Trazado 708867" d="M410.2,345.886c-21.12-.077-32.67-6.349-37.086-17.452L408.3,325.9Z" transform="translate(-210.755 -219.033)" fill="#f7907f" fill-rule="evenodd"/>
          <path id="Trazado_708868" data-name="Trazado 708868" d="M353.412,70.039c13.88.6,26.8,4.5,32.051,14.83,5.226,10.295,2.8,27,2.2,39.131-1.216,24.6-12.343,42.832-40.166,41.777-24.767-.939-35.836-22.015-35.345-42.717.3-12.619-1.259-27.263,3.989-37.013,6.089-11.313,20.1-16.746,37.268-16.009" transform="translate(-169.312 -47.029)" fill="#fbbfa3" fill-rule="evenodd"/>
          <path id="Trazado_708869" data-name="Trazado 708869" d="M532.373,197.1c-4.636-.067-8.46,4.114-8.534,9.33s3.628,9.5,8.263,9.571,8.46-4.114,8.534-9.33-3.628-9.5-8.263-9.571" transform="translate(-390.62 -132.465)" fill="#fbbfa3" fill-rule="evenodd"/>
          <path id="Trazado_708870" data-name="Trazado 708870" d="M293.974,200.5a9.455,9.455,0,1,0,9.041,9.582,9.321,9.321,0,0,0-9.041-9.582" transform="translate(-74.567 -134.75)" fill="#fbbfa3" fill-rule="evenodd"/>
          <path id="Trazado_708871" data-name="Trazado 708871" d="M393.911,410.972s-10.471,13.78-25.811,13.6c-16.146-.192-21.2-13.377-21.2-13.377l-8.471.271s4.65,21.616,28.2,21.533c23.621-.083,32.535-18.9,32.535-18.9Z" transform="translate(-188.345 -276.206)" fill="#d5b2a5" fill-rule="evenodd"/>
          <path id="Trazado_708872" data-name="Trazado 708872" d="M373.452,21.032c19.025,7.444,7.766,47.308-2.162,47.6-5.723-7.827-3.789-26.542-3.789-26.542-5.939,8.881-44.317,10.244-38.788-3.075-6.526,4.467-15.617,10.2-29.849,9.149,0,0,2.643,12.52-3.289,19.928-10.222-4.424-7.206-20.3-7.206-20.3-17.338-.331-13.591-24.992-.72-22.222,0,0-15.28-14.618-1.16-19.985,4.277-1.626,17.8,7.6,22.99,3.916C330.829-5.636,363.6-3.31,373.452,21.032" transform="translate(-152.696 -0.004)" fill="#582d2a" fill-rule="evenodd"/>
          <path id="Trazado_708873" data-name="Trazado 708873" d="M477.61,198.548a4.429,4.429,0,1,0,4.184,4.461,4.329,4.329,0,0,0-4.184-4.461" transform="translate(-315.221 -133.441)" fill="#582d2a" fill-rule="evenodd"/>
          <path id="Trazado_708874" data-name="Trazado 708874" d="M486.151,242.546c-4.772-.042-8.669,2.537-8.7,5.755s3.823,5.866,8.6,5.907,8.669-2.537,8.7-5.755-3.823-5.865-8.6-5.907" transform="translate(-329.519 -163.011)" fill="#f7907f" fill-rule="evenodd"/>
          <path id="Trazado_708875" data-name="Trazado 708875" d="M341.439,243.817c-4.772-.042-8.669,2.537-8.7,5.755s3.823,5.865,8.6,5.907,8.669-2.537,8.7-5.755S346.211,243.859,341.439,243.817Z" transform="translate(-137.353 -163.865)" fill="#f7907f" fill-rule="evenodd"/>
          <path id="Trazado_708876" data-name="Trazado 708876" d="M376.769,198.857a4.429,4.429,0,1,0,4.184,4.461,4.329,4.329,0,0,0-4.184-4.461" transform="translate(-181.312 -133.648)" fill="#582d2a" fill-rule="evenodd"/>
          <path id="Trazado_708877" data-name="Trazado 708877" d="M479.919,167.921a11.511,11.511,0,0,0-2.864-.869,14.744,14.744,0,0,0-2.933-.2,18.251,18.251,0,0,0-3.635.34,20.4,20.4,0,0,0-2.463.647,1.475,1.475,0,1,1-1.214-2.688,18.449,18.449,0,0,1,4.919-1.926,11.906,11.906,0,0,1,2.326-.289,10.946,10.946,0,0,1,2.367.2,13.111,13.111,0,0,1,5.035,2.169,1.515,1.515,0,1,1-1.538,2.611" transform="translate(-313.202 -109.508)" fill="#582d2a" fill-rule="evenodd"/>
          <path id="Trazado_708878" data-name="Trazado 708878" d="M355.165,165.277a13.116,13.116,0,0,1,5.121-1.956,10.94,10.94,0,0,1,2.374-.1,11.906,11.906,0,0,1,2.311.386,18.447,18.447,0,0,1,4.835,2.13,1.475,1.475,0,0,1-1.325,2.635,20.354,20.354,0,0,0-2.433-.75,18.231,18.231,0,0,0-3.618-.491,14.723,14.723,0,0,0-2.939.072,11.524,11.524,0,0,0-2.9.749,1.515,1.515,0,1,1-1.427-2.673" transform="translate(-165.026 -109.681)" fill="#582d2a" fill-rule="evenodd"/>
          <path id="Trazado_708879" data-name="Trazado 708879" d="M407.046,300.384c-9.118-.239-11.073-11.439-11.073-11.439l24.991.058s-.27,11.738-13.918,11.381" transform="translate(-229.018 -194.195)" fill="#f7907f" fill-rule="evenodd"/>
          <path id="Trazado_708880" data-name="Trazado 708880" d="M424.492,187.141c.667,8.264-.712,14.623-1.223,18.892-.273,2.281-.272,4.021.256,5.2.747,1.673,2.5,2.538,6.274,2.073a.891.891,0,0,0-.218-1.768,8.481,8.481,0,0,1-3.216-.053,1.745,1.745,0,0,1-1.213-.978c-.433-.968-.337-2.4-.114-4.266.52-4.349,1.909-10.828,1.23-19.247a.891.891,0,0,0-1.776.143" transform="translate(-247.527 -125.128)" fill="#f7907f" fill-rule="evenodd"/>
          <path id="Trazado_708881" data-name="Trazado 708881" d="M198.777,935.016l18.211,15.37c.466,2.231-12.553,4.013-20.457,7.4-8.119,3.48-14.137,13.982-18.063,16.023-1.864.969-4.9.3-4.736-2.616.134-2.418,5.473-10.272,5.473-10.272s-8.174,5.425-11.133,5.605c-1.157.07-2.233-1.763-1.676-3.123.694-1.693,7.042-8.4,7.042-8.4s-6.332,5.549-9.933,6.688a2.3,2.3,0,0,1-2.55-3.125c1.253-2.3,9.754-10.141,9.754-10.141s-9.88,6.2-12.445,6.44c-1.923.181-4.148-2.377-3.148-4.03,1.661-2.746,9.608-10.914,14.815-12.885s12.145-.776,17.572-1.506c4.887-.657,11.274-1.427,11.274-1.427" transform="translate(54.01 -628.404)" fill="#fbbfa3" fill-rule="evenodd"/>
          <path id="Trazado_708882" data-name="Trazado 708882" d="M265.028,965.6a18.511,18.511,0,0,1,2.54-2.129,15.053,15.053,0,0,1,1.679-1.015,9.911,9.911,0,0,1,1.164-.527,10.3,10.3,0,0,1,1.592-.434,25.174,25.174,0,0,1,2.551-.367.556.556,0,1,0-.039-1.111,22.924,22.924,0,0,0-2.728.169,11.134,11.134,0,0,0-1.847.385,10.915,10.915,0,0,0-2.623,1.336,15.659,15.659,0,0,0-3.156,2.95.571.571,0,1,0,.868.743" transform="translate(-39.874 -645.204)" fill="#f7907f" fill-rule="evenodd"/>
          <path id="Trazado_708883" data-name="Trazado 708883" d="M259.314,987.623a18.5,18.5,0,0,1,2.54-2.13,15.043,15.043,0,0,1,1.678-1.014,9.918,9.918,0,0,1,1.164-.527,10.277,10.277,0,0,1,1.592-.434,25.162,25.162,0,0,1,2.551-.367.556.556,0,1,0-.039-1.111,22.872,22.872,0,0,0-2.728.169,11.126,11.126,0,0,0-1.847.385,10.919,10.919,0,0,0-2.623,1.336,15.651,15.651,0,0,0-3.156,2.949.571.571,0,1,0,.868.743Z" transform="translate(-32.286 -660.007)" fill="#f7907f" fill-rule="evenodd"/>
          <path id="Trazado_708884" data-name="Trazado 708884" d="M249.034,1006.691a18.492,18.492,0,0,1,1.995-2.647,15.118,15.118,0,0,1,1.407-1.366,9.881,9.881,0,0,1,1.016-.776,10.3,10.3,0,0,1,1.453-.781,25.162,25.162,0,0,1,2.4-.932.556.556,0,0,0-.289-1.074,22.859,22.859,0,0,0-2.619.779,11.129,11.129,0,0,0-1.713.792,10.911,10.911,0,0,0-2.255,1.893,15.65,15.65,0,0,0-2.41,3.584.571.571,0,1,0,1.013.529" transform="translate(-17.235 -671.47)" fill="#f7907f" fill-rule="evenodd"/>
          <path id="Trazado_708885" data-name="Trazado 708885" d="M190.592,847.663l-18.454-15.27c.991-1.987,4.121-8.268,7.559-15.244,5.46-11.077,11.707-23.9,11.707-23.9a.872.872,0,0,0-1.563-.772s-6.381,12.756-11.854,23.827c-4.179,8.452-7.824,15.924-7.824,15.924a.92.92,0,0,0,.244,1.121l19.239,15.474a.749.749,0,1,0,.946-1.16Z" transform="translate(74.532 -532.281)" fill="#582d2a" fill-rule="evenodd"/>
          <g id="Grupo_1003800" data-name="Grupo 1003800">
            <path id="Trazado_708853" data-name="Trazado 708853" d="M648.952,201.069l27.173,22.967,7.359-7.252s5.593,6.289,8.909,5.3c8.39-2.5,14.923-21.2,12.028-28.267s-16.928-16.415-29.4-14.133c-8.813,1.612-26.069,21.385-26.069,21.385" transform="translate(-596.129 -120.527)" fill="#fbbfa3" fill-rule="evenodd"/>
            <path id="Trazado_708854" data-name="Trazado 708854" d="M660.553,220.553a39.394,39.394,0,0,0-3.291-2.2q-1.1-.677-2.246-1.3a26.881,26.881,0,0,0-3.9-1.813,1.394,1.394,0,0,1,.854-2.653,23.272,23.272,0,0,1,5.551,2.376,20.643,20.643,0,0,1,2.429,1.77c.764.635,1.48,1.314,2.181,2.021a1.2,1.2,0,0,1-1.575,1.8Z" transform="translate(-553.939 -142.829)" fill="#f7907f" fill-rule="evenodd"/>
            <path id="Trazado_708855" data-name="Trazado 708855" d="M663.27,247.491a39.4,39.4,0,0,0-3.291-2.2q-1.1-.677-2.246-1.3a26.87,26.87,0,0,0-3.9-1.813,1.393,1.393,0,0,1,.854-2.653,23.263,23.263,0,0,1,5.551,2.376,20.636,20.636,0,0,1,2.429,1.77c.764.635,1.48,1.314,2.181,2.021a1.2,1.2,0,1,1-1.575,1.8Z" transform="translate(-557.547 -160.933)" fill="#f7907f" fill-rule="evenodd"/>
            <path id="Trazado_708856" data-name="Trazado 708856" d="M668.864,266.741a39.442,39.442,0,0,0-2.965-2.617q-1-.816-2.051-1.585a26.782,26.782,0,0,0-3.624-2.312,1.393,1.393,0,0,1,1.2-2.516A23.208,23.208,0,0,1,666.6,260.8a20.525,20.525,0,0,1,2.17,2.075c.672.73,1.291,1.5,1.891,2.291a1.2,1.2,0,0,1-1.8,1.576" transform="translate(-565.408 -173.111)" fill="#f7907f" fill-rule="evenodd"/>
            <path id="Trazado_708857" data-name="Trazado 708857" d="M685.135,279.357a33.643,33.643,0,0,0-3.549-3.794c-.752-.724-1.527-1.455-2.3-2.155a37.6,37.6,0,0,0-3.617-2.971,1.393,1.393,0,0,1,1.52-2.336,33.534,33.534,0,0,1,5.564,4.361,29.034,29.034,0,0,1,2.345,2.628,24.488,24.488,0,0,1,2.036,2.944,1.2,1.2,0,1,1-1.995,1.322Z" transform="translate(-586.892 -180.034)" fill="#f7907f" fill-rule="evenodd"/>
          </g>
          <g id="Enmascarar_grupo_927369" data-name="Enmascarar grupo 927369" transform="translate(-617.721 -1307.677)" clip-path="url(#clip-path-3)">
            <g id="Grupo_1003799" data-name="Grupo 1003799" transform="translate(831.941 1458.851) rotate(120)">
              <path id="Trazado_708886" data-name="Trazado 708886" d="M184.547,22.23,0,118.931l13.764,25.735,19.395,35.382L214.166,67.053l17.566,26.581,3.535-8.776.119.132L267.55,4.713,169.855,0Z" transform="translate(0 0)" fill="#ffa031"/>
              <path id="Trazado_708887" data-name="Trazado 708887" d="M0,139.952l19.395,35.382L200.4,62.339,217.969,88.92l3.535-8.776.119.132L253.786,0Z" transform="translate(13.763 4.713)" fill="#e98714"/>
              <path id="Trazado_708888" data-name="Trazado 708888" d="M64.947,3.158,0,0,8.95,11.7Z" transform="translate(181.49 4.315)" fill="#ffbc6e"/>
            </g>
          </g>
        </g>
      </g>
    </g>
  </g>
</svg>
