<svg xmlns="http://www.w3.org/2000/svg" xmlns:xlink="http://www.w3.org/1999/xlink" width="85" height="91" viewBox="0 0 85 91">
  <defs>
    <filter id="Elipse_7683" x="6" y="10" width="77" height="77" filterUnits="userSpaceOnUse">
      <feOffset dy="3" input="SourceAlpha"/>
      <feGaussianBlur stdDeviation="3" result="blur"/>
      <feFlood flood-opacity="0.161"/>
      <feComposite operator="in" in2="blur"/>
      <feComposite in="SourceGraphic"/>
    </filter>
  </defs>
  <g id="Grupo_1005917" data-name="Grupo 1005917" transform="translate(-180 -4840)">
    <rect id="Rectángulo_346442" data-name="Rectángulo 346442" width="85" height="91" rx="5" transform="translate(180 4840)" fill="#4db1f0"/>
    <g id="Grupo_1005916" data-name="Grupo 1005916" transform="translate(195.197 4856.281)">
      <g transform="matrix(1, 0, 0, 1, -15.2, -16.28)" filter="url(#Elipse_7683)">
        <circle id="Elipse_7683-2" data-name="Elipse 7683" cx="29.5" cy="29.5" r="29.5" transform="translate(15 16)" fill="#bfe5f9"/>
      </g>
    </g>
    <g id="sordo" transform="translate(185 4848)">
      <path id="Trazado_695397" data-name="Trazado 695397" d="M68.5,66.03V61.222a8.494,8.494,0,0,0-5.668-8.01L48.07,48A18.03,18.03,0,0,1,38,51.59L24.03,48.849,11.667,53.212A8.493,8.493,0,0,0,6,61.222V66.03Z" transform="translate(0 9.292)" fill="#0059bd"/>
      <path id="Trazado_695398" data-name="Trazado 695398" d="M66.926,61.222a8.494,8.494,0,0,0-5.668-8.01L46.492,48A18.03,18.03,0,0,1,36.42,51.59L22.452,48.849,13.812,51.9A17.942,17.942,0,0,0,30.145,62.424H66.926Z" transform="translate(1.578 9.292)" fill="#006bda"/>
      <path id="Trazado_695399" data-name="Trazado 695399" d="M51.656,21.232l.757-.947A18.476,18.476,0,0,0,56.464,8.738,8.1,8.1,0,0,0,52.858,2,6.547,6.547,0,0,1,47.93,6.351l-.566.113a17.679,17.679,0,0,1-3.469.344,18.039,18.039,0,0,1-8.067-1.9,4.73,4.73,0,0,0-6.7,3.082l-.306,1.227h-.68a10.138,10.138,0,0,0-9.462,13.777l3.982,10.352,7.668,14.936Z" transform="translate(2.424)" fill="#212121"/>
      <path id="Trazado_695400" data-name="Trazado 695400" d="M51.929,3.479a6.536,6.536,0,0,1-4,2.573l-.566.113a17.679,17.679,0,0,1-3.469.344,18.039,18.039,0,0,1-8.067-1.9,4.73,4.73,0,0,0-6.7,3.082l-.306,1.227h-.68a10.139,10.139,0,0,0-9.462,13.777l3.982,10.352L28.529,44.48,48.05,19.731l.757-.947A18.476,18.476,0,0,0,52.858,7.238a8.1,8.1,0,0,0-.929-3.759Z" transform="translate(2.424 0.299)" fill="#383838"/>
      <path id="Trazado_695401" data-name="Trazado 695401" d="M53.656,37.36a27.272,27.272,0,0,1-.529,5.313l-1.166,5.854a4.4,4.4,0,0,1-4.315,3.534h-.228a25.376,25.376,0,0,1-5.89-.685v.012a9.327,9.327,0,0,0,3.161,3.474v.012a18.424,18.424,0,0,1-4.568,2.272,18,18,0,0,1-11.395,0,18.424,18.424,0,0,1-4.568-2.272v-.012a9.422,9.422,0,0,0,4.255-7.873,9.568,9.568,0,0,0-.18-1.851l-1.022-5.1a2.422,2.422,0,0,1-2.4,2.4,1.975,1.975,0,0,1-1.743-1.07l-2.248-4.5A7.778,7.778,0,0,1,20,33.393a3.012,3.012,0,0,1,.865-2.1,3.1,3.1,0,0,1,1.382-.781,3.485,3.485,0,0,1,.721-.084,2.964,2.964,0,0,1,2.656,1.647l1.587,3.161V27.5a51.828,51.828,0,0,1,.709-8.522,3.486,3.486,0,0,1,1.2-2.14,3.623,3.623,0,0,1,3.45-.661A43.019,43.019,0,0,0,46.252,18.4h5l.613,3.654a43.318,43.318,0,0,1,.589,7.164l.4,1.575A27.48,27.48,0,0,1,53.656,37.36Z" transform="translate(2.828 2.828)" fill="#cf8c78"/>
      <path id="Trazado_695402" data-name="Trazado 695402" d="M44.689,54.671v-.012a9.328,9.328,0,0,1-3.161-3.474v-.012a25.375,25.375,0,0,0,5.89.685h.228A4.38,4.38,0,0,0,48.3,51.8a4.37,4.37,0,0,0,1.256-2.284l1.165-5.845A27.057,27.057,0,0,0,50.447,31.8l-.4-1.573a43.319,43.319,0,0,0-.589-7.164A4.378,4.378,0,0,0,45.143,19.4h-1.3A43.019,43.019,0,0,1,30.169,17.18a3.641,3.641,0,0,0-1.13-.18c-.1,0-.2.018-.3.026a3.476,3.476,0,0,0-.817,1.753,51.827,51.827,0,0,0-.709,8.522V35.03l-1.587-3.161a2.964,2.964,0,0,0-2.656-1.647,3.485,3.485,0,0,0-.721.084,3.1,3.1,0,0,0-1.382.781,3.012,3.012,0,0,0-.865,2.1,7.778,7.778,0,0,0,.817,3.486l2.248,4.5a1.975,1.975,0,0,0,1.743,1.07,2.422,2.422,0,0,0,2.4-2.4l1.022,5.1a9.568,9.568,0,0,1,.18,1.851,9.422,9.422,0,0,1-4.255,7.873v.012a18.424,18.424,0,0,0,4.568,2.272,18,18,0,0,0,11.395,0,18.7,18.7,0,0,0,2.2-.9l-.036-.179c.036.05.072.1.108.147a18.152,18.152,0,0,0,2.3-1.337Z" transform="translate(2.828 3.03)" fill="#f1b8a0"/>
      <path id="Trazado_695403" data-name="Trazado 695403" d="M34.4,34,32,37.606l6.01,3.606-1.2,2.4,7.212-1.2-2.4-7.212-1.2,2.4Z" transform="translate(5.252 6.464)" fill="#a7d309"/>
      <path id="Trazado_695404" data-name="Trazado 695404" d="M41.41,35.2l-1.2,2.4L34.2,34l-1.18,1.771,10.8,6.643Z" transform="translate(5.458 6.464)" fill="#8cbe00"/>
      <path id="Trazado_695405" data-name="Trazado 695405" d="M30.236,65.887v-2.4a5.3,5.3,0,0,1,1.275-3.447l2.7-3.153a13.424,13.424,0,0,0,2.833-5.529c-.417.047-.841.083-1.257.1L21.822,48.706l-1.2.424v6.924l-3.688,9.834Z" transform="translate(2.208 9.435)" fill="#004c9c"/>
      <path id="Trazado_695406" data-name="Trazado 695406" d="M33.86,46.892a3.617,3.617,0,0,0-3.027-2.837,5.242,5.242,0,0,0-2.585-1.174l.311-1.244a6.731,6.731,0,0,1,1.771-3.129,4.074,4.074,0,0,0,1.2-2.9,3.606,3.606,0,0,0-6.491-2.164,24.952,24.952,0,0,0-2.626,4.375l.162.325a1.975,1.975,0,0,0,1.743,1.07,2.422,2.422,0,0,0,2.4-2.4l1.022,5.1a9.567,9.567,0,0,1,.18,1.851,9.422,9.422,0,0,1-4.255,7.873v.012a18.424,18.424,0,0,0,4.568,2.272,17.489,17.489,0,0,0,7.7.8,13.381,13.381,0,0,0,.4-3.2,5.515,5.515,0,0,0-2.48-4.624Z" transform="translate(3.316 6.06)" fill="#cf8c78"/>
      <path id="Trazado_695407" data-name="Trazado 695407" d="M28.818,69.06v-2.4a6.5,6.5,0,0,1,1.563-4.23l2.7-3.153a12.229,12.229,0,0,0,2.947-7.96,4.349,4.349,0,0,0-2.4-3.89,2.4,2.4,0,0,0-2.4-2.4,4.1,4.1,0,0,0-2.9-1.2h-.7l.67-2.676a7.933,7.933,0,0,1,2.087-3.687,2.9,2.9,0,0,0,.85-2.052,2.4,2.4,0,0,0-4.327-1.442,23.8,23.8,0,0,0-4.051,8.511l-.655,2.619a19.533,19.533,0,0,0-.583,4.736v9.616L18,69.06Z" transform="translate(2.424 6.262)" fill="#f1b8a0"/>
    </g>
  </g>
</svg>
