<svg xmlns="http://www.w3.org/2000/svg" xmlns:xlink="http://www.w3.org/1999/xlink" width="610" height="220" viewBox="0 0 610 220">
  <defs>
    <clipPath id="clip-path">
      <rect id="Rectángulo_344506" data-name="Rectángulo 344506" width="610" height="220" transform="translate(-4143 -6944)" fill="none" stroke="#707070" stroke-width="1"/>
    </clipPath>
    <clipPath id="clip-path-2">
      <rect id="Rectángulo_343924" data-name="Rectángulo 343924" width="938.345" height="368.423" fill="none"/>
    </clipPath>
    <clipPath id="clip-path-4">
      <rect id="Rectángulo_343921" data-name="Rectángulo 343921" width="73.632" height="21.724" fill="none"/>
    </clipPath>
    <clipPath id="clip-path-5">
      <rect id="Rectángulo_343922" data-name="Rectángulo 343922" width="43.906" height="16.978" fill="none"/>
    </clipPath>
  </defs>
  <g id="Enmascarar_grupo_180" data-name="Enmascarar grupo 180" transform="translate(4143 6944)" clip-path="url(#clip-path)">
    <g id="Grupo_958991" data-name="Grupo 958991" transform="translate(-4322.839 -6941.213)">
      <g id="Grupo_895349" data-name="Grupo 895349" clip-path="url(#clip-path-2)">
        <g id="Grupo_895348" data-name="Grupo 895348">
          <g id="Grupo_895347" data-name="Grupo 895347" clip-path="url(#clip-path-2)">
            <path id="Trazado_690690" data-name="Trazado 690690" d="M931.617,286.9a6.455,6.455,0,0,0-.874.077,28.976,28.976,0,0,0-1.207-3.108h0a21.719,21.719,0,0,0-2.645-4.433l-.08-.1c-.169-.211-.34-.414-.514-.611l-.163-.184c-.163-.179-.327-.354-.5-.522-.069-.07-.14-.135-.21-.2-.162-.156-.325-.311-.491-.455-.077-.067-.156-.127-.233-.19q-.442-.365-.9-.675c-.1-.07-.2-.146-.31-.211-.124-.079-.251-.146-.378-.218-.143-.082-.285-.164-.43-.237-.123-.063-.247-.117-.372-.174-.153-.07-.308-.137-.464-.2-.12-.047-.24-.089-.362-.13-.166-.056-.334-.106-.5-.152-.115-.03-.228-.062-.343-.087-.19-.043-.381-.075-.573-.1-.1-.015-.193-.034-.291-.045a7.552,7.552,0,0,0-2.161.055c-.141.022-.278.068-.418.1a8.244,8.244,0,0,0-.829.21c-.165.054-.326.129-.488.193-.241.1-.482.19-.719.307-.172.085-.338.189-.507.285-.22.127-.441.252-.656.4-.171.115-.337.245-.5.372l0,0-.1-9.679a23.548,23.548,0,0,0,13.942-11.189c4.886-9.064,2.872-21.463-9.521-22.772a20.085,20.085,0,0,0-18.7,8.448V188.548l.02-.049v-5.272l1.424-3.515v-1.5h0l0-.009H870.422L860.006,203.84v.973h1.606v2.518h-1.606v2.586H823.455V169.553H772.9l-21.861,39.038h.009v1.545h3.509V246.2c-.193-.255-.4-.494-.6-.729-.108-8.516-4.957-15.672-11.3-16.315a9.332,9.332,0,0,0-5.811,1.364V206.478l3.429-6.351H697.637l-9.214,17.068V203.887h-.085l2.03-3.76H647.735l-14.9,27.607h15.7v4.108h-9.508v1.716h-4.117v26.31h-3.569V283.89h3.569v22.5H802.123v-.028h81.59v.028h59.028c0-.028,0-.055,0-.084,0-10.719-4.983-19.408-11.128-19.408" transform="translate(-38.925 -10.454)" fill="#bfe5f9"/>
            <path id="Trazado_690691" data-name="Trazado 690691" d="M388.38,112.38h-2.412v-8.265H319.625v8.265h-1.736V264.907H402.24L392.682,112.38Z" transform="translate(-19.599 -6.419)" fill="#bfe5f9"/>
            <path id="Trazado_690692" data-name="Trazado 690692" d="M720.589,132.739H719.16v-7.233h-39.3v7.233h-1.029V266.226H728.8l-5.662-133.487Z" transform="translate(-41.853 -7.738)" fill="#bfe5f9"/>
            <path id="Trazado_690693" data-name="Trazado 690693" d="M594.916,240.849h-.59V95.141h-8.048V82.959l.566-3.178H534.868l-8.037,46.927h2.962l-.677,13.227h-.946V240.849H527.8v1.557h67.114Z" transform="translate(-32.482 -4.919)" fill="#bfe5f9"/>
            <path id="Trazado_690694" data-name="Trazado 690694" d="M824.069,280.07h-.563V121.919h-7.672V108.7l.539-3.449H766.828l-7.662,50.933h2.824l-.646,14.357h-.9V280.07h-.352v1.689h63.978Z" transform="translate(-46.806 -6.489)" fill="#dce7f7"/>
            <path id="Trazado_690695" data-name="Trazado 690695" d="M642.451,286.9a6.466,6.466,0,0,0-.875.077,28.808,28.808,0,0,0-1.206-3.108h0a21.73,21.73,0,0,0-2.645-4.433l-.08-.1c-.169-.211-.341-.414-.514-.611l-.163-.184c-.163-.179-.328-.354-.5-.522-.069-.07-.14-.135-.21-.2-.162-.156-.325-.311-.491-.455-.077-.067-.156-.127-.233-.19q-.442-.365-.9-.675c-.1-.07-.205-.146-.31-.211-.124-.079-.251-.146-.378-.218-.142-.082-.285-.164-.43-.237-.123-.063-.247-.117-.371-.174-.154-.07-.308-.137-.464-.2-.12-.047-.24-.089-.362-.13-.166-.056-.334-.106-.5-.152-.115-.03-.228-.062-.343-.087-.19-.043-.382-.075-.573-.1-.1-.015-.193-.034-.291-.045a7.554,7.554,0,0,0-2.161.055c-.141.022-.279.068-.418.1a8.281,8.281,0,0,0-.829.21c-.165.054-.326.129-.488.193-.241.1-.482.19-.719.307-.172.085-.339.189-.507.285-.22.127-.441.252-.656.4-.171.115-.337.245-.5.372l0,0-.1-9.679a23.545,23.545,0,0,0,13.941-11.189c4.887-9.064,2.873-21.463-9.52-22.772a20.088,20.088,0,0,0-18.7,8.448V188.548l.021-.049v-5.272l1.424-3.515v-1.5h0l0-.009H581.256L570.839,203.84h0v.973h1.607v2.518h-1.607v2.586h-36.55V169.553H483.734l-21.861,39.038h.009v1.545h3.509V246.2c-.193-.255-.4-.494-.6-.729-.107-8.516-4.956-15.672-11.3-16.315a9.337,9.337,0,0,0-5.812,1.364V206.478l3.429-6.351H408.471l-9.215,17.068V203.887h-.086l2.03-3.76H358.569l-14.9,27.607h15.7v4.108h-9.508v1.716H345.74v26.31h-3.569V283.89h3.569v22.5H512.957v-.028h81.59v.028h59.028c0-.028,0-.055,0-.084,0-10.719-4.983-19.408-11.128-19.408" transform="translate(-21.096 -10.454)" fill="#bfe5f9"/>
            <path id="Trazado_690696" data-name="Trazado 690696" d="M19.67,307.2c0,.025,0,.05,0,.076H78.7v-.025h81.59v.025H327.509V287h3.569V265.354h-3.569V241.645h-4.117V240.1h-9.508v-3.7h15.7l-14.906-24.878H272.048l2.03,3.388h-.085V226.9l-9.215-15.38H222.146l3.429,5.723v21.666a10.164,10.164,0,0,0-5.811-1.229c-6.347.579-11.2,7.029-11.3,14.7-.206.211-.41.427-.6.657v-32.5h3.507v-1.393h.01l-21.861-35.18H138.96v36.376H102.409V218.01H100.8v-2.269h1.606v-.877h0l-10.417-23.1H61.861l0,.008h0v1.349l1.423,3.167v4.751l.021.045V248.95a21,21,0,0,0-18.7-7.614c-12.395,1.18-14.408,12.353-9.521,20.522A23.261,23.261,0,0,0,49.022,271.94l-.1,8.723,0,0c-.169-.115-.335-.232-.507-.336-.215-.131-.434-.244-.655-.358-.168-.087-.335-.18-.506-.257-.237-.106-.479-.191-.72-.276-.163-.058-.324-.126-.487-.175-.273-.081-.552-.134-.83-.189-.14-.028-.277-.069-.418-.089a8.8,8.8,0,0,0-1.282-.1c-.3,0-.588.019-.88.048-.1.009-.192.027-.29.04-.192.025-.384.054-.573.093-.115.023-.229.052-.343.079-.169.041-.337.086-.5.137-.121.036-.241.076-.362.117-.156.054-.31.115-.464.178-.124.051-.249.1-.371.156-.145.066-.287.141-.43.214-.127.065-.254.126-.379.2-.1.059-.2.128-.309.191q-.457.279-.9.608c-.078.058-.157.112-.233.172-.165.13-.328.269-.491.41-.07.061-.141.12-.209.183-.169.151-.332.308-.5.47-.055.055-.109.11-.163.165-.174.178-.346.36-.513.551-.028.03-.054.062-.081.093a19.356,19.356,0,0,0-2.646,3.995h0a24.618,24.618,0,0,0-1.207,2.8,7.087,7.087,0,0,0-.874-.069c-6.146,0-11.128,7.83-11.128,17.49" transform="translate(-1.213 -11.342)" fill="#bfe5f9"/>
            <rect id="Rectángulo_343912" data-name="Rectángulo 343912" width="1.955" height="85.224" transform="translate(670.135 211.416)" fill="#f2ffff"/>
            <path id="Trazado_690697" data-name="Trazado 690697" d="M727.739,222.122l-12.218,3.066v1.763l12.218-3.066Z" transform="translate(-44.115 -13.695)" fill="#f2ffff"/>
            <path id="Trazado_690698" data-name="Trazado 690698" d="M702.083,222.122l12.218,3.066v1.763l-12.218-3.066Z" transform="translate(-43.287 -13.695)" fill="#f2ffff"/>
            <rect id="Rectángulo_343913" data-name="Rectángulo 343913" width="1.955" height="85.224" transform="translate(804.11 211.416)" fill="#f2ffff"/>
            <path id="Trazado_690699" data-name="Trazado 690699" d="M870.517,222.122,858.3,225.188v1.763l12.219-3.066Z" transform="translate(-52.918 -13.695)" fill="#f2ffff"/>
            <path id="Trazado_690700" data-name="Trazado 690700" d="M844.861,222.122l12.218,3.066v1.763l-12.218-3.066Z" transform="translate(-52.089 -13.695)" fill="#f2ffff"/>
            <rect id="Rectángulo_343914" data-name="Rectángulo 343914" width="1.955" height="85.224" transform="translate(883.478 211.416)" fill="#f2ffff"/>
            <path id="Trazado_690701" data-name="Trazado 690701" d="M955.1,222.122l-12.218,3.066v1.763l12.218-3.066Z" transform="translate(-58.133 -13.695)" fill="#f2ffff"/>
            <path id="Trazado_690702" data-name="Trazado 690702" d="M929.445,222.122l12.218,3.066v1.763l-12.218-3.066Z" transform="translate(-57.305 -13.695)" fill="#f2ffff"/>
            <rect id="Rectángulo_343915" data-name="Rectángulo 343915" width="1.955" height="85.224" transform="translate(536.323 211.416)" fill="#f2ffff"/>
            <path id="Trazado_690703" data-name="Trazado 690703" d="M585.134,222.122l-12.218,3.066v1.763l12.218-3.066Z" transform="translate(-35.323 -13.695)" fill="#f2ffff"/>
            <path id="Trazado_690704" data-name="Trazado 690704" d="M559.479,222.122l12.218,3.066v1.763l-12.218-3.066Z" transform="translate(-34.494 -13.695)" fill="#f2ffff"/>
            <rect id="Rectángulo_343916" data-name="Rectángulo 343916" width="1.955" height="85.224" transform="translate(400.752 211.416)" fill="#f2ffff"/>
            <path id="Trazado_690705" data-name="Trazado 690705" d="M440.655,222.122l-12.218,3.066v1.763l12.218-3.066Z" transform="translate(-26.415 -13.695)" fill="#f2ffff"/>
            <path id="Trazado_690706" data-name="Trazado 690706" d="M415,222.122l12.218,3.066v1.763L415,223.885Z" transform="translate(-25.587 -13.695)" fill="#f2ffff"/>
            <rect id="Rectángulo_343917" data-name="Rectángulo 343917" width="1.955" height="85.224" transform="translate(267.038 211.416)" fill="#f2ffff"/>
            <path id="Trazado_690707" data-name="Trazado 690707" d="M298.155,222.122l-12.218,3.066v1.763l12.218-3.066Z" transform="translate(-17.629 -13.695)" fill="#f2ffff"/>
            <path id="Trazado_690708" data-name="Trazado 690708" d="M272.5,222.122l12.218,3.066v1.763L272.5,223.885Z" transform="translate(-16.801 -13.695)" fill="#f2ffff"/>
            <rect id="Rectángulo_343918" data-name="Rectángulo 343918" width="1.955" height="85.224" transform="translate(132.151 211.416)" fill="#f2ffff"/>
            <path id="Trazado_690709" data-name="Trazado 690709" d="M154.405,222.122l-12.218,3.066v1.763l12.218-3.066Z" transform="translate(-8.766 -13.695)" fill="#f2ffff"/>
            <path id="Trazado_690710" data-name="Trazado 690710" d="M128.75,222.122l12.218,3.066v1.763l-12.218-3.066Z" transform="translate(-7.938 -13.695)" fill="#f2ffff"/>
            <rect id="Rectángulo_343919" data-name="Rectángulo 343919" width="938.345" height="7.449" transform="translate(0 294.118)" fill="#f2ffff"/>
            <rect id="Rectángulo_343920" data-name="Rectángulo 343920" width="938.345" height="68.968" transform="translate(0 299.455)" fill="#d8cb59"/>
            <path id="Trazado_690711" data-name="Trazado 690711" d="M462,319.131,0,352.515V367.8l488.331-48.672Z" transform="translate(0 -19.676)" fill="#c8bf54"/>
            <path id="Trazado_690712" data-name="Trazado 690712" d="M219.284,319.131,0,332.425v6.062l245.61-19.356Z" transform="translate(0 -19.676)" fill="#c8bf54"/>
            <path id="Trazado_690713" data-name="Trazado 690713" d="M688.488,388.1H487.917l440.722-68.968h26.325Z" transform="translate(-30.082 -19.676)" fill="#c8bf54"/>
            <path id="Trazado_690714" data-name="Trazado 690714" d="M933.654,324.631C606.24,337.576,296.107,336.708,0,324.631v30.027c378.417-8.349,716.471-11.684,933.654,0Z" transform="translate(0 -20.015)" fill="#af8137"/>
            <path id="Trazado_690715" data-name="Trazado 690715" d="M622.187,350.689c0-1.131-25.832-2.047-57.7-2.047s-57.7.917-57.7,2.047,25.833,2.047,57.7,2.047,57.7-.917,57.7-2.047" transform="translate(-31.246 -21.495)" fill="#af8137"/>
            <path id="Trazado_690716" data-name="Trazado 690716" d="M714.378,359.962c0-1.131-25.832-2.048-57.7-2.048s-57.7.917-57.7,2.048,25.832,2.047,57.7,2.047,57.7-.917,57.7-2.047" transform="translate(-36.93 -22.067)" fill="#af8137"/>
            <path id="Trazado_690717" data-name="Trazado 690717" d="M799.612,367.054c0-1.131-19.8-2.047-44.217-2.047s-44.218.917-44.218,2.047,19.8,2.047,44.218,2.047,44.217-.917,44.217-2.047" transform="translate(-43.847 -22.504)" fill="#af8137"/>
            <path id="Trazado_690718" data-name="Trazado 690718" d="M482.182,68.931c1.892,1.316,6.885,10.418,9.171,15.776l-11.514,8.412c-7.611-6.232-9.221-17.457-7.49-18.766s7.94-6.738,9.833-5.423" transform="translate(-29.083 -4.237)" fill="#e79b69"/>
            <path id="Trazado_690719" data-name="Trazado 690719" d="M495.009,69.491c.217.886-2.989,6.848-2.207,15.927l-7.787-1.891c.1-4.038,4.784-14.8,6.2-15.7,1.581-1,3.475.373,3.792,1.667" transform="translate(-29.903 -4.16)" fill="#edb984"/>
            <path id="Trazado_690720" data-name="Trazado 690720" d="M483.128,58.31c.36.86,1.98,9.748,4.414,17.533l-6.793-3.3s-1.882-12.845-1.1-14.323a1.983,1.983,0,0,1,3.477.088" transform="translate(-29.561 -3.529)" fill="#edb984"/>
            <path id="Trazado_690721" data-name="Trazado 690721" d="M478.907,68.154c.84.327,6.2,7.862,2.555,10.5-1.717,1.243-4.154-2.8-4.154-2.8s-1.976-4.534-1.628-6.038,2.387-1.991,3.227-1.663" transform="translate(-29.325 -4.196)" fill="#edb984"/>
            <path id="Trazado_690722" data-name="Trazado 690722" d="M473.54,83.6c-6.14-7.979.414-14.724,1.252-13.187S479.2,76.839,478.773,79c-.541,2.76-5.233,4.6-5.233,4.6" transform="translate(-29.036 -4.328)" fill="#edb984"/>
            <path id="Trazado_690723" data-name="Trazado 690723" d="M543.552,61.225c-12.931,12.338-15.684,28.069-35.038,62.924-1.64,2.953,7.1,29.706,15.149,30.015s40.309-40.194,40.309-40.194Z" transform="translate(-31.34 -3.775)" fill="#e8e4d4"/>
            <path id="Trazado_690724" data-name="Trazado 690724" d="M546.4,69.066c-.177,8-2.968,18.25-8.24,28.52-8.686,16.922-21.2,28.241-29.812,27.7-.574,4.99,7.678,29.074,15.315,29.366,8.049.309,40.309-40.193,40.309-40.193Z" transform="translate(-31.34 -4.258)" fill="#ddd6c0"/>
            <path id="Trazado_690725" data-name="Trazado 690725" d="M502.845,109.1c-4.34,23.349,11.569,48.425,20.689,51.327,11.382,3.623,15.007-43.477,1.624-51.386-15.78-9.326-22.313.058-22.313.058" transform="translate(-30.957 -6.468)" fill="#a03d59"/>
            <path id="Trazado_690726" data-name="Trazado 690726" d="M543.149,141.26c-12.251,62.924,6.658,193.707,6.658,193.707l43.314-171.5Z" transform="translate(-33.233 -8.709)" fill="#544e5e"/>
            <path id="Trazado_690727" data-name="Trazado 690727" d="M565.535,157.856l-15.28,176.4c.157,1.124.245,1.735.245,1.735l43.313-171.5Z" transform="translate(-33.926 -9.733)" fill="#474251"/>
            <path id="Trazado_690728" data-name="Trazado 690728" d="M611.33,166.582l-59.615-7.571,1.525,41.949,8.215,8.02s22.307,87.6,37.389,127.082c0,0,15.64-138.017,12.486-169.479" transform="translate(-34.016 -9.804)" fill="#544e5e"/>
            <path id="Trazado_690729" data-name="Trazado 690729" d="M616.052,166.9l-76.9,9.68-.1,16.752c20.138-5.609,40.293-2.672,60.558,4.238l-2.088,137.524c.184.489.367.978.549,1.453,0,0,21.143-138.186,17.989-169.648" transform="translate(-33.235 -10.29)" fill="#474251"/>
            <path id="Trazado_690730" data-name="Trazado 690730" d="M538.368,178.853c10.355-2.848,29.624-4.194,46.732-3.546,14.391.546,37.234-95,11.712-116.6-20.117-17.02-42.658-3.23-51.411,1.85A6.565,6.565,0,0,0,542.191,67c5.6,51.144-4.64,88.317-3.823,111.855" transform="translate(-33.19 -3.111)" fill="#e8e4d4"/>
            <path id="Trazado_690731" data-name="Trazado 690731" d="M599.84,59.219c-3.8-3.212-9.384,8.625-12.177,38.982C586,116.286,593.652,162.34,587.6,175.8c13.916.606,27.911,2.623,32.525,6.187,0,0,5.239-101.172-20.282-122.764" transform="translate(-36.217 -3.62)" fill="#ddd6c0"/>
            <g id="Grupo_895343" data-name="Grupo 895343" transform="translate(509.871 105.974)" opacity="0.76" style="mix-blend-mode: multiply;isolation: isolate">
              <g id="Grupo_895342" data-name="Grupo 895342">
                <g id="Grupo_895341" data-name="Grupo 895341" clip-path="url(#clip-path-4)">
                  <path id="Trazado_690732" data-name="Trazado 690732" d="M617,134.661c-.248-4.084-.563-8.241-.956-12.4-15.07-3.693-50.521-11.468-72.075-8.763q-.213,5.933-.6,11.509c29.967-.963,60.895,6.254,73.632,9.655" transform="translate(-543.372 -112.937)" fill="#a03d59"/>
                </g>
              </g>
            </g>
            <path id="Trazado_690733" data-name="Trazado 690733" d="M474.939,87.8c22.937,56.083,46.57,64.385,46.57,64.385,7.459-.095,11.29-37.334.619-45.866-5.978-4.781-34.216-24.059-34.216-24.059Z" transform="translate(-29.282 -5.072)" fill="#edb984"/>
            <path id="Trazado_690734" data-name="Trazado 690734" d="M551.345,350.036h-11.7a65.323,65.323,0,0,1,7.812-3.644c4.951-1.5,3.884,3.644,3.884,3.644" transform="translate(-33.272 -21.34)" fill="#eae3d3"/>
            <path id="Trazado_690735" data-name="Trazado 690735" d="M605.95,349.989h-6.715s.7-2.955,1.712-3.784c2.057-1.686,5,3.784,5,3.784" transform="translate(-36.946 -21.325)" fill="#eae3d3"/>
            <path id="Trazado_690736" data-name="Trazado 690736" d="M561.13,215.648l-14.838-7.095,13.333,1.685,12.589-7.12Z" transform="translate(-33.681 -12.523)" fill="#474251"/>
            <path id="Trazado_690737" data-name="Trazado 690737" d="M524.075,108.8c1.252,12.752-2.758,16.736-6.757,17.971-5.213,1.61-17.6.891-41.638-38.939l-.741.317c22.937,56.083,46.667,67.658,46.667,67.658,6.96-.089,10.672-35.355,2.47-47.008" transform="translate(-29.282 -5.415)" fill="#e79b69"/>
            <path id="Trazado_690738" data-name="Trazado 690738" d="M591.97,58.886c-11.5,13.681-12.53,29.653-27.966,66.461-1.308,3.119,10.247,28.843,18.264,28.286s35.646-44.375,35.646-44.375Z" transform="translate(-34.767 -3.631)" fill="#e8e4d4"/>
            <path id="Trazado_690739" data-name="Trazado 690739" d="M593.337,55.563c.687,7.989,1.276,28.65-2.845,39.449-6.791,17.795-17.985,30.416-26.582,30.8-.031,5.035,10.752,28.149,18.358,27.621,8.017-.555,35.647-44.374,35.647-44.374C623,78.917,610.783,57.48,593.337,55.563" transform="translate(-34.768 -3.426)" fill="#ddd6c0"/>
            <path id="Trazado_690740" data-name="Trazado 690740" d="M556.374,111.129c-1.787,23.734,16.7,47.016,26.057,48.931,11.68,2.39,10.2-44.936-3.931-51.382-16.659-7.6-22.126,2.451-22.126,2.451" transform="translate(-34.296 -6.525)" fill="#a03d59"/>
            <path id="Trazado_690741" data-name="Trazado 690741" d="M526.367,92.885c28.8,53.428,53.137,59.169,53.137,59.169,7.389-.9,7.172-38.415-4.333-45.773-6.446-4.123-36.534-20.308-36.534-20.308Z" transform="translate(-32.453 -5.301)" fill="#edb984"/>
            <path id="Trazado_690742" data-name="Trazado 690742" d="M577.332,108.623c2.617,12.574-.931,16.974-4.764,18.633-5,2.164-17.356,2.775-45.5-34.339l-.7.4c28.8,53.428,53.586,62.42,53.586,62.42,6.893-.835,6.771-36.377-2.621-47.11" transform="translate(-32.453 -5.729)" fill="#e79b69"/>
            <path id="Trazado_690743" data-name="Trazado 690743" d="M602.483,59.379c-29.544-17.5-42.663-6.371-51.405-1.633a7.351,7.351,0,0,0,1.689,5c5.744,7.115,24.339,7.357,41.533.539a64.8,64.8,0,0,0,8.183-3.905" transform="translate(-33.976 -3.075)" fill="#ddd6c0"/>
            <path id="Trazado_690744" data-name="Trazado 690744" d="M541.615,30.921c-12.977-20.485-5.827-27.95.233-29.512s22.212-3.3,25.321,3.645S573.9,42.431,573.9,42.431l-8.558-9.253H558.9l-5.211-15.624Z" transform="translate(-32.945 0)" fill="#77383b"/>
            <path id="Trazado_690745" data-name="Trazado 690745" d="M563.31,27.379,551.03,43.2l2.936,13.215c5.638,8.157,16.109,2.378,25.03-7.047Z" transform="translate(-33.974 -1.688)" fill="#d27558"/>
            <path id="Trazado_690746" data-name="Trazado 690746" d="M547.973,52.525c-7.631-19.124-7.492-33.437-5.325-38.166s12.442-6.375,18.116-1.439,5.078,25.088,5.382,29.611-18.173,9.994-18.173,9.994" transform="translate(-33.378 -0.612)" fill="#edb984"/>
            <path id="Trazado_690747" data-name="Trazado 690747" d="M566.938,30.94l-6.539,1.07s-10.5-23.475-1.414-23.4,7.953,22.33,7.953,22.33" transform="translate(-34.236 -0.531)" fill="#77383b"/>
            <path id="Trazado_690748" data-name="Trazado 690748" d="M568.124,28.208c.166-2.96-.953-5.359-2.5-5.359s-2.936,2.4-3.1,5.359.953,5.359,2.5,5.359,2.935-2.4,3.1-5.359" transform="translate(-34.681 -1.409)" fill="#edb984"/>
            <path id="Trazado_690749" data-name="Trazado 690749" d="M567.653,29c.209-1.744-.36-3.159-1.271-3.159S564.56,27.251,564.351,29s.36,3.159,1.273,3.159,1.82-1.415,2.029-3.159" transform="translate(-34.792 -1.593)" fill="#d27558"/>
            <path id="Trazado_690750" data-name="Trazado 690750" d="M566.771,31.2c.149-1.241-.256-2.248-.905-2.248s-1.3,1.007-1.445,2.248.257,2.248.906,2.248,1.3-1.007,1.445-2.248" transform="translate(-34.797 -1.785)" fill="#edb984"/>
            <path id="Trazado_690751" data-name="Trazado 690751" d="M530.8,73.035c2.058,1.032,8.307,9.345,11.343,14.331l-10.13,10.016C523.6,92.3,520.378,81.39,521.9,79.84S528.746,72,530.8,73.035" transform="translate(-32.155 -4.496)" fill="#edb984"/>
            <path id="Trazado_690752" data-name="Trazado 690752" d="M542.5,69.454c.344.847-1.961,8.122.132,17.02l-7.326-4.733c-.566-2.437,1.942-12.293,3.211-13.393,1.413-1.225,3.48-.133,3.982,1.106" transform="translate(-32.999 -4.181)" fill="#edb984"/>
            <path id="Trazado_690753" data-name="Trazado 690753" d="M529.387,61.854a96.788,96.788,0,0,1,4.766,14.155l-5.58-1.073S525.39,63.857,526,62.4a2.057,2.057,0,0,1,3.39-.548" transform="translate(-32.425 -3.772)" fill="#edb984"/>
            <path id="Trazado_690754" data-name="Trazado 690754" d="M518.5,66.528c.886.09,6.04,6.051,10.739,11.686l-5.6,1.164s-7.7-8.818-7.768-10.368a2.691,2.691,0,0,1,2.629-2.482" transform="translate(-31.806 -4.101)" fill="#edb984"/>
            <path id="Trazado_690755" data-name="Trazado 690755" d="M524.326,89.73c-7.555-5.966-4.259-13.13-2.86-12.07s10.58,6.509,10.52,6.779-7.66,5.291-7.66,5.291" transform="translate(-32.032 -4.782)" fill="#edb984"/>
            <path id="Trazado_690756" data-name="Trazado 690756" d="M551.729,29.289c-.156-1.077.33-1.991,1.087-2.045s1.509.782,1.669,1.866-.331,2.009-1.1,2.054-1.5-.8-1.66-1.876" transform="translate(-34.015 -1.68)" fill="#5a4949"/>
            <path id="Trazado_690757" data-name="Trazado 690757" d="M542.923,30.874c-.139-1.088.312-2.008,1.008-2.056s1.384.8,1.527,1.893-.312,2.025-1.015,2.066-1.38-.812-1.519-1.9" transform="translate(-33.472 -1.777)" fill="#5a4949"/>
            <path id="Trazado_690758" data-name="Trazado 690758" d="M550.68,21.125l5.468.78a1.3,1.3,0,0,1,1.1,1.436l-.159,1.382a1.206,1.206,0,0,1-1.387,1.072l-5.471-.845a1.277,1.277,0,0,1-1.047-1.417l.16-1.347a1.186,1.186,0,0,1,1.338-1.059" transform="translate(-33.859 -1.302)" fill="#77383b"/>
            <path id="Trazado_690759" data-name="Trazado 690759" d="M539.706,23.787l4.105-1.247a.983.983,0,0,1,1.181.833l.282,1.225A1.153,1.153,0,0,1,544.6,26l-4.134,1.221a.971.971,0,0,1-1.154-.841l-.268-1.212a1.151,1.151,0,0,1,.66-1.377" transform="translate(-33.233 -1.388)" fill="#77383b"/>
            <path id="Trazado_690760" data-name="Trazado 690760" d="M548.324,31.646s.229.216.553.567c-.586,2.37-.97,6.239,2.349,4.663,0,.1.026.193.018.288-5.445,3.563-3.534-3.965-2.919-5.517" transform="translate(-33.755 -1.951)" fill="#d27558"/>
            <path id="Trazado_690761" data-name="Trazado 690761" d="M550.585,42.167A5.052,5.052,0,0,0,555.1,37.8s1.491,1.643-.868,3.569-3.652.8-3.652.8" transform="translate(-33.946 -2.331)" fill="#d27558"/>
            <path id="Trazado_690762" data-name="Trazado 690762" d="M557.234,42.213c-.129-.314-.737-.37-1.359-.124s-1.023.7-.894,1.015.736.37,1.359.124,1.023-.7.894-1.015" transform="translate(-34.216 -2.586)" fill="#d27558"/>
            <path id="Trazado_690763" data-name="Trazado 690763" d="M615.108,127.762c-12.459-23.221-4.08-42.062,11.5-44.482s30.531,10.016,29.431,21.287c0,0,9.284-2.245,15.377,12.519s-2.232,25.2-2.232,25.2,18.047,3.411,10.75,17.749-29.024,21.271-40.291,12.447a23.6,23.6,0,0,1-9.157-21.329s-10.891,1.717-14.68-6.84a23.418,23.418,0,0,1-.694-16.555" transform="translate(-37.553 -5.116)" fill="#77383b"/>
            <path id="Trazado_690764" data-name="Trazado 690764" d="M639.466,346.84s-18.02-79.744-16.815-87c1.48-8.91,31.938-56.728,31.938-56.728l-2.684-20.783,30.173-1.921a98.4,98.4,0,0,1,.434,37.021c-3.743,19.4-38.588,51.9-38.588,51.9Z" transform="translate(-38.386 -11.123)" fill="#563740"/>
            <path id="Trazado_690765" data-name="Trazado 690765" d="M683.114,181.254l-6.739-.4-23.611,1.5,9.549,24.8L655.2,216.3l6.2,6.718s-23.248,31.907-24.727,40.816c-.891,5.359,2.242,50.087,4.148,74.344l6.023-69.57s34.661-31.252,38.4-50.652c3.27-16.947-1.384-33.03-2.138-36.7" transform="translate(-39.245 -11.151)" fill="#472c35"/>
            <path id="Trazado_690766" data-name="Trazado 690766" d="M691.5,346.81s-32.808-70.36-33.273-77.724c-.571-9.044,6.281-50.391,6.281-50.391l-8.224-2.154-2.722-29.825,29.747-6.782s17.361,12.7,18.1,32.514-22.42,59.008-22.42,59.008Z" transform="translate(-40.295 -11.094)" fill="#563740"/>
            <path id="Trazado_690767" data-name="Trazado 690767" d="M703.627,211.8c-.736-19.811-20.32-31.871-20.32-31.871l-29.748,6.783,1.683,17.609L653.6,207.68s27.877,1.655,31.145,10.373c3.515,9.378-13.182,52.78-13.182,52.78l18.345,72.554c1,2.172,1.589,3.424,1.589,3.424l-10.386-75.14s23.251-40.055,22.516-59.866" transform="translate(-40.295 -11.094)" fill="#472c35"/>
            <path id="Trazado_690768" data-name="Trazado 690768" d="M631.739,153.79c19.613,14.865,21.091,49.087,21.091,49.087s20.1,2,45.964-7.436c-11.888-22.662-44.689-61.634-56.062-64.436-12.5-3.081-10.993,22.786-10.993,22.786" transform="translate(-38.946 -8.061)" fill="#b54b66"/>
            <path id="Trazado_690769" data-name="Trazado 690769" d="M653.262,172.8c10.341-1.749,23.343,7.393,29.037,20.419a32.675,32.675,0,0,1,2.086,6.539,128.861,128.861,0,0,0,14.408-4.322C686.906,172.778,654.1,133.805,642.731,131c-12.5-3.08-10.992,22.787-10.992,22.787,7.318,5.547,12.109,13.788,15.243,21.941a12.549,12.549,0,0,1,6.279-2.928" transform="translate(-38.946 -8.061)" fill="#a03755"/>
            <path id="Trazado_690770" data-name="Trazado 690770" d="M627.789,135.228c-3.921,6.537-8.188,29.581-12.37,24.5-4.717-5.729-.872-30.357-.872-30.357l-2.324-.872c-6.246,18.883-10.458,36.6-1.016,41.687s21.642-9.877,21.642-9.877Z" transform="translate(-37.343 -7.923)" fill="#a03755"/>
            <path id="Trazado_690771" data-name="Trazado 690771" d="M629.461,135.227c-1.88,17.827.807,36.241,2.747,37.543s22.847-2.387,23.709-5.859S646.393,132.359,642.555,131s-12.77,1.164-13.094,4.232" transform="translate(-38.77 -8.053)" fill="#b54b66"/>
            <path id="Trazado_690772" data-name="Trazado 690772" d="M643.32,131.225c-2.958,10.286-5.346,20.665-5.553,32.913-.034,2.015,3.192,7.5-2.085,8.9,6.338-.369,19.967-3.3,20.659-6.086.838-3.374-8.947-32.813-13.021-35.723" transform="translate(-39.193 -8.091)" fill="#a03755"/>
            <path id="Trazado_690773" data-name="Trazado 690773" d="M643.317,137.535c-9.819,7.555-21.354,33.908-28.93,32.172s-13.633-42.786-13.633-42.786l-1.958.564s-4.081,45.968,11.968,53.311,39.3-33.539,40.036-37.618-2.478-9.494-7.482-5.643" transform="translate(-36.89 -7.825)" fill="#b54b66"/>
            <path id="Trazado_690774" data-name="Trazado 690774" d="M650.8,143.865a11.361,11.361,0,0,0-.934-5.573c-4.685,10-24.106,44.54-38.466,37.968-9.481-4.338-12.762-23.891-13.05-38.178-.376,14.311.534,39.687,11.939,44.907,16.049,7.344,39.778-35.044,40.51-39.124" transform="translate(-36.887 -8.513)" fill="#a03755"/>
            <path id="Trazado_690775" data-name="Trazado 690775" d="M642.062,359.3H630.034a68.663,68.663,0,0,1,8.115-3.757c5.125-1.544,3.913,3.757,3.913,3.757" transform="translate(-38.844 -21.904)" fill="#eae3d3"/>
            <path id="Trazado_690776" data-name="Trazado 690776" d="M698.606,359.248H691.7s0-3.109.831-3.98c1.7-1.774,6.074,3.98,6.074,3.98" transform="translate(-42.647 -21.883)" fill="#eae3d3"/>
            <path id="Trazado_690777" data-name="Trazado 690777" d="M649.439,137.7c-1.222-1.33-1.985-3.086-3.452-3.722A6.309,6.309,0,0,0,642.531,131c-2.8-.995-8.3.085-11.2,1.931a3.414,3.414,0,0,0-1.387,1.174c-.008.009-.012.019-.02.028-.055.076-.111.145-.163.229a17.385,17.385,0,0,0-1.317,2.619c1.138,7.866,5.349,11.97,5.349,11.97s9.8-12.325,15.648-11.25" transform="translate(-38.746 -8.053)" fill="#a03755"/>
            <path id="Trazado_690778" data-name="Trazado 690778" d="M630.607,131.864l-3.232-15.624,8.243-10.905,5.82,23.926L634,136.584Z" transform="translate(-38.681 -6.494)" fill="#d27558"/>
            <path id="Trazado_690779" data-name="Trazado 690779" d="M623.968,129.983c-10.388-14.3-5.732-30.671-1.653-34.61,4.318-4.17,15.961,2.027,16.252,10.888.692,21.025-14.6,23.722-14.6,23.722" transform="translate(-38.082 -5.798)" fill="#edb984"/>
            <path id="Trazado_690780" data-name="Trazado 690780" d="M631.153,91.167c-6.132,4.069-3.468,14.915,6.92,25.224,10.36,10.281,11.965-12.5,6.774-18.4-5.223-5.944-13.694-6.819-13.694-6.819" transform="translate(-38.713 -5.621)" fill="#77383b"/>
            <g id="Grupo_895346" data-name="Grupo 895346" transform="translate(612.135 172.391)" style="mix-blend-mode: overlay;isolation: isolate">
              <g id="Grupo_895345" data-name="Grupo 895345">
                <g id="Grupo_895344" data-name="Grupo 895344" clip-path="url(#clip-path-5)">
                  <path id="Trazado_690781" data-name="Trazado 690781" d="M696.318,192.309c-.828-1.356-1.712-2.748-2.629-4.162C684,192.409,669.113,197.6,653.24,198.17c.156.992.285,1.916.393,2.76,16.93.532,32.691-4.47,42.684-8.622" transform="translate(-652.411 -183.991)" fill="#eae3d3"/>
                  <path id="Trazado_690782" data-name="Trazado 690782" d="M690.86,183.718c-9.437,4.118-23.293,8.825-38.5,9.573.094.462.186.921.269,1.365,15.569-.474,29.8-5.387,39.179-9.549q-.466-.691-.944-1.389" transform="translate(-652.356 -183.718)" fill="#eae3d3"/>
                </g>
              </g>
            </g>
            <path id="Trazado_690783" data-name="Trazado 690783" d="M600.459,127.938c-.946-2.692-1.06-5.854-1.977-6.353s-4.187,1.468-2.631,3.957a30.909,30.909,0,0,0,3.461,4.467Z" transform="translate(-36.711 -7.492)" fill="#edb984"/>
            <path id="Trazado_690784" data-name="Trazado 690784" d="M600.9,127.254c-.44-3.052,1.324-8.16.756-8.5-.541-.326-3.022,5.5-2.8,6.468.234,1,2.217,3.265,2.04,2.035" transform="translate(-36.922 -7.321)" fill="#edb984"/>
            <path id="Trazado_690785" data-name="Trazado 690785" d="M600.53,125.181c-2.892-4.239-2.309-8.745-2.7-9.1s-1.348,3.113-.239,5.961,2.942,3.143,2.942,3.143" transform="translate(-36.812 -7.155)" fill="#edb984"/>
            <path id="Trazado_690786" data-name="Trazado 690786" d="M599.464,126.1c-3.25-3.91-3.4-9.208-3.907-9.581s-.665,3.762.8,6.464a6.721,6.721,0,0,0,3.1,3.116" transform="translate(-36.697 -7.183)" fill="#edb984"/>
            <path id="Trazado_690787" data-name="Trazado 690787" d="M598.321,127.678c-3.4-4.351-3.65-8.455-3.984-8.655s-.468,2.694.736,5.1a7.311,7.311,0,0,0,3.249,3.555" transform="translate(-36.63 -7.338)" fill="#edb984"/>
            <path id="Trazado_690788" data-name="Trazado 690788" d="M628.429,112.073c-.038-1.262.343-2.292.85-2.3s.947,1.021.981,2.281-.346,2.272-.849,2.276-.943-1-.981-2.261" transform="translate(-38.745 -6.768)" fill="#5a4949"/>
            <path id="Trazado_690789" data-name="Trazado 690789" d="M618.241,112.155c-.061-1.27.306-2.306.82-2.309s.976,1.026,1.033,2.294-.311,2.285-.82,2.29-.972-1.012-1.033-2.275" transform="translate(-38.117 -6.773)" fill="#5a4949"/>
            <path id="Trazado_690790" data-name="Trazado 690790" d="M626.318,104.888l4.139.859a1.128,1.128,0,0,1,.846,1.169l-.076,1.069a.814.814,0,0,1-.98.785l-4.118-.842a1.141,1.141,0,0,1-.861-1.168l.066-1.077a.814.814,0,0,1,.985-.795" transform="translate(-38.55 -6.466)" fill="#872d2d"/>
            <path id="Trazado_690791" data-name="Trazado 690791" d="M617.359,106.066l2.878-1.314c.355-.162.749.135.881.662l.262,1.042a1.084,1.084,0,0,1-.4,1.239L618.119,109c-.352.16-.746-.131-.882-.653l-.27-1.038a1.08,1.08,0,0,1,.392-1.243" transform="translate(-38.036 -6.456)" fill="#872d2d"/>
            <path id="Trazado_690792" data-name="Trazado 690792" d="M623.739,113.735s.115.235.269.6c-.84,1.666-1.812,4.521.715,4.278-.018.074-.019.156-.042.226-4.306,1.133-1.65-4.078-.942-5.106" transform="translate(-38.367 -7.012)" fill="#d27558"/>
            <path id="Trazado_690793" data-name="Trazado 690793" d="M622.228,121.526l6.426-.545s-.6,4.362-3.267,4.238-3.158-3.692-3.158-3.692" transform="translate(-38.363 -7.459)" fill="#2d171a"/>
            <path id="Trazado_690794" data-name="Trazado 690794" d="M627.751,122.611a7.6,7.6,0,0,0,.371-1.415l-5.358.455a5.334,5.334,0,0,0,.627,1.76Z" transform="translate(-38.396 -7.472)" fill="#faf0db"/>
            <path id="Trazado_690795" data-name="Trazado 690795" d="M630.66,113.741c-.094-1.58-.879-2.818-1.754-2.766s-1.506,1.376-1.412,2.955.879,2.818,1.753,2.766,1.507-1.375,1.413-2.955" transform="translate(-38.687 -6.842)" fill="#edb984"/>
            <path id="Trazado_690796" data-name="Trazado 690796" d="M621.217,113.844c-.094-1.58-.879-2.818-1.754-2.766s-1.506,1.376-1.412,2.955.879,2.818,1.753,2.766,1.507-1.375,1.413-2.955" transform="translate(-38.105 -6.848)" fill="#edb984"/>
            <path id="Trazado_690797" data-name="Trazado 690797" d="M641.035,113.958c.906-2.507.477-5.1-.958-5.8s-3.335.772-4.241,3.28-.478,5.1.958,5.8,3.334-.772,4.24-3.28" transform="translate(-39.173 -6.658)" fill="#edb984"/>
            <path id="Trazado_690798" data-name="Trazado 690798" d="M640.095,114.419c.576-1.594.3-3.247-.61-3.69s-2.12.491-2.7,2.086-.3,3.247.61,3.69,2.12-.492,2.7-2.086" transform="translate(-39.242 -6.82)" fill="#d27558"/>
            <path id="Trazado_690799" data-name="Trazado 690799" d="M639.236,115.542c.389-1.075.2-2.189-.411-2.488s-1.43.331-1.819,1.407-.2,2.188.411,2.488,1.43-.331,1.818-1.407" transform="translate(-39.262 -6.966)" fill="#edb984"/>
            <path id="Trazado_690800" data-name="Trazado 690800" d="M614.11,130.4c1.009-2.67,2.955-5.164,2.575-6.135s-4.151-1.57-4.561,1.335a30.977,30.977,0,0,0-.225,5.648Z" transform="translate(-37.724 -7.612)" fill="#edb984"/>
            <path id="Trazado_690801" data-name="Trazado 690801" d="M614.762,130.191c1.627-2.62,6.264-5.394,6.051-6.022-.2-.6-5.853,2.268-6.3,3.152-.466.918-.4,3.926.251,2.87" transform="translate(-37.869 -7.651)" fill="#edb984"/>
            <path id="Trazado_690802" data-name="Trazado 690802" d="M615.854,128.278c.513-5.106,3.859-8.18,3.789-8.708s-3.035,1.515-4.019,4.41.23,4.3.23,4.3" transform="translate(-37.932 -7.367)" fill="#edb984"/>
            <path id="Trazado_690803" data-name="Trazado 690803" d="M614.469,128.282c.028-5.084,3.323-9.234,3.174-9.848s-2.931,2.452-3.546,5.466a6.721,6.721,0,0,0,.372,4.382" transform="translate(-37.851 -7.297)" fill="#edb984"/>
            <path id="Trazado_690804" data-name="Trazado 690804" d="M612.623,128.748c.2-5.517,2.647-8.82,2.519-9.189-.122-.354-2.091,1.761-2.718,4.377a7.312,7.312,0,0,0,.2,4.812" transform="translate(-37.742 -7.369)" fill="#edb984"/>
            <path id="Trazado_690805" data-name="Trazado 690805" d="M615.365,129.958l-.775,4.358-4.358-.775,1.527-3.2Z" transform="translate(-37.624 -8.012)" fill="#e8e4d4"/>
            <path id="Trazado_690806" data-name="Trazado 690806" d="M600.77,127.116l1.275,4.239-4.238,1.274-.081-3.54Z" transform="translate(-36.853 -7.837)" fill="#e8e4d4"/>
            <path id="Trazado_690807" data-name="Trazado 690807" d="M426.894,349.6c0-1.131-25.832-2.047-57.7-2.047s-57.7.917-57.7,2.047,25.832,2.047,57.7,2.047,57.7-.917,57.7-2.047" transform="translate(-19.205 -21.428)" fill="#af8137"/>
            <path id="Trazado_690808" data-name="Trazado 690808" d="M311.792,357.78c0-1.131-25.832-2.048-57.7-2.048s-57.7.917-57.7,2.048,25.833,2.047,57.7,2.047,57.7-.917,57.7-2.047" transform="translate(-12.109 -21.932)" fill="#af8137"/>
            <path id="Trazado_690809" data-name="Trazado 690809" d="M360.688,11.722c-8.773-9.017-15.839,1.95-15.839,1.95-5.118-1.219-21.688,13.158-25.831,29.729s11.453,30.461,32.9,22.175l4.387-1.218c9.747-4.874,2.193-10.442,8.772-22.663s4.387-20.956-4.386-29.973" transform="translate(-19.628 -0.503)" fill="#874232"/>
            <path id="Trazado_690810" data-name="Trazado 690810" d="M355.093,71.277c10.115,8.778,30.574,36.078,35.319,37.021,4.831.961,10.731-2.483,9.775-7.253-.936-4.663-29.657-35.322-35.817-38.63-5.939-3.189-14.623,4.223-9.277,8.862" transform="translate(-21.79 -3.801)" fill="#e8e4d4"/>
            <path id="Trazado_690811" data-name="Trazado 690811" d="M400.211,100.93c-.215-1.07-1.9-3.518-4.436-6.681a9.536,9.536,0,0,1-5.691.722c-4.167-.829-8.211-22.036-29.234-35.19-4.31,1.333-9.507,8.106-5.733,11.381,10.116,8.778,30.575,36.077,35.319,37.021,4.832.961,10.732-2.483,9.775-7.253" transform="translate(-21.814 -3.686)" fill="#dbd4bd"/>
            <path id="Trazado_690812" data-name="Trazado 690812" d="M401.009,94.813c-3.938-1.233-9.227,1.625-11.813,6.384s-1.491,9.615,2.446,10.848,9.228-1.624,11.814-6.383,1.491-9.616-2.447-10.849" transform="translate(-23.909 -5.828)" fill="#b54b66"/>
            <path id="Trazado_690813" data-name="Trazado 690813" d="M391.6,99.487c10.487-23.178,34.37-46.413,34.37-46.413l1.263.921S409.4,93.872,402.11,102.5a22.079,22.079,0,0,1-3.231,3.158c-4.467,3.493-9.643-.941-7.276-6.174" transform="translate(-24.107 -3.272)" fill="#edb984"/>
            <path id="Trazado_690814" data-name="Trazado 690814" d="M404.27,93.412a22.043,22.043,0,0,1-3.359,3.021c-2.877,2.062-5.9,1.027-7.139-1.29-.77,1.477-1.5,2.96-2.168,4.442-2.368,5.233,2.808,9.669,7.276,6.174a22.079,22.079,0,0,0,3.231-3.158c6.795-8.041,22.725-43.175,24.877-47.955-6.2,12.015-17.359,32.937-22.716,38.766" transform="translate(-24.107 -3.369)" fill="#e79b69"/>
            <path id="Trazado_690815" data-name="Trazado 690815" d="M364.221,135.259l29.549,4.81c13.624,33.12-2.874,108.744-20.817,195.1h-2.222s-24.368-119.264-23.941-149.592c.5-35.051,17.431-50.322,17.431-50.322" transform="translate(-21.381 -8.339)" fill="#563740"/>
            <path id="Trazado_690816" data-name="Trazado 690816" d="M372.071,184.689l9.771,4.681-8.357,146.342h.939l10-146.342,7.617-4.928c-6.139,2.117-12.944,1.618-19.971.247" transform="translate(-22.94 -11.372)" fill="#492e37"/>
            <path id="Trazado_690817" data-name="Trazado 690817" d="M361.1,212.607c2.306-36.534,19.809-51.1,19.809-51.1l16.654-6.765a62.814,62.814,0,0,0-3.794-14.669l-29.549-4.811s-16.936,15.271-17.431,50.322c-.428,30.329,23.941,149.592,23.941,149.592h1.938C367.424,296,359.77,233.69,361.1,212.607" transform="translate(-21.381 -8.339)" fill="#492e37"/>
            <path id="Trazado_690818" data-name="Trazado 690818" d="M398.277,150.348s-28,7.3-46,.083c10.279-37.625,7.4-48.921,1.074-74.752l13.492-.207s24.188,36.5,31.433,74.876" transform="translate(-21.719 -4.653)" fill="#e8e4d4"/>
            <path id="Trazado_690819" data-name="Trazado 690819" d="M369.757,153.58c-.426-1.42-.826-2.868-1.189-4.348-5.285-21.544-1.551-40.977,8.339-43.4a10.2,10.2,0,0,1,6.875.925,252.783,252.783,0,0,0-16.938-31.284l-13.493.208c6.325,25.832,9.2,37.128-1.073,74.751a51.538,51.538,0,0,0,17.479,3.149" transform="translate(-21.719 -4.653)" fill="#dbd4bd"/>
            <path id="Trazado_690820" data-name="Trazado 690820" d="M385.849,92.717s-5.123,3.379-17.84,5.609a7.173,7.173,0,0,1-7.892-4.3L349.363,65.787a4.329,4.329,0,0,1,3.733-5.824l4.546-.577a5.291,5.291,0,0,1,3.922,1.064,83.123,83.123,0,0,1,24.285,32.268" transform="translate(-21.522 -3.659)" fill="#e8e4d4"/>
            <path id="Trazado_690821" data-name="Trazado 690821" d="M374.876,95.9a8.443,8.443,0,0,1-8.284-4l-15.942-29.1a6.179,6.179,0,0,1-.5-1.174,4.145,4.145,0,0,0-.79,4.29l10.467,30.3a7.172,7.172,0,0,0,7.891,4.3c6.128-1.074,11.133-4.447,14.388-5.755-2.137.506-4.544.748-7.234,1.126" transform="translate(-21.522 -3.8)" fill="#dbd4bd"/>
            <path id="Trazado_690822" data-name="Trazado 690822" d="M346.457,66.114c-1.855,15.5-12.872,48.588-10.982,52.762s8.769,8.56,12.072,5.533,11.032-38.011,10.58-46.222-10.63-20.76-11.669-12.074" transform="translate(-20.67 -3.895)" fill="#e8e4d4"/>
            <path id="Trazado_690823" data-name="Trazado 690823" d="M340.19,109.665c-1.82-3.13,5.81-29.649,7.854-46.406-.795.236-1.378,1.113-1.587,2.86-1.854,15.5-12.872,48.588-10.982,52.762s8.769,8.56,12.073,5.533c1.239-1.134,3.1-6.764,4.918-13.79-1.974,2.336-10.658,1.821-12.275-.96" transform="translate(-20.67 -3.9)" fill="#dbd4bd"/>
            <path id="Trazado_690824" data-name="Trazado 690824" d="M340.642,129.669c3.867.71,7.958-2.177,9.578-6.3,1.593-4.056.512-8.6-2.772-10.42-3.8-2.106-9.12.094-11.352,5.334-2.281,5.356.051,10.56,4.546,11.386" transform="translate(-20.667 -6.915)" fill="#b54b66"/>
            <path id="Trazado_690825" data-name="Trazado 690825" d="M363.285,349.926h13.184s.427-3.512-1.366-4.94c-3.648-2.907-11.818,4.94-11.818,4.94" transform="translate(-22.398 -21.23)" fill="#eae3d3"/>
            <path id="Trazado_690826" data-name="Trazado 690826" d="M384.257,349.862h-9.515s-1.1-4.127-.12-5.806c1.982-3.416,9.635,5.806,9.635,5.806" transform="translate(-23.072 -21.166)" fill="#eae3d3"/>
            <path id="Trazado_690827" data-name="Trazado 690827" d="M369.728,69.252a3.191,3.191,0,0,0,.312-2.109,38.988,38.988,0,0,0-6.028-4.87,6.262,6.262,0,0,0-.7-.318c-.6-.507-1.209-1.01-1.834-1.505a5.294,5.294,0,0,0-3.922-1.064l-4.546.577a4.56,4.56,0,0,0-3.53,2.391c-.661.206-1.3.883-1.864,2.166.77.5,1.561,1,2.39,1.471,8.974,5.149,17.805,6.609,19.726,3.262" transform="translate(-21.432 -3.659)" fill="#dbd4bd"/>
            <path id="Trazado_690828" data-name="Trazado 690828" d="M361.107,59.1l-5.6-16.106-7.955-4.414L352.1,59.734l9.453,3.43Z" transform="translate(-21.428 -2.379)" fill="#d27558"/>
            <path id="Trazado_690829" data-name="Trazado 690829" d="M366.413,54c3.288-13.358-.2-31.291-5.077-33.14-9.588-3.633-14.9,5.585-14.388,13.085C348.2,52.382,366.413,54,366.413,54" transform="translate(-21.389 -1.236)" fill="#edb984"/>
            <path id="Trazado_690830" data-name="Trazado 690830" d="M351.159,15.089c7.336,3.462,6.719,16.765-3.489,30.561-10.222,13.817-12.828-15.628-8.629-22.115,4.173-6.447,12.118-8.446,12.118-8.446" transform="translate(-20.785 -0.93)" fill="#874232"/>
            <path id="Trazado_690831" data-name="Trazado 690831" d="M346.311,41.2c-1.278-2.242-1.287-4.83-.021-5.781s3.329.095,4.607,2.336,1.287,4.831.02,5.781-3.329-.095-4.606-2.336" transform="translate(-21.292 -2.162)" fill="#edb984"/>
            <path id="Trazado_690832" data-name="Trazado 690832" d="M347.208,40.759c-.883-1.55-.89-3.34-.014-4s2.3.066,3.186,1.615.889,3.34.013,4-2.3-.066-3.185-1.616" transform="translate(-21.366 -2.252)" fill="#d27558"/>
            <path id="Trazado_690833" data-name="Trazado 690833" d="M348.5,42.332c-.622-1.073-.632-2.3-.024-2.747s1.605.068,2.228,1.142.632,2.3.025,2.748-1.606-.068-2.229-1.144" transform="translate(-21.457 -2.431)" fill="#edb984"/>
            <path id="Trazado_690834" data-name="Trazado 690834" d="M427.345,54.172c2.928-1.5,5.4-4.155,6.662-3.766s2.975,5.049-.394,5.821a34.7,34.7,0,0,1-6.7.786Z" transform="translate(-26.321 -3.105)" fill="#edb984"/>
            <path id="Trazado_690835" data-name="Trazado 690835" d="M427.527,53.189c2.705-2.268,4.8-8.314,5.609-8.1.769.2-1.169,7.521-2.108,8.161-.974.664-4.591.855-3.5-.059" transform="translate(-26.347 -2.78)" fill="#edb984"/>
            <path id="Trazado_690836" data-name="Trazado 690836" d="M429.328,51.835c5.974-1.1,8.77-5.555,9.42-5.514s-1.013,3.931-4.216,5.418-5.2.1-5.2.1" transform="translate(-26.47 -2.856)" fill="#edb984"/>
            <path id="Trazado_690837" data-name="Trazado 690837" d="M429.6,53.624c6.077-.489,10.173-4.981,10.947-4.847s-2.16,3.882-5.6,4.919a8.107,8.107,0,0,1-5.342-.072" transform="translate(-26.487 -3.007)" fill="#edb984"/>
            <path id="Trazado_690838" data-name="Trazado 690838" d="M429.587,56.033c6.549-.741,9.856-4.1,10.331-3.969.456.12-1.555,2.772-4.52,3.788a8.66,8.66,0,0,1-5.811.181" transform="translate(-26.486 -3.21)" fill="#edb984"/>
            <path id="Trazado_690839" data-name="Trazado 690839" d="M359.336,35.869c-.079-1.453-.866-2.58-1.76-2.518s-1.563,1.3-1.482,2.761.874,2.584,1.771,2.513,1.55-1.3,1.472-2.756" transform="translate(-21.954 -2.056)" fill="#473939"/>
            <path id="Trazado_690840" data-name="Trazado 690840" d="M368.347,34.374c-.076-1.2-.76-2.143-1.53-2.116s-1.338,1.025-1.261,2.227.768,2.147,1.538,2.112,1.329-1.028,1.253-2.223" transform="translate(-22.538 -1.989)" fill="#473939"/>
            <path id="Trazado_690841" data-name="Trazado 690841" d="M353.216,33.068l-.2-.283a1.136,1.136,0,0,1,.3-1.574l4.256-3.038a1.145,1.145,0,0,1,1.607.235l.124.175Z" transform="translate(-21.753 -1.723)" fill="#7f4138"/>
            <path id="Trazado_690842" data-name="Trazado 690842" d="M363.332,36.591s-.134.292-.308.748c1.372,2.01,3.066,5.47-.512,5.324.034.09.045.191.086.278,6.146,1.127,1.843-5.119.734-6.35" transform="translate(-22.35 -2.256)" fill="#d27558"/>
            <path id="Trazado_690843" data-name="Trazado 690843" d="M364.1,47.352c-1.4.134-2.6-.936-3.372-2.656l-.717.214c.758,1.937,2.046,3.136,3.543,2.992a2.448,2.448,0,0,0,1.733-1.006,2.414,2.414,0,0,1-1.187.456" transform="translate(-22.196 -2.756)" fill="#d27558"/>
            <path id="Trazado_690844" data-name="Trazado 690844" d="M363.738,28.354l.024-.178a.653.653,0,0,1,.935-.586l3.683,1.626a1.331,1.331,0,0,1,.706,1.331l-.023.181Z" transform="translate(-22.426 -1.697)" fill="#7f4138"/>
            <path id="Trazado_690845" data-name="Trazado 690845" d="M362.873,49.721c.046-.23-.365-.507-.92-.618s-1.042-.018-1.087.212.365.506.919.618,1.042.017,1.088-.212" transform="translate(-22.249 -3.025)" fill="#d27558"/>
            <path id="Trazado_690846" data-name="Trazado 690846" d="M338.141,118.65c8.748-20.6,30.685-40.3,30.685-40.3l1.353.931s-14.623,34.31-21.268,41.809a17.547,17.547,0,0,1-2.455,2.309c-4.281,3.283-10.4.152-8.316-4.752" transform="translate(-20.822 -4.831)" fill="#edb984"/>
            <path id="Trazado_690847" data-name="Trazado 690847" d="M347.627,117.353a26.107,26.107,0,0,1-2.794,2.717c-2.525,2.1-5.344,2.043-7.1.725a5.417,5.417,0,0,0,8.674,4.009,17.535,17.535,0,0,0,2.454-2.308c6.645-7.5,21.315-43.163,21.315-43.163l-.283-.2c-4.944,9.656-16.568,31.824-22.271,38.216" transform="translate(-20.823 -4.879)" fill="#e79b69"/>
            <path id="Trazado_690848" data-name="Trazado 690848" d="M366.967,83.08c.94-3.283.767-7.208,1.893-7.766s5.526,2.122,3.782,5.107a31.636,31.636,0,0,1-3.99,5.317Z" transform="translate(-22.625 -4.639)" fill="#edb984"/>
            <path id="Trazado_690849" data-name="Trazado 690849" d="M366.465,82.2c.255-3.766-2.531-10.245-1.835-10.632.661-.367,4.438,7.058,4.248,8.243-.2,1.231-2.515,3.907-2.413,2.389" transform="translate(-22.474 -4.412)" fill="#edb984"/>
            <path id="Trazado_690850" data-name="Trazado 690850" d="M366.744,79.653c3.282-5.071,2.076-10.719,2.544-11.137s2.049,3.968.914,7.434-3.458,3.7-3.458,3.7" transform="translate(-22.611 -4.223)" fill="#edb984"/>
            <path id="Trazado_690851" data-name="Trazado 690851" d="M368.143,80.878c3.775-4.637,3.425-11.218,4.042-11.646s1.237,4.727-.375,7.986a7.012,7.012,0,0,1-3.667,3.66" transform="translate(-22.698 -4.267)" fill="#edb984"/>
            <path id="Trazado_690852" data-name="Trazado 690852" d="M369.768,82.917c3.919-5.175,3.827-10.264,4.236-10.49.392-.217.875,3.385-.427,6.293-1.514,3.386-3.809,4.2-3.809,4.2" transform="translate(-22.798 -4.465)" fill="#edb984"/>
            <path id="Trazado_690853" data-name="Trazado 690853" d="M304.619,78.538c1.8,1.3,2.594,1.888,4.428,3.281l5.3,1.832,4.23,3.1s-2.012,9.7-8.377,13.8l-11.419-4.5c-.069-9.539,5.835-17.517,5.835-17.517" transform="translate(-18.421 -4.842)" fill="#e79b69"/>
            <path id="Trazado_690854" data-name="Trazado 690854" d="M314.587,91.025c-2.552-1.381-4.457-9.021-10.3-8.884a12,12,0,0,0-1.685.162,30.172,30.172,0,0,1,2.253-3.766c1.8,1.3,2.595,1.888,4.427,3.281l5.3,1.833,4.23,3.1s-2.012,9.7-8.377,13.8l-3.508-4.625c3.3-1.709,7.626-1.264,7.658-4.9" transform="translate(-18.657 -4.842)" fill="#edaa72"/>
            <path id="Trazado_690855" data-name="Trazado 690855" d="M318.79,89.071c2.443-7.049,4.279-13.875,4.18-14.492s-2.966-1.891-3.3-1.615-4.536,8.353-5.185,10.9c-.066,1.538,2.876,4.829,4.309,5.211" transform="translate(-19.389 -4.496)" fill="#edb984"/>
            <path id="Trazado_690856" data-name="Trazado 690856" d="M309.958,79.039c-.667,1.822-2.566,6.139-2.437,6.671.156.643,3.383,2.359,4.29,1.762a32.77,32.77,0,0,0,3.162-6.527,8.233,8.233,0,0,0-5.015-1.906" transform="translate(-18.96 -4.872)" fill="#edb984"/>
            <path id="Trazado_690857" data-name="Trazado 690857" d="M312.227,86.58c.126,0,.25-.014.373-.024a6.051,6.051,0,0,1-.79,1.262c-.907.6-4.135-1.12-4.29-1.762a4.46,4.46,0,0,1,.378-1.43,5.15,5.15,0,0,0,4.329,1.955" transform="translate(-18.96 -5.218)" fill="#edaa72"/>
            <path id="Trazado_690858" data-name="Trazado 690858" d="M304.2,78.26c-.668,1.819-2.559,6.156-2.441,6.66.142.606,3.235,1.985,4.12,1.329a35.781,35.781,0,0,0,3.14-6.585,7.239,7.239,0,0,0-4.818-1.4" transform="translate(-18.604 -4.822)" fill="#edb984"/>
            <path id="Trazado_690859" data-name="Trazado 690859" d="M304.5,83.2a7.914,7.914,0,0,0,2.711.9,14.111,14.111,0,0,1-1.336,2.384c-.884.656-3.979-.723-4.12-1.329a14.262,14.262,0,0,1,1.058-3.168A8.073,8.073,0,0,0,304.5,83.2" transform="translate(-18.604 -5.055)" fill="#edaa72"/>
            <path id="Trazado_690860" data-name="Trazado 690860" d="M297.695,95.418l14.833,4.119a12.173,12.173,0,0,0-2.036,7.716l-14.291.337Z" transform="translate(-18.262 -5.883)" fill="#edb984"/>
            <path id="Trazado_690861" data-name="Trazado 690861" d="M296.2,107.635l1.165-11.485c2.176,10.744,11.475,8.033,14.322,4.878a12.48,12.48,0,0,0-1.2,6.271Z" transform="translate(-18.262 -5.928)" fill="#edb984"/>
            <path id="Trazado_690862" data-name="Trazado 690862" d="M306.139,97.424c1.836-1.1,7.282-2.611,8.182-2.017.876.577.193,2.545-.934,3.9-1.5,1.806-4.567,3.127-6.409,2.278-1.954-.9-3.348-2.655-.84-4.159" transform="translate(-18.791 -5.874)" fill="#edb984"/>
            <path id="Trazado_690863" data-name="Trazado 690863" d="M300.544,83.857l4.264,4.558-1.084,2.743c3.4,3.163,1.913,10.684-3.706,9.522-4.719-.976-3.7-9.8-3.694-10.79s3.554-6.06,4.22-6.034" transform="translate(-18.264 -5.17)" fill="#edb984"/>
            <path id="Trazado_690864" data-name="Trazado 690864" d="M296.324,89.891c.008-.994,3.554-6.06,4.22-6.034l4.264,4.558-1.083,2.743c.111.1.216.212.317.325a4.245,4.245,0,0,0-4.794-.975c-2.168,1.073-2.941,4.082-1.725,6.722,1.149,2.5,3.659,3.766,5.76,3a4.409,4.409,0,0,1-3.264.455c-4.72-.976-3.7-9.8-3.7-10.79" transform="translate(-18.264 -5.17)" fill="#edaa72"/>
            <path id="Trazado_690865" data-name="Trazado 690865" d="M303.879,83.749c3.416,4.022,8.076,3.259,8.5,3.425a2.313,2.313,0,0,1-.025,3.065c-3.4,3.3-8.736-.285-8.736-.285s-3.648-3.471-3.567-5.307c.041-.915,2.3-1.694,3.83-.9" transform="translate(-18.499 -5.143)" fill="#edb984"/>
            <path id="Trazado_690866" data-name="Trazado 690866" d="M308.942,104.911c2.439,19.391-3.767,54.816-8.227,58.784s-28.422-4.328-31.493-11.983,26.316-52.086,26.316-52.086Z" transform="translate(-16.585 -6.142)" fill="#edb984"/>
            <path id="Trazado_690867" data-name="Trazado 690867" d="M272.306,140.283c6,3.222,12.068,5.085,14.425,3.615,4-2.493,22.212-38.639,22.212-38.639,2.439,19.391-3.767,54.816-8.227,58.784s-28.421-4.328-31.493-11.983c-.768-1.913.6-6.289,3.083-11.776" transform="translate(-16.586 -6.49)" fill="#e79b69"/>
            <path id="Trazado_690868" data-name="Trazado 690868" d="M211.4,41.017a13.871,13.871,0,0,1-.475-13.513c3.659-7.631,12.4-4.609,12.4-4.609a15.6,15.6,0,0,1,14.944-2.7c8.585,3.022,7.153,10.176,7.153,10.176,1.748,1.113,4.926,8.109-.321,14.785L225.067,71.544s-16.85-10.973-17.8-19.081S211.4,41.017,211.4,41.017" transform="translate(-12.772 -1.191)" fill="#7c4735"/>
            <path id="Trazado_690869" data-name="Trazado 690869" d="M283.61,344.82h-2.544l-35.59-124.158L302.713,206.3s8.891,65.345-19.1,138.523" transform="translate(-15.135 -12.719)" fill="#6a6ac7"/>
            <path id="Trazado_690870" data-name="Trazado 690870" d="M266.3,216.035c16.91,20.44,17.184,74.145,16.689,129.385h-1.927l-35.59-124.157Z" transform="translate(-15.135 -13.32)" fill="#5656b7"/>
            <path id="Trazado_690871" data-name="Trazado 690871" d="M226.062,344.924h-2.544l-3.792-130.25,69.529-6.522s-11.906,64.518-63.193,136.772" transform="translate(-13.547 -12.834)" fill="#6a6ac7"/>
            <path id="Trazado_690872" data-name="Trazado 690872" d="M231.542,240.312l-6.337,103.876h-1.689l-3.792-130.251,80.186-17.728a112.518,112.518,0,0,1,2.371,29.338c-15.835.992-42.272,7.426-70.74,14.765" transform="translate(-13.547 -12.097)" fill="#5656b7"/>
            <path id="Trazado_690873" data-name="Trazado 690873" d="M304.126,208.621c-31.481,11.123-86.808,20.652-86.808,20.652S193.171,122.114,207.8,101.131,239,82.8,249.29,87.038c31.617,13.022,52.037,63.722,54.836,121.582" transform="translate(-12.522 -5.185)" fill="#f7e4bc"/>
            <path id="Trazado_690874" data-name="Trazado 690874" d="M249.921,87.039c1.384.571,2.739,1.238,4.08,1.95-2.9,4.326-13.589,7.54-26.367,7.537a65.718,65.718,0,0,1-14.295-1.494c13.307-14.262,27.43-11.762,36.581-7.993" transform="translate(-13.153 -5.186)" fill="#ecd3a4"/>
            <path id="Trazado_690875" data-name="Trazado 690875" d="M207.8,102.161c5.906-8.47,17.264,23.357,35.305,68.42,8.594,21.467,25.946,35.876,39.609,45.566-30.217,8.1-65.4,14.155-65.4,14.155S193.172,123.144,207.8,102.161" transform="translate(-12.522 -6.214)" fill="#ecd3a4"/>
            <path id="Trazado_690876" data-name="Trazado 690876" d="M250.053,87.039A48.278,48.278,0,0,1,258.2,91.39c1.376,5.807.549,14.116-1.563,18.337-16.246-1.542-30.972-9.8-41.154-16.733,12.7-11.983,25.88-9.535,34.571-5.956" transform="translate(-13.285 -5.185)" fill="#b1405c"/>
            <path id="Trazado_690877" data-name="Trazado 690877" d="M250.287,87.04c1.1.452,2.181.961,3.251,1.5,2.782,3.447,2.368,12.763.321,16.855-14.489-1.376-27.349-10.01-34.586-15.374,11.56-8.533,23.132-6.231,31.014-2.984" transform="translate(-13.519 -5.186)" fill="#edb984"/>
            <path id="Trazado_690878" data-name="Trazado 690878" d="M228.953,96.508a113.471,113.471,0,0,1-9.68-6.486c11.56-8.533,23.132-6.23,31.014-2.984,1.1.453,2.181.961,3.251,1.5a5.718,5.718,0,0,1,.549.843c-3.186,4.018-13.172,6.975-25.135,7.124" transform="translate(-13.519 -5.186)" fill="#e79b69"/>
            <path id="Trazado_690879" data-name="Trazado 690879" d="M249.551,85.275l-2.9-14-22.574-10.02-2.118,25.676c18.25,5.937,26.168,4.467,27.594-1.653" transform="translate(-13.685 -3.776)" fill="#d27558"/>
            <path id="Trazado_690880" data-name="Trazado 690880" d="M253.061,78.823c-9.613,2.166-23.421-4.029-25.294-6.273s-7.126-23.629-5.387-28.741,19.073-8.574,21.71-6.377c8.165,6.8,11.339,29.313,8.972,41.39" transform="translate(-13.689 -2.266)" fill="#edb984"/>
            <path id="Trazado_690881" data-name="Trazado 690881" d="M208.011,101.115c-18.293,29.11-17.173,68.827,6.484,88.2l23.452-30.439c-8.668-7.115-11.607-26-10.968-41.471.573-13.882-15.263-22.186-18.968-16.292" transform="translate(-12.047 -6.116)" fill="#f7e4bc"/>
            <path id="Trazado_690882" data-name="Trazado 690882" d="M208.011,100.878c.442-.7,3.284-5.026,5.075-5.452,3.469-.825,3.238,6.07,1.978,9.4-9.435,24.955-6.538,53.392,10.208,70.261L214.495,189.08c-23.657-19.375-24.777-59.091-6.484-88.2" transform="translate(-12.047 -5.879)" fill="#ecd3a4"/>
            <path id="Trazado_690883" data-name="Trazado 690883" d="M282.049,356.869l11.779,0s-7.255-5.367-9.988-5.035-1.791,5.033-1.791,5.033" transform="translate(-17.38 -21.691)" fill="#ecd3a4"/>
            <path id="Trazado_690884" data-name="Trazado 690884" d="M228.179,356.848l-10.433,0s4.072-5.547,6.638-5.2,3.795,5.2,3.795,5.2" transform="translate(-13.425 -21.679)" fill="#ecd3a4"/>
            <path id="Trazado_690885" data-name="Trazado 690885" d="M236.362,158.307c-12.617-4.095-28.305.507-32.06,15.682s17.9,33.765,29.155,17.568,2.9-33.249,2.9-33.249" transform="translate(-12.57 -9.673)" fill="#b1405c"/>
            <path id="Trazado_690886" data-name="Trazado 690886" d="M269.955,159.64c-12.721,14.836-37.173,34.6-43.063,35.571-13.959,2.3-25.653-20.38-12.289-31.375,6.369-5.241,50.137-18.514,50.137-18.514Z" transform="translate(-12.869 -8.96)" fill="#edb984"/>
            <path id="Trazado_690887" data-name="Trazado 690887" d="M213.252,166.028c2.44,4.574,6.525,7.96,11.61,8.242,5.136.284,45.094-13.689,45.094-13.689-12.721,14.836-37.173,34.6-43.063,35.571-13.45,2.219-24.788-18.757-13.641-30.125" transform="translate(-12.869 -9.901)" fill="#e79b69"/>
            <path id="Trazado_690888" data-name="Trazado 690888" d="M279.1,256.178l11.767-7.842-10.061,2.9-11.253-3.241Z" transform="translate(-16.619 -15.29)" fill="#5656b7"/>
            <path id="Trazado_690889" data-name="Trazado 690889" d="M223.215,59.732l7.332.428s-.849-21.315,3.841-23.189-4.177-8.014-11.339-2.645.166,25.407.166,25.407" transform="translate(-13.558 -1.984)" fill="#7c4735"/>
            <path id="Trazado_690890" data-name="Trazado 690890" d="M220.849,61.451c-1.838-2.793-2.038-5.906-.445-6.954s4.374.364,6.213,3.157,2.037,5.906.445,6.954-4.374-.364-6.213-3.157" transform="translate(-13.523 -3.339)" fill="#edb984"/>
            <path id="Trazado_690891" data-name="Trazado 690891" d="M221.609,61.086c-1.187-1.8-1.316-3.814-.287-4.492s2.824.236,4.012,2.039,1.316,3.815.287,4.492-2.824-.236-4.011-2.039" transform="translate(-13.603 -3.476)" fill="#d27558"/>
            <path id="Trazado_690892" data-name="Trazado 690892" d="M223.429,62.414c-.711-1.079-.788-2.283-.172-2.688s1.693.14,2.4,1.219.789,2.283.173,2.688-1.694-.14-2.4-1.219" transform="translate(-13.739 -3.674)" fill="#edb984"/>
            <path id="Trazado_690893" data-name="Trazado 690893" d="M246.16,55.021c-.2-1.326-1.023-2.312-1.833-2.205s-1.3,1.271-1.1,2.6,1.024,2.313,1.834,2.205,1.3-1.27,1.1-2.6" transform="translate(-14.993 -3.256)" fill="#5a4949"/>
            <path id="Trazado_690894" data-name="Trazado 690894" d="M245,46.985l-5.169,1.4a.774.774,0,0,0-.559.966l.475,1.57a.83.83,0,0,0,1.015.54l5.169-1.4a.773.773,0,0,0,.559-.967l-.475-1.57a.832.832,0,0,0-1.015-.54" transform="translate(-14.75 -2.895)" fill="#7c4735"/>
            <path id="Trazado_690895" data-name="Trazado 690895" d="M252.091,52.913c-.384-1.285-.989-2.251-1.352-2.158s-.346,1.209.038,2.493.988,2.251,1.351,2.159.347-1.21-.037-2.494" transform="translate(-15.443 -3.129)" fill="#5a4949"/>
            <path id="Trazado_690896" data-name="Trazado 690896" d="M252.631,46l-2.663.339c-.223.028-.365.4-.315.831l.188,1.626c.05.431.271.757.5.729L253,49.183c.224-.028.365-.4.316-.832l-.188-1.625c-.05-.431-.271-.757-.5-.729" transform="translate(-15.392 -2.836)" fill="#7c4735"/>
            <path id="Trazado_690897" data-name="Trazado 690897" d="M249.494,55.575c3.607,3.128,5.54,5.347,5.043,6.905a2.819,2.819,0,0,1-2.3,1.6l.029.086s3.249.007,3.883-1.545c.627-1.535-1.975-3.76-6.65-7.041" transform="translate(-15.382 -3.426)" fill="#d27558"/>
            <path id="Trazado_690898" data-name="Trazado 690898" d="M253.393,67.33l-7.639.384s-1.152,4.836,3.753,5.065c3.713.173,3.886-5.449,3.886-5.449" transform="translate(-15.145 -4.151)" fill="#3e2d34"/>
            <path id="Trazado_690899" data-name="Trazado 690899" d="M252.834,67.711l-6.324.318s-.954,4,3.108,4.193c3.074.143,3.217-4.512,3.217-4.512" transform="translate(-15.192 -4.175)" fill="#f9eddb"/>
            <path id="Trazado_690900" data-name="Trazado 690900" d="M284.717,149.5l-2.855,1.974-1.857-.822.683-2.3Z" transform="translate(-17.264 -9.147)" fill="#edb984"/>
            <path id="Trazado_690901" data-name="Trazado 690901" d="M280.811,151.249l2.233,5.018s-9.327,7-17.686,4.525l-5.564-13.717c1.918-1.705,2.116-5.749,4.425-5.525,4.985.484,7-1.6,9.8-2.176,2.293-.474,6.791,11.875,6.791,11.875" transform="translate(-16.017 -8.592)" fill="#edb984"/>
            <path id="Trazado_690902" data-name="Trazado 690902" d="M275.9,152.557c.91-2.273,5.255-.569,5.255-.569l2.233,5.018s-9.327,7-17.686,4.525l-.405-4.938c3.7-1.07,11.482,2.75,10.6-4.037" transform="translate(-16.356 -9.333)" fill="#edb984"/>
            <path id="Trazado_690903" data-name="Trazado 690903" d="M268.8,141.35c2.338-.508,3.877-1.585,5.772-1.977,2.292-.474,6.791,11.876,6.791,11.876l2.233,5.018a30.3,30.3,0,0,1-8.609,4.235c2.485-2.624,2.473-15.336-6.187-19.152" transform="translate(-16.573 -8.592)" fill="#edb984"/>
            <path id="Trazado_690904" data-name="Trazado 690904" d="M282.255,143.79c-.927-.092-8.135,3.223-8.547,3.794-.5.689.607,4.786,1.98,4.992.606.091,8.011-2.278,8.912-3.657.535-.819-1.464-5.042-2.344-5.129" transform="translate(-16.868 -8.865)" fill="#edb984"/>
            <path id="Trazado_690905" data-name="Trazado 690905" d="M278.452,137.957c-.81-.408-7.5,2.93-7.833,3.487-.4.672.981,4.667,2.266,4.868.568.089,7.114-2.452,7.83-3.75.457-.83-.4-3.667-2.262-4.605" transform="translate(-16.681 -8.504)" fill="#edb984"/>
            <path id="Trazado_690906" data-name="Trazado 690906" d="M263.354,144.607l5.22,16.838-9.391,3.219-6.763-12.78Z" transform="translate(-15.563 -8.916)" fill="#edb984"/>
            <path id="Trazado_690907" data-name="Trazado 690907" d="M268.355,161.745c-.348-.067-.7-.142-1.049-.231-6.1-1.563-10.266-6.154-9.3-10.253.6-2.527,3.007-4.273,6.2-4.878l4.7,15.172Z" transform="translate(-15.899 -9.025)" fill="#edb984"/>
            <path id="Trazado_690908" data-name="Trazado 690908" d="M268.654,157.214c1.667.673,4.558,3.07,4.681,4.108.12,1.009-2.413,1.177-3.852,1.186a5.3,5.3,0,0,1-4.735-3.518c-.506-2.01,1.627-2.7,3.905-1.776" transform="translate(-16.318 -9.668)" fill="#edb984"/>
            <path id="Trazado_690909" data-name="Trazado 690909" d="M261.446,136l5.659,2.146-.73,2.955c4.268,4.33.981,15.921-5.553,14.72-2.376-.437-6.679-5.1-4.874-7.4,2.162-2.755,1.928-6.7,2.123-7.251A29.57,29.57,0,0,1,261.446,136" transform="translate(-15.754 -8.385)" fill="#edb984"/>
            <path id="Trazado_690910" data-name="Trazado 690910" d="M267.106,138.147l-.72,2.913a3.317,3.317,0,0,0-1.667-.409c-2.782.065-5.349,3.456-5.734,7.574s1.559,7.4,4.343,7.339c.088,0,.176-.017.265-.025a4.819,4.819,0,0,1-2.77.283c-2.376-.437-6.679-5.1-4.874-7.4,2.162-2.755,1.928-6.7,2.122-7.251A29.619,29.619,0,0,1,261.446,136Z" transform="translate(-15.754 -8.385)" fill="#edb984"/>
            <path id="Trazado_690911" data-name="Trazado 690911" d="M260.926,136.872c3.106-4.157,1-8.808,1.052-9.271s1.755-1.467,3.149-.594c4.552,2.849,2.6,10.235,2,11.384,0,0-7.295,3.508-6.2-1.519" transform="translate(-16.08 -7.809)" fill="#edb984"/>
            <path id="Trazado_690912" data-name="Trazado 690912" d="M282.619,158.065c2.572-.819,11.875-4.464,12.426-5,.666-.65.132-4.389-1.134-4.759-.559-.163-10.292,2.689-11.874,3.392-2.377,1.653-2.338,6.836.581,6.37" transform="translate(-17.284 -9.143)" fill="#edb984"/>
            <path id="Trazado_690913" data-name="Trazado 690913" d="M658.442,67.536c.142-.309,1.827-3.756,1.827-3.756s-.218-2.909,3.7-3.119l-4.541-3.785c-2.348.992-4.7,4.086-4.985,4.605s.764,6.752,1.148,6.944a5.491,5.491,0,0,0,2.852-.889" transform="translate(-40.347 -3.507)" fill="#e79b69"/>
            <path id="Trazado_690914" data-name="Trazado 690914" d="M651.324,55.845c1.356-.924,6.991-.294,6.991-.294l3.008,4.1L659.981,62.2s-5.162-2.365-6.083-2.1-3.078,3.292-3.817,4.024c-1.119,1.108-4.08,2.384-4.466,2.145a5.485,5.485,0,0,1-1.019-2.953c.281-.471,2.686-1.969,2.963-2.283s2.416-4.265,3.766-5.184" transform="translate(-39.74 -3.412)" fill="#edaa72"/>
            <path id="Trazado_690915" data-name="Trazado 690915" d="M658.227,56.548c-5.552-4.2-10.029-7.41-10.275-7.949s1.289-3.106,1.693-3.074a70.493,70.493,0,0,1,9.847,6.076c.852,1.172-.364,3.864-1.265,4.947" transform="translate(-39.948 -2.807)" fill="#edb984"/>
            <path id="Trazado_690916" data-name="Trazado 690916" d="M672.3,67.992l-12.33,4,1.711,7.967,13.356-2.714Z" transform="translate(-40.69 -4.192)" fill="#edaa72"/>
            <path id="Trazado_690917" data-name="Trazado 690917" d="M657.676,63.5c5.235-1.406,1.879-6.042.7-6.927l1.157-5.061s7.675,4.79,9.636,7.62,3.027,8.054,3.027,8.054c-.013,3.562-1.6,6.307-5.129,7.576Z" transform="translate(-40.549 -3.176)" fill="#edb984"/>
            <path id="Trazado_690918" data-name="Trazado 690918" d="M660.651,63.073c1.15-1.3.48-3.584-1.253-5.349a5.277,5.277,0,0,0-1.043-.832l0,.017c1.179.884,4.168,5.449-1.112,7l.557.1a3.323,3.323,0,0,0,2.854-.938" transform="translate(-40.522 -3.508)" fill="#edaa72"/>
            <path id="Trazado_690919" data-name="Trazado 690919" d="M652.642,69.273,650.882,65a18.815,18.815,0,0,1,8.5-.434c5.917,1.306,12.429,6.121,8.142,10.39-2.785,2.774-9.427-1.94-9.875-2.8a5.821,5.821,0,0,0-5.01-2.888" transform="translate(-40.13 -3.962)" fill="#edb984"/>
            <path id="Trazado_690920" data-name="Trazado 690920" d="M668.742,70.966a4.022,4.022,0,0,1-1.194,3.382c-2.05,1.792-6,.626-8.831-2.607-2.156-2.465-5.625-4.679-2.418-7.478a20.587,20.587,0,0,0-5.418.74l1.76,4.269a5.822,5.822,0,0,1,5.01,2.887c.447.859,7.09,5.573,9.875,2.8a3.811,3.811,0,0,0,1.215-3.994" transform="translate(-40.13 -3.962)" fill="#edaa72"/>
            <path id="Trazado_690921" data-name="Trazado 690921" d="M653.1,65.453a2.073,2.073,0,0,1-.771,3.823,12.1,12.1,0,0,0-5.031,2.34c-.354.133-1.77-.98-1.751-1.894.077-3.958,5.375-4.709,5.375-4.709a4.121,4.121,0,0,1,2.179.439" transform="translate(-39.801 -4.008)" fill="#edb984"/>
            <path id="Trazado_690922" data-name="Trazado 690922" d="M758.612,32.747C754.6,19.288,738.311,12.6,730.709,21s-.557,19.2-.557,19.2Z" transform="translate(-44.834 -1.066)" fill="#904930"/>
            <path id="Trazado_690923" data-name="Trazado 690923" d="M757.754,73.03c-31.4-10.25-72.675,26.087-72.675,26.087l-5.546,41.913Z" transform="translate(-41.896 -4.39)" fill="#f0dcb6"/>
            <path id="Trazado_690924" data-name="Trazado 690924" d="M758.968,84.044c-31.4-10.25-73.125,26.367-73.125,26.367l-.643,35.251Z" transform="translate(-42.246 -5.07)" fill="#e2ca9f"/>
            <path id="Trazado_690925" data-name="Trazado 690925" d="M683.578,101.326c7.831,2.251,12.506,14.868,10.441,28.182S683.93,151.79,676.1,149.54s-12.506-14.869-10.441-28.182,10.088-22.283,17.92-20.032" transform="translate(-41.011 -6.226)" fill="#d75c74"/>
            <path id="Trazado_690926" data-name="Trazado 690926" d="M668.348,67.2s27.062,34.605,17.857,66.141l-6.062,9.926c-14.04-2.93-20.884-15.2-21.54-21.489s2.667-45.417,2.667-45.417Z" transform="translate(-40.601 -4.143)" fill="#edb984"/>
            <path id="Trazado_690927" data-name="Trazado 690927" d="M666.568,90.819c4.159,17.134,11.892,29.239,17.271,27.037,1.677-.686,2.927-2.683,3.728-5.624a52.563,52.563,0,0,1-1.362,21.715l-6.063,9.926c-14.039-2.93-20.884-15.2-21.54-21.489s2.667-45.417,2.667-45.417a81.512,81.512,0,0,1,5.3,13.852" transform="translate(-40.601 -4.745)" fill="#e79b69"/>
            <path id="Trazado_690928" data-name="Trazado 690928" d="M707.245,181.425l70.972,13.615s-5.211,85.791-28.45,159.394H747.86s-52.595-77.845-54.119-87.608c-2.818-18.042,13.5-85.4,13.5-85.4" transform="translate(-42.752 -11.186)" fill="#7b9bc2"/>
            <path id="Trazado_690929" data-name="Trazado 690929" d="M730.3,244.907s9.1,56.012,19.734,111.566l-.331.228-24.864-79.559Z" transform="translate(-44.689 -15.1)" fill="#658bab"/>
            <path id="Trazado_690930" data-name="Trazado 690930" d="M723.96,212.09c-11.326-3.474-21.066,2.148-25.925,13.642,3.569-21.373,7.508-45.877,7.508-45.877l75.014,15.01s-7.264,85.87-30.5,159.473H748.98c3.671-15.372,25.289-126.815-25.019-142.247" transform="translate(-43.037 -11.089)" fill="#658bab"/>
            <path id="Trazado_690931" data-name="Trazado 690931" d="M780.13,206.266c-44.44.947-76.422-25.253-76.422-25.253s-10.976-84.3,15.621-101.662S757.1,67.985,774.6,84.086s5.526,122.18,5.526,122.18" transform="translate(-43.248 -4.245)" fill="#f0dcb6"/>
            <path id="Trazado_690932" data-name="Trazado 690932" d="M767.538,139.208c-4.559-48.466,6.5-58.214,10.892-54.175,17.507,16.1,5.526,122.18,5.526,122.18a114.707,114.707,0,0,1-20.433-1.407c4.042-24.532,6.336-41.938,4.015-66.6" transform="translate(-47.075 -5.192)" fill="#e2ca9f"/>
            <path id="Trazado_690933" data-name="Trazado 690933" d="M765.515,74.238c41.873,14.86,71.943,81.616,62.833,93.619l-40.687-11.431c-7.011-8.847-17.455-20.406-20.905-30.578-8.863-26.125-1.241-51.61-1.241-51.61" transform="translate(-47.01 -4.577)" fill="#f0dcb6"/>
            <path id="Trazado_690934" data-name="Trazado 690934" d="M765,124.5c16.448,23.2,38.316,35.511,49.635,28.42,5.033-3.154,7.234-9.619,6.815-17.781,7.823,16.292,10.831,30.794,7.037,35.793L787.8,159.5c-7.01-8.847-17.563-20.521-21.6-31.127-.546-1.437-1.04-2.874-1.5-4.309.1.145.2.29.3.434" transform="translate(-47.147 -7.649)" fill="#e2ca9f"/>
            <path id="Trazado_690935" data-name="Trazado 690935" d="M751.323,366.82h-11.2s8.122-6.439,9.536-5.8,1.668,5.8,1.668,5.8" transform="translate(-45.632 -22.256)" fill="#f0dcb6"/>
            <path id="Trazado_690936" data-name="Trazado 690936" d="M750.394,366.855H763.5s-8.217-5.859-10-5.274-3.111,5.274-3.111,5.274" transform="translate(-46.265 -22.291)" fill="#f0dcb6"/>
            <path id="Trazado_690937" data-name="Trazado 690937" d="M787.206,166.45c.165-8.239,11.017-14.917,24.236-14.917s23.8,6.678,23.636,14.917-11.017,14.917-24.238,14.917-23.8-6.678-23.635-14.917" transform="translate(-48.535 -9.343)" fill="#d75c74"/>
            <path id="Trazado_690938" data-name="Trazado 690938" d="M783.556,212.069c17.282-12,43.659-31.275,46.821-41.735,4.493-14.864-28.4-18.517-38.854-8.744-6.317,5.906-16.016,36.588-16.016,36.588Z" transform="translate(-47.814 -9.627)" fill="#edb984"/>
            <path id="Trazado_690939" data-name="Trazado 690939" d="M794.386,201.14c14.973-12.122,19.361-23.9,14.066-30.179-3.653-4.334-12.608-3.421-22.726,1.541,2.208-4.909,4.478-9.091,6.427-10.913,10.453-9.773,43.347-6.12,38.854,8.745-3.161,10.459-27.386,28.411-44.668,40.408,0,0,5.414-7.47,8.047-9.6" transform="translate(-48.444 -9.627)" fill="#e79b69"/>
            <path id="Trazado_690940" data-name="Trazado 690940" d="M747,89.509c-11.5,0-21.045-6.944-25.886-11.021a37.948,37.948,0,0,1,7.333-3.845c15.221-8.124,24.982-7.118,35.113-.514a63.121,63.121,0,0,1,9.459,4.433C768.633,82.6,758.431,89.509,747,89.509" transform="translate(-44.46 -4.246)" fill="#e2ca9f"/>
            <path id="Trazado_690941" data-name="Trazado 690941" d="M729.265,74.476c12.6-6.654,21.453-7,29.906-3.079-1.124,6.525-7.24,11.425-14.926,11.425a17.337,17.337,0,0,1-14.98-8.347" transform="translate(-44.963 -4.246)" fill="#624952"/>
            <path id="Trazado_690942" data-name="Trazado 690942" d="M754.817,68.69l-2.6-16.575L732.373,57.64l.218,14.049c-.052,3.243,16.366,14.9,22.226-3" transform="translate(-45.154 -3.213)" fill="#d27558"/>
            <path id="Trazado_690943" data-name="Trazado 690943" d="M752.025,52.2c1.955-12-1.3-20.219-2.667-22.548-2.127-3.63-14.531-5.945-17.489-2.315s-5.548,21.056-3.458,36.808c.587,4.421,15.749,4.429,18.275,2.458,3.642-2.841,4.644-10.141,5.338-14.4" transform="translate(-44.863 -1.573)" fill="#edb984"/>
            <path id="Trazado_690944" data-name="Trazado 690944" d="M724.1,204.251l6.781,2.978-.052,4.4-6.781-2.978Z" transform="translate(-44.641 -12.593)" fill="#e2ca9f"/>
            <path id="Trazado_690945" data-name="Trazado 690945" d="M754.707,60.007l-1.7-7.087-4.354-5.372s-5.427-28.206,7.764-21.347-1.712,33.807-1.712,33.807" transform="translate(-46.09 -1.549)" fill="#904930"/>
            <path id="Trazado_690946" data-name="Trazado 690946" d="M739.973,43.6c-.026-1.126.514-2.028,1.2-2.016s1.274.935,1.3,2.061-.512,2.028-1.2,2.016-1.274-.935-1.3-2.061" transform="translate(-45.623 -2.564)" fill="#5a4949"/>
            <path id="Trazado_690947" data-name="Trazado 690947" d="M740.516,37.484l4.52.672a.7.7,0,0,1,.609.753l-.165,1.355a.656.656,0,0,1-.768.549l-4.52-.672a.7.7,0,0,1-.609-.753l.165-1.355a.655.655,0,0,1,.767-.549" transform="translate(-45.598 -2.311)" fill="#904930"/>
            <path id="Trazado_690948" data-name="Trazado 690948" d="M728.533,42.332c-.026-1.126.513-2.028,1.2-2.016s1.274.935,1.3,2.061-.512,2.028-1.2,2.016-1.274-.935-1.3-2.061" transform="translate(-44.917 -2.486)" fill="#5a4949"/>
            <path id="Trazado_690949" data-name="Trazado 690949" d="M726.54,36.429l4.516.018a.711.711,0,0,1,.714.663l.055,1.375a.641.641,0,0,1-.662.658l-4.516-.019a.71.71,0,0,1-.714-.662l-.055-1.375a.639.639,0,0,1,.662-.658" transform="translate(-44.754 -2.246)" fill="#904930"/>
            <path id="Trazado_690950" data-name="Trazado 690950" d="M735.112,42.679c-1.428,3.66-1.976,6.035-.977,7.047a2.465,2.465,0,0,0,2.361.4l.013.076s-2.419,1.155-3.517.2-.043-3.565,2.12-7.72" transform="translate(-45.166 -2.631)" fill="#d27558"/>
            <path id="Trazado_690951" data-name="Trazado 690951" d="M732.49,55.7l10.371-1.2s.65,3.6-3.917,5.144S732.49,55.7,732.49,55.7" transform="translate(-45.161 -3.36)" fill="#3e2d34"/>
            <path id="Trazado_690952" data-name="Trazado 690952" d="M733.266,55.939l8.918-1.032s.56,3.1-3.368,4.423-5.55-3.391-5.55-3.391" transform="translate(-45.209 -3.385)" fill="#f9eddb"/>
            <path id="Trazado_690953" data-name="Trazado 690953" d="M751.49,47.709c1.446-2.872,3.859-4.532,5.389-3.706s1.6,3.824.151,6.7-3.858,4.532-5.389,3.706-1.6-3.824-.151-6.7" transform="translate(-46.269 -2.7)" fill="#edb984"/>
            <path id="Trazado_690954" data-name="Trazado 690954" d="M752.813,48.578c.913-1.808,2.43-2.852,3.388-2.331s1,2.41.083,4.218-2.43,2.852-3.389,2.331-1-2.41-.082-4.218" transform="translate(-46.374 -2.843)" fill="#d27558"/>
            <path id="Trazado_690955" data-name="Trazado 690955" d="M751.805,49.85c.633-1.25,1.681-1.97,2.338-1.608s.679,1.668.044,2.917-1.679,1.971-2.338,1.608-.677-1.667-.044-2.917" transform="translate(-46.324 -2.969)" fill="#edb984"/>
            <path id="Trazado_690956" data-name="Trazado 690956" d="M763.493,209.063c1.175-1.035,4.952-5.182,10.187-4.642l1.521-5.686c-4.618.326-11.23,2.762-14.229,6.879-2.077,2.85,1.322,4.505,2.521,3.449" transform="translate(-46.877 -12.253)" fill="#edb984"/>
            <path id="Trazado_690957" data-name="Trazado 690957" d="M787.921,208.2l-12.594-9.831a16.493,16.493,0,0,0-9.724,6.558,29.2,29.2,0,0,1-1.339,9.139c-1.458,3.943,19.769,9.68,23.657-5.866" transform="translate(-47.116 -12.23)" fill="#edb984"/>
            <path id="Trazado_690958" data-name="Trazado 690958" d="M757.472,219.485c1.157-.7,5.69-2.793,7.314-8.232l3.2,3.578c-.437,2.275-4.014,5.714-6.443,7.161s-5.231-1.8-4.074-2.506" transform="translate(-46.685 -13.025)" fill="#edb984"/>
            <path id="Trazado_690959" data-name="Trazado 690959" d="M765.231,220.924c1.14-.728,5.62-2.923,7.126-8.4l3.275,3.51c-.389,2.286-3.64,5.136-6.034,6.639s-5.508-1.017-4.367-1.746" transform="translate(-47.165 -13.103)" fill="#edb984"/>
            <path id="Trazado_690960" data-name="Trazado 690960" d="M772.654,221.954c1.275-.874,6.229-3.608,8.3-9.509l3.175,3.376c-.611,2.439-4.315,5.744-6.99,7.55s-5.765-.542-4.49-1.417" transform="translate(-47.619 -13.098)" fill="#edb984"/>
          </g>
        </g>
      </g>
    </g>
  </g>
</svg>
