<svg xmlns="http://www.w3.org/2000/svg" xmlns:xlink="http://www.w3.org/1999/xlink" width="154" height="154" viewBox="0 0 154 154">
  <defs>
    <filter id="Elipse_4764" x="0" y="0" width="154" height="154" filterUnits="userSpaceOnUse">
      <feOffset dy="3" input="SourceAlpha"/>
      <feGaussianBlur stdDeviation="3" result="blur"/>
      <feFlood flood-opacity="0.161"/>
      <feComposite operator="in" in2="blur"/>
      <feComposite in="SourceGraphic"/>
    </filter>
    <clipPath id="clip-path">
      <path id="path2769" d="M0-682.665H91.435v91.435H0Z" transform="translate(0 682.665)"/>
    </clipPath>
  </defs>
  <g id="Grupo_1010189" data-name="Grupo 1010189" transform="translate(-721 -1300)">
    <g transform="matrix(1, 0, 0, 1, 721, 1300)" filter="url(#Elipse_4764)">
      <circle id="Elipse_4764-2" data-name="Elipse 4764" cx="68" cy="68" r="68" transform="translate(9 6)" fill="#0098e8"/>
    </g>
    <g id="g2763" transform="translate(753 2010.664)">
      <g id="g2765" transform="translate(0 -682.665)">
        <g id="g2767" clip-path="url(#clip-path)">
          <g id="g2773" transform="translate(2.183 0)">
            <path id="path2775" d="M-468.345-301.437a14.047,14.047,0,0,0,3.532-9.331h0a14.108,14.108,0,0,0-10.694-13.687,14.053,14.053,0,0,0,3.677-9.5h0a14.1,14.1,0,0,0-14.1-14.1h-28.88a14.1,14.1,0,0,0-14.1,14.1h0a14.052,14.052,0,0,0,3.677,9.5,14.108,14.108,0,0,0-10.694,13.687h0a14.047,14.047,0,0,0,3.532,9.331,16.019,16.019,0,0,0-8.37,14.08,16.023,16.023,0,0,0,16.023,16.023H-476a16.023,16.023,0,0,0,16.023-16.023,16.019,16.019,0,0,0-8.37-14.08" transform="translate(540.776 348.055)" fill="#fea95c"/>
          </g>
          <g id="g2777" transform="translate(2.185 0)">
            <path id="path2779" d="M-117.637-465.737a15.977,15.977,0,0,0,11.331,4.694h-13.5a15.964,15.964,0,0,1-11.328-4.694,15.977,15.977,0,0,1-4.694-11.331,16.024,16.024,0,0,1,8.369-14.081,14.15,14.15,0,0,1-2.59-4.254,14.048,14.048,0,0,1-.941-5.075A14.108,14.108,0,0,1-120.3-514.164a14.126,14.126,0,0,1-2.7-4.315,14.081,14.081,0,0,1-.981-5.182,14.1,14.1,0,0,1,14.105-14.1h13.5a14.1,14.1,0,0,0-14.105,14.1,14.081,14.081,0,0,0,.981,5.182,14.12,14.12,0,0,0,2.694,4.315,14.108,14.108,0,0,0-10.694,13.687,14.112,14.112,0,0,0,.941,5.075,14.149,14.149,0,0,0,2.59,4.254,16.024,16.024,0,0,0-8.369,14.081,15.977,15.977,0,0,0,4.694,11.331" transform="translate(135.83 537.764)" fill="#fe9738"/>
          </g>
          <g id="g2781" transform="translate(26.842 67.186)">
            <path id="path2783" d="M-101.786,0h0a15.742,15.742,0,0,0-15.742,15.742v8.507h31.483V15.742A15.742,15.742,0,0,0-101.786,0" transform="translate(117.528)" fill="#8ac9fe"/>
          </g>
          <g id="g2785" transform="translate(26.842 67.186)">
            <path id="path2787" d="M-128.576-3.56a15.747,15.747,0,0,0-11.6,15.191v8.508h-8.286V11.631A15.742,15.742,0,0,1-132.719-4.111a15.732,15.732,0,0,1,4.143.551" transform="translate(148.461 4.111)" fill="#60b7ff"/>
          </g>
          <g id="g2789" transform="translate(17.887 24.106)">
            <path id="path2791" d="M-159.686-13.523v-1.449a10.136,10.136,0,0,1-6.988,2.781,10.153,10.153,0,0,1-7.616-3.423A19.089,19.089,0,0,0-178.854-3.2V1.408h-.37a5.158,5.158,0,0,0-5.158,5.158,5.158,5.158,0,0,0,5.158,5.158h1.355a19.214,19.214,0,0,0,12.354,12.184v4.6a5.83,5.83,0,0,0,5.83,5.83,5.83,5.83,0,0,0,5.83-5.83V23.906A19.175,19.175,0,0,0-140.518,5.645a19.169,19.169,0,0,1-19.168-19.168" transform="translate(184.382 15.615)" fill="#ffdfcf"/>
          </g>
          <g id="g2793" transform="translate(17.887 24.106)">
            <path id="path2795" d="M-159.686-13.523v-1.449a10.136,10.136,0,0,1-6.988,2.781,10.153,10.153,0,0,1-7.616-3.423A19.089,19.089,0,0,0-178.854-3.2V1.408h-.37a5.158,5.158,0,0,0-5.158,5.158,5.158,5.158,0,0,0,5.158,5.158h1.355a19.214,19.214,0,0,0,12.354,12.184v4.6a5.83,5.83,0,0,0,5.83,5.83,5.83,5.83,0,0,0,5.83-5.83V23.906A19.175,19.175,0,0,0-140.518,5.645,19.169,19.169,0,0,1-159.686-13.523Z" transform="translate(184.382 15.615)" fill="none" stroke="#ffdfcf" stroke-miterlimit="10" stroke-width="1.333"/>
          </g>
          <g id="g2797" transform="translate(17.887 24.106)">
            <path id="path2799" d="M-197.389-258.723v4.115a5.805,5.805,0,0,1-1.707,4.122,5.805,5.805,0,0,1-4.121,1.707,5.829,5.829,0,0,1-5.832-5.828v-4.6A19.217,19.217,0,0,1-221.4-271.4h-1.356a5.152,5.152,0,0,1-3.648-1.51,5.152,5.152,0,0,1-1.51-3.648,5.159,5.159,0,0,1,5.158-5.158h.372v-4.608a19.09,19.09,0,0,1,4.564-12.414,10.153,10.153,0,0,0,7.616,3.423c.178,0,.357-.006.535-.015a19.052,19.052,0,0,0-2.91,10.153v7.7a19.111,19.111,0,0,0,5.616,13.555,19.108,19.108,0,0,0,9.575,5.2" transform="translate(227.915 298.735)" fill="#ffcebf"/>
          </g>
          <g id="g2801" transform="translate(37.37 50.075)">
            <path id="path2803" d="M-33.711-24.252a9.323,9.323,0,0,1-4.5-1.161,1.38,1.38,0,0,1-.544-1.874,1.379,1.379,0,0,1,1.874-.544,6.547,6.547,0,0,0,6.338,0,1.38,1.38,0,0,1,1.874.544,1.38,1.38,0,0,1-.545,1.874,9.325,9.325,0,0,1-4.5,1.161" transform="translate(38.924 28.003)" fill="#fe646f"/>
          </g>
          <g id="g2805" transform="translate(35.441 36.68)">
            <path id="path2807" d="M-8.923-41.653a1.38,1.38,0,0,1-1.38-1.38v-3.682a1.38,1.38,0,0,1,1.38-1.38,1.38,1.38,0,0,1,1.38,1.38v3.682a1.38,1.38,0,0,1-1.38,1.38" transform="translate(10.303 48.095)" fill="#685e68"/>
          </g>
          <g id="g2809" transform="translate(50.647 6.009)">
            <path id="path2811" d="M-249.625-38.447V-24.89a5.946,5.946,0,0,1-5.946,5.946h-13.892l-3.828,6.916a1.765,1.765,0,0,1-3.31-.855v-6.06h-5.683a5.946,5.946,0,0,1-5.946-5.946V-38.447a5.946,5.946,0,0,1,5.946-5.946h26.713a5.946,5.946,0,0,1,5.946,5.946" transform="translate(288.23 44.393)" fill="#f9f7f8"/>
          </g>
          <g id="g2813" transform="translate(50.647 6.009)">
            <path id="path2815" d="M-66.153-164.557h-4.285a5.946,5.946,0,0,1-5.946-5.946V-184.06a5.946,5.946,0,0,1,5.946-5.946h4.285A5.946,5.946,0,0,0-72.1-184.06V-170.5a5.946,5.946,0,0,0,5.946,5.946" transform="translate(76.384 190.006)" fill="#dedbee"/>
          </g>
          <g id="g2817" transform="translate(55.935 10.062)">
            <path id="path2819" d="M-135.116-17.844h-19.516a1.38,1.38,0,0,1-1.38-1.38,1.38,1.38,0,0,1,1.38-1.38h19.516a1.38,1.38,0,0,1,1.38,1.38,1.38,1.38,0,0,1-1.38,1.38" transform="translate(156.012 20.604)" fill="#fe646f"/>
          </g>
          <g id="g2821" transform="translate(55.935 15.944)">
            <path id="path2823" d="M-135.116-17.844h-19.516a1.38,1.38,0,0,1-1.38-1.38,1.38,1.38,0,0,1,1.38-1.38h19.516a1.38,1.38,0,0,1,1.38,1.38,1.38,1.38,0,0,1-1.38,1.38" transform="translate(156.012 20.604)" fill="#fe646f"/>
          </g>
          <g id="g2825" transform="translate(55.935 21.825)">
            <path id="path2827" d="M-77.755-17.844H-88.4a1.38,1.38,0,0,1-1.38-1.38A1.38,1.38,0,0,1-88.4-20.6h10.645a1.38,1.38,0,0,1,1.38,1.38,1.38,1.38,0,0,1-1.38,1.38" transform="translate(89.78 20.604)" fill="#fe646f"/>
          </g>
        </g>
      </g>
    </g>
  </g>
</svg>
