<svg xmlns="http://www.w3.org/2000/svg" width="58" height="58" viewBox="0 0 58 58">
  <g id="Grupo_1010189" data-name="Grupo 1010189" transform="translate(-710 -851)">
    <path id="Trazado_710019" data-name="Trazado 710019" d="M29,0A29,29,0,1,1,0,29,29,29,0,0,1,29,0Z" transform="translate(710 851)" fill="#112e4c"/>
    <g id="Grupo_1005948" data-name="Grupo 1005948" transform="translate(721.022 874.492)">
      <g id="Grupo_1005945" data-name="Grupo 1005945" transform="translate(25.688)">
        <g id="Grupo_1005944" data-name="Grupo 1005944" transform="translate(3.202 3.202)">
          <path id="Trazado_710075" data-name="Trazado 710075" d="M410.2,239.439a.6.6,0,0,1-.6-.6v-8.968a1.384,1.384,0,0,0-.409-.986l-1.238-1.237a.6.6,0,0,1,.845-.845l1.238,1.237a2.572,2.572,0,0,1,.759,1.831v8.968A.6.6,0,0,1,410.2,239.439Z" transform="translate(-407.78 -226.63)" fill="#f3f0f3"/>
        </g>
        <path id="Trazado_710076" data-name="Trazado 710076" d="M370.779,189.628a1.2,1.2,0,0,1-1.69,0l-1.76-1.76a1.195,1.195,0,1,1,1.69-1.69l1.76,1.76A1.2,1.2,0,0,1,370.779,189.628Z" transform="translate(-366.979 -185.828)" fill="#685e68"/>
      </g>
      <g id="Grupo_1005947" data-name="Grupo 1005947">
        <g id="Grupo_1005946" data-name="Grupo 1005946" transform="translate(0 3.202)">
          <path id="Trazado_710077" data-name="Trazado 710077" d="M40.283,239.44a.6.6,0,0,1-.6-.6v-8.968a2.571,2.571,0,0,1,.759-1.831l1.238-1.237a.6.6,0,0,1,.845.845l-1.239,1.237a1.385,1.385,0,0,0-.409.986v8.968A.6.6,0,0,1,40.283,239.44Z" transform="translate(-39.686 -226.631)" fill="#f3f0f3"/>
        </g>
        <path id="Trazado_710078" data-name="Trazado 710078" d="M66.407,189.628a1.2,1.2,0,0,0,1.69,0l1.76-1.76a1.195,1.195,0,0,0-1.69-1.69l-1.76,1.76A1.2,1.2,0,0,0,66.407,189.628Z" transform="translate(-63.987 -185.828)" fill="#685e68"/>
      </g>
    </g>
    <g id="Grupo_1005955" data-name="Grupo 1005955" transform="translate(724.831 859.907)">
      <path id="Trazado_710081" data-name="Trazado 710081" d="M107.628,197.837l-3.461-.974-.279,0a1.641,1.641,0,0,1-1.229-1.593l-.1-.927L98,194.278v.889a1.7,1.7,0,0,1-1.238,1.635l-3.671,1.034a6.039,6.039,0,0,0-4.877,5.913v4.084h8.255l3.889-1.195,3.889,1.195h8.255v-4.083A6.039,6.039,0,0,0,107.628,197.837Z" transform="translate(-88.216 -179.03)" fill="#7a6d79"/>
      <g id="Grupo_1005951" data-name="Grupo 1005951" transform="translate(12.115 15.248)">
        <path id="Trazado_710082" data-name="Trazado 710082" d="M249.868,197.836l-3.461-.974-.457,0a1.622,1.622,0,0,1-1.149-1.635l-.062-.732-2.168-.223v2.087A1.7,1.7,0,0,0,243.81,198l3.669,1.032a6.039,6.039,0,0,1,4.878,5.914v2.888h2.39V203.75A6.04,6.04,0,0,0,249.868,197.836Z" transform="translate(-242.571 -194.277)" fill="#685e68"/>
      </g>
      <path id="Trazado_710083" data-name="Trazado 710083" d="M201.883,227.2l-7.614,0-.015,0,.955,10.968h5.735Z" transform="translate(-185.932 -209.364)" fill="#fff"/>
      <path id="Trazado_710084" data-name="Trazado 710084" d="M247.3,227.209h-3.761a1.7,1.7,0,0,0,1.163,1.137l2.267.638.347-1.77Z" transform="translate(-231.347 -209.375)" fill="#f3f0f3"/>
      <path id="Trazado_710085" data-name="Trazado 710085" d="M194.439,196.861a4.856,4.856,0,0,0,7.614,0l-.367,0a1.7,1.7,0,0,1-1.239-1.635v-.892l-4.56-.063v.889a1.7,1.7,0,0,1-1.238,1.635Z" transform="translate(-186.102 -179.029)" fill="#ffcebf"/>
      <path id="Trazado_710086" data-name="Trazado 710086" d="M245.574,196.476a1.7,1.7,0,0,1-.615-1.307v-.892h-2.39v2.087A1.7,1.7,0,0,0,243.809,198l.859.242a4.88,4.88,0,0,0,1.739-1.378l-.208-.059A1.689,1.689,0,0,1,245.574,196.476Z" transform="translate(-230.455 -179.029)" fill="#ffcebf"/>
      <g id="Grupo_1005954" data-name="Grupo 1005954" transform="translate(3.892 26.424)">
        <g id="Grupo_1005952" data-name="Grupo 1005952" transform="translate(15.311)">
          <path id="Trazado_710087" data-name="Trazado 710087" d="M333.481,339.649a.6.6,0,0,1-.6-.6v-1.783a.6.6,0,1,1,1.195,0v1.783A.6.6,0,0,1,333.481,339.649Z" transform="translate(-332.884 -336.671)" fill="#685e68"/>
        </g>
        <g id="Grupo_1005953" data-name="Grupo 1005953">
          <path id="Trazado_710088" data-name="Trazado 710088" d="M138.4,339.649a.6.6,0,0,1-.6-.6v-1.783a.6.6,0,1,1,1.195,0v1.783A.6.6,0,0,1,138.4,339.649Z" transform="translate(-137.803 -336.671)" fill="#685e68"/>
        </g>
      </g>
      <path id="Trazado_710089" data-name="Trazado 710089" d="M147.529,99.5h-1.741a1.843,1.843,0,0,0,0,3.687h1.741Z" transform="translate(-139.571 -91.687)" fill="#ffb09e"/>
      <path id="Trazado_710090" data-name="Trazado 710090" d="M296.3,99.5h1.741a1.843,1.843,0,0,1,0,3.687H296.3Z" transform="translate(-279.964 -91.687)" fill="#ffcebf"/>
      <path id="Trazado_710091" data-name="Trazado 710091" d="M185.153,9.349H174.391V2.39A2.39,2.39,0,0,1,176.781,0h5.983a2.39,2.39,0,0,1,2.39,2.39Z" transform="translate(-167.628)" fill="#7a6d79"/>
      <path id="Trazado_710092" data-name="Trazado 710092" d="M253.016,0h-2.39a2.39,2.39,0,0,1,2.39,2.39v6.96l2.39-1.54V2.39A2.39,2.39,0,0,0,253.016,0Z" transform="translate(-237.879)" fill="#685e68"/>
      <path id="Trazado_710093" data-name="Trazado 710093" d="M185.153,77.866v3a5.381,5.381,0,0,1-3.007,4.83,5.27,5.27,0,0,1-2.375.289,6.854,6.854,0,0,1-2.359-.282,5.382,5.382,0,0,1-3.022-4.838v-3a7.857,7.857,0,0,0,7.124-1.761.317.317,0,0,1,.483.073,3.461,3.461,0,0,0,3.155,1.689Z" transform="translate(-167.628 -70.057)" fill="#ffcebf"/>
      <path id="Trazado_710094" data-name="Trazado 710094" d="M218.59,89.639a3.409,3.409,0,0,1-.346-.253V93.18a4.787,4.787,0,0,1-1.194,3.38,4.97,4.97,0,0,1-4.157,1.458,5.512,5.512,0,0,0,1.758.509,5.376,5.376,0,0,0,5.983-5.347v-3A3.5,3.5,0,0,1,218.59,89.639Z" transform="translate(-203.108 -82.37)" fill="#ffb09e"/>
      <path id="Trazado_710095" data-name="Trazado 710095" d="M268.207,230.841l.933-2.8-2.723-.766-2.149,10.966h2.216l2.62-5.659a.558.558,0,0,0-.152-.665l-.57-.468A.557.557,0,0,1,268.207,230.841Z" transform="translate(-250.451 -209.437)" fill="#685e68"/>
      <path id="Trazado_710096" data-name="Trazado 710096" d="M288.81,227.621l-1.231-.346-.347,1.77,1.4.395a6.1,6.1,0,0,1,1.092.326l.575-1.724Z" transform="translate(-271.612 -209.437)" fill="#554e56"/>
      <path id="Trazado_710097" data-name="Trazado 710097" d="M159.377,228.015l.934,2.8a.557.557,0,0,1-.175.607l-.57.468a.558.558,0,0,0-.152.665l2.62,5.659h2.216L162.1,227.248Z" transform="translate(-153.777 -209.412)" fill="#685e68"/>
    </g>
    <g id="Grupo_1005956" data-name="Grupo 1005956" transform="translate(719.23 888.711)">
      <path id="Trazado_710098" data-name="Trazado 710098" d="M52.8,405.05l-2.443-8.668H80.592l-2.443,8.668a.558.558,0,0,1-.537.406H53.34A.558.558,0,0,1,52.8,405.05Z" transform="translate(-47.73 -394.076)" fill="#e19974"/>
      <path id="Trazado_710099" data-name="Trazado 710099" d="M370.114,396.382l-2.443,8.668a.558.558,0,0,1-.537.406h2.39a.558.558,0,0,0,.537-.406l2.443-8.668Z" transform="translate(-339.642 -394.076)" fill="#dc8758"/>
      <path id="Trazado_710100" data-name="Trazado 710100" d="M51.148,371.693h-33.1a1.2,1.2,0,0,1-1.195-1.195v-2.306A1.2,1.2,0,0,1,18.046,367h33.1a1.2,1.2,0,0,1,1.195,1.195V370.5A1.2,1.2,0,0,1,51.148,371.693Z" transform="translate(-16.851 -366.997)" fill="#f4d7c8"/>
      <path id="Trazado_710101" data-name="Trazado 710101" d="M425.779,367h-2.39a1.2,1.2,0,0,1,1.195,1.195V370.5a1.2,1.2,0,0,1-1.195,1.195h2.39a1.2,1.2,0,0,0,1.195-1.195v-2.306A1.2,1.2,0,0,0,425.779,367Z" transform="translate(-391.482 -366.997)" fill="#ecbba3"/>
    </g>
  </g>
</svg>
