<svg xmlns="http://www.w3.org/2000/svg" width="58" height="58" viewBox="0 0 58 58">
  <g id="Grupo_1010190" data-name="Grupo 1010190" transform="translate(-710 -930)">
    <path id="Trazado_695609" data-name="Trazado 695609" d="M29,0A29,29,0,1,1,0,29,29,29,0,0,1,29,0Z" transform="translate(710 930)" fill="#112e4c"/>
    <path id="Trazado_710062" data-name="Trazado 710062" d="M111.173,27.524a10.337,10.337,0,0,1,1.567-4.677c.854-1.348,1.981-2.515,2.733-3.929,1.518-2.854,2.205-4.9,1.919-8.121A11.993,11.993,0,0,0,105.556,0h.014A11.994,11.994,0,0,0,93.735,10.8c-.286,3.223.4,5.267,1.919,8.121.751,1.414,1.877,2.581,2.733,3.929a10.338,10.338,0,0,1,1.567,4.677Zm0,0" transform="translate(632.782 943.358)" fill="#f6df7f"/>
    <path id="Trazado_710063" data-name="Trazado 710063" d="M120.632,35.368h-.056a.626.626,0,0,1-.568-.678,10.186,10.186,0,0,1,9.96-9.088.626.626,0,1,1,0,1.251,8.911,8.911,0,0,0-8.714,7.944.625.625,0,0,1-.622.571Zm0,0" transform="translate(608.378 919.634)" fill="#fff"/>
    <path id="Trazado_710064" data-name="Trazado 710064" d="M197.743,426.668V429.8a1.877,1.877,0,0,1-1.876,1.877h-6.256a.942.942,0,0,1-.188-.013h-.006a1.843,1.843,0,0,1-1.251-.669,1.862,1.862,0,0,1-.432-1.195v-3.128Zm0,0" transform="translate(545.614 547.968)" fill="#a5a5a4"/>
    <path id="Trazado_710065" data-name="Trazado 710065" d="M167.137,178.4a.625.625,0,0,1-.625-.626V167.137h-1.877a2.5,2.5,0,1,1,0-5h.626a2.5,2.5,0,0,1,2.5,2.5v1.251h1.251a.626.626,0,1,1,0,1.251h-1.251v10.634A.626.626,0,0,1,167.137,178.4Zm-2.5-15.013a1.251,1.251,0,1,0,0,2.5h1.877v-1.251a1.251,1.251,0,0,0-1.251-1.251Zm0,0" transform="translate(569.34 793.11)" fill="#c0a842"/>
    <path id="Trazado_710066" data-name="Trazado 710066" d="M249.968,178.4a.626.626,0,0,1-.626-.626V167.137h-1.251a.626.626,0,1,1,0-1.251h1.251v-1.251a2.5,2.5,0,0,1,2.5-2.5h.626a2.5,2.5,0,1,1,0,5h-1.877v10.634A.626.626,0,0,1,249.968,178.4Zm.625-12.511h1.877a1.251,1.251,0,1,0,0-2.5h-.626a1.251,1.251,0,0,0-1.251,1.251Zm0,0" transform="translate(490.262 793.111)" fill="#c0a842"/>
    <g id="Grupo_1005943" data-name="Grupo 1005943" transform="translate(719.587 945.546)">
      <path id="Trazado_710067" data-name="Trazado 710067" d="M3.753,154.853H.626a.626.626,0,1,1,0-1.251H3.753a.626.626,0,1,1,0,1.251Zm0,0" transform="translate(0 -144.529)" fill="#f6df7f"/>
      <path id="Trazado_710068" data-name="Trazado 710068" d="M33.795,258.84a.625.625,0,0,1-.313-1.167l2.709-1.564a.625.625,0,0,1,.625,1.083l-2.709,1.564a.627.627,0,0,1-.313.084Zm0,0" transform="translate(-30.738 -239.446)" fill="#f6df7f"/>
      <path id="Trazado_710069" data-name="Trazado 710069" d="M428.111,258.789a.622.622,0,0,1-.313-.084l-2.709-1.564a.625.625,0,1,1,.626-1.083l2.709,1.564a.626.626,0,0,1-.313,1.167Zm0,0" transform="translate(-393.636 -239.395)" fill="#f6df7f"/>
      <path id="Trazado_710070" data-name="Trazado 710070" d="M456.019,154.853h-3.127a.626.626,0,1,1,0-1.251h3.127a.626.626,0,1,1,0,1.251Zm0,0" transform="translate(-419.112 -144.529)" fill="#f6df7f"/>
      <path id="Trazado_710071" data-name="Trazado 710071" d="M425.458,32.655a.626.626,0,0,1-.313-1.167l2.709-1.564a.625.625,0,1,1,.626,1.083l-2.709,1.564A.622.622,0,0,1,425.458,32.655Zm0,0" transform="translate(-393.691 -29.838)" fill="#f6df7f"/>
      <path id="Trazado_710072" data-name="Trazado 710072" d="M36.522,32.706a.628.628,0,0,1-.313-.084L33.5,31.059a.625.625,0,0,1,.626-1.083l2.709,1.564a.626.626,0,0,1-.313,1.167Zm0,0" transform="translate(-30.759 -29.889)" fill="#f6df7f"/>
    </g>
    <path id="Trazado_710073" data-name="Trazado 710073" d="M202.76,418.76a.635.635,0,0,1-.306.538l-7.575,4.454h-.006a1.843,1.843,0,0,1-1.251-.669.753.753,0,0,1,.15-.131l7.131-4.191.913-.538a.625.625,0,0,1,.857.219.66.66,0,0,1,.088.319Zm0,0" transform="translate(540.16 555.876)" fill="#5e5f62"/>
    <path id="Trazado_710074" data-name="Trazado 710074" d="M164.009,375.465h10.008a1.877,1.877,0,1,1,0,3.753H164.009a1.877,1.877,0,1,1,0-3.753Zm0,0" transform="translate(569.34 595.417)" fill="#d1d4d1"/>
  </g>
</svg>
