<svg xmlns="http://www.w3.org/2000/svg" xmlns:xlink="http://www.w3.org/1999/xlink" width="154" height="154" viewBox="0 0 154 154">
  <defs>
    <filter id="Elipse_7720" x="0" y="0" width="154" height="154" filterUnits="userSpaceOnUse">
      <feOffset dy="3" input="SourceAlpha"/>
      <feGaussianBlur stdDeviation="3" result="blur"/>
      <feFlood flood-opacity="0.161"/>
      <feComposite operator="in" in2="blur"/>
      <feComposite in="SourceGraphic"/>
    </filter>
  </defs>
  <g id="Grupo_1010192" data-name="Grupo 1010192" transform="translate(-122 10400)">
    <g transform="matrix(1, 0, 0, 1, 122, -10400)" filter="url(#Elipse_7720)">
      <circle id="Elipse_7720-2" data-name="Elipse 7720" cx="68" cy="68" r="68" transform="translate(9 6)" fill="#0098e8"/>
    </g>
    <path id="Trazado_710152" data-name="Trazado 710152" d="M53.127,3.384A3.385,3.385,0,0,0,49.743,0H3.384A3.385,3.385,0,0,0,0,3.384V74.872A2.532,2.532,0,0,0,2.532,77.4H50.6a2.532,2.532,0,0,0,2.532-2.532Zm0,0" transform="translate(166 -10364.703)" fill="#fff"/>
    <path id="Trazado_710153" data-name="Trazado 710153" d="M81.644,379.495H43.634a1.134,1.134,0,1,1,0-2.268h38.01a1.134,1.134,0,1,1,0,2.268Zm0,0" transform="translate(129.925 -10684.9)" fill="#546e7a"/>
    <path id="Trazado_710154" data-name="Trazado 710154" d="M49.743,0H47.061a3.464,3.464,0,0,1,.019.361V71.849a2.532,2.532,0,0,1-2.532,2.532H0v.491A2.532,2.532,0,0,0,2.532,77.4H50.6a2.532,2.532,0,0,0,2.532-2.532V3.384A3.385,3.385,0,0,0,49.743,0Zm0,0" transform="translate(166 -10364.703)" fill="#dbdbdb"/>
    <g id="Grupo_1005962" data-name="Grupo 1005962" transform="translate(172.425 -10343.89)">
      <path id="Trazado_710155" data-name="Trazado 710155" d="M80.954,139.94H43.634a1.134,1.134,0,1,1,0-2.268h37.32a1.134,1.134,0,0,1,0,2.268Zm0,0" transform="translate(-42.5 -137.672)" fill="#546e7a"/>
      <path id="Trazado_710156" data-name="Trazado 710156" d="M80.954,199.831H43.634a1.134,1.134,0,1,1,0-2.268h37.32a1.134,1.134,0,1,1,0,2.268Zm0,0" transform="translate(-42.5 -188.509)" fill="#546e7a"/>
      <path id="Trazado_710157" data-name="Trazado 710157" d="M78.059,259.717H43.634a1.134,1.134,0,0,1,0-2.268H78.059a1.134,1.134,0,0,1,0,2.268Zm0,0" transform="translate(-42.5 -239.341)" fill="#546e7a"/>
      <path id="Trazado_710158" data-name="Trazado 710158" d="M72.832,319.6h-29.2a1.134,1.134,0,1,1,0-2.268h29.2a1.134,1.134,0,1,1,0,2.268Zm0,0" transform="translate(-42.5 -290.174)" fill="#546e7a"/>
      <path id="Trazado_710159" data-name="Trazado 710159" d="M112.586,439.381h-32.5a1.134,1.134,0,0,1,0-2.268h32.5a1.134,1.134,0,0,1,0,2.268Zm0,0" transform="translate(-73.442 -391.843)" fill="#546e7a"/>
    </g>
    <path id="Trazado_710160" data-name="Trazado 710160" d="M242.065,91a2.538,2.538,0,0,1,3.467-.93l3.623,2.092a2.538,2.538,0,0,1,.929,3.467L229.315,131.6a5.265,5.265,0,0,1-1.038,1.283l-7.517,6.778a1.316,1.316,0,0,1-2.168-1.251l2.112-9.9a5.286,5.286,0,0,1,.592-1.54Zm0,0" transform="translate(-19.52 -10440.868)" fill="#42a5f5"/>
    <path id="Trazado_710161" data-name="Trazado 710161" d="M249.155,92.162l-3.623-2.092a2.538,2.538,0,0,0-3.467.93l-.243.42,1.286.742a2.538,2.538,0,0,1,.929,3.467L223.269,131.6a5.265,5.265,0,0,1-1.038,1.283l-3.044,2.744-.594,2.782a1.316,1.316,0,0,0,2.168,1.251l7.517-6.778a5.276,5.276,0,0,0,1.038-1.283l20.768-35.971a2.539,2.539,0,0,0-.929-3.467Zm0,0" transform="translate(-19.52 -10440.867)" fill="#1976d2"/>
    <path id="Trazado_710162" data-name="Trazado 710162" d="M362.281,94.074,364.056,91a2.539,2.539,0,0,1,3.467-.93l3.622,2.092a2.538,2.538,0,0,1,.93,3.467L370.3,98.7Zm0,0" transform="translate(-141.511 -10440.868)" fill="#546e7a"/>
    <path id="Trazado_710163" data-name="Trazado 710163" d="M372.657,91l-.243.42,1.286.742a2.538,2.538,0,0,1,.929,3.467l-.263.455L378.9,98.7l1.775-3.074a2.542,2.542,0,0,0-.929-3.467l-3.623-2.091A2.537,2.537,0,0,0,372.657,91Zm0,0" transform="translate(-150.112 -10440.866)" fill="#37474f"/>
    <path id="Trazado_710164" data-name="Trazado 710164" d="M229.315,340.688a5.266,5.266,0,0,1-1.038,1.283l-7.517,6.778a1.316,1.316,0,0,1-2.168-1.251l2.112-9.9a5.269,5.269,0,0,1,.592-1.54Zm0,0" transform="translate(-19.519 -10649.956)" fill="#ffab91"/>
    <path id="Trazado_710165" data-name="Trazado 710165" d="M224.779,349.359l-1.512,2.618a5.264,5.264,0,0,1-1.038,1.283L219.186,356l-.594,2.782a1.316,1.316,0,0,0,2.168,1.251c8.171-7.368,7.6-6.843,7.813-7.067a5.253,5.253,0,0,0,.741-.993Zm0,0" transform="translate(-19.519 -10661.246)" fill="#ff8a65"/>
    <path id="Trazado_710166" data-name="Trazado 710166" d="M220.761,392.834l2.723-2.456A6.8,6.8,0,0,0,219.358,388l-.765,3.586a1.316,1.316,0,0,0,2.168,1.252Zm0,0" transform="translate(-19.519 -10694.041)" fill="#546e7a"/>
    <path id="Trazado_710167" data-name="Trazado 710167" d="M222.247,390.455a6.815,6.815,0,0,0-1.144-.526,6.836,6.836,0,0,1,.552.409,1.134,1.134,0,0,1,.046,1.72l-1.841,1.661a1.314,1.314,0,0,1-.579.309,1.319,1.319,0,0,0,2.091.446l2.723-2.456A6.774,6.774,0,0,0,222.247,390.455Zm0,0" transform="translate(-20.13 -10695.683)" fill="#37474f"/>
    <path id="Trazado_710168" data-name="Trazado 710168" d="M53.127,3.384A3.385,3.385,0,0,0,49.743,0H3.384A3.385,3.385,0,0,0,0,3.384v9.509H53.127Zm0,0" transform="translate(166 -10364.703)" fill="#ffca28"/>
    <path id="Trazado_710169" data-name="Trazado 710169" d="M49.743,0H47.06a3.464,3.464,0,0,1,.019.361V2.577a6.159,6.159,0,0,1-6.159,6.159H0v4.157H53.127V3.384A3.385,3.385,0,0,0,49.743,0Zm0,0" transform="translate(166.001 -10364.703)" fill="#ffa000"/>
    <path id="Trazado_710170" data-name="Trazado 710170" d="M24.772,372.92A24.772,24.772,0,0,1,0,348.149a10.26,10.26,0,0,0,10.261,10.26h1.922a2.329,2.329,0,0,1,2.329,2.329v1.922A10.261,10.261,0,0,0,24.772,372.92Zm0,0" transform="translate(166 -10660.219)" fill="#b0bec5"/>
    <path id="Trazado_710171" data-name="Trazado 710171" d="M7.256,365.665A24.769,24.769,0,0,1,0,348.149v22.239a2.532,2.532,0,0,0,2.532,2.532H24.771a24.771,24.771,0,0,1-17.516-7.256Zm0,0" transform="translate(166 -10660.219)" fill="#dbdbdb"/>
  </g>
</svg>
