<svg xmlns="http://www.w3.org/2000/svg" xmlns:xlink="http://www.w3.org/1999/xlink" width="154" height="154" viewBox="0 0 154 154">
  <defs>
    <filter id="Elipse_7724" x="0" y="0" width="154" height="154" filterUnits="userSpaceOnUse">
      <feOffset dy="3" input="SourceAlpha"/>
      <feGaussianBlur stdDeviation="3" result="blur"/>
      <feFlood flood-opacity="0.161"/>
      <feComposite operator="in" in2="blur"/>
      <feComposite in="SourceGraphic"/>
    </filter>
  </defs>
  <g id="Grupo_1010193" data-name="Grupo 1010193" transform="translate(-480.795 10400)">
    <g transform="matrix(1, 0, 0, 1, 480.79, -10400)" filter="url(#Elipse_7724)">
      <circle id="Elipse_7724-2" data-name="Elipse 7724" cx="68" cy="68" r="68" transform="translate(9 6)" fill="#0098e8"/>
    </g>
    <g id="Icons" transform="translate(518.795 -10364.223)">
      <path id="Trazado_710172" data-name="Trazado 710172" d="M62.216,70.907A2.626,2.626,0,0,1,59.6,73.525H4.618A2.626,2.626,0,0,1,2,70.907V12H62.216Z" transform="translate(0.309 3.4)" fill="#f9eab0"/>
      <path id="Trazado_710173" data-name="Trazado 710173" d="M69.523,23.427A6.645,6.645,0,0,1,67.6,28.061L63,32.669,58.383,37.29l-24.2,24.27-4.621-4.621L24.95,52.318l24.217-24.27,4.608-4.621,4.346-4.359a6.781,6.781,0,0,1,9.7-.052A6.638,6.638,0,0,1,69.523,23.427Z" transform="translate(7.402 4.945)" fill="#d1d4d1"/>
      <path id="Trazado_710174" data-name="Trazado 710174" d="M3.618,1h57.6a2.618,2.618,0,0,1,2.618,2.618V15.4a1.309,1.309,0,0,1-1.309,1.309H2.309A1.309,1.309,0,0,1,1,15.4V3.618A2.618,2.618,0,0,1,3.618,1Z" fill="#4482c3"/>
      <ellipse id="Elipse_7721" data-name="Elipse 7721" cx="2.5" cy="3" rx="2.5" ry="3" transform="translate(30 5.925)" fill="#f9eab0"/>
      <ellipse id="Elipse_7722" data-name="Elipse 7722" cx="2.5" cy="3" rx="2.5" ry="3" transform="translate(13 5.925)" fill="#f9eab0"/>
      <ellipse id="Elipse_7723" data-name="Elipse 7723" cx="2.5" cy="3" rx="2.5" ry="3" transform="translate(47 5.925)" fill="#f9eab0"/>
      <path id="Trazado_710175" data-name="Trazado 710175" d="M40,61.472V53.618A2.618,2.618,0,0,1,42.618,51h7.854Z" transform="translate(12.053 15.452)" fill="#f3d55b"/>
      <g id="Grupo_1005963" data-name="Grupo 1005963" transform="translate(7.545 21.945)">
        <path id="Trazado_710176" data-name="Trazado 710176" d="M54.435,19.618H7.309a1.309,1.309,0,0,1,0-2.618H54.435a1.309,1.309,0,0,1,0,2.618Z" transform="translate(-6 -17)" fill="#547580"/>
        <path id="Trazado_710177" data-name="Trazado 710177" d="M50.508,25.618H7.309a1.309,1.309,0,0,1,0-2.618h43.2a1.309,1.309,0,0,1,0,2.618Z" transform="translate(-6 -15.146)" fill="#547580"/>
        <path id="Trazado_710178" data-name="Trazado 710178" d="M42.653,31.618H7.309a1.309,1.309,0,0,1,0-2.618H42.653a1.309,1.309,0,1,1,0,2.618Z" transform="translate(-6 -13.291)" fill="#547580"/>
        <path id="Trazado_710179" data-name="Trazado 710179" d="M34.8,37.618H7.309a1.309,1.309,0,1,1,0-2.618H34.8a1.309,1.309,0,1,1,0,2.618Z" transform="translate(-6 -11.437)" fill="#547580"/>
        <path id="Trazado_710180" data-name="Trazado 710180" d="M26.945,43.618H7.309a1.309,1.309,0,1,1,0-2.618H26.945a1.309,1.309,0,1,1,0,2.618Z" transform="translate(-6 -9.583)" fill="#547580"/>
        <path id="Trazado_710181" data-name="Trazado 710181" d="M24.327,49.618H7.309a1.309,1.309,0,1,1,0-2.618H24.327a1.309,1.309,0,1,1,0,2.618Z" transform="translate(-6 -7.729)" fill="#547580"/>
        <path id="Trazado_710182" data-name="Trazado 710182" d="M37.221,55.618H7.309a1.309,1.309,0,0,1,0-2.618H37.221a1.309,1.309,0,0,1,0,2.618Z" transform="translate(-6 -5.874)" fill="#547580"/>
      </g>
      <path id="Trazado_710183" data-name="Trazado 710183" d="M35.09,53.222l-11.271,3.8a1.373,1.373,0,0,1-1.741-1.754L25.861,43.98,30.469,48.6Z" transform="translate(6.49 13.283)" fill="#f9c795"/>
      <path id="Trazado_710184" data-name="Trazado 710184" d="M50.472,51v7.854a2.626,2.626,0,0,1-2.618,2.618H40Z" transform="translate(12.053 15.452)" fill="#f0c419"/>
      <path id="Trazado_710185" data-name="Trazado 710185" d="M57.3,33.591l-24.2,24.27L28.47,53.24,52.687,28.97Z" transform="translate(8.49 8.644)" fill="#f0c419"/>
      <path id="Trazado_710186" data-name="Trazado 710186" d="M53.775,30.061,29.558,54.331,24.95,49.71,49.167,25.44Z" transform="translate(7.402 7.553)" fill="#f29c1f"/>
      <path id="Trazado_710187" data-name="Trazado 710187" d="M62.718,23.427a6.645,6.645,0,0,1-1.924,4.634L56.2,32.669,46.97,23.427l4.346-4.359a6.781,6.781,0,0,1,9.7-.052,6.638,6.638,0,0,1,1.7,4.411Z" transform="translate(14.207 4.945)" fill="#fb7b76"/>
      <path id="Trazado_710188" data-name="Trazado 710188" d="M0,0H6.531V13.056H0Z" transform="translate(56.55 33) rotate(-45)" fill="#d1d4d1"/>
    </g>
  </g>
</svg>
