<svg xmlns="http://www.w3.org/2000/svg" xmlns:xlink="http://www.w3.org/1999/xlink" width="143" height="143" viewBox="0 0 143 143">
  <defs>
    <filter id="Trazado_715299" x="0" y="0" width="143" height="143" filterUnits="userSpaceOnUse">
      <feOffset dy="3" input="SourceAlpha"/>
      <feGaussianBlur stdDeviation="3" result="blur"/>
      <feFlood flood-opacity="0.161"/>
      <feComposite operator="in" in2="blur"/>
      <feComposite in="SourceGraphic"/>
    </filter>
  </defs>
  <g id="Grupo_1010189" data-name="Grupo 1010189" transform="translate(3217 8690.499)">
    <g id="Grupo_944838" data-name="Grupo 944838" transform="translate(-3207.978 -8684.367)">
      <g transform="matrix(1, 0, 0, 1, -9.02, -6.13)" filter="url(#Trazado_715299)">
        <path id="Trazado_715299-2" data-name="Trazado 715299" d="M62.5,0A62.5,62.5,0,1,1,0,62.5,62.5,62.5,0,0,1,62.5,0Z" transform="translate(9 6)" fill="#0098e8"/>
      </g>
      <g id="_1" data-name="1" transform="translate(30.371 15.684)">
        <path id="Trazado_688485" data-name="Trazado 688485" d="M260.644,42.208V7.193a7.193,7.193,0,1,0-14.386,0V34.871L230.066,49.257l1.806,32.751,21.946-20.14V56.45Z" transform="translate(-203.1 0)" fill="#ffcaba"/>
        <path id="Trazado_688486" data-name="Trazado 688486" d="M230.066,174.856l1.806-14.386a7.193,7.193,0,1,1,14.386,0v14.386Z" transform="translate(-203.1 -125.599)" fill="#ffdccc"/>
        <path id="Trazado_688487" data-name="Trazado 688487" d="M238.894,283.334a27.5,27.5,0,0,0,27.5-27.5V240.137a7.193,7.193,0,0,0-7.193-7.193h-20.14a7.193,7.193,0,0,0,0,14.386h12.947v5.417a20.14,20.14,0,0,0-20.14,20.14l-1.806,5.154,1.806,5.293Z" transform="translate(-203.1 -190.88)" fill="#ffbaa5"/>
        <path id="Trazado_688488" data-name="Trazado 688488" d="M80.73,272.8v15.676a27.5,27.5,0,0,0,27.5,27.5H109.5v-43.2Z" transform="translate(-80.73 -223.522)" fill="#ffdccc"/>
        <path id="Trazado_688489" data-name="Trazado 688489" d="M102.309,169.211a7.193,7.193,0,0,0-7.193,7.193v5.754a7.193,7.193,0,1,0-14.386,0v5.754a7.193,7.193,0,1,0,14.386,0,7.193,7.193,0,1,0,14.386,0V176.4A7.193,7.193,0,0,0,102.309,169.211Z" transform="translate(-80.73 -138.656)" fill="#ffece3"/>
      </g>
    </g>
  </g>
</svg>
