<svg xmlns="http://www.w3.org/2000/svg" xmlns:xlink="http://www.w3.org/1999/xlink" width="143" height="143" viewBox="0 0 143 143">
  <defs>
    <filter id="Trazado_715300" x="0" y="0" width="143" height="143" filterUnits="userSpaceOnUse">
      <feOffset dy="3" input="SourceAlpha"/>
      <feGaussianBlur stdDeviation="3" result="blur"/>
      <feFlood flood-opacity="0.161"/>
      <feComposite operator="in" in2="blur"/>
      <feComposite in="SourceGraphic"/>
    </filter>
  </defs>
  <g id="Grupo_1010191" data-name="Grupo 1010191" transform="translate(2443 8690.499)">
    <g id="Grupo_944840" data-name="Grupo 944840" transform="translate(-2433.85 -8684.367)">
      <g transform="matrix(1, 0, 0, 1, -9.15, -6.13)" filter="url(#Trazado_715300)">
        <path id="Trazado_715300-2" data-name="Trazado 715300" d="M62.5,0A62.5,62.5,0,1,1,0,62.5,62.5,62.5,0,0,1,62.5,0Z" transform="translate(9 6)" fill="#0098e8"/>
      </g>
      <g id="_2" data-name="2" transform="translate(26.78 15.685)">
        <g id="Grupo_944835" data-name="Grupo 944835" transform="translate(0 0)">
          <path id="Trazado_688490" data-name="Trazado 688490" d="M223.87,42.2,216.632,5.809a7.216,7.216,0,1,0-14.154,2.816l5.535,27.828.139,1.415-1.811,23.71,1.811,20.69,22.016-20.2V56.629l8.3-13.828,6.224-31.29A7.216,7.216,0,1,0,230.534,8.7Z" transform="translate(-176.849 0)" fill="#ffcaba"/>
          <path id="Trazado_688492" data-name="Trazado 688492" d="M102.689,318.121A27.591,27.591,0,0,1,75.1,290.53v-15.3h28.863v42.89Z" transform="translate(-72.658 -225.374)" fill="#ffdccc"/>
          <path id="Trazado_688493" data-name="Trazado 688493" d="M93.775,178.76c-3.985,0-4.246-5.228-4.246-1.243v5.773a7.216,7.216,0,0,0-14.432,0v5.773a7.216,7.216,0,1,0,14.432,0,7.216,7.216,0,1,0,14.432,0l-7.216-2.212C96.746,182.865,97.76,178.76,93.775,178.76Z" transform="translate(-72.658 -139.205)" fill="#ffece3"/>
          <path id="Trazado_699975" data-name="Trazado 699975" d="M21.532,42.2,14.294,5.809A7.216,7.216,0,1,0,.14,8.625L5.675,36.453l.139,1.415L4,61.578l8.361,25.7L27.83,62.064V56.629C43.128,7.6,21.648,45.338,21.532,42.2Z" transform="translate(0 8.275) rotate(-13)" fill="#ffcaba"/>
          <path id="Trazado_688491" data-name="Trazado 688491" d="M233.29,283.5A27.591,27.591,0,0,0,260.882,255.9V240.161a7.216,7.216,0,0,0-7.216-7.216h-20.2a7.216,7.216,0,0,0,0,14.432H246.45v5.434a20.2,20.2,0,0,0-20.2,20.2l-1.811,4.923,1.811,5.556Z" transform="translate(-194.942 -190.748)" fill="#ffbaa5"/>
        </g>
      </g>
    </g>
  </g>
</svg>
