<svg xmlns="http://www.w3.org/2000/svg" xmlns:xlink="http://www.w3.org/1999/xlink" width="394.097" height="65" viewBox="0 0 394.097 65">
  <defs>
    <filter id="Uni贸n_1" x="0" y="0" width="394.097" height="65" filterUnits="userSpaceOnUse">
      <feOffset dy="3" input="SourceAlpha"/>
      <feGaussianBlur stdDeviation="3" result="blur"/>
      <feFlood flood-opacity="0.161"/>
      <feComposite operator="in" in2="blur"/>
      <feComposite in="SourceGraphic"/>
    </filter>
  </defs>
  <g id="Grupo_1010284" data-name="Grupo 1010284" transform="translate(-603 -3269.816)">
    <g id="Grupo_1003570" data-name="Grupo 1003570" transform="translate(612 3272.816)">
      <g transform="matrix(1, 0, 0, 1, -9, -3)" filter="url(#Uni贸n_1)">
        <path id="Uni贸n_1-2" data-name="Uni贸n 1" d="M177,37h21.723L187.862,50ZM17,37A17,17,0,1,1,17,3H359.1a17,17,0,0,1,0,34Z" transform="translate(9 3)" fill="#112e4c"/>
      </g>
    </g>
    <path id="Trazado_725972" data-name="Trazado 725972" d="M-42.913-12.8l3.287,9.281,3.27-9.281h3.463V0h-2.646V-3.5l.264-6.038L-38.729,0H-40.54l-3.445-9.527.264,6.029V0h-2.637V-12.8Zm11.76,7.954a5.64,5.64,0,0,1,.545-2.522,3.989,3.989,0,0,1,1.569-1.714,4.577,4.577,0,0,1,2.377-.606A4.33,4.33,0,0,1-23.52-8.508a4.727,4.727,0,0,1,1.358,3.2l.018.65a4.97,4.97,0,0,1-1.222,3.511A4.247,4.247,0,0,1-26.644.176a4.268,4.268,0,0,1-3.283-1.318,5.058,5.058,0,0,1-1.226-3.586Zm2.54.18a3.555,3.555,0,0,0,.51,2.073,1.682,1.682,0,0,0,1.459.717A1.686,1.686,0,0,0-25.2-2.581a3.89,3.89,0,0,0,.519-2.267,3.519,3.519,0,0,0-.519-2.06,1.686,1.686,0,0,0-1.459-.731,1.658,1.658,0,0,0-1.441.726A3.955,3.955,0,0,0-28.613-4.662Zm7.638-.163a5.731,5.731,0,0,1,1-3.542,3.237,3.237,0,0,1,2.729-1.318,2.913,2.913,0,0,1,2.294,1.037V-13.5h2.549V0H-14.7l-.123-1.011A2.989,2.989,0,0,1-17.266.176,3.228,3.228,0,0,1-19.96-1.147,5.916,5.916,0,0,1-20.975-4.825Zm2.54.189a3.754,3.754,0,0,0,.466,2.051,1.517,1.517,0,0,0,1.354.713,1.7,1.7,0,0,0,1.661-.995V-6.625A1.675,1.675,0,0,0-16.6-7.62Q-18.435-7.62-18.435-4.636ZM-4.742-.967A3.185,3.185,0,0,1-7.343.176,3,3,0,0,1-9.677-.7,3.752,3.752,0,0,1-10.5-3.278V-9.51h2.54v6.151q0,1.487,1.354,1.487a1.834,1.834,0,0,0,1.775-.9V-9.51h2.549V0H-4.671ZM2.316,0H-.233V-13.5H2.316Zm7.6,0a2.821,2.821,0,0,1-.255-.853A3.073,3.073,0,0,1,7.264.176,3.376,3.376,0,0,1,4.948-.633,2.6,2.6,0,0,1,4.03-2.672,2.687,2.687,0,0,1,5.15-4.992,5.529,5.529,0,0,1,8.389-5.81H9.558v-.545A1.567,1.567,0,0,0,9.22-7.409a1.331,1.331,0,0,0-1.068-.4A1.513,1.513,0,0,0,7.146-7.5a1.045,1.045,0,0,0-.365.844H4.241a2.551,2.551,0,0,1,.51-1.529,3.37,3.37,0,0,1,1.441-1.1,5.253,5.253,0,0,1,2.092-.4,4.15,4.15,0,0,1,2.791.883,3.09,3.09,0,0,1,1.033,2.483V-2.2a4.546,4.546,0,0,0,.378,2.048V0Zm-2.1-1.767a2.188,2.188,0,0,0,1.037-.25,1.645,1.645,0,0,0,.7-.672V-4.324H8.609q-1.907,0-2.03,1.318l-.009.149a1.017,1.017,0,0,0,.334.782A1.3,1.3,0,0,0,7.818-1.767Zm10.2-.105a1.666,1.666,0,0,0,1.143-.387,1.355,1.355,0,0,0,.457-1.028h2.382a3.258,3.258,0,0,1-.527,1.771A3.48,3.48,0,0,1,20.048-.268a4.442,4.442,0,0,1-1.991.444,4.129,4.129,0,0,1-3.217-1.3A5.13,5.13,0,0,1,13.663-4.7v-.167a5.071,5.071,0,0,1,1.169-3.507,4.08,4.08,0,0,1,3.208-1.31A4,4,0,0,1,20.9-8.67a3.594,3.594,0,0,1,1.094,2.7H19.613a1.745,1.745,0,0,0-.457-1.206A1.524,1.524,0,0,0,18-7.638a1.53,1.53,0,0,0-1.34.647,3.749,3.749,0,0,0-.453,2.1v.264a3.8,3.8,0,0,0,.448,2.113A1.549,1.549,0,0,0,18.013-1.872ZM26.125,0H23.577V-9.51h2.549Zm-2.7-11.971a1.251,1.251,0,0,1,.382-.94,1.436,1.436,0,0,1,1.042-.369,1.44,1.44,0,0,1,1.037.369,1.244,1.244,0,0,1,.387.94,1.247,1.247,0,0,1-.391.949,1.443,1.443,0,0,1-1.033.369,1.443,1.443,0,0,1-1.033-.369A1.247,1.247,0,0,1,23.427-11.971Zm4.395,7.128a5.64,5.64,0,0,1,.545-2.522,3.989,3.989,0,0,1,1.569-1.714,4.577,4.577,0,0,1,2.377-.606,4.33,4.33,0,0,1,3.142,1.178,4.727,4.727,0,0,1,1.358,3.2l.018.65a4.97,4.97,0,0,1-1.222,3.511A4.247,4.247,0,0,1,32.331.176a4.268,4.268,0,0,1-3.283-1.318,5.058,5.058,0,0,1-1.226-3.586Zm2.54.18a3.555,3.555,0,0,0,.51,2.073,1.682,1.682,0,0,0,1.459.717,1.686,1.686,0,0,0,1.441-.709,3.89,3.89,0,0,0,.519-2.267,3.519,3.519,0,0,0-.519-2.06,1.686,1.686,0,0,0-1.459-.731,1.658,1.658,0,0,0-1.441.726A3.955,3.955,0,0,0,30.362-4.662ZM32.814-13.5h2.769l-2.435,2.725H31.083Zm7.919,3.99.079,1.1a3.32,3.32,0,0,1,2.733-1.274A2.759,2.759,0,0,1,45.8-8.8a4.142,4.142,0,0,1,.756,2.654V0h-2.54V-6.082a1.648,1.648,0,0,0-.352-1.173,1.574,1.574,0,0,0-1.169-.365,1.747,1.747,0,0,0-1.608.914V0h-2.54V-9.51Z" transform="translate(800 3300.674)" fill="#fff"/>
  </g>
</svg>
