<svg xmlns="http://www.w3.org/2000/svg" xmlns:xlink="http://www.w3.org/1999/xlink" width="477.999" height="65" viewBox="0 0 477.999 65">
  <defs>
    <filter id="Uni贸n_1" x="0" y="0" width="477.999" height="65" filterUnits="userSpaceOnUse">
      <feOffset dy="3" input="SourceAlpha"/>
      <feGaussianBlur stdDeviation="3" result="blur"/>
      <feFlood flood-opacity="0.161"/>
      <feComposite operator="in" in2="blur"/>
      <feComposite in="SourceGraphic"/>
    </filter>
  </defs>
  <g id="Grupo_1013529" data-name="Grupo 1013529" transform="translate(-561.001 -5076.848)">
    <g id="Grupo_1003570" data-name="Grupo 1003570" transform="translate(0 2640.847)">
      <g transform="matrix(1, 0, 0, 1, 561, 2436)" filter="url(#Uni贸n_1)">
        <path id="Uni贸n_1-2" data-name="Uni贸n 1" d="M-589,12780h23l-11.5,14Zm-202.5,0a16.5,16.5,0,0,1-16.5-16.5,16.5,16.5,0,0,1,16.5-16.5h427a16.5,16.5,0,0,1,16.5,16.5,16.5,16.5,0,0,1-16.5,16.5Z" transform="translate(817 -12741)" fill="#112e4c"/>
      </g>
    </g>
    <path id="Trazado_735019" data-name="Trazado 735019" d="M-196.765-4.685h-2.1V0H-201.5V-12.8h4.755a5.375,5.375,0,0,1,3.5,1.011,3.488,3.488,0,0,1,1.23,2.856,3.937,3.937,0,0,1-.567,2.184A3.866,3.866,0,0,1-194.3-5.353l2.769,5.229V0h-2.83Zm-2.1-2.136h2.127a2.178,2.178,0,0,0,1.538-.505,1.806,1.806,0,0,0,.545-1.393,1.933,1.933,0,0,0-.514-1.424,2.137,2.137,0,0,0-1.578-.519h-2.118Zm13.061,7a4.668,4.668,0,0,1-3.406-1.283,4.561,4.561,0,0,1-1.314-3.419v-.246a5.745,5.745,0,0,1,.554-2.562,4.064,4.064,0,0,1,1.569-1.74,4.4,4.4,0,0,1,2.316-.611,3.947,3.947,0,0,1,3.072,1.23,5,5,0,0,1,1.121,3.489v1.037h-6.056a2.36,2.36,0,0,0,.743,1.494,2.245,2.245,0,0,0,1.569.563,2.742,2.742,0,0,0,2.294-1.063l1.248,1.4a3.813,3.813,0,0,1-1.547,1.261A5.075,5.075,0,0,1-185.805.176Zm-.29-7.813a1.587,1.587,0,0,0-1.226.512,2.651,2.651,0,0,0-.6,1.466h3.533v-.2a1.891,1.891,0,0,0-.457-1.311A1.638,1.638,0,0,0-186.1-7.638Zm9.6,5.766a1.666,1.666,0,0,0,1.143-.387,1.355,1.355,0,0,0,.457-1.028h2.382a3.258,3.258,0,0,1-.527,1.771,3.48,3.48,0,0,1-1.419,1.248,4.442,4.442,0,0,1-1.991.444,4.129,4.129,0,0,1-3.217-1.3A5.13,5.13,0,0,1-180.848-4.7v-.167a5.071,5.071,0,0,1,1.169-3.507,4.08,4.08,0,0,1,3.208-1.31A4,4,0,0,1-173.61-8.67a3.594,3.594,0,0,1,1.094,2.7H-174.9a1.745,1.745,0,0,0-.457-1.206,1.524,1.524,0,0,0-1.16-.464,1.53,1.53,0,0,0-1.34.647,3.749,3.749,0,0,0-.453,2.1v.264a3.8,3.8,0,0,0,.448,2.113A1.549,1.549,0,0,0-176.5-1.872Zm11.127.905a3.185,3.185,0,0,1-2.6,1.143A3,3,0,0,1-170.306-.7a3.752,3.752,0,0,1-.822-2.575V-9.51h2.54v6.151q0,1.487,1.354,1.487a1.834,1.834,0,0,0,1.775-.9V-9.51h2.549V0H-165.3Zm9.721-6.161a6.9,6.9,0,0,0-.914-.07,1.86,1.86,0,0,0-1.89.976V0h-2.54V-9.51h2.4l.07,1.134a2.354,2.354,0,0,1,2.118-1.31,2.662,2.662,0,0,1,.791.114Zm6.372,4.5a.818.818,0,0,0-.461-.734,5.241,5.241,0,0,0-1.481-.479q-3.393-.712-3.393-2.883a2.613,2.613,0,0,1,1.05-2.114,4.237,4.237,0,0,1,2.747-.848,4.56,4.56,0,0,1,2.9.853,2.687,2.687,0,0,1,1.085,2.215h-2.54a1.229,1.229,0,0,0-.352-.9,1.488,1.488,0,0,0-1.1-.356,1.52,1.52,0,0,0-.993.29.916.916,0,0,0-.352.738.783.783,0,0,0,.4.681,4.114,4.114,0,0,0,1.349.448,11.019,11.019,0,0,1,1.6.426,2.628,2.628,0,0,1,2.013,2.558,2.481,2.481,0,0,1-1.116,2.1,4.815,4.815,0,0,1-2.883.8A5.029,5.029,0,0,1-152.93-.25a3.561,3.561,0,0,1-1.455-1.169,2.716,2.716,0,0,1-.527-1.6h2.408a1.326,1.326,0,0,0,.5,1.037,1.987,1.987,0,0,0,1.248.36,1.839,1.839,0,0,0,1.1-.277A.861.861,0,0,0-149.278-2.628Zm3.709-2.215a5.64,5.64,0,0,1,.545-2.522,3.989,3.989,0,0,1,1.569-1.714,4.577,4.577,0,0,1,2.377-.606,4.33,4.33,0,0,1,3.142,1.178,4.727,4.727,0,0,1,1.358,3.2l.018.65a4.97,4.97,0,0,1-1.222,3.511A4.247,4.247,0,0,1-141.06.176a4.268,4.268,0,0,1-3.283-1.318,5.058,5.058,0,0,1-1.226-3.586Zm2.54.18a3.555,3.555,0,0,0,.51,2.073,1.682,1.682,0,0,0,1.459.717,1.686,1.686,0,0,0,1.441-.709,3.89,3.89,0,0,0,.519-2.267,3.519,3.519,0,0,0-.519-2.06,1.686,1.686,0,0,0-1.459-.731,1.658,1.658,0,0,0-1.441.726A3.955,3.955,0,0,0-143.029-4.662Zm13.184,2.035a.818.818,0,0,0-.461-.734,5.241,5.241,0,0,0-1.481-.479q-3.393-.712-3.393-2.883a2.613,2.613,0,0,1,1.05-2.114,4.237,4.237,0,0,1,2.747-.848,4.56,4.56,0,0,1,2.9.853A2.687,2.687,0,0,1-127.4-6.618h-2.54a1.229,1.229,0,0,0-.352-.9,1.488,1.488,0,0,0-1.1-.356,1.52,1.52,0,0,0-.993.29.916.916,0,0,0-.352.738.783.783,0,0,0,.4.681,4.114,4.114,0,0,0,1.349.448,11.019,11.019,0,0,1,1.6.426,2.628,2.628,0,0,1,2.013,2.558,2.481,2.481,0,0,1-1.116,2.1,4.815,4.815,0,0,1-2.883.8A5.029,5.029,0,0,1-133.5-.25a3.561,3.561,0,0,1-1.455-1.169,2.716,2.716,0,0,1-.527-1.6h2.408a1.326,1.326,0,0,0,.5,1.037,1.987,1.987,0,0,0,1.248.36,1.839,1.839,0,0,0,1.1-.277A.861.861,0,0,0-129.845-2.628Zm11.628-9.22V-9.51h1.626v1.863h-1.626V-2.9a1.133,1.133,0,0,0,.2.756,1.015,1.015,0,0,0,.773.229,4.051,4.051,0,0,0,.747-.062V-.053a5.229,5.229,0,0,1-1.538.229,2.425,2.425,0,0,1-2.725-2.7V-7.646h-1.389V-9.51h1.389v-2.338ZM-110.8.176a4.668,4.668,0,0,1-3.406-1.283,4.561,4.561,0,0,1-1.314-3.419v-.246a5.745,5.745,0,0,1,.554-2.562,4.064,4.064,0,0,1,1.569-1.74,4.4,4.4,0,0,1,2.316-.611,3.947,3.947,0,0,1,3.072,1.23,5,5,0,0,1,1.121,3.489v1.037h-6.056a2.36,2.36,0,0,0,.743,1.494,2.245,2.245,0,0,0,1.569.563,2.742,2.742,0,0,0,2.294-1.063l1.248,1.4a3.813,3.813,0,0,1-1.547,1.261A5.075,5.075,0,0,1-110.8.176Zm-.29-7.813a1.587,1.587,0,0,0-1.226.512,2.651,2.651,0,0,0-.6,1.466h3.533v-.2a1.891,1.891,0,0,0-.457-1.311A1.638,1.638,0,0,0-111.089-7.638Zm.229-5.862h2.769l-2.435,2.725h-2.065Zm9.369,11.628a1.666,1.666,0,0,0,1.143-.387,1.355,1.355,0,0,0,.457-1.028h2.382a3.258,3.258,0,0,1-.527,1.771A3.48,3.48,0,0,1-99.457-.268a4.442,4.442,0,0,1-1.991.444,4.129,4.129,0,0,1-3.217-1.3A5.13,5.13,0,0,1-105.842-4.7v-.167a5.071,5.071,0,0,1,1.169-3.507,4.08,4.08,0,0,1,3.208-1.31A4,4,0,0,1-98.6-8.67a3.594,3.594,0,0,1,1.094,2.7h-2.382a1.745,1.745,0,0,0-.457-1.206,1.524,1.524,0,0,0-1.16-.464,1.53,1.53,0,0,0-1.34.647,3.749,3.749,0,0,0-.453,2.1v.264a3.8,3.8,0,0,0,.448,2.113A1.549,1.549,0,0,0-101.492-1.872Zm7.77-7.638.079,1.1A3.32,3.32,0,0,1-90.91-9.686a2.759,2.759,0,0,1,2.25.888A4.142,4.142,0,0,1-87.9-6.144V0h-2.54V-6.082A1.648,1.648,0,0,0-90.8-7.255a1.574,1.574,0,0,0-1.169-.365,1.747,1.747,0,0,0-1.608.914V0h-2.54V-9.51ZM-83.3,0h-2.549V-9.51H-83.3ZM-86-11.971a1.251,1.251,0,0,1,.382-.94,1.436,1.436,0,0,1,1.042-.369,1.44,1.44,0,0,1,1.037.369,1.244,1.244,0,0,1,.387.94,1.247,1.247,0,0,1-.391.949,1.443,1.443,0,0,1-1.033.369,1.443,1.443,0,0,1-1.033-.369A1.247,1.247,0,0,1-86-11.971Zm8.745,10.1a1.666,1.666,0,0,0,1.143-.387,1.355,1.355,0,0,0,.457-1.028h2.382A3.258,3.258,0,0,1-73.8-1.516,3.48,3.48,0,0,1-75.217-.268a4.442,4.442,0,0,1-1.991.444,4.129,4.129,0,0,1-3.217-1.3A5.13,5.13,0,0,1-81.6-4.7v-.167a5.071,5.071,0,0,1,1.169-3.507,4.08,4.08,0,0,1,3.208-1.31A4,4,0,0,1-74.364-8.67a3.594,3.594,0,0,1,1.094,2.7h-2.382a1.745,1.745,0,0,0-.457-1.206,1.524,1.524,0,0,0-1.16-.464,1.53,1.53,0,0,0-1.34.647,3.749,3.749,0,0,0-.453,2.1v.264a3.8,3.8,0,0,0,.448,2.113A1.549,1.549,0,0,0-77.251-1.872Zm5.036-2.971a5.64,5.64,0,0,1,.545-2.522A3.989,3.989,0,0,1-70.1-9.079a4.577,4.577,0,0,1,2.377-.606,4.33,4.33,0,0,1,3.142,1.178,4.727,4.727,0,0,1,1.358,3.2l.018.65a4.97,4.97,0,0,1-1.222,3.511A4.247,4.247,0,0,1-67.707.176a4.268,4.268,0,0,1-3.283-1.318,5.058,5.058,0,0,1-1.226-3.586Zm2.54.18a3.555,3.555,0,0,0,.51,2.073,1.682,1.682,0,0,0,1.459.717,1.686,1.686,0,0,0,1.441-.709,3.89,3.89,0,0,0,.519-2.267,3.519,3.519,0,0,0-.519-2.06,1.686,1.686,0,0,0-1.459-.731,1.658,1.658,0,0,0-1.441.726A3.955,3.955,0,0,0-69.675-4.662Zm13.184,2.035a.818.818,0,0,0-.461-.734,5.241,5.241,0,0,0-1.481-.479q-3.393-.712-3.393-2.883a2.613,2.613,0,0,1,1.05-2.114,4.237,4.237,0,0,1,2.747-.848,4.56,4.56,0,0,1,2.9.853,2.687,2.687,0,0,1,1.085,2.215h-2.54a1.229,1.229,0,0,0-.352-.9,1.488,1.488,0,0,0-1.1-.356,1.52,1.52,0,0,0-.993.29.916.916,0,0,0-.352.738.783.783,0,0,0,.4.681,4.114,4.114,0,0,0,1.349.448,11.019,11.019,0,0,1,1.6.426,2.628,2.628,0,0,1,2.013,2.558,2.481,2.481,0,0,1-1.116,2.1,4.815,4.815,0,0,1-2.883.8A5.029,5.029,0,0,1-60.144-.25,3.561,3.561,0,0,1-61.6-1.419a2.716,2.716,0,0,1-.527-1.6h2.408a1.326,1.326,0,0,0,.5,1.037,1.987,1.987,0,0,0,1.248.36,1.839,1.839,0,0,0,1.1-.277A.861.861,0,0,0-56.492-2.628Zm12.138-.967L-42.6-9.51h2.725L-43.695,1.477l-.211.5a2.9,2.9,0,0,1-2.812,1.863,4,4,0,0,1-1.125-.167V1.749l.387.009a2.09,2.09,0,0,0,1.077-.22,1.443,1.443,0,0,0,.558-.729l.3-.782L-48.854-9.51h2.733Zm13.008-8.253V-9.51h1.626v1.863h-1.626V-2.9a1.133,1.133,0,0,0,.2.756,1.015,1.015,0,0,0,.773.229,4.051,4.051,0,0,0,.747-.062V-.053a5.229,5.229,0,0,1-1.538.229,2.425,2.425,0,0,1-2.725-2.7V-7.646h-1.389V-9.51h1.389v-2.338ZM-23.928.176a4.668,4.668,0,0,1-3.406-1.283,4.561,4.561,0,0,1-1.314-3.419v-.246a5.745,5.745,0,0,1,.554-2.562,4.064,4.064,0,0,1,1.569-1.74,4.4,4.4,0,0,1,2.316-.611,3.947,3.947,0,0,1,3.072,1.23,5,5,0,0,1,1.121,3.489v1.037h-6.056a2.36,2.36,0,0,0,.743,1.494,2.245,2.245,0,0,0,1.569.563,2.742,2.742,0,0,0,2.294-1.063l1.248,1.4A3.813,3.813,0,0,1-21.766-.277,5.075,5.075,0,0,1-23.928.176Zm-.29-7.813a1.587,1.587,0,0,0-1.226.512,2.651,2.651,0,0,0-.6,1.466h3.533v-.2a1.891,1.891,0,0,0-.457-1.311A1.638,1.638,0,0,0-24.218-7.638Zm9.6,5.766a1.666,1.666,0,0,0,1.143-.387,1.355,1.355,0,0,0,.457-1.028h2.382a3.258,3.258,0,0,1-.527,1.771A3.48,3.48,0,0,1-12.586-.268a4.442,4.442,0,0,1-1.991.444,4.129,4.129,0,0,1-3.217-1.3A5.13,5.13,0,0,1-18.971-4.7v-.167A5.071,5.071,0,0,1-17.8-8.376a4.08,4.08,0,0,1,3.208-1.31A4,4,0,0,1-11.733-8.67a3.594,3.594,0,0,1,1.094,2.7h-2.382a1.745,1.745,0,0,0-.457-1.206,1.524,1.524,0,0,0-1.16-.464,1.53,1.53,0,0,0-1.34.647,3.749,3.749,0,0,0-.453,2.1v.264a3.8,3.8,0,0,0,.448,2.113A1.549,1.549,0,0,0-14.621-1.872Zm7.77-7.638.079,1.1A3.32,3.32,0,0,1-4.039-9.686a2.759,2.759,0,0,1,2.25.888,4.142,4.142,0,0,1,.756,2.654V0h-2.54V-6.082a1.648,1.648,0,0,0-.352-1.173A1.574,1.574,0,0,0-5.093-7.62,1.747,1.747,0,0,0-6.7-6.706V0h-2.54V-9.51ZM.5-4.843a5.64,5.64,0,0,1,.545-2.522A3.989,3.989,0,0,1,2.61-9.079a4.577,4.577,0,0,1,2.377-.606A4.33,4.33,0,0,1,8.13-8.508a4.727,4.727,0,0,1,1.358,3.2l.018.65A4.97,4.97,0,0,1,8.284-1.147,4.247,4.247,0,0,1,5.005.176,4.268,4.268,0,0,1,1.723-1.143,5.058,5.058,0,0,1,.5-4.729Zm2.54.18a3.555,3.555,0,0,0,.51,2.073,1.682,1.682,0,0,0,1.459.717,1.686,1.686,0,0,0,1.441-.709,3.89,3.89,0,0,0,.519-2.267,3.519,3.519,0,0,0-.519-2.06,1.686,1.686,0,0,0-1.459-.731,1.658,1.658,0,0,0-1.441.726A3.955,3.955,0,0,0,3.037-4.662ZM13.75,0H11.2V-13.5H13.75Zm1.7-4.843a5.64,5.64,0,0,1,.545-2.522,3.989,3.989,0,0,1,1.569-1.714,4.577,4.577,0,0,1,2.377-.606A4.33,4.33,0,0,1,23.08-8.508a4.727,4.727,0,0,1,1.358,3.2l.018.65a4.97,4.97,0,0,1-1.222,3.511A4.247,4.247,0,0,1,19.956.176a4.268,4.268,0,0,1-3.283-1.318,5.058,5.058,0,0,1-1.226-3.586Zm2.54.18a3.555,3.555,0,0,0,.51,2.073,1.682,1.682,0,0,0,1.459.717A1.686,1.686,0,0,0,21.4-2.581a3.89,3.89,0,0,0,.519-2.267,3.519,3.519,0,0,0-.519-2.06,1.686,1.686,0,0,0-1.459-.731,1.658,1.658,0,0,0-1.441.726A3.955,3.955,0,0,0,17.987-4.662ZM20.439-13.5h2.769l-2.435,2.725H18.708Zm5.212,8.675A5.573,5.573,0,0,1,26.692-8.35,3.375,3.375,0,0,1,29.5-9.686a2.96,2.96,0,0,1,2.435,1.072l.105-.9h2.3V-.316a4.064,4.064,0,0,1-.567,2.171,3.641,3.641,0,0,1-1.6,1.406,5.608,5.608,0,0,1-2.408.483,5.215,5.215,0,0,1-2.039-.417,3.619,3.619,0,0,1-1.5-1.077L27.356.7a2.975,2.975,0,0,0,2.3,1.063,2.178,2.178,0,0,0,1.573-.541,2.027,2.027,0,0,0,.563-1.534v-.51a2.938,2.938,0,0,1-2.312.993,3.366,3.366,0,0,1-2.773-1.34A5.572,5.572,0,0,1,25.651-4.72Zm2.54.189a3.47,3.47,0,0,0,.519,2.029,1.65,1.65,0,0,0,1.424.735,1.764,1.764,0,0,0,1.661-.871V-6.749a1.76,1.76,0,0,0-1.644-.871,1.66,1.66,0,0,0-1.437.748A3.911,3.911,0,0,0,28.191-4.636ZM38.975,0H36.426V-9.51h2.549Zm-2.7-11.971a1.251,1.251,0,0,1,.382-.94A1.436,1.436,0,0,1,37.7-13.28a1.44,1.44,0,0,1,1.037.369,1.244,1.244,0,0,1,.387.94,1.247,1.247,0,0,1-.391.949,1.443,1.443,0,0,1-1.033.369,1.443,1.443,0,0,1-1.033-.369A1.247,1.247,0,0,1,36.277-11.971Zm8.745,10.1a1.666,1.666,0,0,0,1.143-.387,1.355,1.355,0,0,0,.457-1.028H49a3.258,3.258,0,0,1-.527,1.771A3.48,3.48,0,0,1,47.057-.268a4.442,4.442,0,0,1-1.991.444,4.129,4.129,0,0,1-3.217-1.3A5.13,5.13,0,0,1,40.671-4.7v-.167A5.071,5.071,0,0,1,41.84-8.376a4.08,4.08,0,0,1,3.208-1.31A4,4,0,0,1,47.909-8.67,3.594,3.594,0,0,1,49-5.968H46.622a1.745,1.745,0,0,0-.457-1.206A1.524,1.524,0,0,0,45-7.638a1.53,1.53,0,0,0-1.34.647,3.749,3.749,0,0,0-.453,2.1v.264a3.8,3.8,0,0,0,.448,2.113A1.549,1.549,0,0,0,45.022-1.872Zm5.036-2.971A5.64,5.64,0,0,1,50.6-7.365a3.989,3.989,0,0,1,1.569-1.714,4.577,4.577,0,0,1,2.377-.606,4.33,4.33,0,0,1,3.142,1.178,4.727,4.727,0,0,1,1.358,3.2l.018.65a4.97,4.97,0,0,1-1.222,3.511A4.247,4.247,0,0,1,54.567.176a4.268,4.268,0,0,1-3.283-1.318,5.058,5.058,0,0,1-1.226-3.586Zm2.54.18a3.555,3.555,0,0,0,.51,2.073,1.682,1.682,0,0,0,1.459.717,1.686,1.686,0,0,0,1.441-.709,3.89,3.89,0,0,0,.519-2.267,3.519,3.519,0,0,0-.519-2.06,1.686,1.686,0,0,0-1.459-.731,1.658,1.658,0,0,0-1.441.726A3.955,3.955,0,0,0,52.6-4.662ZM65.782-2.628a.818.818,0,0,0-.461-.734,5.241,5.241,0,0,0-1.481-.479q-3.393-.712-3.393-2.883A2.613,2.613,0,0,1,61.5-8.837a4.237,4.237,0,0,1,2.747-.848,4.56,4.56,0,0,1,2.9.853,2.687,2.687,0,0,1,1.085,2.215h-2.54a1.229,1.229,0,0,0-.352-.9,1.488,1.488,0,0,0-1.1-.356,1.52,1.52,0,0,0-.993.29.916.916,0,0,0-.352.738.783.783,0,0,0,.4.681,4.114,4.114,0,0,0,1.349.448,11.019,11.019,0,0,1,1.6.426,2.628,2.628,0,0,1,2.013,2.558,2.481,2.481,0,0,1-1.116,2.1,4.815,4.815,0,0,1-2.883.8A5.029,5.029,0,0,1,62.13-.25a3.561,3.561,0,0,1-1.455-1.169,2.716,2.716,0,0,1-.527-1.6h2.408a1.326,1.326,0,0,0,.5,1.037,1.987,1.987,0,0,0,1.248.36,1.839,1.839,0,0,0,1.1-.277A.861.861,0,0,0,65.782-2.628ZM78.746.176A4.668,4.668,0,0,1,75.34-1.107a4.561,4.561,0,0,1-1.314-3.419v-.246a5.745,5.745,0,0,1,.554-2.562,4.064,4.064,0,0,1,1.569-1.74,4.4,4.4,0,0,1,2.316-.611,3.947,3.947,0,0,1,3.072,1.23,5,5,0,0,1,1.121,3.489v1.037H76.6a2.36,2.36,0,0,0,.743,1.494,2.245,2.245,0,0,0,1.569.563,2.742,2.742,0,0,0,2.294-1.063l1.248,1.4A3.813,3.813,0,0,1,80.908-.277,5.075,5.075,0,0,1,78.746.176Zm-.29-7.813a1.587,1.587,0,0,0-1.226.512,2.651,2.651,0,0,0-.6,1.466h3.533v-.2A1.891,1.891,0,0,0,79.7-7.174,1.638,1.638,0,0,0,78.456-7.638Zm7.98-1.872.079,1.1a3.32,3.32,0,0,1,2.733-1.274A2.759,2.759,0,0,1,91.5-8.8a4.142,4.142,0,0,1,.756,2.654V0h-2.54V-6.082a1.648,1.648,0,0,0-.352-1.173,1.574,1.574,0,0,0-1.169-.365,1.747,1.747,0,0,0-1.608.914V0h-2.54V-9.51ZM101.342,0H98.793V-13.5h2.549Zm7.6,0a2.821,2.821,0,0,1-.255-.853,3.073,3.073,0,0,1-2.4,1.028,3.376,3.376,0,0,1-2.316-.809,2.6,2.6,0,0,1-.918-2.039,2.687,2.687,0,0,1,1.121-2.32,5.529,5.529,0,0,1,3.239-.817h1.169v-.545a1.567,1.567,0,0,0-.338-1.055,1.331,1.331,0,0,0-1.068-.4,1.513,1.513,0,0,0-1.006.308,1.045,1.045,0,0,0-.365.844h-2.54a2.551,2.551,0,0,1,.51-1.529,3.37,3.37,0,0,1,1.441-1.1,5.253,5.253,0,0,1,2.092-.4A4.15,4.15,0,0,1,110.1-8.8a3.09,3.09,0,0,1,1.033,2.483V-2.2a4.546,4.546,0,0,0,.378,2.048V0Zm-2.1-1.767a2.188,2.188,0,0,0,1.037-.25,1.645,1.645,0,0,0,.7-.672V-4.324h-.949q-1.907,0-2.03,1.318l-.009.149a1.017,1.017,0,0,0,.334.782A1.3,1.3,0,0,0,106.844-1.767Zm13.764-10.081V-9.51h1.626v1.863h-1.626V-2.9a1.133,1.133,0,0,0,.2.756,1.015,1.015,0,0,0,.773.229,4.051,4.051,0,0,0,.747-.062V-.053a5.229,5.229,0,0,1-1.538.229,2.425,2.425,0,0,1-2.725-2.7V-7.646h-1.389V-9.51h1.389v-2.338Zm8.385,4.72a6.9,6.9,0,0,0-.914-.07,1.86,1.86,0,0,0-1.89.976V0h-2.54V-9.51h2.4l.07,1.134a2.354,2.354,0,0,1,2.118-1.31,2.662,2.662,0,0,1,.791.114ZM135.461,0a2.821,2.821,0,0,1-.255-.853,3.073,3.073,0,0,1-2.4,1.028,3.376,3.376,0,0,1-2.316-.809,2.6,2.6,0,0,1-.918-2.039,2.687,2.687,0,0,1,1.121-2.32,5.529,5.529,0,0,1,3.239-.817H135.1v-.545a1.567,1.567,0,0,0-.338-1.055,1.331,1.331,0,0,0-1.068-.4,1.513,1.513,0,0,0-1.006.308,1.045,1.045,0,0,0-.365.844h-2.54a2.551,2.551,0,0,1,.51-1.529,3.37,3.37,0,0,1,1.441-1.1,5.253,5.253,0,0,1,2.092-.4,4.15,4.15,0,0,1,2.791.883,3.09,3.09,0,0,1,1.033,2.483V-2.2a4.546,4.546,0,0,0,.378,2.048V0Zm-2.1-1.767a2.188,2.188,0,0,0,1.037-.25,1.645,1.645,0,0,0,.7-.672V-4.324h-.949q-1.907,0-2.03,1.318l-.009.149a1.017,1.017,0,0,0,.334.782A1.3,1.3,0,0,0,133.361-1.767Zm5.845-3.059a5.731,5.731,0,0,1,1-3.542,3.237,3.237,0,0,1,2.729-1.318,2.913,2.913,0,0,1,2.294,1.037V-13.5h2.549V0h-2.294l-.123-1.011A2.989,2.989,0,0,1,142.915.176a3.228,3.228,0,0,1-2.694-1.323A5.916,5.916,0,0,1,139.206-4.825Zm2.54.189a3.754,3.754,0,0,0,.466,2.051,1.517,1.517,0,0,0,1.354.713,1.7,1.7,0,0,0,1.661-.995V-6.625a1.675,1.675,0,0,0-1.644-.995Q141.746-7.62,141.746-4.636ZM155.439-.967a3.185,3.185,0,0,1-2.6,1.143A3,3,0,0,1,150.5-.7a3.752,3.752,0,0,1-.822-2.575V-9.51h2.54v6.151q0,1.487,1.354,1.487a1.834,1.834,0,0,0,1.775-.9V-9.51H157.9V0h-2.391Zm8.332-.905a1.666,1.666,0,0,0,1.143-.387,1.355,1.355,0,0,0,.457-1.028h2.382a3.258,3.258,0,0,1-.527,1.771,3.48,3.48,0,0,1-1.419,1.248,4.442,4.442,0,0,1-1.991.444,4.129,4.129,0,0,1-3.217-1.3A5.13,5.13,0,0,1,159.42-4.7v-.167a5.071,5.071,0,0,1,1.169-3.507,4.08,4.08,0,0,1,3.208-1.31,4,4,0,0,1,2.861,1.015,3.594,3.594,0,0,1,1.094,2.7h-2.382a1.745,1.745,0,0,0-.457-1.206,1.524,1.524,0,0,0-1.16-.464,1.53,1.53,0,0,0-1.34.647,3.749,3.749,0,0,0-.453,2.1v.264a3.8,3.8,0,0,0,.448,2.113A1.549,1.549,0,0,0,163.771-1.872Zm9.387,0a1.666,1.666,0,0,0,1.143-.387,1.355,1.355,0,0,0,.457-1.028h2.382a3.258,3.258,0,0,1-.527,1.771,3.48,3.48,0,0,1-1.419,1.248A4.442,4.442,0,0,1,173.2.176a4.129,4.129,0,0,1-3.217-1.3A5.13,5.13,0,0,1,168.807-4.7v-.167a5.071,5.071,0,0,1,1.169-3.507,4.08,4.08,0,0,1,3.208-1.31,4,4,0,0,1,2.861,1.015,3.594,3.594,0,0,1,1.094,2.7h-2.382a1.745,1.745,0,0,0-.457-1.206,1.524,1.524,0,0,0-1.16-.464,1.53,1.53,0,0,0-1.34.647,3.749,3.749,0,0,0-.453,2.1v.264a3.8,3.8,0,0,0,.448,2.113A1.549,1.549,0,0,0,173.158-1.872ZM181.27,0h-2.549V-9.51h2.549Zm-2.7-11.971a1.251,1.251,0,0,1,.382-.94A1.436,1.436,0,0,1,180-13.28a1.44,1.44,0,0,1,1.037.369,1.244,1.244,0,0,1,.387.94,1.247,1.247,0,0,1-.391.949,1.443,1.443,0,0,1-1.033.369,1.443,1.443,0,0,1-1.033-.369A1.247,1.247,0,0,1,178.572-11.971Zm4.395,7.128a5.64,5.64,0,0,1,.545-2.522,3.989,3.989,0,0,1,1.569-1.714,4.577,4.577,0,0,1,2.377-.606A4.33,4.33,0,0,1,190.6-8.508a4.727,4.727,0,0,1,1.358,3.2l.018.65a4.97,4.97,0,0,1-1.222,3.511A4.247,4.247,0,0,1,187.475.176a4.268,4.268,0,0,1-3.283-1.318,5.058,5.058,0,0,1-1.226-3.586Zm2.54.18a3.555,3.555,0,0,0,.51,2.073,1.682,1.682,0,0,0,1.459.717,1.686,1.686,0,0,0,1.441-.709,3.89,3.89,0,0,0,.519-2.267,3.519,3.519,0,0,0-.519-2.06,1.686,1.686,0,0,0-1.459-.731,1.658,1.658,0,0,0-1.441.726A3.955,3.955,0,0,0,185.506-4.662Zm2.452-8.838h2.769l-2.435,2.725h-2.065Zm7.919,3.99.079,1.1a3.32,3.32,0,0,1,2.733-1.274,2.759,2.759,0,0,1,2.25.888,4.142,4.142,0,0,1,.756,2.654V0h-2.54V-6.082a1.648,1.648,0,0,0-.352-1.173,1.574,1.574,0,0,0-1.169-.365,1.747,1.747,0,0,0-1.608.914V0h-2.54V-9.51Z" transform="translate(800 5105.847)" fill="#fff"/>
  </g>
</svg>
