<svg xmlns="http://www.w3.org/2000/svg" xmlns:xlink="http://www.w3.org/1999/xlink" width="190" height="474" viewBox="0 0 190 474">
  <defs>
    <clipPath id="clip-path">
      <rect id="Rectángulo_33845" data-name="Rectángulo 33845" width="251.658" height="172.594" fill="none"/>
    </clipPath>
    <clipPath id="clip-path-2">
      <path id="Trazado_709861" data-name="Trazado 709861" d="M85.535,4.031c6.611,3.887,9.031,14.477,9.033,26.406v.026c0,16.247-4.487,34.968-8.981,42.607-1.77,3.01-8.569,12.11-15.6,15.155,0,0,3.126-5.89-.774-9.95-20.3,3.514-51.451,5.548-57.727.107C3.155,71.158-5.322,27.048,4.223,12.813,10.061,4.1,36.18,0,57.675,0,70.127,0,81.023,1.378,85.535,4.031" transform="translate(0 -0.003)" fill="none"/>
    </clipPath>
    <linearGradient id="linear-gradient" x1="1" y1="1" x2="0.999" y2="1" gradientUnits="objectBoundingBox">
      <stop offset="0" stop-color="#ffe2e4"/>
      <stop offset="1" stop-color="#a4b8ea"/>
    </linearGradient>
    <clipPath id="clip-path-3">
      <path id="Trazado_709862" data-name="Trazado 709862" d="M196.9,124.891v5.064H182.177v5.4h25.174a38.649,38.649,0,0,1-9.178,14.533,30.012,30.012,0,0,1-6.785-10.594l-5.076,1.847a35.411,35.411,0,0,0,7.772,12.257,26.773,26.773,0,0,1-8.967,4.347l1.363,5.227a32.481,32.481,0,0,0,11.713-5.907,30.089,30.089,0,0,0,13.153,5.959l.865-5.332a24.032,24.032,0,0,1-9.926-4.284,45.59,45.59,0,0,0,3.04-3.431,40.487,40.487,0,0,0,7.646-14.624h4.044v-5.4H202.3v-5.064Z" transform="translate(-182.177 -124.891)" fill="none"/>
    </clipPath>
    <linearGradient id="linear-gradient-2" x1="-0.415" y1="2.054" x2="-0.412" y2="2.054" gradientUnits="objectBoundingBox">
      <stop offset="0" stop-color="#7a8fd8"/>
      <stop offset="1" stop-color="#435ac2"/>
    </linearGradient>
    <clipPath id="clip-path-4">
      <path id="Trazado_709863" data-name="Trazado 709863" d="M551.478,346.908l4.174,13.948h-8.422Zm-4.4-10.279-12.74,39.747h8.164L545,368.194h12.851l2.449,8.182H570.3l-12.442-39.747Z" transform="translate(-534.342 -336.629)" fill="none"/>
    </clipPath>
    <linearGradient id="linear-gradient-3" x1="-1.178" y1="1.548" x2="-1.176" y2="1.548" xlink:href="#linear-gradient-2"/>
    <clipPath id="clip-path-5">
      <path id="Rectángulo_348071" data-name="Rectángulo 348071" d="M0,0H165a25,25,0,0,1,25,25V449a25,25,0,0,1-25,25H0a0,0,0,0,1,0,0V0A0,0,0,0,1,0,0Z" transform="translate(180 2183)" fill="#0098e8" opacity="0.69"/>
    </clipPath>
    <clipPath id="clip-path-6">
      <rect id="Rectángulo_346192" data-name="Rectángulo 346192" width="270.595" height="368.869" fill="none"/>
    </clipPath>
    <clipPath id="clip-path-7">
      <rect id="Rectángulo_346191" data-name="Rectángulo 346191" width="270.595" height="369.869" fill="none"/>
    </clipPath>
    <clipPath id="clip-path-8">
      <rect id="Rectángulo_346189" data-name="Rectángulo 346189" width="75.176" height="118.956" fill="none"/>
    </clipPath>
    <clipPath id="clip-path-9">
      <rect id="Rectángulo_346190" data-name="Rectángulo 346190" width="18.196" height="58.081" fill="none"/>
    </clipPath>
    <clipPath id="clip-path-10">
      <rect id="Rectángulo_348072" data-name="Rectángulo 348072" width="4.885" height="4.731" transform="translate(0 0)" fill="none"/>
    </clipPath>
    <clipPath id="clip-path-11">
      <rect id="Rectángulo_348073" data-name="Rectángulo 348073" width="11.473" height="42.915" transform="translate(0 0)" fill="none"/>
    </clipPath>
    <clipPath id="clip-path-12">
      <rect id="Rectángulo_348073-2" data-name="Rectángulo 348073" width="11.473" height="57.323" fill="none"/>
    </clipPath>
  </defs>
  <g id="Grupo_1010312" data-name="Grupo 1010312" transform="translate(-180 -2183)">
    <g id="Grupo_1010308" data-name="Grupo 1010308">
      <path id="Rectángulo_346891" data-name="Rectángulo 346891" d="M0,0H165a25,25,0,0,1,25,25V449a25,25,0,0,1-25,25H0a0,0,0,0,1,0,0V0A0,0,0,0,1,0,0Z" transform="translate(180 2183)" fill="#112e4c"/>
      <g id="Grupo_1003709" data-name="Grupo 1003709" transform="translate(191.406 2606.829) rotate(-90)" opacity="0.83">
        <g id="Grupo_80327" data-name="Grupo 80327" transform="translate(0)" clip-path="url(#clip-path)">
          <path id="Trazado_113636" data-name="Trazado 113636" d="M151.164,75.581A75.582,75.582,0,1,1,75.582,0a75.582,75.582,0,0,1,75.582,75.581" transform="translate(0 21.431)" fill="#4db1f0"/>
          <path id="Sustracción_2" data-name="Sustracción 2" d="M54.766,109.534a55.214,55.214,0,0,1-11.037-1.113,54.473,54.473,0,0,1-19.583-8.241A54.917,54.917,0,0,1,4.3,76.084,54.439,54.439,0,0,1,1.113,65.8a55.3,55.3,0,0,1,0-22.075A54.476,54.476,0,0,1,9.353,24.146,54.918,54.918,0,0,1,33.449,4.3a54.487,54.487,0,0,1,10.28-3.191,55.3,55.3,0,0,1,22.075,0,54.475,54.475,0,0,1,19.584,8.24,54.924,54.924,0,0,1,19.842,24.1,54.462,54.462,0,0,1,3.191,10.28,55.3,55.3,0,0,1,0,22.075,54.487,54.487,0,0,1-8.24,19.583,54.932,54.932,0,0,1-24.1,19.842A54.509,54.509,0,0,1,65.8,108.422,55.216,55.216,0,0,1,54.766,109.534Zm0-98.735A43.968,43.968,0,1,0,98.734,54.767,44.017,44.017,0,0,0,54.766,10.8Z" transform="translate(104.812 58.117)" fill="#fbeec9" stroke="rgba(0,0,0,0)" stroke-miterlimit="10" stroke-width="1"/>
          <path id="Trazado_113639" data-name="Trazado 113639" d="M53.451,26.726A26.725,26.725,0,1,1,26.725,0,26.725,26.725,0,0,1,53.451,26.726" transform="translate(79.28 91.101)" fill="#fff"/>
          <path id="Trazado_113640" data-name="Trazado 113640" d="M3.378,1.689A1.689,1.689,0,1,1,1.689,0,1.689,1.689,0,0,1,3.378,1.689" transform="translate(210.967 37.628)" fill="#f9e8dc"/>
          <path id="Trazado_113641" data-name="Trazado 113641" d="M3.378,1.689A1.689,1.689,0,1,1,1.689,0,1.689,1.689,0,0,1,3.378,1.689" transform="translate(218.398 37.628)" fill="#f9e8dc"/>
          <path id="Trazado_113642" data-name="Trazado 113642" d="M3.379,1.689A1.689,1.689,0,1,1,1.689,0,1.689,1.689,0,0,1,3.379,1.689" transform="translate(225.83 37.628)" fill="#f9e8dc"/>
          <path id="Trazado_113643" data-name="Trazado 113643" d="M3.378,1.689A1.689,1.689,0,1,1,1.689,0,1.689,1.689,0,0,1,3.378,1.689" transform="translate(233.262 37.628)" fill="#f9e8dc"/>
          <path id="Trazado_113644" data-name="Trazado 113644" d="M3.378,1.689A1.689,1.689,0,1,1,1.689,0,1.689,1.689,0,0,1,3.378,1.689" transform="translate(240.693 37.628)" fill="#f9e8dc"/>
          <path id="Trazado_113645" data-name="Trazado 113645" d="M3.378,1.689A1.689,1.689,0,1,1,1.689,0,1.689,1.689,0,0,1,3.378,1.689" transform="translate(210.967 44.722)" fill="#f9e8dc"/>
          <path id="Trazado_113646" data-name="Trazado 113646" d="M3.378,1.689A1.689,1.689,0,1,1,1.689,0,1.689,1.689,0,0,1,3.378,1.689" transform="translate(218.398 44.722)" fill="#f9e8dc"/>
          <path id="Trazado_113647" data-name="Trazado 113647" d="M3.379,1.689A1.689,1.689,0,1,1,1.689,0,1.689,1.689,0,0,1,3.379,1.689" transform="translate(225.83 44.722)" fill="#f9e8dc"/>
          <path id="Trazado_113648" data-name="Trazado 113648" d="M3.378,1.689A1.689,1.689,0,1,1,1.689,0,1.689,1.689,0,0,1,3.378,1.689" transform="translate(233.262 44.722)" fill="#f9e8dc"/>
          <path id="Trazado_113649" data-name="Trazado 113649" d="M3.378,1.689A1.689,1.689,0,1,1,1.689,0,1.689,1.689,0,0,1,3.378,1.689" transform="translate(240.693 44.722)" fill="#f9e8dc"/>
          <path id="Trazado_113652" data-name="Trazado 113652" d="M3.379,1.689A1.689,1.689,0,1,1,1.689,0,1.689,1.689,0,0,1,3.379,1.689" transform="translate(225.83 51.815)" fill="#f9e8dc"/>
          <path id="Trazado_113653" data-name="Trazado 113653" d="M3.378,1.689A1.689,1.689,0,1,1,1.689,0,1.689,1.689,0,0,1,3.378,1.689" transform="translate(233.262 51.815)" fill="#f9e8dc"/>
          <path id="Trazado_113654" data-name="Trazado 113654" d="M3.378,1.689A1.689,1.689,0,1,1,1.689,0,1.689,1.689,0,0,1,3.378,1.689" transform="translate(240.693 51.815)" fill="#f9e8dc"/>
          <path id="Trazado_113657" data-name="Trazado 113657" d="M3.379,1.689A1.689,1.689,0,1,1,1.689,0,1.689,1.689,0,0,1,3.379,1.689" transform="translate(225.83 58.909)" fill="#f9e8dc"/>
          <path id="Trazado_113658" data-name="Trazado 113658" d="M3.378,1.689A1.689,1.689,0,1,1,1.689,0,1.689,1.689,0,0,1,3.378,1.689" transform="translate(233.262 58.909)" fill="#f9e8dc"/>
          <path id="Trazado_113659" data-name="Trazado 113659" d="M3.378,1.689A1.689,1.689,0,1,1,1.689,0,1.689,1.689,0,0,1,3.378,1.689" transform="translate(240.693 58.909)" fill="#f9e8dc"/>
          <g id="Grupo_1005830" data-name="Grupo 1005830" transform="translate(207.567 56.644)">
            <g id="Grupo_1005828" data-name="Grupo 1005828" transform="translate(0)">
              <path id="Trazado_113655" data-name="Trazado 113655" d="M3.378,1.689A1.689,1.689,0,1,1,1.689,0,1.689,1.689,0,0,1,3.378,1.689" transform="translate(0 7.094)" fill="#f9e8dc"/>
              <g id="Grupo_1005827" data-name="Grupo 1005827">
                <path id="Trazado_113650" data-name="Trazado 113650" d="M3.378,1.689A1.689,1.689,0,1,1,1.689,0,1.689,1.689,0,0,1,3.378,1.689" fill="#f9e8dc"/>
                <path id="Trazado_113651" data-name="Trazado 113651" d="M3.378,1.689A1.689,1.689,0,1,1,1.689,0,1.689,1.689,0,0,1,3.378,1.689" transform="translate(7.432)" fill="#f9e8dc"/>
                <path id="Trazado_113656" data-name="Trazado 113656" d="M3.378,1.689A1.689,1.689,0,1,1,1.689,0,1.689,1.689,0,0,1,3.378,1.689" transform="translate(7.432 7.094)" fill="#f9e8dc"/>
                <path id="Trazado_113660" data-name="Trazado 113660" d="M3.378,1.689A1.689,1.689,0,1,1,1.689,0,1.689,1.689,0,0,1,3.378,1.689" transform="translate(0 14.188)" fill="#f9e8dc"/>
                <path id="Trazado_113661" data-name="Trazado 113661" d="M3.378,1.689A1.689,1.689,0,1,1,1.689,0,1.689,1.689,0,0,1,3.378,1.689" transform="translate(7.432 14.188)" fill="#f9e8dc"/>
              </g>
            </g>
            <g id="Grupo_1005829" data-name="Grupo 1005829" transform="translate(0 21.281)">
              <g id="Grupo_1005827-2" data-name="Grupo 1005827" transform="translate(0 0)">
                <path id="Trazado_113650-2" data-name="Trazado 113650" d="M3.378,1.689A1.689,1.689,0,1,1,1.689,0,1.689,1.689,0,0,1,3.378,1.689" fill="#f9e8dc"/>
                <path id="Trazado_113651-2" data-name="Trazado 113651" d="M3.378,1.689A1.689,1.689,0,1,1,1.689,0,1.689,1.689,0,0,1,3.378,1.689" transform="translate(7.432)" fill="#f9e8dc"/>
              </g>
            </g>
          </g>
          <g id="Grupo_1005831" data-name="Grupo 1005831" transform="translate(101.805 151.477) rotate(90)">
            <g id="Grupo_1005828-2" data-name="Grupo 1005828">
              <path id="Trazado_113655-2" data-name="Trazado 113655" d="M3.378,1.689A1.689,1.689,0,1,1,1.689,0,1.689,1.689,0,0,1,3.378,1.689" transform="translate(0 7.094)" fill="#f9e8dc"/>
              <g id="Grupo_1005827-3" data-name="Grupo 1005827">
                <path id="Trazado_113650-3" data-name="Trazado 113650" d="M3.378,1.689A1.689,1.689,0,1,1,1.689,0,1.689,1.689,0,0,1,3.378,1.689" transform="translate(0 0)" fill="#f9e8dc"/>
                <path id="Trazado_113651-3" data-name="Trazado 113651" d="M3.378,1.689A1.689,1.689,0,1,1,1.689,0,1.689,1.689,0,0,1,3.378,1.689" transform="translate(7.432 0)" fill="#f9e8dc"/>
                <path id="Trazado_113656-2" data-name="Trazado 113656" d="M3.378,1.689A1.689,1.689,0,1,1,1.689,0,1.689,1.689,0,0,1,3.378,1.689" transform="translate(7.432 7.094)" fill="#f9e8dc"/>
                <path id="Trazado_113660-2" data-name="Trazado 113660" d="M3.378,1.689A1.689,1.689,0,1,1,1.689,0,1.689,1.689,0,0,1,3.378,1.689" transform="translate(0 14.188)" fill="#f9e8dc"/>
                <path id="Trazado_113661-2" data-name="Trazado 113661" d="M3.378,1.689A1.689,1.689,0,1,1,1.689,0,1.689,1.689,0,0,1,3.378,1.689" transform="translate(7.432 14.188)" fill="#f9e8dc"/>
              </g>
            </g>
            <g id="Grupo_1005829-2" data-name="Grupo 1005829" transform="translate(0 21.281)">
              <g id="Grupo_1005827-4" data-name="Grupo 1005827">
                <path id="Trazado_113650-4" data-name="Trazado 113650" d="M3.378,1.689A1.689,1.689,0,1,1,1.689,0,1.689,1.689,0,0,1,3.378,1.689" transform="translate(0 0)" fill="#f9e8dc"/>
                <path id="Trazado_113651-4" data-name="Trazado 113651" d="M3.378,1.689A1.689,1.689,0,1,1,1.689,0,1.689,1.689,0,0,1,3.378,1.689" transform="translate(7.432 0)" fill="#f9e8dc"/>
              </g>
            </g>
          </g>
          <path id="Trazado_113662" data-name="Trazado 113662" d="M3.379,1.689A1.689,1.689,0,1,1,1.689,0,1.689,1.689,0,0,1,3.379,1.689" transform="translate(225.83 66.003)" fill="#f9e8dc"/>
          <path id="Trazado_113663" data-name="Trazado 113663" d="M3.378,1.689A1.689,1.689,0,1,1,1.689,0,1.689,1.689,0,0,1,3.378,1.689" transform="translate(233.262 66.003)" fill="#f9e8dc"/>
          <path id="Trazado_113664" data-name="Trazado 113664" d="M3.378,1.689A1.689,1.689,0,1,1,1.689,0,1.689,1.689,0,0,1,3.378,1.689" transform="translate(240.693 66.003)" fill="#f9e8dc"/>
          <path id="Trazado_113665" data-name="Trazado 113665" d="M3.378,1.689A1.689,1.689,0,1,1,1.689,0,1.689,1.689,0,0,1,3.378,1.689" transform="translate(17.758 54.38)" fill="#fff"/>
          <path id="Trazado_113666" data-name="Trazado 113666" d="M3.378,1.689A1.689,1.689,0,1,1,1.689,0,1.689,1.689,0,0,1,3.378,1.689" transform="translate(25.189 54.38)" fill="#fff"/>
          <path id="Trazado_113667" data-name="Trazado 113667" d="M3.378,1.689A1.689,1.689,0,1,1,1.689,0,1.689,1.689,0,0,1,3.378,1.689" transform="translate(32.621 54.38)" fill="#fff"/>
          <path id="Trazado_113668" data-name="Trazado 113668" d="M3.378,1.689A1.689,1.689,0,1,1,1.689,0,1.689,1.689,0,0,1,3.378,1.689" transform="translate(40.053 54.38)" fill="#fff"/>
          <path id="Trazado_113669" data-name="Trazado 113669" d="M3.378,1.689A1.689,1.689,0,1,1,1.689,0,1.689,1.689,0,0,1,3.378,1.689" transform="translate(47.484 54.38)" fill="#fff"/>
          <path id="Trazado_113670" data-name="Trazado 113670" d="M3.378,1.689A1.689,1.689,0,1,1,1.689,0,1.689,1.689,0,0,1,3.378,1.689" transform="translate(17.758 61.474)" fill="#fff"/>
          <path id="Trazado_113671" data-name="Trazado 113671" d="M3.378,1.689A1.689,1.689,0,1,1,1.689,0,1.689,1.689,0,0,1,3.378,1.689" transform="translate(25.189 61.474)" fill="#fff"/>
          <path id="Trazado_113672" data-name="Trazado 113672" d="M3.378,1.689A1.689,1.689,0,1,1,1.689,0,1.689,1.689,0,0,1,3.378,1.689" transform="translate(32.621 61.474)" fill="#fff"/>
          <path id="Trazado_113673" data-name="Trazado 113673" d="M3.378,1.689A1.689,1.689,0,1,1,1.689,0,1.689,1.689,0,0,1,3.378,1.689" transform="translate(40.053 61.474)" fill="#fff"/>
          <path id="Trazado_113674" data-name="Trazado 113674" d="M3.378,1.689A1.689,1.689,0,1,1,1.689,0,1.689,1.689,0,0,1,3.378,1.689" transform="translate(47.484 61.474)" fill="#fff"/>
          <path id="Trazado_113675" data-name="Trazado 113675" d="M3.378,1.689A1.689,1.689,0,1,1,1.689,0,1.689,1.689,0,0,1,3.378,1.689" transform="translate(17.758 68.568)" fill="#fff"/>
          <path id="Trazado_113676" data-name="Trazado 113676" d="M3.378,1.689A1.689,1.689,0,1,1,1.689,0,1.689,1.689,0,0,1,3.378,1.689" transform="translate(25.189 68.568)" fill="#fff"/>
          <path id="Trazado_113677" data-name="Trazado 113677" d="M3.378,1.689A1.689,1.689,0,1,1,1.689,0,1.689,1.689,0,0,1,3.378,1.689" transform="translate(32.621 68.568)" fill="#fff"/>
          <path id="Trazado_113678" data-name="Trazado 113678" d="M3.378,1.689A1.689,1.689,0,1,1,1.689,0,1.689,1.689,0,0,1,3.378,1.689" transform="translate(40.053 68.568)" fill="#fff"/>
          <path id="Trazado_113679" data-name="Trazado 113679" d="M3.378,1.689A1.689,1.689,0,1,1,1.689,0,1.689,1.689,0,0,1,3.378,1.689" transform="translate(47.484 68.568)" fill="#fff"/>
          <path id="Trazado_113680" data-name="Trazado 113680" d="M3.378,1.689A1.689,1.689,0,1,1,1.689,0,1.689,1.689,0,0,1,3.378,1.689" transform="translate(17.758 75.662)" fill="#fff"/>
          <path id="Trazado_113681" data-name="Trazado 113681" d="M3.378,1.689A1.689,1.689,0,1,1,1.689,0,1.689,1.689,0,0,1,3.378,1.689" transform="translate(25.189 75.662)" fill="#fff"/>
          <path id="Trazado_113682" data-name="Trazado 113682" d="M3.378,1.689A1.689,1.689,0,1,1,1.689,0,1.689,1.689,0,0,1,3.378,1.689" transform="translate(32.621 75.662)" fill="#fff"/>
          <path id="Trazado_113683" data-name="Trazado 113683" d="M3.378,1.689A1.689,1.689,0,1,1,1.689,0,1.689,1.689,0,0,1,3.378,1.689" transform="translate(40.053 75.662)" fill="#fff"/>
          <path id="Trazado_113684" data-name="Trazado 113684" d="M3.378,1.689A1.689,1.689,0,1,1,1.689,0,1.689,1.689,0,0,1,3.378,1.689" transform="translate(47.484 75.662)" fill="#fff"/>
          <path id="Trazado_113685" data-name="Trazado 113685" d="M3.378,1.689A1.689,1.689,0,1,1,1.689,0,1.689,1.689,0,0,1,3.378,1.689" transform="translate(17.758 82.756)" fill="#fff"/>
          <path id="Trazado_113686" data-name="Trazado 113686" d="M3.378,1.689A1.689,1.689,0,1,1,1.689,0,1.689,1.689,0,0,1,3.378,1.689" transform="translate(25.189 82.756)" fill="#fff"/>
          <path id="Trazado_113687" data-name="Trazado 113687" d="M3.378,1.689A1.689,1.689,0,1,1,1.689,0,1.689,1.689,0,0,1,3.378,1.689" transform="translate(32.621 82.756)" fill="#fff"/>
          <path id="Trazado_113688" data-name="Trazado 113688" d="M3.378,1.689A1.689,1.689,0,1,1,1.689,0,1.689,1.689,0,0,1,3.378,1.689" transform="translate(40.053 82.756)" fill="#fff"/>
          <path id="Trazado_113689" data-name="Trazado 113689" d="M3.378,1.689A1.689,1.689,0,1,1,1.689,0,1.689,1.689,0,0,1,3.378,1.689" transform="translate(47.484 82.756)" fill="#fff"/>
          <rect id="Rectángulo_33843" data-name="Rectángulo 33843" width="29.671" height="6.941" transform="translate(124.435 27.764)" fill="#f9e8dc"/>
          <rect id="Rectángulo_33844" data-name="Rectángulo 33844" width="29.978" height="12.751" transform="translate(13.922 9.426)" fill="#f9e8dc"/>
          <path id="Trazado_113690" data-name="Trazado 113690" d="M3.392,0H23.1a3.392,3.392,0,0,1,3.392,3.392v6.761A3.392,3.392,0,0,1,23.1,13.544H3.392A3.392,3.392,0,0,1,0,10.153V3.392A3.392,3.392,0,0,1,3.392,0" transform="translate(24.81 0)" fill="#eb9ba8"/>
          <path id="Trazado_113691" data-name="Trazado 113691" d="M3.3,1.648A1.648,1.648,0,1,1,1.647,0,1.648,1.648,0,0,1,3.3,1.648" transform="translate(29.579 5.125)" fill="#fff"/>
          <path id="Trazado_113692" data-name="Trazado 113692" d="M3.3,1.648A1.648,1.648,0,1,1,1.648,0,1.648,1.648,0,0,1,3.3,1.648" transform="translate(36.409 5.125)" fill="#fff"/>
          <path id="Trazado_113693" data-name="Trazado 113693" d="M3.3,1.648A1.648,1.648,0,1,1,1.648,0,1.648,1.648,0,0,1,3.3,1.648" transform="translate(43.239 5.125)" fill="#fff"/>
        </g>
      </g>
      <g id="Grupo_1010304" data-name="Grupo 1010304" transform="translate(254.958 2221.777)">
        <g id="Grupo_1005820" data-name="Grupo 1005820" transform="translate(0 0)">
          <g id="Grupo_1005819" data-name="Grupo 1005819" transform="translate(0 0)" clip-path="url(#clip-path-2)">
            <rect id="Rectángulo_346436" data-name="Rectángulo 346436" width="99.89" height="88.223" transform="translate(-5.322 0)" fill="url(#linear-gradient)"/>
          </g>
        </g>
        <g id="Grupo_1005822" data-name="Grupo 1005822" transform="translate(16.247 9.901)">
          <g id="Grupo_1005821" data-name="Grupo 1005821" transform="translate(0 0)" clip-path="url(#clip-path-3)">
            <rect id="Rectángulo_346437" data-name="Rectángulo 346437" width="34.838" height="38.136" transform="translate(0 0)" fill="url(#linear-gradient-2)"/>
          </g>
        </g>
        <g id="Grupo_1005824" data-name="Grupo 1005824" transform="translate(44.165 26.686)">
          <g id="Grupo_1005823" data-name="Grupo 1005823" transform="translate(0 0)" clip-path="url(#clip-path-4)">
            <rect id="Rectángulo_346438" data-name="Rectángulo 346438" width="35.961" height="39.747" transform="translate(0 0)" fill="url(#linear-gradient-3)"/>
          </g>
        </g>
      </g>
      <g id="Enmascarar_grupo_927401" data-name="Enmascarar grupo 927401" clip-path="url(#clip-path-5)">
        <g id="Grupo_1005162" data-name="Grupo 1005162" transform="translate(94.919 2288.728)" clip-path="url(#clip-path-6)">
          <g id="Grupo_1005161" data-name="Grupo 1005161">
            <g id="Grupo_1005160" data-name="Grupo 1005160" clip-path="url(#clip-path-7)">
              <path id="Trazado_709550" data-name="Trazado 709550" d="M162.7,91.334a8.4,8.4,0,0,1-7.9-3.526c2.036.312,4.231.6,6.066-.335s2.874-3.64,1.436-5.114c-1.123-1.152-2.974-.954-4.577-1.071a9.9,9.9,0,0,1-8.421-6.463c-1.358-3.9-.116-8.155.372-12.256A33.755,33.755,0,0,0,135.55,31.416l-25.689-14.85c-9.317,11.925-12.221,28-10.29,43s8.3,29.115,15.952,42.17a50.1,50.1,0,0,0,7.751,10.666,19.838,19.838,0,0,0,11.545,5.923,11.906,11.906,0,0,0-1.9-10.75,25.927,25.927,0,0,0,19.1-6.843l-5.506-4.222A20.109,20.109,0,0,0,162.7,91.334" transform="translate(8.176 1.368)" fill="#182024"/>
              <path id="Trazado_709551" data-name="Trazado 709551" d="M66.462,49.368C66.914,38.632,73.6,29.648,83.931,26.7l32.2-9.2c13.976-1.915,23.831,15.064,25.151,29.11,1.466,15.6,2.565,32.083,1.072,43.806-3,23.571-20.891,27.11-20.891,27.11,0-.035.6,21.244.781,28.1l-16.382,34.251L74.123,136.054l-7.736-86.4c-.021-.4.052.249.075-.287" transform="translate(5.482 1.432)" fill="#ffc09d"/>
              <path id="Trazado_709552" data-name="Trazado 709552" d="M127.123,63.532a3.011,3.011,0,0,1-2.807,3.125,2.879,2.879,0,0,1-3.185-2.618,3.011,3.011,0,0,1,2.8-3.125,2.88,2.88,0,0,1,3.188,2.618" transform="translate(10.003 5.03)" fill="#263238"/>
              <path id="Trazado_709553" data-name="Trazado 709553" d="M133.468,53.182c-.361.4-2.692-1.212-5.928-1.1-3.236.061-5.56,1.8-5.924,1.414-.178-.17.181-.89,1.192-1.675a8.26,8.26,0,0,1,4.727-1.617,7.926,7.926,0,0,1,4.733,1.368c1.02.734,1.379,1.432,1.2,1.614" transform="translate(10.04 4.145)" fill="#263238"/>
              <path id="Trazado_709554" data-name="Trazado 709554" d="M100.742,63.533a3.011,3.011,0,0,1-2.808,3.124,2.881,2.881,0,0,1-3.185-2.617,3.012,3.012,0,0,1,2.806-3.127,2.881,2.881,0,0,1,3.187,2.619" transform="translate(7.824 5.03)" fill="#263238"/>
              <path id="Trazado_709555" data-name="Trazado 709555" d="M105.069,53.992c-.363.4-2.7-1.212-5.93-1.1-3.235.062-5.559,1.8-5.923,1.414-.176-.169.178-.889,1.192-1.674a8.252,8.252,0,0,1,4.727-1.618,7.934,7.934,0,0,1,4.734,1.368c1.017.733,1.377,1.433,1.2,1.614" transform="translate(7.695 4.212)" fill="#263238"/>
              <path id="Trazado_709556" data-name="Trazado 709556" d="M114.359,79.038c-.021-.183,1.981-.592,5.229-1.11.824-.112,1.6-.3,1.722-.868a4.194,4.194,0,0,0-.627-2.433q-1.259-2.965-2.638-6.219c-3.67-8.858-6.355-16.151-6-16.3s3.624,6.917,7.294,15.774q1.327,3.277,2.536,6.26a4.784,4.784,0,0,1,.528,3.232,2.074,2.074,0,0,1-1.322,1.25,5.568,5.568,0,0,1-1.4.238c-3.276.278-5.312.355-5.33.171" transform="translate(9.251 4.304)" fill="#263238"/>
              <path id="Trazado_709557" data-name="Trazado 709557" d="M88.3,102.987s8.094,15.9,31.5,12.978l-.152-5.519A59.121,59.121,0,0,1,88.3,102.987" transform="translate(7.293 8.505)" fill="#ff9b6c"/>
              <path id="Trazado_709558" data-name="Trazado 709558" d="M104.038,44.29c-.292.89-3.537.573-7.32,1.146-3.8.5-6.824,1.705-7.352.931-.237-.371.272-1.216,1.483-2.106a12.883,12.883,0,0,1,11.179-1.584c1.412.52,2.135,1.19,2.01,1.612" transform="translate(7.376 3.473)" fill="#263238"/>
              <path id="Trazado_709559" data-name="Trazado 709559" d="M132.166,44.077c-.547.752-2.8.058-5.483.105-2.684-.048-4.937.645-5.483-.107-.24-.366.094-1.113,1.065-1.84a7.936,7.936,0,0,1,8.836,0c.971.726,1.306,1.473,1.065,1.84" transform="translate(10.003 3.377)" fill="#263238"/>
              <path id="Trazado_709560" data-name="Trazado 709560" d="M102.969,83.079a4.224,4.224,0,0,1,4.272-3.332,4.418,4.418,0,0,1,3.465,2.319,5.434,5.434,0,0,1,.313,4.22l-.06.3a4.81,4.81,0,0,1-5.38,1.307,4.5,4.5,0,0,1-2.61-4.818" transform="translate(8.498 6.585)" fill="#ff9b6c"/>
              <path id="Trazado_709561" data-name="Trazado 709561" d="M113.22,86.751c-.01-.492-3.279-.241-5.819-2.858s-2.453-6.124-2.912-6.113c-.209-.029-.575.826-.5,2.3a8.17,8.17,0,0,0,2.246,5.118,7.115,7.115,0,0,0,4.863,2.187c1.377.017,2.158-.411,2.121-.633" transform="translate(8.587 6.423)" fill="#263238"/>
              <path id="Trazado_709562" data-name="Trazado 709562" d="M76.456,13.432C80.079,7.676,88.638,1.666,95.338.5,102.977-.84,107.579.469,112.6,5.056c0,0,3.908,3.771,7.572,4.483s6.725.108,11.1,2.344c5.968,3.053,8.585,11.034,11.351,17.141,3.437,7.59,8.335,14.575,10.576,22.6s1.049,17.883-5.713,22.751c1.159-6.148,2.125-12.912-.407-18.476a16.143,16.143,0,0,1-.409,6.659c-1.267-3.61-2.6-7.336-5.221-10.124-2.473-2.629-5.891-4.2-8.439-6.756-3.743-3.755-5.466-9.481-10.014-12.206-4.731-2.835-10.714-1.421-16.23-1.4a31.1,31.1,0,0,1-24.18-11.649l1.372-.116a38.517,38.517,0,0,1-7.5-6.877" transform="translate(6.314 0)" fill="#182024"/>
              <path id="Trazado_709563" data-name="Trazado 709563" d="M44.7,69.933c2.106-6.9,5.8-13.215,8.115-20.047C55.07,43.231,56,36.119,58.993,29.762c4.024-8.552,11.546-19.629,23.268-19.019l.8.7a25.057,25.057,0,0,1,11.813,1.411l.179,9.136L97.3,23.969c-.942,1.812-1.834,3.566-2.7,5.288a57.739,57.739,0,0,1-2.988,10.055,26.059,26.059,0,0,1-5.623,8.55C65.8,96.2,84.113,99.251,75.017,126.953L69.3,111.094A28.268,28.268,0,0,1,57.98,98.9q-.5,2.514-1.008,5.025a29.137,29.137,0,0,1-7.887-18l-2.624,4.822c-4.153-5.9-3.865-13.917-1.759-20.816" transform="translate(3.568 0.885)" fill="#182024"/>
              <path id="Trazado_709564" data-name="Trazado 709564" d="M77.528,63.886c-.314-.787-14.907-5.586-14.66,9.771.24,14.92,15.2,11.554,15.223,11.126s-.563-20.9-.563-20.9" transform="translate(5.192 5.167)" fill="#ffc09d"/>
              <path id="Trazado_709565" data-name="Trazado 709565" d="M73.093,78.845c-.066-.045-.257.187-.692.4a2.6,2.6,0,0,1-1.942.078c-1.587-.548-2.962-3.025-3.086-5.713a8.593,8.593,0,0,1,.656-3.735,3,3,0,0,1,1.917-2.032,1.32,1.32,0,0,1,1.547.683c.208.412.119.712.2.736.042.037.315-.255.183-.869a1.653,1.653,0,0,0-.605-.923,1.955,1.955,0,0,0-1.444-.352,3.651,3.651,0,0,0-2.671,2.364,8.814,8.814,0,0,0-.821,4.176c.153,3,1.746,5.789,3.914,6.37a2.783,2.783,0,0,0,2.37-.44c.455-.378.527-.713.475-.739" transform="translate(5.477 5.541)" fill="#ff9b6c"/>
              <path id="Trazado_709566" data-name="Trazado 709566" d="M71.339,80.431a2.937,2.937,0,1,0,.7.2" transform="translate(5.612 6.64)" fill="#fff"/>
              <path id="Trazado_709567" data-name="Trazado 709567" d="M72.065,80.641a4.028,4.028,0,0,1,1.4,1.965,2.529,2.529,0,0,1-.516,2.358,2.609,2.609,0,0,1-4.628-1.329,2.529,2.529,0,0,1,.814-2.272,4.012,4.012,0,0,1,2.229-.922c.008-.037-.233-.148-.7-.145a3.047,3.047,0,0,0-1.841.7,2.983,2.983,0,0,0-1.12,2.724,3.205,3.205,0,0,0,5.73,1.647,2.984,2.984,0,0,0,.5-2.9,3.045,3.045,0,0,0-1.188-1.574c-.4-.252-.66-.287-.672-.251" transform="translate(5.588 6.631)" fill="#263238"/>
              <path id="Trazado_709568" data-name="Trazado 709568" d="M93.188,27.688c-.3.118-1.675-4.939-5.832-9.631-4.09-4.755-8.913-6.8-8.756-7.08a8.318,8.318,0,0,1,3.147,1.26A24.181,24.181,0,0,1,92.364,24.4a8.333,8.333,0,0,1,.824,3.288" transform="translate(6.491 0.905)" fill="#0d1316"/>
              <path id="Trazado_709569" data-name="Trazado 709569" d="M139.357,126.49c-1.417-.365,16.437,83.237,16.437,83.237l29.185,42.263h27.95l8.029-6.212s-14.922-29.795-21.97-40.527-34.7-72.348-59.632-78.761" transform="translate(11.502 10.446)" fill="#455a64"/>
              <path id="Trazado_709570" data-name="Trazado 709570" d="M149.132,126.837l-22.653-4.55c-5.426,20.769-34.2,18.939-49.8,0l-12.487,3.4c-16.7,4.912-20.566,6.779-20.566,6.779-12.153,4.759-19.723,17.815-22.717,26.861l29.8,82.643-7.586,49.8,38.378,70.87,90.088-1.01L159.908,249.405l2.554-13.583,3.758-11.781c3.768-12.095-1.3-34.278-5-46.4l-4.028-17.589Z" transform="translate(1.727 10.099)" fill="#455a64"/>
              <g id="Grupo_1005156" data-name="Grupo 1005156" transform="translate(47.604 171.894)" opacity="0.3">
                <g id="Grupo_1005155" data-name="Grupo 1005155">
                  <g id="Grupo_1005154" data-name="Grupo 1005154" clip-path="url(#clip-path-8)">
                    <path id="Trazado_709571" data-name="Trazado 709571" d="M56.906,158.781s1.445,17.343,0,26.015-4.932,51.361-4.932,51.361L95.332,249.07l23.818-8.306L105.333,274.11l-25.321,3.627L51.358,247.073l-7.385-22.028,4.075-11.855Z" transform="translate(-43.973 -158.781)"/>
                  </g>
                </g>
              </g>
              <path id="Trazado_709572" data-name="Trazado 709572" d="M143.655,255.33l-23.077-11.513,3.757-2.169,7.189,2.3c.047.327,6.694,3.3,9.163,2.6a6.408,6.408,0,0,0,3.823-2.832c.352-.669-8.491-5.188-8.491-5.188L124.9,232.837,113,235.964,91.765,249.217l-15.928-4.959c-.392.669-6.085,25.833-6.085,25.833s15.639,5.12,24.627,4.366c6.1-.513,11.339-4.759,14.381-7.774l2.728,1.457S121.47,273,125.715,273.2s1.492-3.792,1.492-3.792l-7.447-4.832-3.019-2.664,4.592,1.631s7.788,3.992,9.364,4.429c2.027.563,3.63.115,4.392-2.7s-15.177-12.159-15.177-12.159l15.515,6.5a8.783,8.783,0,0,0,4.581.663,3.708,3.708,0,0,0,3.173-1.984c1.179-2.86.473-2.959.473-2.959" transform="translate(5.76 19.229)" fill="#ffc09d"/>
              <path id="Trazado_709573" data-name="Trazado 709573" d="M104.6,245.174a4.905,4.905,0,0,1,1.569-1.354,12.178,12.178,0,0,1,9.695-1.459,4.9,4.9,0,0,1,1.9.833,16.531,16.531,0,0,1-1.991-.445,13.924,13.924,0,0,0-9.4,1.415,16.432,16.432,0,0,1-1.772,1.011" transform="translate(8.638 19.98)" fill="#ff9b6c"/>
              <path id="Trazado_709574" data-name="Trazado 709574" d="M119.772,253.363a11.66,11.66,0,0,1-2.051-1.255,21.136,21.136,0,0,0-5.071-2.6,9.449,9.449,0,0,0-5.55-.11,17.2,17.2,0,0,0-2.139.993,4.058,4.058,0,0,1,2.008-1.369,9.012,9.012,0,0,1,5.85-.051,17.482,17.482,0,0,1,5.13,2.808,9.148,9.148,0,0,1,1.823,1.582" transform="translate(8.668 20.523)" fill="#ff9b6c"/>
              <path id="Trazado_709575" data-name="Trazado 709575" d="M110.688,256.239c-.054.075-.491-.2-1.251-.47a7.07,7.07,0,0,0-6.017.66c-.684.425-1.051.79-1.12.73-.049-.038.218-.511.891-1.056a6.228,6.228,0,0,1,6.4-.7c.776.385,1.139.789,1.1.837" transform="translate(8.448 21.045)" fill="#ff9b6c"/>
              <path id="Trazado_709576" data-name="Trazado 709576" d="M116.2,262.854a14.969,14.969,0,0,1-5.176-5.024,16.4,16.4,0,0,1,2.674,2.424,16.246,16.246,0,0,1,2.5,2.6" transform="translate(9.168 21.292)" fill="#ff9b6c"/>
              <path id="Trazado_709577" data-name="Trazado 709577" d="M62.875,174.4c6.4-34.093-30.617-44-39.484-18.862,0,0-8.866,25.629-12.61,39.894C7.293,208.724,3.2,225.789.528,242.243c-1.85,11.4,1.258,24.9,7.718,27.647,16.874,7.162,83.839,17.878,83.839,17.878l4.151-34.13L46.611,241.9s2.067-5.589-1.754-6.106l11.97-41.393Z" transform="translate(0 11.683)" fill="#455a64"/>
              <path id="Trazado_709578" data-name="Trazado 709578" d="M41.435,228.6a2.184,2.184,0,0,1,.446.212,2.544,2.544,0,0,1,.514.325,3.156,3.156,0,0,1,.625.566,3.29,3.29,0,0,1,.829,2.178,5.676,5.676,0,0,1-.957,3.027l-.1-.235c4.034.724,9.582,1.932,16.108,3.505l22.062,5.4c4.131.978,8.143,1.882,11.9,2.6l.251.048-.031.252c-1.234,9.815-2.3,18.325-3.073,24.442l-.944,7.1c-.115.791-.207,1.42-.276,1.9a3.462,3.462,0,0,1-.128.652,3.521,3.521,0,0,1,.032-.664c.048-.481.109-1.114.187-1.909.189-1.716.455-4.126.786-7.124.72-6.122,1.72-14.64,2.875-24.464l.22.3c-3.772-.709-7.792-1.608-11.928-2.586-8.032-1.913-15.534-3.861-22.049-5.466s-12.036-2.887-16.047-3.686l-.222-.044.127-.192a5.491,5.491,0,0,0,.97-2.854,3.359,3.359,0,0,0-1.294-2.648,2.743,2.743,0,0,0-.482-.351,2.2,2.2,0,0,1-.4-.283" transform="translate(3.422 18.879)" fill="#263238"/>
              <path id="Trazado_709579" data-name="Trazado 709579" d="M56.606,181.429a2,2,0,0,1-.1.535c-.106.407-.235.9-.392,1.5l-1.539,5.5c-1.324,4.635-3.189,11.027-5.284,18.077s-4.021,13.426-5.443,18.033l-1.71,5.446c-.2.588-.359,1.074-.493,1.473a2.017,2.017,0,0,1-.209.5,2,2,0,0,1,.1-.535l.391-1.5c.388-1.381.907-3.239,1.539-5.5,1.324-4.636,3.19-11.028,5.285-18.081s4.021-13.425,5.442-18.032c.7-2.237,1.282-4.077,1.712-5.447.2-.588.359-1.074.493-1.472a2.014,2.014,0,0,1,.209-.5" transform="translate(3.422 14.983)" fill="#263238"/>
              <path id="Trazado_709580" data-name="Trazado 709580" d="M59.108,163.545a42.058,42.058,0,0,0-.954-5.452A23.912,23.912,0,0,0,39.77,140.775a42.352,42.352,0,0,0-5.5-.627,6.469,6.469,0,0,1,1.5-.12,21.219,21.219,0,0,1,4.08.356A23.426,23.426,0,0,1,58.54,157.993a21.22,21.22,0,0,1,.6,4.052,6.437,6.437,0,0,1-.03,1.5" transform="translate(2.83 11.564)" fill="#263238"/>
              <path id="Trazado_709581" data-name="Trazado 709581" d="M42.322,229.05c-.025.088-.764-.119-1.974-.186a10.3,10.3,0,0,0-8.382,3.46c-.811.9-1.188,1.569-1.268,1.524a4.215,4.215,0,0,1,.961-1.779,9.454,9.454,0,0,1,8.727-3.6,4.231,4.231,0,0,1,1.936.582" transform="translate(2.535 18.861)" fill="#263238"/>
              <path id="Trazado_709582" data-name="Trazado 709582" d="M43.222,233.437c.014.171-1.965.343-4.173,1.29-2.219.923-3.722,2.221-3.835,2.093a7.871,7.871,0,0,1,3.616-2.612,7.871,7.871,0,0,1,4.392-.771" transform="translate(2.908 19.271)" fill="#263238"/>
              <path id="Trazado_709583" data-name="Trazado 709583" d="M145.341,159.978a3.793,3.793,0,0,1,.391.648l1.024,1.911c.444.831.981,1.851,1.533,3.07s1.255,2.574,1.873,4.142c.644,1.557,1.379,3.252,2.024,5.127.33.934.709,1.888,1.028,2.894s.639,2.047.971,3.11a94.936,94.936,0,0,1,3.055,14.171,85.245,85.245,0,0,1,.608,14.489c-.184,2.224-.289,4.344-.628,6.3-.15.98-.254,1.935-.432,2.837l-.549,2.591c-.305,1.661-.788,3.112-1.142,4.4-.191.642-.345,1.246-.528,1.788l-.54,1.473c-.315.839-.569,1.512-.764,2.03a3.827,3.827,0,0,1-.3.693,3.872,3.872,0,0,1,.195-.733l.663-2.06q.224-.677.491-1.483c.168-.546.306-1.152.482-1.795.324-1.294.777-2.744,1.056-4.4q.245-1.237.51-2.583c.166-.9.258-1.849.4-2.824.317-1.949.4-4.056.573-6.266a88.135,88.135,0,0,0-.648-14.391,98.49,98.49,0,0,0-3-14.1q-.484-1.591-.943-3.1c-.31-1-.679-1.957-1-2.891-.624-1.874-1.334-3.57-1.953-5.131-.592-1.572-1.268-2.936-1.791-4.164s-1.031-2.259-1.443-3.1c-.384-.809-.693-1.458-.929-1.957a3.847,3.847,0,0,1-.29-.7" transform="translate(12.003 13.212)" fill="#263238"/>
              <path id="Trazado_709584" data-name="Trazado 709584" d="M146.747,153.073c.148.08-.617,1.613-1.006,3.653-.409,2.037-.277,3.746-.445,3.763a8.827,8.827,0,0,1,1.451-7.416" transform="translate(11.974 12.641)" fill="#263238"/>
              <g id="Grupo_1005159" data-name="Grupo 1005159" transform="translate(156.244 167.343)" opacity="0.3">
                <g id="Grupo_1005158" data-name="Grupo 1005158">
                  <g id="Grupo_1005157" data-name="Grupo 1005157" clip-path="url(#clip-path-9)">
                    <path id="Trazado_709585" data-name="Trazado 709585" d="M161.214,184.3c-1.393-5.49-4.012-10.577-6.609-15.61q-3.165-6.135-6.332-12.27c-.4-.781-.914-1.647-1.775-1.819-1.052-.21-2.02.827-2.151,1.892a5.871,5.871,0,0,0,.774,3.078,225.429,225.429,0,0,1,9.574,25.07c2.652,8.312,4.56,19.416,3.078,28.013,5.047-8.407,5.854-18.85,3.442-28.355" transform="translate(-144.325 -154.577)"/>
                  </g>
                </g>
              </g>
              <path id="Trazado_709586" data-name="Trazado 709586" d="M126.148,202.826a1.652,1.652,0,0,1-.061.5c-.065.32-.137.8-.3,1.4a34.251,34.251,0,0,1-1.646,5.006,37.629,37.629,0,0,1-25.363,22.122,34.116,34.116,0,0,1-5.182.951c-.617.077-1.1.083-1.428.1a1.664,1.664,0,0,1-.5-.008,15.855,15.855,0,0,1,1.9-.314,41.642,41.642,0,0,0,5.105-1.117,38.7,38.7,0,0,0,25.1-21.894,41.9,41.9,0,0,0,1.8-4.906,15.908,15.908,0,0,1,.568-1.84" transform="translate(7.571 16.75)" fill="#263238"/>
              <path id="Trazado_709587" data-name="Trazado 709587" d="M250.122,218.45l-2.839-3.175s-20.754,9.331-27.812,13.28c-10.177,5.7-11.478,8.6-11.478,8.6l-1.347,6.486,4.792,3.243Z" transform="translate(17.066 17.778)" fill="#fff"/>
              <path id="Trazado_709588" data-name="Trazado 709588" d="M211.442,246.916l-.015-.011-4.808-3.253,0-.017,1.347-6.485a8.048,8.048,0,0,1,1.931-2.178,53.531,53.531,0,0,1,9.56-6.437c6.977-3.906,27.606-13.188,27.814-13.281l.018-.009.012.015,2.859,3.2-.024.018Zm-4.761-3.289,4.759,3.224,38.645-28.4-2.806-3.137c-.718.324-20.906,9.416-27.79,13.27a53.59,53.59,0,0,0-9.544,6.424,8.388,8.388,0,0,0-1.924,2.16Z" transform="translate(17.064 17.776)" fill="#263238"/>
              <path id="Trazado_709589" data-name="Trazado 709589" d="M218.138,245.306s-1.415-13.8-10.4-17.712-36.4,10.124-36.984,10.32-56.2,36.182-56.2,36.182l3.09,3.788,50.545-6.133Z" transform="translate(9.46 18.739)" fill="#fff"/>
              <path id="Trazado_709590" data-name="Trazado 709590" d="M116.264,275.476l54.921-35.7s29.124-14.712,37.232-9.991,7.236,13.767,7.236,13.767l-52.938,30.37-43.853,5.321Z" transform="translate(9.602 18.9)" fill="#e0e0e0"/>
              <path id="Trazado_709591" data-name="Trazado 709591" d="M215.171,238.405s-4.5-7.4-23.868-4.075a121.811,121.811,0,0,0-21.454,5.88l-52.513,35.828,1.822,2.121,83.348-31.054,13.083-2.592,1.079-2.3Z" transform="translate(9.69 19.281)" fill="#fff"/>
              <path id="Trazado_709592" data-name="Trazado 709592" d="M113.414,281.669l48.276-32.506,48.919-7.4,7.4,3.54,40.84-28.966,1.964,2.253-64.907,52.424-13.918-3.353-15.165,10.681-52.177,5.521Z" transform="translate(9.366 17.866)" fill="#435ac2"/>
              <path id="Trazado_709593" data-name="Trazado 709593" d="M114.654,283.891s-.108-.161-.317-.515c-.213-.37-.526-.91-.957-1.655l-.022-.037.036-.024c5.319-3.663,22.892-15.568,48.18-32.646l.04-.027.049-.008,48.912-7.449.079-.013.074.036,7.4,3.536-.272.023,40.833-28.975.208-.148.168.193.532.611,1.432,1.642.2.231-.247.182-41.476,30.522-.136.1-.148-.079-8.136-4.37.166.028-48.008,7.814.08-.03-35.553,22.76-9.71,6.179-2.536,1.6c-.574.356-.876.526-.876.526s.279-.2.842-.579l2.5-1.647,9.648-6.274L163.1,252.473l.036-.024.044-.007,47.992-7.914.088-.015.079.042,8.14,4.36-.285.021c13.008-9.584,26.956-19.86,41.459-30.546l-.045.412-1.431-1.642-.533-.611.376.045-40.848,28.954-.129.092-.143-.068-7.4-3.544.153.023-48.925,7.354.088-.034c-25.336,17.009-42.975,28.813-48.37,32.364l.014-.061.918,1.678c.195.362.276.538.276.538" transform="translate(9.362 17.837)" fill="#263238"/>
              <path id="Trazado_709594" data-name="Trazado 709594" d="M157.5,247.391c.131-.084.615.431,1.083,1.152s.74,1.374.609,1.458-.615-.431-1.083-1.152-.74-1.374-.61-1.458" transform="translate(13.005 20.43)" fill="#263238"/>
              <path id="Trazado_709595" data-name="Trazado 709595" d="M207.37,242.96a2.18,2.18,0,0,1-.415.389l-1.256,1.025-4.681,3.689c-3.969,3.1-9.474,7.342-15.576,12-3.068,2.31-5.927,4.6-8.652,6.506l-7.264,5.042-4.925,3.359-1.355.89a2.191,2.191,0,0,1-.495.279,2.174,2.174,0,0,1,.43-.372l1.294-.975,4.82-3.5,7.189-5.138c2.706-1.932,5.556-4.23,8.623-6.539,6.1-4.661,11.642-8.854,15.67-11.868,1.971-1.46,3.592-2.659,4.789-3.547l1.32-.942a2.2,2.2,0,0,1,.484-.3" transform="translate(13.441 20.065)" fill="#263238"/>
              <path id="Trazado_709596" data-name="Trazado 709596" d="M224.479,245c-1.321,1.806-5.038,7.731-5.038,7.731a64.59,64.59,0,0,1-2.931,10.581,18.952,18.952,0,0,1-14.68,11.15c-7.433.929-19.839-3.831-19.839-3.831l-15.941-5.94s-3.582-3.057-.609-4.916c0,0-2.634-2.966,2.569-4.268S187.52,260.9,187.52,260.9s-5.946-5.017-9.477-6.318-2.044-4.274.929-4.645,5.179.727,10.2,2.4,9.5,5.033,11.547,5.033.769-3.313-1.115-4.611c-7.525-5.186-5.018-6.91-5.018-6.91s.744-2.6,4.646-.93a101.734,101.734,0,0,1,10.655,6c4.313-.284,5.7-1.358,6.68-3.907a9.119,9.119,0,0,1,2.829-3.773l1.9-1.536a2.3,2.3,0,0,1,3.342,3.078c-.05.074-.1.147-.157.222" transform="translate(13.565 19.917)" fill="#ffc09d"/>
              <path id="Trazado_709597" data-name="Trazado 709597" d="M184.7,267.3a105.184,105.184,0,0,1-10-4.31,105.585,105.585,0,0,1-9.763-4.822,105.4,105.4,0,0,1,10,4.31A105.314,105.314,0,0,1,184.7,267.3" transform="translate(13.621 21.32)" fill="#ff9b6c"/>
              <path id="Trazado_709598" data-name="Trazado 709598" d="M190.708,263.757a24.6,24.6,0,0,1-5.8-4.626,24.6,24.6,0,0,1,5.8,4.626" transform="translate(15.27 21.399)" fill="#ff9b6c"/>
              <path id="Trazado_709599" data-name="Trazado 709599" d="M208.257,256c.065-.016.244.362.187,1.018a3.059,3.059,0,0,1-3.693,2.706c-.642-.144-.949-.429-.914-.485.038-.078.393.062.967.091a3.071,3.071,0,0,0,3.247-2.381c.146-.556.119-.936.206-.949" transform="translate(16.834 21.141)" fill="#ff9b6c"/>
              <path id="Trazado_709600" data-name="Trazado 709600" d="M198.862,264.45c.062.025.022.343-.273.755a3.035,3.035,0,0,1-3.545.932c-.459-.213-.652-.47-.609-.523a5.708,5.708,0,0,0,2.395.107c1.314-.318,1.9-1.346,2.033-1.271" transform="translate(16.057 21.839)" fill="#ff9b6c"/>
              <path id="Trazado_709601" data-name="Trazado 709601" d="M190.219,268.9c.091.122-.721.684-1.849.512s-1.743-.937-1.621-1.028c.109-.12.768.343,1.7.47.932.152,1.7-.1,1.767.047" transform="translate(15.421 22.163)" fill="#ff9b6c"/>
              <path id="Trazado_709602" data-name="Trazado 709602" d="M212.774,247.35c.056.009.021.534-.448,1.208a4.981,4.981,0,0,1-2.56,1.754,5.631,5.631,0,0,1-3.1.154c-.79-.21-1.161-.594-1.117-.64.051-.077.463.157,1.2.249a6.669,6.669,0,0,0,2.844-.3,5.621,5.621,0,0,0,2.423-1.467c.5-.539.667-.99.759-.958" transform="translate(16.975 20.427)" fill="#ff9b6c"/>
              <path id="Trazado_709603" data-name="Trazado 709603" d="M215.018,238.226a.959.959,0,0,1-.123-.226c-.082-.182-.185-.406-.312-.683a24.062,24.062,0,0,0-1.337-2.557,12.563,12.563,0,0,0-2.987-3.409,10.39,10.39,0,0,0-2.48-1.368,13.929,13.929,0,0,0-3.11-.732,22.447,22.447,0,0,0-3.545-.131c-.612.067-1.241.071-1.874.192s-1.282.219-1.935.371a66.975,66.975,0,0,0-8.209,2.566,196.294,196.294,0,0,0-18.3,8.053l.021-.012-6.04,3.779c-13.545,8.508-25.74,16.319-34.508,22.059l-10.358,6.835-2.807,1.872-.739.475a1.189,1.189,0,0,1-.262.146,1.2,1.2,0,0,1,.23-.193l.707-.522,2.749-1.959c2.4-1.678,5.9-4.081,10.262-6.988,8.717-5.826,20.88-13.693,34.428-22.2l6.045-3.777.011-.008.011,0a189.28,189.28,0,0,1,18.377-8.021,66.168,66.168,0,0,1,8.286-2.532c.66-.148,1.324-.241,1.967-.361s1.3-.118,1.925-.18a22.58,22.58,0,0,1,3.605.17,14.148,14.148,0,0,1,3.184.789,10.651,10.651,0,0,1,2.539,1.449,12.511,12.511,0,0,1,2.983,3.539,18.028,18.028,0,0,1,1.6,3.57" transform="translate(9.589 18.887)" fill="#263238"/>
              <path id="Trazado_709604" data-name="Trazado 709604" d="M210.783,239.469c-.017.01-.128-.127-.323-.391a7.429,7.429,0,0,0-.9-1.1,13.046,13.046,0,0,0-4.316-2.891,23.8,23.8,0,0,0-7.529-1.78,54.492,54.492,0,0,0-9.542.486,78.321,78.321,0,0,0-16.8,4.451c-2.084.8-3.747,1.508-4.888,2.016l-1.313.588a1.844,1.844,0,0,1-.471.182,10.04,10.04,0,0,1,1.69-.968c1.116-.571,2.761-1.339,4.836-2.189a71.933,71.933,0,0,1,16.873-4.638,52.146,52.146,0,0,1,9.648-.446,23.353,23.353,0,0,1,7.661,1.934,12.482,12.482,0,0,1,4.318,3.108,6.006,6.006,0,0,1,.835,1.188,1.67,1.67,0,0,1,.226.451" transform="translate(13.601 19.22)" fill="#263238"/>
              <path id="Trazado_709605" data-name="Trazado 709605" d="M167.189,245.6c-.129.113-1.034-.9-1.72-2.375-.718-1.46-.94-2.8-.77-2.83a111.62,111.62,0,0,1,2.49,5.205" transform="translate(13.597 19.853)" fill="#263238"/>
            </g>
            <path id="Trazado_725935" data-name="Trazado 725935" d="M-5795-9041.671v-22.283s22.534,3,44.5,1.226,42.93-11.388,43.7-1.226,2.639,22.283,2.639,22.283Z" transform="translate(5880.081 9409.943)" fill="#0f2035"/>
            <g id="Grupo_1010309" data-name="Grupo 1010309" transform="translate(124.081 350.272)">
              <g id="Grupo_1010309-2" data-name="Grupo 1010309" clip-path="url(#clip-path-10)">
                <path id="Trazado_725936" data-name="Trazado 725936" d="M2.29.038A3.073,3.073,0,0,0,.812,1.1,1.9,1.9,0,0,0,.606,2.9,2.1,2.1,0,0,0,2.356,4.2,2.1,2.1,0,0,0,4.218,3.071a1.9,1.9,0,0,0-.039-1.815A3.064,3.064,0,0,0,2.806.062c0-.03.2-.054.54.059a2.3,2.3,0,0,1,1.159.943,2.253,2.253,0,0,1,.154,2.228A2.542,2.542,0,0,1,2.331,4.729,2.543,2.543,0,0,1,.146,3.084,2.256,2.256,0,0,1,.5.879,2.3,2.3,0,0,1,1.746.047c.347-.081.544-.039.544-.009" fill="#455a64"/>
              </g>
            </g>
            <g id="Grupo_1010310" data-name="Grupo 1010310" transform="translate(128.081 357.272)">
              <g id="Grupo_1010310-2" data-name="Grupo 1010310" clip-path="url(#clip-path-11)">
                <path id="Trazado_725937" data-name="Trazado 725937" d="M.006,0A10.869,10.869,0,0,1,.541,1.665c.34,1.166.789,2.707,1.333,4.57L6.4,21.278c1.742,5.887,3.169,11.267,3.993,15.21.426,1.968.708,3.574.871,4.688a10.827,10.827,0,0,1,.2,1.739,10.987,10.987,0,0,1-.4-1.7c-.225-1.1-.563-2.69-1.035-4.642-.916-3.91-2.4-9.259-4.137-15.142S2.551,10.225,1.51,6.338C.983,4.4.588,2.816.339,1.718A10.977,10.977,0,0,1,.006,0" fill="#455a64"/>
              </g>
            </g>
            <g id="Grupo_1010311" data-name="Grupo 1010311" transform="translate(166.115 353.68) rotate(97)">
              <g id="Grupo_1010310-3" data-name="Grupo 1010310" transform="translate(0 0)" clip-path="url(#clip-path-12)">
                <path id="Trazado_725937-2" data-name="Trazado 725937" d="M.006,0A18.1,18.1,0,0,1,.541,2.224c.34,1.557.789,3.616,1.333,6.1L6.4,28.422c1.742,7.863,3.169,15.05,3.993,20.317.426,2.629.708,4.774.871,6.262a19.178,19.178,0,0,1,.2,2.323,18.836,18.836,0,0,1-.4-2.273c-.225-1.469-.563-3.593-1.035-6.2-.916-5.223-2.4-12.368-4.137-20.226S2.551,13.658,1.51,8.466C.983,5.872.588,3.761.339,2.295A19.165,19.165,0,0,1,.006,0" transform="translate(0 0)" fill="#455a64"/>
              </g>
            </g>
          </g>
        </g>
      </g>
    </g>
  </g>
</svg>
