<svg xmlns="http://www.w3.org/2000/svg" xmlns:xlink="http://www.w3.org/1999/xlink" width="85" height="78" viewBox="0 0 85 78">
  <defs>
    <filter id="Elipse_7683" x="6" y="3" width="75" height="75" filterUnits="userSpaceOnUse">
      <feOffset dy="3" input="SourceAlpha"/>
      <feGaussianBlur stdDeviation="3" result="blur"/>
      <feFlood flood-opacity="0.161"/>
      <feComposite operator="in" in2="blur"/>
      <feComposite in="SourceGraphic"/>
    </filter>
    <clipPath id="clip-path">
      <path id="path345" d="M0-682.665H58.675v58.675H0Z" transform="translate(0 682.665)"/>
    </clipPath>
  </defs>
  <g id="Grupo_1006098" data-name="Grupo 1006098" transform="translate(-180 -2330)">
    <rect id="Rectángulo_345293" data-name="Rectángulo 345293" width="85" height="73" rx="5" transform="translate(180 2330)" fill="#4db1f0"/>
    <g id="Grupo_1003777" data-name="Grupo 1003777" transform="translate(-0.762 1924.238)">
      <g transform="matrix(1, 0, 0, 1, 180.76, 405.76)" filter="url(#Elipse_7683)">
        <circle id="Elipse_7683-2" data-name="Elipse 7683" cx="28.5" cy="28.5" r="28.5" transform="translate(15 9)" fill="#bfe5f9"/>
      </g>
    </g>
    <g id="g341" transform="translate(193.162 2339)">
      <g id="g343" clip-path="url(#clip-path)">
        <g id="g349" transform="translate(22.691 21.774)">
          <path id="path351" d="M0-158.486v11a3.667,3.667,0,0,0,3.666,3.667H20.284l7.564,6.188v-6.188h3.323a3.667,3.667,0,0,0,3.667-3.667v-22.232a3.667,3.667,0,0,0-3.667-3.667H13.986Z" transform="translate(0 173.389)" fill="#54cff2"/>
        </g>
        <g id="g357" transform="translate(34.08 29.805)">
          <path id="path359" d="M-128.25-146.145l-6.03-13.742-6.03,13.742" transform="translate(140.309 159.888)" fill="none" stroke="#12263f" stroke-linecap="round" stroke-linejoin="round" stroke-miterlimit="10" stroke-width="2"/>
        </g>
        <g id="g361" transform="translate(34.895 38.914)">
          <path id="path363" d="M-110.914,0h-10.429" transform="translate(121.344)" fill="none" stroke="#12263f" stroke-linecap="round" stroke-linejoin="round" stroke-miterlimit="10" stroke-width="2"/>
        </g>
        <g id="g365" transform="translate(1.146 1.146)">
          <path id="path367" d="M-188.929,0a17.765,17.765,0,0,0-17.765,17.765A17.684,17.684,0,0,0-203.3,28.21l-2.19,4.812,5.42-1.417v0a17.69,17.69,0,0,0,11.141,3.928,17.765,17.765,0,0,0,17.765-17.765A17.765,17.765,0,0,0-188.929,0" transform="translate(206.694)" fill="#ffcb7c"/>
        </g>
        <g id="g377" transform="translate(13.558 16.854)">
          <path id="path379" d="M0,0H11.643" fill="none" stroke="#12263f" stroke-linecap="round" stroke-linejoin="round" stroke-miterlimit="10" stroke-width="2"/>
        </g>
        <g id="g381" transform="translate(12.621 10.932)">
          <path id="path383" d="M0-169.716H0a11.986,11.986,0,0,0,6.223-10.51v-5.449" transform="translate(0 185.674)" fill="none" stroke="#12263f" stroke-linecap="round" stroke-linejoin="round" stroke-miterlimit="10" stroke-width="2"/>
        </g>
        <g id="g385" transform="translate(18.844 10.932)">
          <path id="path387" d="M-66.178-169.716h0a11.986,11.986,0,0,1-6.223-10.51v-5.449" transform="translate(72.401 185.674)" fill="none" stroke="#12263f" stroke-linecap="round" stroke-linejoin="round" stroke-miterlimit="10" stroke-width="2"/>
        </g>
      </g>
    </g>
  </g>
</svg>
