<svg xmlns="http://www.w3.org/2000/svg" xmlns:xlink="http://www.w3.org/1999/xlink" width="13.313" height="17.708" viewBox="0 0 13.313 17.708">
  <defs>
    <clipPath id="clip-path">
      <rect id="Rectángulo_344336" data-name="Rectángulo 344336" width="13.313" height="17.708" fill="#005b8b"/>
    </clipPath>
  </defs>
  <g id="Grupo_1009166" data-name="Grupo 1009166" transform="translate(0)">
    <g id="Grupo_896441" data-name="Grupo 896441" transform="translate(0)" clip-path="url(#clip-path)">
      <path id="Trazado_694308" data-name="Trazado 694308" d="M7.787,103.284a2.285,2.285,0,0,0,2.311-.066,2.264,2.264,0,0,0,3.216,1.167c-.032.4-.032.776-.095,1.137A5.45,5.45,0,0,1,8.8,110.083a5.032,5.032,0,0,1-.961.107c-.884.006-1.769.014-2.651-.029a5.221,5.221,0,0,1-3.35-1.468,5.219,5.219,0,0,1-1.631-2.385,6.328,6.328,0,0,1-.146-2.539,2.162,2.162,0,0,1,2.191-1.862c1.007-.02,2.015-.014,3.022,0a1.381,1.381,0,0,1,1.342,1.063A1.354,1.354,0,0,1,5.9,104.5a1.788,1.788,0,0,1-.709.155c-.6.021-1.2,0-1.8.009a.562.562,0,0,0-.534.852.5.5,0,0,0,.461.259c.768,0,1.541.03,2.3-.039a2.389,2.389,0,0,0,2.139-2.215c.006-.068.017-.135.03-.236" transform="translate(0 -92.486)" fill="#005b8b"/>
      <path id="Trazado_694309" data-name="Trazado 694309" d="M14.378,8.282H12.2V7.976q0-3.447,0-6.894A1.062,1.062,0,0,1,13.276,0,1.048,1.048,0,0,1,14.39,1.02q.007,3.562,0,7.125c0,.038-.006.076-.012.138" transform="translate(-11.069 0)" fill="#005b8b"/>
      <path id="Trazado_694310" data-name="Trazado 694310" d="M86.39,62.212c0,.376,0,.753,0,1.129a1.055,1.055,0,0,1-1.088,1.07,1.066,1.066,0,0,1-1.109-1.077q0-1.129,0-2.258a1.1,1.1,0,0,1,2.2-.016c0,.384,0,.768,0,1.152" transform="translate(-76.42 -54.455)" fill="#005b8b"/>
      <path id="Trazado_694311" data-name="Trazado 694311" d="M122.392,74.2c0,.376,0,.753,0,1.129a1.1,1.1,0,0,1-2.2-.011q0-1.118,0-2.235a1.1,1.1,0,0,1,2.2-.012c0,.376,0,.753,0,1.129" transform="translate(-109.098 -65.349)" fill="#005b8b"/>
      <path id="Trazado_694312" data-name="Trazado 694312" d="M50.392,49.927c0,.284,0,.568,0,.852a1.1,1.1,0,0,1-2.2-.009q0-.841,0-1.682a1.1,1.1,0,0,1,2.2-.014c0,.284,0,.568,0,.852" transform="translate(-43.746 -43.566)" fill="#005b8b"/>
    </g>
  </g>
</svg>
