<svg xmlns="http://www.w3.org/2000/svg" xmlns:xlink="http://www.w3.org/1999/xlink" width="85" height="78" viewBox="0 0 85 78">
  <defs>
    <filter id="Elipse_7683" x="5" y="3" width="75" height="75" filterUnits="userSpaceOnUse">
      <feOffset dy="3" input="SourceAlpha"/>
      <feGaussianBlur stdDeviation="3" result="blur"/>
      <feFlood flood-opacity="0.161"/>
      <feComposite operator="in" in2="blur"/>
      <feComposite in="SourceGraphic"/>
    </filter>
  </defs>
  <g id="Grupo_1006101" data-name="Grupo 1006101" transform="translate(-180 -3433)">
    <rect id="Rect치ngulo_33792" data-name="Rect치ngulo 33792" width="85" height="74" rx="5" transform="translate(180 3433)" fill="#4db1f0"/>
    <g id="madre" transform="translate(191 3438)">
      <path id="Trazado_708755" data-name="Trazado 708755" d="M1,50l6-2H7a15,15,0,0,0,9,3h0a15,15,0,0,0,9-3h0l7.556,2.667L46,63H1Z" fill="#0059bd"/>
      <path id="Trazado_708756" data-name="Trazado 708756" d="M32.556,50.667,25,48a15,15,0,0,1-9,3h0a15,15,0,0,1-9-3l-2.839.946A12.993,12.993,0,0,0,17,60H42.73Z" fill="#006bda"/>
      <path id="Trazado_708757" data-name="Trazado 708757" d="M62,41.72a2.155,2.155,0,0,1-1.12,1.89L51,49v3a5.962,5.962,0,0,1-2.05,4.51v.01L53,63H40l-2-6a10.787,10.787,0,0,1-5.41-6.24L32,49l-4.3-3.07,3.01-3.5,3.68,3.06A2.18,2.18,0,0,0,35.8,46,2.206,2.206,0,0,0,38,43.8V30a2,2,0,0,1,4,0v9l3.6-10.81a1.745,1.745,0,0,1,3.4.55,12.229,12.229,0,0,1-.25,2.49L47,40l6.4-8.22A2.01,2.01,0,0,1,57,33.01a3.216,3.216,0,0,1-.55,1.81L51,43l8.74-2.91a1.611,1.611,0,0,1,.54-.09A1.72,1.72,0,0,1,62,41.72Z" fill="#cf8c78"/>
      <path id="Trazado_708758" data-name="Trazado 708758" d="M46.95,57.52v-.01A5.962,5.962,0,0,0,49,53h0a5.055,5.055,0,0,1,2.634-4.437L58.88,44.61A2.154,2.154,0,0,0,60,42.724,1.737,1.737,0,0,0,58.2,41a1.6,1.6,0,0,0-.46.088L49,44l5.45-8.18A3.216,3.216,0,0,0,55,34.01a2,2,0,0,0-1.788-1.988L47,40h0a1.6,1.6,0,0,1-1.561-1.951L46.75,32.23A12.229,12.229,0,0,0,47,29.74a1.739,1.739,0,0,0-1.329-1.686c-.021.048-.054.086-.071.136L42,39h0a2,2,0,0,1-2-2V31a2,2,0,0,0-1.736-1.973A1.962,1.962,0,0,0,38,30V43.715a2.257,2.257,0,0,1-1.416,2.146,2.217,2.217,0,0,1-2.194-.371l-3.68-3.06-3.01,3.5L32,49l.59,1.76A10.787,10.787,0,0,0,38,57l2,6H50.375Z" fill="#f1b8a0"/>
      <path id="Trazado_708759" data-name="Trazado 708759" d="M47.1,48.447l1.79-.894a10.079,10.079,0,0,0-7.084-5.41L41.2,42.02l-.4,1.96.614.124A8.088,8.088,0,0,1,47.1,48.447Z" fill="#cf8c78"/>
      <path id="Trazado_708760" data-name="Trazado 708760" d="M46.707,50.708l-1.414-1.416-.766.766a14.234,14.234,0,0,0-1.567,1.9,10.346,10.346,0,0,0-3.4-3.792l-1.11,1.664A8.33,8.33,0,0,1,41.7,54.078a14.133,14.133,0,0,0-.65,1.607l1.9.63a12.44,12.44,0,0,1,2.992-4.843Z" fill="#cf8c78"/>
      <path id="Trazado_708761" data-name="Trazado 708761" d="M30,18l.63-.788A15.371,15.371,0,0,0,34,7.606h0A6.737,6.737,0,0,0,31,2h0a5.447,5.447,0,0,1-4.1,3.62l-.471.094A14.708,14.708,0,0,1,23.543,6h0a15.008,15.008,0,0,1-6.711-1.584h0A3.923,3.923,0,0,0,15.071,4h0a3.933,3.933,0,0,0-3.816,2.979L11,8h-.566A8.434,8.434,0,0,0,2,16.434H2a8.453,8.453,0,0,0,.562,3.028l3.313,8.612L12.254,40.5Z" fill="#212121"/>
      <path id="Trazado_708762" data-name="Trazado 708762" d="M30.227,3.479A5.438,5.438,0,0,1,26.9,5.62l-.471.094A14.708,14.708,0,0,1,23.543,6a15.008,15.008,0,0,1-6.711-1.584h0A3.923,3.923,0,0,0,15.071,4h0a3.933,3.933,0,0,0-3.816,2.979L11,8h-.566A8.435,8.435,0,0,0,2.562,19.462l3.313,8.612L10.76,37.59,27,17l.63-.788A15.371,15.371,0,0,0,31,6.606a6.737,6.737,0,0,0-.773-3.127Z" fill="#383838"/>
      <path id="Trazado_708763" data-name="Trazado 708763" d="M32,33.77a22.689,22.689,0,0,1-.44,4.42l-.97,4.87A3.662,3.662,0,0,1,27,46h-.19a21.111,21.111,0,0,1-4.9-.57v.01a7.76,7.76,0,0,0,2.63,2.89v.01a15.328,15.328,0,0,1-3.8,1.89,14.974,14.974,0,0,1-9.48,0,15.328,15.328,0,0,1-3.8-1.89v-.01A7.839,7.839,0,0,0,11,41.78a7.96,7.96,0,0,0-.15-1.54L10,36a2.015,2.015,0,0,1-2,2,1.643,1.643,0,0,1-1.45-.89L4.68,33.37A6.471,6.471,0,0,1,4,30.47a2.506,2.506,0,0,1,.72-1.75,2.579,2.579,0,0,1,1.15-.65,2.9,2.9,0,0,1,.6-.07,2.466,2.466,0,0,1,2.21,1.37L10,32V25.57a43.117,43.117,0,0,1,.59-7.09,2.9,2.9,0,0,1,1-1.78,3.014,3.014,0,0,1,2.87-.55A35.79,35.79,0,0,0,25.84,18H30l.51,3.04A36.038,36.038,0,0,1,31,27l.33,1.31A22.862,22.862,0,0,1,32,33.77Z" fill="#cf8c78"/>
      <path id="Trazado_708764" data-name="Trazado 708764" d="M24.54,48.34v-.01a7.76,7.76,0,0,1-2.63-2.89v-.01a21.111,21.111,0,0,0,4.9.57H27a3.644,3.644,0,0,0,.546-.048,3.636,3.636,0,0,0,1.045-1.9l.969-4.863A22.689,22.689,0,0,0,30,34.77a22.862,22.862,0,0,0-.67-5.46L29,28a36.038,36.038,0,0,0-.49-5.96A3.642,3.642,0,0,0,24.918,19H23.84a35.79,35.79,0,0,1-11.38-1.85,3.029,3.029,0,0,0-.94-.15c-.085,0-.167.015-.25.022a2.892,2.892,0,0,0-.68,1.458A43.117,43.117,0,0,0,10,25.57V32L8.68,29.37A2.466,2.466,0,0,0,6.47,28a2.9,2.9,0,0,0-.6.07,2.579,2.579,0,0,0-1.15.65A2.506,2.506,0,0,0,4,30.47a6.471,6.471,0,0,0,.68,2.9l1.87,3.74A1.643,1.643,0,0,0,8,38a2.015,2.015,0,0,0,2-2l.85,4.24A7.96,7.96,0,0,1,11,41.78a7.839,7.839,0,0,1-3.54,6.55v.01a15.328,15.328,0,0,0,3.8,1.89,14.974,14.974,0,0,0,9.48,0,15.556,15.556,0,0,0,1.83-.751l-.03-.149c.03.042.06.08.09.122A15.1,15.1,0,0,0,24.54,48.34Z" fill="#f1b8a0"/>
      <path id="Trazado_708765" data-name="Trazado 708765" d="M21.68,46.409a22.682,22.682,0,0,1-9.321-4.641l1.282-1.536a20.669,20.669,0,0,0,8.494,4.23Z" fill="#cf8c78"/>
      <path id="Trazado_708766" data-name="Trazado 708766" d="M48.95,56.52v-.01h0l-.663-.749A4.947,4.947,0,0,1,45,57v2a6.946,6.946,0,0,0,4.479-1.633Z" fill="#cf8c78"/>
    </g>
    <rect id="Rect치ngulo_345292" data-name="Rect치ngulo 345292" width="85" height="71" rx="5" transform="translate(180 3435)" fill="#4db1f0"/>
    <g id="Grupo_1003705" data-name="Grupo 1003705" transform="translate(-1.762 3027.238)">
      <g transform="matrix(1, 0, 0, 1, 181.76, 405.76)" filter="url(#Elipse_7683)">
        <circle id="Elipse_7683-2" data-name="Elipse 7683" cx="28.5" cy="28.5" r="28.5" transform="translate(14 9)" fill="#bfe5f9"/>
      </g>
    </g>
    <g id="madre-2" data-name="madre" transform="translate(195 3439)">
      <path id="Trazado_708755-2" data-name="Trazado 708755" d="M1,49.934,6.8,48h0a14.508,14.508,0,0,0,8.7,2.9h0a14.508,14.508,0,0,0,8.7-2.9h0l7.308,2.58,13,11.929H1Z" transform="translate(0 -1.508)" fill="#0059bd"/>
      <path id="Trazado_708756-2" data-name="Trazado 708756" d="M31.625,50.58,24.317,48a14.508,14.508,0,0,1-8.7,2.9h0a14.508,14.508,0,0,1-8.7-2.9l-2.746.915A12.567,12.567,0,0,0,16.579,59.607H41.465Z" transform="translate(-0.104 -1.508)" fill="#006bda"/>
      <path id="Trazado_708757-2" data-name="Trazado 708757" d="M60.875,41.237a2.084,2.084,0,0,1-1.083,1.828l-9.556,5.213v2.9a5.767,5.767,0,0,1-1.983,4.362v.01L52.17,61.82H39.6l-1.934-5.8a10.433,10.433,0,0,1-5.233-6.035l-.571-1.7L27.7,45.309l2.911-3.385,3.559,2.96a2.109,2.109,0,0,0,1.364.493,2.134,2.134,0,0,0,2.128-2.128V29.9a1.934,1.934,0,0,1,3.869,0v8.7l3.482-10.456a1.688,1.688,0,0,1,3.289.532,11.827,11.827,0,0,1-.242,2.408l-1.693,8.482,6.19-7.95a1.944,1.944,0,0,1,3.482,1.19,3.111,3.111,0,0,1-.532,1.751l-5.271,7.912,8.453-2.815a1.558,1.558,0,0,1,.522-.087,1.664,1.664,0,0,1,1.664,1.664Z" transform="translate(-0.875 -0.82)" fill="#cf8c78"/>
      <path id="Trazado_708758-2" data-name="Trazado 708758" d="M46.319,56.554v-.01A5.767,5.767,0,0,0,48.3,52.182h0a4.889,4.889,0,0,1,2.547-4.291l7.009-3.824a2.083,2.083,0,0,0,1.083-1.824A1.68,1.68,0,0,0,57.2,40.576a1.548,1.548,0,0,0-.445.085L48.3,43.477l5.271-7.912a3.111,3.111,0,0,0,.532-1.751,1.934,1.934,0,0,0-1.729-1.923l-6.008,7.716h0a1.548,1.548,0,0,1-1.51-1.887l1.268-5.628a11.828,11.828,0,0,0,.242-2.408,1.682,1.682,0,0,0-1.285-1.631c-.02.046-.052.083-.069.132L41.531,38.641h0A1.934,1.934,0,0,1,39.6,36.707V30.9A1.934,1.934,0,0,0,37.918,29a1.9,1.9,0,0,0-.255.941V43.2a2.183,2.183,0,0,1-1.37,2.076,2.144,2.144,0,0,1-2.122-.359l-3.559-2.96L27.7,45.344l4.159,2.969.571,1.7a10.433,10.433,0,0,0,5.233,6.035l1.934,5.8H49.632Z" transform="translate(-0.875 -0.854)" fill="#f1b8a0"/>
      <path id="Trazado_708759-2" data-name="Trazado 708759" d="M46.9,48.236l1.731-.865a9.749,9.749,0,0,0-6.852-5.233l-.591-.119-.387,1.9.594.12A7.823,7.823,0,0,1,46.9,48.236Z" transform="translate(-1.305 -1.312)" fill="#cf8c78"/>
      <path id="Trazado_708760-2" data-name="Trazado 708760" d="M46.436,50.625l-1.368-1.37L44.328,50a13.767,13.767,0,0,0-1.516,1.838,10.007,10.007,0,0,0-3.293-3.668l-1.074,1.609a8.057,8.057,0,0,1,3.148,4.109,13.67,13.67,0,0,0-.629,1.554l1.838.609A12.032,12.032,0,0,1,45.7,51.364Z" transform="translate(-1.228 -1.514)" fill="#cf8c78"/>
      <path id="Trazado_708761-2" data-name="Trazado 708761" d="M29.082,17.475l.609-.762a14.867,14.867,0,0,0,3.26-9.291h0A6.516,6.516,0,0,0,30.049,2h0a5.268,5.268,0,0,1-3.966,3.5l-.456.091a14.226,14.226,0,0,1-2.791.277h0a14.516,14.516,0,0,1-6.491-1.533h0a3.794,3.794,0,0,0-1.7-.4h0a3.8,3.8,0,0,0-3.691,2.882L10.7,7.8h-.547A8.157,8.157,0,0,0,2,15.961H2a8.176,8.176,0,0,0,.544,2.929l3.2,8.33,6.17,12.019Z" transform="translate(-0.033 0)" fill="#212121"/>
      <path id="Trazado_708762-2" data-name="Trazado 708762" d="M29.3,3.479A5.26,5.26,0,0,1,26.084,5.55l-.456.091a14.226,14.226,0,0,1-2.791.277,14.516,14.516,0,0,1-6.491-1.533h0a3.794,3.794,0,0,0-1.7-.4h0a3.8,3.8,0,0,0-3.691,2.882l-.247.987h-.547A8.158,8.158,0,0,0,2.544,18.938l3.2,8.33,4.725,9.2L26.18,16.557l.609-.762A14.867,14.867,0,0,0,30.049,6.5,6.516,6.516,0,0,0,29.3,3.479Z" transform="translate(-0.033 -0.049)" fill="#383838"/>
      <path id="Trazado_708763-2" data-name="Trazado 708763" d="M31.082,33.187a21.945,21.945,0,0,1-.426,4.275l-.938,4.71a3.542,3.542,0,0,1-3.472,2.844h-.184a20.419,20.419,0,0,1-4.739-.551v.01a7.506,7.506,0,0,0,2.544,2.8v.01a14.825,14.825,0,0,1-3.675,1.828,14.483,14.483,0,0,1-9.169,0A14.826,14.826,0,0,1,7.347,47.28v-.01a7.582,7.582,0,0,0,3.424-6.335,7.7,7.7,0,0,0-.145-1.49l-.822-4.1a1.949,1.949,0,0,1-1.934,1.934,1.589,1.589,0,0,1-1.4-.861L4.658,32.8A6.259,6.259,0,0,1,4,30,2.424,2.424,0,0,1,4.7,28.3a2.494,2.494,0,0,1,1.112-.629,2.8,2.8,0,0,1,.58-.068,2.385,2.385,0,0,1,2.138,1.325L9.8,31.475V25.256a41.7,41.7,0,0,1,.571-6.858,2.8,2.8,0,0,1,.967-1.722,2.915,2.915,0,0,1,2.776-.532,34.617,34.617,0,0,0,11.007,1.789h4.024l.493,2.94a34.857,34.857,0,0,1,.474,5.765l.319,1.267a22.113,22.113,0,0,1,.648,5.281Z" transform="translate(-0.098 -0.459)" fill="#cf8c78"/>
      <path id="Trazado_708764-2" data-name="Trazado 708764" d="M23.867,47.312V47.3a7.506,7.506,0,0,1-2.544-2.8V44.5a20.418,20.418,0,0,0,4.739.551h.184A3.525,3.525,0,0,0,26.774,45a3.517,3.517,0,0,0,1.011-1.838l.937-4.7a21.945,21.945,0,0,0,.426-4.274,22.113,22.113,0,0,0-.648-5.281l-.319-1.267a34.856,34.856,0,0,0-.474-5.765,3.523,3.523,0,0,0-3.474-2.94H23.19a34.617,34.617,0,0,1-11.007-1.789A2.93,2.93,0,0,0,11.273,17c-.082,0-.162.015-.242.021a2.8,2.8,0,0,0-.658,1.41A41.7,41.7,0,0,0,9.8,25.289v6.219L8.527,28.964a2.385,2.385,0,0,0-2.138-1.325,2.8,2.8,0,0,0-.58.068,2.494,2.494,0,0,0-1.112.629A2.424,2.424,0,0,0,4,30.028a6.259,6.259,0,0,0,.658,2.8l1.809,3.617a1.589,1.589,0,0,0,1.4.861A1.949,1.949,0,0,0,9.8,35.377l.822,4.1a7.7,7.7,0,0,1,.145,1.49A7.582,7.582,0,0,1,7.347,47.3v.01a14.825,14.825,0,0,0,3.675,1.828,14.483,14.483,0,0,0,9.169,0,15.047,15.047,0,0,0,1.77-.726l-.029-.144c.029.041.058.077.087.118A14.606,14.606,0,0,0,23.867,47.312Z" transform="translate(-0.098 -0.492)" fill="#f1b8a0"/>
      <path id="Trazado_708765-2" data-name="Trazado 708765" d="M21.374,46.206a21.938,21.938,0,0,1-9.015-4.489l1.24-1.486a19.991,19.991,0,0,0,8.216,4.091Z" transform="translate(-0.372 -1.254)" fill="#cf8c78"/>
      <path id="Trazado_708766-2" data-name="Trazado 708766" d="M48.82,56.5v-.01h0l-.641-.724A4.785,4.785,0,0,1,45,56.959v1.934a6.718,6.718,0,0,0,4.332-1.579Z" transform="translate(-1.443 -1.763)" fill="#cf8c78"/>
    </g>
  </g>
</svg>
