<svg xmlns="http://www.w3.org/2000/svg" width="45.191" height="56.325" viewBox="0 0 45.191 56.325">
  <g id="lista-de-verificacion_2_" data-name="lista-de-verificacion (2)" transform="translate(-7.9 -2)">
    <path id="Trazado_709907" data-name="Trazado 709907" d="M9.873,8H51.118a2.05,2.05,0,0,1,1.973,1.973V56.668a1.985,1.985,0,0,1-1.973,1.973H9.873A1.985,1.985,0,0,1,7.9,56.668V9.973A1.985,1.985,0,0,1,9.873,8Z" transform="translate(0 -0.363)" fill="#615260"/>
    <g id="Grupo_1005834" data-name="Grupo 1005834" transform="translate(7.9 7.684)">
      <path id="Trazado_709908" data-name="Trazado 709908" d="M7.9,44.957C33.626,43.812,48.347,32.438,51.118,8a2.05,2.05,0,0,1,1.973,1.973V56.668a1.985,1.985,0,0,1-1.973,1.973H9.873A1.985,1.985,0,0,1,7.9,56.668Z" transform="translate(-7.9 -8)" fill="#453744"/>
    </g>
    <path id="Trazado_709909" data-name="Trazado 709909" d="M48.078,12H13.409A1.445,1.445,0,0,0,12,13.409v40.4a1.445,1.445,0,0,0,1.409,1.409H48.078a1.445,1.445,0,0,0,1.409-1.409v-40.4A1.445,1.445,0,0,0,48.078,12Z" transform="translate(-0.248 -0.605)" fill="#eceaec"/>
    <g id="Grupo_1005835" data-name="Grupo 1005835" transform="translate(11.799 17.289)">
      <path id="Trazado_709910" data-name="Trazado 709910" d="M49.537,23.323V59.238a1.445,1.445,0,0,1-1.409,1.409H13.459a1.445,1.445,0,0,1-1.409-1.409V50.413c19.88-1.848,32.542-10.084,37.487-27.09Z" transform="translate(-12.05 -23.323)" fill="#dbd8db"/>
    </g>
    <path id="Trazado_709911" data-name="Trazado 709911" d="M15.758,48A3.769,3.769,0,0,1,12,51.758L30.791,57.4Z" transform="translate(-0.248 -2.782)" fill="#eceaec"/>
    <path id="Trazado_709912" data-name="Trazado 709912" d="M19.388,31.764H16.476a.4.4,0,0,1-.376-.376V28.476a.4.4,0,0,1,.376-.376h2.913a.4.4,0,0,1,.376.376v2.913A.4.4,0,0,1,19.388,31.764Z" transform="translate(-0.496 -1.578)" fill="#dbd8db"/>
    <path id="Trazado_709913" data-name="Trazado 709913" d="M19.388,41.764H16.476a.4.4,0,0,1-.376-.376V38.476a.4.4,0,0,1,.376-.376h2.913a.4.4,0,0,1,.376.376v2.913A.4.4,0,0,1,19.388,41.764Z" transform="translate(-0.496 -2.183)" fill="#dbd8db"/>
    <g id="Grupo_1005836" data-name="Grupo 1005836" transform="translate(22.087 16.093)">
      <path id="Trazado_709914" data-name="Trazado 709914" d="M23.94,18.879H46.488a.94.94,0,1,0,0-1.879H23.94a.94.94,0,0,0,0,1.879Z" transform="translate(-23 -17)" fill="#615260" fill-rule="evenodd"/>
      <path id="Trazado_709915" data-name="Trazado 709915" d="M23.94,22.879H37.093a.94.94,0,0,0,0-1.879H23.94a.94.94,0,0,0,0,1.879Z" transform="translate(-23 -17.242)" fill="#615260" fill-rule="evenodd"/>
      <path id="Trazado_709916" data-name="Trazado 709916" d="M23.94,28.879H46.488a.94.94,0,1,0,0-1.879H23.94a.94.94,0,0,0,0,1.879Z" transform="translate(-23 -17.605)" fill="#615260" fill-rule="evenodd"/>
      <path id="Trazado_709917" data-name="Trazado 709917" d="M23.94,32.879H37.093a.94.94,0,1,0,0-1.879H23.94a.94.94,0,0,0,0,1.879Z" transform="translate(-23 -17.847)" fill="#615260" fill-rule="evenodd"/>
      <path id="Trazado_709918" data-name="Trazado 709918" d="M23.94,38.879H46.488a.94.94,0,1,0,0-1.879H23.94a.94.94,0,0,0,0,1.879Z" transform="translate(-23 -18.209)" fill="#615260" fill-rule="evenodd"/>
      <path id="Trazado_709919" data-name="Trazado 709919" d="M23.94,42.879H37.093a.94.94,0,1,0,0-1.879H23.94a.94.94,0,1,0,0,1.879Z" transform="translate(-23 -18.451)" fill="#615260" fill-rule="evenodd"/>
    </g>
    <path id="Trazado_709920" data-name="Trazado 709920" d="M15.275,20.483l1.879,1.879a.939.939,0,0,0,1.5-.244l1.879-3.758a.939.939,0,0,0-1.68-.84l-1.3,2.592-.957-.957a.939.939,0,1,0-1.328,1.328Z" transform="translate(-0.429 -0.907)" fill="#4ce1a1" fill-rule="evenodd"/>
    <path id="Trazado_709921" data-name="Trazado 709921" d="M39.945,13.274h-17.1A.842.842,0,0,1,22,12.429V6.6a.842.842,0,0,1,.846-.846h1.033V2.846A.842.842,0,0,1,24.725,2H38.16a.828.828,0,0,1,.752.846V5.758h1.033a.842.842,0,0,1,.846.846v5.919a.828.828,0,0,1-.846.752Z" transform="translate(-0.853)" fill="#453744"/>
  </g>
</svg>
