<svg xmlns="http://www.w3.org/2000/svg" width="58.659" height="64" viewBox="0 0 58.659 64">
  <g id="mujer_1_" data-name="mujer (1)" transform="translate(-20.74)">
    <path id="Trazado_709922" data-name="Trazado 709922" d="M50.069,388.52c-17.424,0-29.329,3.624-29.329,8.336a11.532,11.532,0,0,0,1.746,5.16.965.965,0,0,0,.831.474h5.829l20.98-2.2,20.866,2.2h5.829a.965.965,0,0,0,.831-.474,11.533,11.533,0,0,0,1.746-5.16c0-4.712-11.905-8.336-29.329-8.336Z" transform="translate(0 -338.489)" fill="#3b68b0"/>
    <path id="Trazado_709923" data-name="Trazado 709923" d="M362.666,439.3h3.491a29.368,29.368,0,0,0,.036-6.741l-6.661-1.788Z" transform="translate(-295.165 -375.298)" fill="#d97b7b"/>
    <path id="Trazado_709924" data-name="Trazado 709924" d="M327.7,408.46l5.256,11.4h1.977l-1.846-7.241c2.019.135,3.806.3,5.373.5a20.942,20.942,0,0,0-.478-2.71Z" transform="translate(-267.432 -355.862)" fill="#d16161"/>
    <path id="Trazado_709925" data-name="Trazado 709925" d="M102.044,419.862h-3.2c-.66-1.543-.853-5.666-.6-7.909l9.055-3.492Z" transform="translate(-67.429 -355.862)" fill="#d97b7b"/>
    <path id="Trazado_709926" data-name="Trazado 709926" d="M86.939,419.862H84.673a28.744,28.744,0,0,1,.442-9.45L95.4,408.46l-3.444,3.984c-1.284.086-3.259.254-4.931.417A31.371,31.371,0,0,0,86.939,419.862Z" transform="translate(-55.526 -355.862)" fill="#d16161"/>
    <path id="Trazado_709927" data-name="Trazado 709927" d="M162.17,442.234l-11.331.917-1.494,6.135h28.223l-1.408-5.765Z" transform="translate(-112.044 -385.286)" fill="#8c818f"/>
    <path id="Trazado_709928" data-name="Trazado 709928" d="M129.9,449.727l-1.408,5.765h3.974l1.494-6.135Z" transform="translate(-93.872 -391.491)" fill="#655e67"/>
    <path id="Trazado_709929" data-name="Trazado 709929" d="M188.1,430.282l-24.6-1.4.869,3.007h24.123Z" transform="translate(-124.376 -373.652)" fill="#e7afaf"/>
    <path id="Trazado_709930" data-name="Trazado 709930" d="M153.469,413.767c3.9,0,8.9-.032,13.654.161l-.933-3.82H140.748l-1.325,5.425h3.969a2.288,2.288,0,0,1,2.2-1.746C148.417,413.755,151.138,413.767,153.469,413.767Z" transform="translate(-103.4 -357.297)" fill="#d97b7b"/>
    <path id="Trazado_709931" data-name="Trazado 709931" d="M85.907,265.36c6.039-.547,14.756-.872,20.119-.872,1.7,0,25.774-.228,28.489,2.015-2.483-6.556-10.172-18.053-18.949-23.6H100.8c-7.516,7.574-14.038,14.89-15.784,20.027C84.813,263.524,85.283,265.417,85.907,265.36Z" transform="translate(-55.957 -211.625)" fill="#80b6fc"/>
    <path id="Trazado_709932" data-name="Trazado 709932" d="M58.791,263.619a.863.863,0,0,1-.848-.783l-.839-8.981-2.335-.018.912,9.754c-2-.009-3.912,0-5.611,0-5.363,0-12.792-.061-18.831.486a.863.863,0,0,1-.892-1.141c1.746-5.137,6.98-12.454,14.5-20.028H40.529c-10.7,6.763-19.789,22.375-19.789,27.087,0-4.712,18.712-4.473,29.329-4.473s29.329-.24,29.329,4.473a10.805,10.805,0,0,0-.84-3.488c-2.716-2.243-11.566-2.767-19.768-2.885Z" transform="translate(0 -211.625)" fill="#5a86cc"/>
    <path id="Trazado_709933" data-name="Trazado 709933" d="M132.172,382.959a52.327,52.327,0,0,0-9.261-1.371c-3.1-.252-6.521-.4-9.765-.478l-.97.806-1.367-.854c-1.937-.032-3.758-.043-5.344-.043-4.77,0-11.669.1-17.446.568q-.882.072-1.685.15c-.228.527-1.843,1.035-2.009,1.524-.056.164,1.358.328,1.394.48.785-.083,1.641-.163,2.575-.238,5.693-.456,12.479-.552,17.171-.552,1.633,0,3.519.012,5.525.046l1.226-.656,1.111.706c3.1.08,6.351.219,9.308.456,8.695.7,10.681,1.838,10.759,1.97A14.841,14.841,0,0,0,132.172,382.959Z" transform="translate(-55.395 -331.954)" fill="#d97b7b"/>
    <path id="Trazado_709934" data-name="Trazado 709934" d="M31.6,390.331c.07-.118,1.66-1.039,8.184-1.731a.86.86,0,0,1,.022-.48q.249-.733.592-1.524a46.07,46.07,0,0,0-7.577,1.221A14.821,14.821,0,0,0,31.6,390.331Z" transform="translate(-9.466 -336.813)" fill="#d16161"/>
    <path id="Trazado_709935" data-name="Trazado 709935" d="M292.519,383.338l-.181-1.937c-.792-.02-1.574-.035-2.337-.048l.181,1.935C290.945,383.3,291.727,383.317,292.519,383.338Z" transform="translate(-234.587 -332.245)" fill="#d16161"/>
    <path id="Trazado_709936" data-name="Trazado 709936" d="M115.055,281.79a44.359,44.359,0,0,0,4.422,9.286.6.6,0,0,0,1.1-.31V277.9C119.153,277.931,114.31,279.474,115.055,281.79Z" transform="translate(-82.102 -242.114)" fill="#5a86cc"/>
    <path id="Trazado_709937" data-name="Trazado 709937" d="M175.394,227.109l-16.468,4.457a14.985,14.985,0,0,0-.426,3.568c0,6.692,4.324,10.829,9.658,10.829s9.658-4.137,9.658-10.829A13.958,13.958,0,0,0,175.394,227.109Z" transform="translate(-120.02 -197.864)" fill="#5a86cc"/>
    <path id="Trazado_709938" data-name="Trazado 709938" d="M138.034,221.826c-3.616-4.992-8.04-7.891-9.6-7.771-1.237.1-2.138,1.113-2.138,4.432,0,4.578,2.483,8.715,6.078,14.183V221.826Z" transform="translate(-91.967 -186.487)" fill="#8c818f"/>
    <path id="Trazado_709939" data-name="Trazado 709939" d="M124.685,182.495c1.057-.081,2.474,1.652,3.487,2.545.452.4,5.506,3.805,5.506,3.805L127.173,176.2c-3.548,1.445-5.873,4.479-5.873,9.311,0,5.644,2.588,11.335,5.617,16.317a.6.6,0,0,0,1.1-.31V199.69a27.889,27.889,0,0,1-4.79-14.183c0-2.256.612-2.947,1.453-3.012Z" transform="translate(-87.611 -153.507)" fill="#655e67"/>
    <path id="Trazado_709940" data-name="Trazado 709940" d="M190.394,212.109l-16.468,4.457a14.984,14.984,0,0,0-.426,3.568c0,6.692,4.324,10.829,9.658,10.829s9.658-4.137,9.658-10.829A13.958,13.958,0,0,0,190.394,212.109Z" transform="translate(-133.089 -184.795)" fill="#c8c3ca"/>
    <path id="Trazado_709941" data-name="Trazado 709941" d="M193.274,184.421a8.941,8.941,0,0,0-7.236-4.093c-4.344,0-8.018,3.6-9.232,8.549a10.8,10.8,0,0,0,6.554,2.715c3.589,0,8.176-3,9.914-7.171Z" transform="translate(-135.969 -157.107)" fill="#a29aa5"/>
    <path id="Trazado_709942" data-name="Trazado 709942" d="M192.119,160.784l-2.169,9.1c-.224,5.439-2.724,8.64-5.777,8.64-2.123,0-3.979-1.549-4.988-4.322l-4.52-2.586c.805,6.608,4.756,10.771,9.508,10.771,5.334,0,9.658-5.246,9.658-13.3A20.055,20.055,0,0,0,192.119,160.784Z" transform="translate(-134.104 -140.079)" fill="#f3f1f4"/>
    <path id="Trazado_709943" data-name="Trazado 709943" d="M177.363,126.474c0-5.926,2.594-10.729,5.795-10.729s5.795,4.8,5.795,10.729c0,.273-.007.539-.018.8a9.751,9.751,0,0,0,2.169-5.94v-3.157c-1.743-3.8-4.652-6.3-7.946-6.3-5.334,0-9.658,6.533-9.658,14.592a20.959,20.959,0,0,0,.15,2.533,12.35,12.35,0,0,0,4.52,2.586A15.035,15.035,0,0,1,177.363,126.474Z" transform="translate(-133.089 -97.475)" fill="#c8c3ca"/>
    <path id="Trazado_709944" data-name="Trazado 709944" d="M139.863,119.534c-2.465-.6-3.863.834-3.863,3.162a3.75,3.75,0,0,0,3.87,4.015H161.1a3.75,3.75,0,0,0,3.87-4.015c0-2.328-1.4-3.765-3.863-3.162Z" transform="translate(-100.418 -104.021)" fill="#e3a76f"/>
    <path id="Trazado_709945" data-name="Trazado 709945" d="M182.684,40.633v6.8c0,5.867,4.357,10.624,8.475,10.624,4.52,0,10.624-4.756,10.624-10.624V34.89l-10.626-4.879C191.064,30.073,182.684,34.8,182.684,40.633Z" transform="translate(-141.09 -26.146)" fill="#f4c497"/>
    <path id="Trazado_709946" data-name="Trazado 709946" d="M169.436,47.423V37.584c7.188,2.266,17.811,1.225,17.811-3.1L176.618,30,166,34.881V47.423c0,5.867,6.1,10.624,10.624,10.624C173.565,58.047,169.436,53.29,169.436,47.423Z" transform="translate(-126.554 -26.137)" fill="#e3a76f"/>
    <path id="Trazado_709947" data-name="Trazado 709947" d="M262.8,99.967a.966.966,0,0,0,1.366,0c.731-.731,3.2-.625,3.824,0a.966.966,0,1,0,1.366-1.366c-1.44-1.44-5.116-1.44-6.556,0A.966.966,0,0,0,262.8,99.967Z" transform="translate(-210.645 -84.963)" fill="#8c818f"/>
    <path id="Trazado_709948" data-name="Trazado 709948" d="M225.12,198.051a5.778,5.778,0,0,1-3.036-.927.966.966,0,0,1,1.089-1.6,3.5,3.5,0,0,0,3.891,0,.966.966,0,1,1,1.093,1.593,5.781,5.781,0,0,1-3.037.927" transform="translate(-175.05 -170.204)" fill="#ab7b64"/>
    <path id="Trazado_709949" data-name="Trazado 709949" d="M234.662,169.024a1.187,1.187,0,0,0,.533-.159.966.966,0,0,1,1.093,1.593,2.9,2.9,0,0,1-3.252,0,.966.966,0,0,1,1.093-1.593A1.184,1.184,0,0,0,234.662,169.024Z" transform="translate(-184.593 -146.971)" fill="#e3a76f"/>
    <path id="Trazado_709950" data-name="Trazado 709950" d="M277.646,133.417a.966.966,0,0,1-.966-.966V130.4a.966.966,0,0,1,1.932,0v2.052A.966.966,0,0,1,277.646,133.417Z" transform="translate(-222.982 -112.766)" fill="#655e67"/>
    <path id="Trazado_709951" data-name="Trazado 709951" d="M207.646,133.417a.966.966,0,0,1-.966-.966V130.4a.966.966,0,0,1,1.932,0v2.052A.966.966,0,0,1,207.646,133.417Z" transform="translate(-161.996 -112.766)" fill="#655e67"/>
    <path id="Trazado_709952" data-name="Trazado 709952" d="M195.17,98.6c-1.074-1.074-3.393-1.347-5.1-.818l-.386,1.1.386,1c.743-.556,3.034-.623,3.733.077A.966.966,0,0,0,195.17,98.6Z" transform="translate(-147.189 -84.965)" fill="#8c818f"/>
    <path id="Trazado_709953" data-name="Trazado 709953" d="M179.456,100.373a.966.966,0,0,0,1.366,1.366.831.831,0,0,1,.091-.077V99.555A3.527,3.527,0,0,0,179.456,100.373Z" transform="translate(-138.031 -86.735)" fill="#655e67"/>
    <path id="Trazado_709954" data-name="Trazado 709954" d="M183.972,82.218l1.57-1.605L182.684,78.9Z" transform="translate(-141.09 -68.735)" fill="#8c818f"/>
    <path id="Trazado_709955" data-name="Trazado 709955" d="M160.2,64.841c-1.928,3.083,0,8.646,0,8.646l3.436-3.513V67.939c.508.16,1.033.3,1.57.43l2.171-2.219Z" transform="translate(-120.756 -56.491)" fill="#655e67"/>
    <path id="Trazado_709956" data-name="Trazado 709956" d="M298.636,64.841c1.928,3.083,0,8.646,0,8.646L293.852,68.6Z" transform="translate(-237.943 -56.491)" fill="#8c818f"/>
    <path id="Trazado_709957" data-name="Trazado 709957" d="M282.444,64.841l-7.177,1.308L277.66,68.6C280.475,67.953,282.444,66.7,282.444,64.841Z" transform="translate(-221.751 -56.491)" fill="#655e67"/>
    <ellipse id="Elipse_7702" data-name="Elipse 7702" cx="14.165" cy="3.863" rx="14.165" ry="3.863" transform="translate(35.904 1.932)" fill="#faf0b0"/>
    <ellipse id="Elipse_7703" data-name="Elipse 7703" cx="10.624" cy="2.897" rx="10.624" ry="2.897" transform="translate(38.544 1.545)" fill="#f4c497"/>
    <path id="Trazado_709958" data-name="Trazado 709958" d="M10.624,0c5.867,0,10.624,1.3,10.624,2.9s-4.756,2.9-10.624,2.9S0,4.5,0,2.9,4.756,0,10.624,0Z" transform="translate(39.446)" fill="#faf0b0"/>
  </g>
</svg>
