<svg xmlns="http://www.w3.org/2000/svg" xmlns:xlink="http://www.w3.org/1999/xlink" width="85" height="75" viewBox="0 0 85 75">
  <defs>
    <filter id="Elipse_7683" x="10" y="0" width="75" height="75" filterUnits="userSpaceOnUse">
      <feOffset dy="3" input="SourceAlpha"/>
      <feGaussianBlur stdDeviation="3" result="blur"/>
      <feFlood flood-opacity="0.161"/>
      <feComposite operator="in" in2="blur"/>
      <feComposite in="SourceGraphic"/>
    </filter>
  </defs>
  <g id="Grupo_1006097" data-name="Grupo 1006097" transform="translate(-180 -404)">
    <rect id="Rectángulo_346876" data-name="Rectángulo 346876" width="85" height="75" rx="5" transform="translate(180 404)" fill="#4db1f0"/>
    <g id="Grupo_1006061" data-name="Grupo 1006061" transform="translate(3.238 -4.762)">
      <g transform="matrix(1, 0, 0, 1, 176.76, 408.76)" filter="url(#Elipse_7683)">
        <circle id="Elipse_7683-2" data-name="Elipse 7683" cx="28.5" cy="28.5" r="28.5" transform="translate(19 6)" fill="#bfe5f9"/>
      </g>
    </g>
    <g id="traduccion_4_" data-name="traduccion (4)" transform="translate(193.857 414.857)">
      <path id="Trazado_708767" data-name="Trazado 708767" d="M37.929,33.219,14.4,33.439a3.458,3.458,0,0,1-3.458-3.458L10.8,5.2c0-1.671-.059-4.81,1.516-5.132a3.479,3.479,0,0,1,.7-.07H40.672A3.458,3.458,0,0,1,44.13,3.458V31.121a3.481,3.481,0,0,1-.048.577c-.275,1.635-4.44,1.521-6.153,1.521Z" transform="translate(-9.551 0)" fill="#faf8f8"/>
      <path id="Trazado_708768" data-name="Trazado 708768" d="M79.072,60.9a1.5,1.5,0,0,0,0-3h-7.4V56.5a1.5,1.5,0,0,0-3,0v1.4h-7.4a1.5,1.5,0,0,0,0,3h2.792a31.661,31.661,0,0,0,4.188,7.408,29.372,29.372,0,0,1-6.76,5.811,1.5,1.5,0,1,0,1.562,2.561,32.138,32.138,0,0,0,7.119-6.03,32.147,32.147,0,0,0,7.119,6.03,1.5,1.5,0,0,0,1.562-2.561,29.372,29.372,0,0,1-6.76-5.811A31.663,31.663,0,0,0,76.28,60.9h2.792Zm-8.9,4.968A28.969,28.969,0,0,1,67.313,60.9h5.719A28.97,28.97,0,0,1,70.172,65.868Z" transform="translate(-52.883 -48.661)" fill="#5d748a"/>
      <path id="Trazado_708769" data-name="Trazado 708769" d="M34.529,32.077a3.455,3.455,0,0,1-3.408,2.882H3.458A3.458,3.458,0,0,1,0,31.5V3.838A3.455,3.455,0,0,1,2.882.43V30.694a1.383,1.383,0,0,0,1.383,1.383Z" transform="translate(0 -0.38)" fill="#f0e9e6"/>
      <path id="Trazado_708770" data-name="Trazado 708770" d="M234.929,230.219l-23.532.221a3.458,3.458,0,0,1-3.458-3.458L207.8,202.2c0-1.671-.059-4.81,1.516-5.132a3.47,3.47,0,0,1,.7-.07h27.663a3.458,3.458,0,0,1,3.458,3.458v27.663a3.481,3.481,0,0,1-.048.577C240.807,230.333,236.642,230.219,234.929,230.219Z" transform="translate(-183.845 -174.293)" fill="#aad8de"/>
      <path id="Trazado_708771" data-name="Trazado 708771" d="M231.529,229.077a3.455,3.455,0,0,1-3.408,2.882H200.458A3.458,3.458,0,0,1,197,228.5V200.838a3.455,3.455,0,0,1,2.882-3.408v30.264a1.383,1.383,0,0,0,1.383,1.383Z" transform="translate(-174.293 -174.674)" fill="#94ccd4"/>
      <path id="Trazado_708772" data-name="Trazado 708772" d="M287.076,271.866l-7.03-18.628-.016-.041a1.924,1.924,0,0,0-1.786-1.2h0a1.924,1.924,0,0,0-1.785,1.2l-.013.034-7.094,18.628a1.5,1.5,0,1,0,2.809,1.07l1.4-3.671h9.324l1.384,3.667a1.5,1.5,0,0,0,2.812-1.061ZM274.7,266.254l3.539-9.292,3.506,9.292Z" transform="translate(-238.215 -222.954)" fill="#faf8f8"/>
      <path id="Trazado_708773" data-name="Trazado 708773" d="M348.816,129.115l-4.831,4.155a.349.349,0,0,1-.452,0l-4.831-4.155a.346.346,0,0,1,.226-.607h2.237a.346.346,0,0,0,.346-.346v-6.916l.771-1.661,3.839,1.661v6.916a.346.346,0,0,0,.346.346h2.122A.346.346,0,0,1,348.816,129.115Z" transform="translate(-299.556 -105.801)" fill="#abd641"/>
      <path id="Trazado_708774" data-name="Trazado 708774" d="M274.793,76.564H263.151a.346.346,0,0,0-.346.346v2.18a.346.346,0,0,1-.607.226l-4.155-4.831a.349.349,0,0,1,0-.452L262.2,69.2a.346.346,0,0,1,.607.226v2.18a.346.346,0,0,0,.346.346h7.031A4.611,4.611,0,0,1,274.793,76.564Z" transform="translate(-228.227 -61.119)" fill="#b7e546"/>
      <path id="Trazado_708775" data-name="Trazado 708775" d="M78.59,262.806H76.353a.346.346,0,0,0-.346.346v6.916l-2.5,1.961L71.4,270.067v-6.916a.346.346,0,0,0-.346-.346H68.928a.346.346,0,0,1-.226-.607l4.831-4.155a.349.349,0,0,1,.452,0l4.831,4.155A.346.346,0,0,1,78.59,262.806Z" transform="translate(-60.677 -228.227)" fill="#abd641"/>
      <path id="Trazado_708776" data-name="Trazado 708776" d="M97.61,340.954H93a4.611,4.611,0,0,0,4.61,4.61h7.031a.346.346,0,0,1,.346.346v2.18a.346.346,0,0,0,.607.226l4.155-4.831a.349.349,0,0,0,0-.452l-4.155-4.831a.346.346,0,0,0-.607.226v2.18a.346.346,0,0,1-.346.346H97.61Z" transform="translate(-82.281 -299.114)" fill="#b7e546"/>
    </g>
  </g>
</svg>
