<svg xmlns="http://www.w3.org/2000/svg" width="64.001" height="64" viewBox="0 0 64.001 64">
  <g id="ecologia" transform="translate(0 -0.003)">
    <g id="Grupo_1005841" data-name="Grupo 1005841" transform="translate(32 0.003)">
      <path id="Trazado_709975" data-name="Trazado 709975" d="M234.207,211.038H232A11.034,11.034,0,0,1,243.035,200h2.207A11.034,11.034,0,0,1,234.207,211.038Z" transform="translate(-232 -172.417)" fill="#6a9923"/>
      <path id="Trazado_709976" data-name="Trazado 709976" d="M234.207,99.038H232A11.034,11.034,0,0,1,243.035,88h2.207A11.034,11.034,0,0,1,234.207,99.038Z" transform="translate(-232 -75.865)" fill="#6a9923"/>
      <path id="Trazado_709977" data-name="Trazado 709977" d="M232,7.727h2.207A7.724,7.724,0,0,0,241.931,0h-2.207A7.724,7.724,0,0,0,232,7.727Z" transform="translate(-232 -0.003)" fill="#6a9923"/>
    </g>
    <path id="Trazado_709978" data-name="Trazado 709978" d="M18.826,124.4l-.067-.039-7.739-8.6a3.1,3.1,0,0,0-4.382-.224l-.017.015V99.471a3.436,3.436,0,0,0-3.133-3.5A3.31,3.31,0,0,0,0,99.1c0,.061,0,.122,0,.182v20.885a8.816,8.816,0,0,0,1.111,4.287l9.923,17.863v4.414H26.483V137.6A15.213,15.213,0,0,0,18.826,124.4Z" transform="translate(0 -82.728)" fill="#f2bb80"/>
    <g id="Grupo_1005842" data-name="Grupo 1005842" transform="translate(18.759 0.003)">
      <path id="Trazado_709979" data-name="Trazado 709979" d="M225.1,84.141a1.1,1.1,0,0,1-1.1-1.1V41.106a1.1,1.1,0,0,1,2.207,0V83.038A1.1,1.1,0,0,1,225.1,84.141Z" transform="translate(-211.862 -34.486)" fill="#88b337"/>
      <path id="Trazado_709980" data-name="Trazado 709980" d="M136,200h2.207a11.034,11.034,0,0,1,11.035,11.035h-2.207A11.034,11.034,0,0,1,136,200Z" transform="translate(-136 -172.417)" fill="#88b337"/>
      <path id="Trazado_709981" data-name="Trazado 709981" d="M136,88h2.207a11.034,11.034,0,0,1,11.035,11.035h-2.207A11.034,11.034,0,0,1,136,88Z" transform="translate(-136 -75.865)" fill="#88b337"/>
      <path id="Trazado_709982" data-name="Trazado 709982" d="M169.931,7.727h-2.207A7.724,7.724,0,0,1,160,0h2.207A7.724,7.724,0,0,1,169.931,7.727Z" transform="translate(-156.69 -0.003)" fill="#88b337"/>
    </g>
    <path id="Trazado_709983" data-name="Trazado 709983" d="M42.942,247.129a1.1,1.1,0,0,1-.817-.361l-9.041-9.944a4.208,4.208,0,0,1,.138-5.813,1.1,1.1,0,0,1,1.56,1.56,2,2,0,0,0-.065,2.769l9.039,9.943a1.1,1.1,0,0,1-.815,1.846Z" transform="translate(-27.575 -198.877)" fill="#e8a16d"/>
    <path id="Trazado_709984" data-name="Trazado 709984" d="M272,137.6v9.131h15.448v-4.414l9.923-17.863a8.816,8.816,0,0,0,1.111-4.287v-20.7a3.436,3.436,0,0,0-3.133-3.5,3.31,3.31,0,0,0-3.483,3.128c0,.061,0,.122,0,.182v16.269a3.1,3.1,0,0,0-4.384.192l-.015.017-7.739,8.6-.067.039A15.213,15.213,0,0,0,272,137.6Z" transform="translate(-234.483 -82.728)" fill="#f2bb80"/>
    <path id="Trazado_709985" data-name="Trazado 709985" d="M345.7,247.129a1.1,1.1,0,0,0,.817-.361l9.041-9.944a4.208,4.208,0,0,0-.138-5.813,1.1,1.1,0,0,0-1.56,1.56,2,2,0,0,1,.065,2.769l-9.039,9.943a1.1,1.1,0,0,0,.815,1.846Z" transform="translate(-297.066 -198.877)" fill="#e8a16d"/>
  </g>
</svg>
