<svg xmlns="http://www.w3.org/2000/svg" xmlns:xlink="http://www.w3.org/1999/xlink" width="154" height="154" viewBox="0 0 154 154">
  <defs>
    <filter id="Elipse_7725" x="0" y="0" width="154" height="154" filterUnits="userSpaceOnUse">
      <feOffset dy="3" input="SourceAlpha"/>
      <feGaussianBlur stdDeviation="3" result="blur"/>
      <feFlood flood-opacity="0.161"/>
      <feComposite operator="in" in2="blur"/>
      <feComposite in="SourceGraphic"/>
    </filter>
    <filter id="Trazado_710209" x="83.263" y="33" width="37.348" height="88.986" filterUnits="userSpaceOnUse">
      <feOffset dy="3" input="SourceAlpha"/>
      <feGaussianBlur stdDeviation="3" result="blur-2"/>
      <feFlood flood-opacity="0.161"/>
      <feComposite operator="in" in2="blur-2"/>
      <feComposite in="SourceGraphic"/>
    </filter>
    <filter id="Trazado_715457" x="34" y="48.508" width="73.465" height="73.465" filterUnits="userSpaceOnUse">
      <feOffset dy="3" input="SourceAlpha"/>
      <feGaussianBlur stdDeviation="3" result="blur-3"/>
      <feFlood flood-opacity="0.161"/>
      <feComposite operator="in" in2="blur-3"/>
      <feComposite in="SourceGraphic"/>
    </filter>
  </defs>
  <g id="Grupo_1010194" data-name="Grupo 1010194" transform="translate(246 9979)">
    <g transform="matrix(1, 0, 0, 1, -246, -9979)" filter="url(#Elipse_7725)">
      <circle id="Elipse_7725-2" data-name="Elipse 7725" cx="68" cy="68" r="68" transform="translate(9 6)" fill="#0098e8"/>
    </g>
    <g id="Grupo_1006157" data-name="Grupo 1006157" transform="translate(0.062 -3.925)">
      <g id="Grupo_1005965" data-name="Grupo 1005965" transform="translate(-193.922 -9936.075)">
        <g id="Grupo_1005964" data-name="Grupo 1005964" transform="translate(0)">
          <path id="Trazado_710207" data-name="Trazado 710207" d="M317.934,417.165h-8.7a4.416,4.416,0,0,1-4.417-4.416v-9.526l9.6,2.53Z" transform="translate(-304.818 -346.178)" fill="#fff4e5"/>
          <path id="Trazado_710208" data-name="Trazado 710208" d="M56.788,28.115H22.621A6.326,6.326,0,0,0,16.3,34.441V85.158l10.1,3.316L29.411,99.1H56.417l11.8-1.3,5.069-34.845L64.744,29.959Z" transform="translate(-16.295 -28.115)" fill="#fff4e5"/>
          <g transform="matrix(1, 0, 0, 1, -52.14, -39)" filter="url(#Trazado_710209)">
            <path id="Trazado_710209-2" data-name="Trazado 710209" d="M4.214,91.586V35.39A8.8,8.8,0,0,0,.37,28.115H13.022a6.326,6.326,0,0,1,6.326,6.326V92.775A6.326,6.326,0,0,1,13.022,99.1H0A8.8,8.8,0,0,0,4.214,91.586Z" transform="translate(92.26 10.88)" fill="#fff4e5"/>
          </g>
        </g>
      </g>
      <g id="notas" transform="translate(-203.062 -9936.075)">
        <g transform="matrix(1, 0, 0, 1, -43, -39)" filter="url(#Trazado_715457)">
          <path id="Trazado_715457-2" data-name="Trazado 715457" d="M0,164.387a2.953,2.953,0,0,0,2.953,2.953H52.512a2.953,2.953,0,0,0,2.953-2.953V111.875H0Zm0,0" transform="translate(43 -57.37)" fill="#fff4e5"/>
        </g>
        <path id="Trazado_715458" data-name="Trazado 715458" d="M49.953,137.575a11.181,11.181,0,0,1-11.182,11.179H36.677a2.538,2.538,0,0,0-2.537,2.538v2.094a11.181,11.181,0,0,1-11.18,11.182H.039a2.953,2.953,0,0,0,2.947,2.772H28.5a11.182,11.182,0,0,0,11.18-11.182v-2.094a2.537,2.537,0,0,1,2.537-2.538h2.094A11.181,11.181,0,0,0,55.5,140.348V111.875H49.953Zm0,0" transform="translate(-0.033 -96.367)" fill="#fff4e5"/>
        <path id="Trazado_715459" data-name="Trazado 715459" d="M10.068,144.609v5.844h45.4v2.079h-45.4v5.844h45.4v2.079h-45.4v6.884H7.989v-6.884H0v-2.079H7.99v-5.844H0v-2.079H7.99v-5.844H0V142.53H7.99v-5.844H0v-2.079H7.99v-5.844H0v-2.079H7.99v-5.844H0V118.76H7.99v-6.884h2.079v6.884h45.4v2.079h-45.4v5.844h45.4v2.079h-45.4v5.844h45.4v2.079h-45.4v5.844h45.4v2.079Zm0,0" transform="translate(0 -96.367)" fill="#334151"/>
        <path id="Trazado_715460" data-name="Trazado 715460" d="M98.714,193.233a11.141,11.141,0,0,1-4.787,1.073H91.833a2.534,2.534,0,0,0-2.024,1.006H83.751v-1.241a2.544,2.544,0,0,1,.141-.839Zm-9.639,7.923h-6.5a11.218,11.218,0,0,1-1.346,2.079h7.207A11.037,11.037,0,0,0,89.075,201.157Zm9.333-15.847a11.2,11.2,0,0,1-1.335,2.079h7.194a11.112,11.112,0,0,0,.629-2.079Zm1.156-13.768h5.545v-2.079H99.564Zm0-7.923h5.545V161.54H99.564ZM57.633,207.348v2.772h2.079v-2.772Zm41.931-27.882h5.545v-2.079H99.564Zm0,0" transform="translate(-49.644 -139.147)" fill="#334151"/>
        <path id="Trazado_715461" data-name="Trazado 715461" d="M2.953,0A2.952,2.952,0,0,0,0,2.953V15.508H55.465V2.953A2.953,2.953,0,0,0,52.512,0Zm0,0" transform="translate(0 0)" fill="#ffca28"/>
        <path id="Trazado_715462" data-name="Trazado 715462" d="M362.683,0h-2.6c0,.06.005.12.005.18V15.508h5.545V2.952A2.953,2.953,0,0,0,362.683,0Zm0,0" transform="translate(-310.171 0)" fill="#ffa000"/>
        <path id="Trazado_715463" data-name="Trazado 715463" d="M232.378,317.258a26.995,26.995,0,0,1-26.995,26.995,11.182,11.182,0,0,0,11.182-11.181v-2.095a2.537,2.537,0,0,1,2.537-2.537H221.2A11.182,11.182,0,0,0,232.378,317.258Zm0,0" transform="translate(-176.913 -273.28)" fill="#fdc072"/>
        <path id="Trazado_715464" data-name="Trazado 715464" d="M224.471,336.346a26.993,26.993,0,0,1-19.088,7.907h24.042a2.953,2.953,0,0,0,2.953-2.953V317.258a27,27,0,0,1-7.907,19.088Zm0,0" transform="translate(-176.913 -273.28)" fill="#fff4e5"/>
        <g id="Grupo_1006154" data-name="Grupo 1006154" transform="translate(7.758 5.141)">
          <path id="Trazado_715465" data-name="Trazado 715465" d="M61.328,39.771a2.682,2.682,0,1,1-2.682-2.681A2.682,2.682,0,0,1,61.328,39.771Zm0,0" transform="translate(-55.965 -37.09)" fill="#e1ebf0"/>
          <path id="Trazado_715466" data-name="Trazado 715466" d="M310.832,39.771a2.682,2.682,0,1,1-2.682-2.681A2.682,2.682,0,0,1,310.832,39.771Zm0,0" transform="translate(-270.883 -37.09)" fill="#e1ebf0"/>
        </g>
      </g>
    </g>
  </g>
</svg>
