<svg xmlns="http://www.w3.org/2000/svg" xmlns:xlink="http://www.w3.org/1999/xlink" width="82" height="91" viewBox="0 0 82 91">
  <defs>
    <filter id="Elipse_7683" x="6" y="10" width="75" height="77" filterUnits="userSpaceOnUse">
      <feOffset dy="3" input="SourceAlpha"/>
      <feGaussianBlur stdDeviation="3" result="blur"/>
      <feFlood flood-opacity="0.161"/>
      <feComposite operator="in" in2="blur"/>
      <feComposite in="SourceGraphic"/>
    </filter>
  </defs>
  <g id="Grupo_1006027" data-name="Grupo 1006027" transform="translate(0)">
    <rect id="Rectángulo_345292" data-name="Rectángulo 345292" width="82" height="91" rx="5" transform="translate(0)" fill="#4db1f0"/>
    <g id="Grupo_1003705" data-name="Grupo 1003705" transform="translate(15 16)">
      <g transform="matrix(1, 0, 0, 1, -15, -16)" filter="url(#Elipse_7683)">
        <ellipse id="Elipse_7683-2" data-name="Elipse 7683" cx="28.5" cy="29.5" rx="28.5" ry="29.5" transform="translate(15 16)" fill="#bfe5f9"/>
      </g>
    </g>
    <g id="traductor_1_" data-name="traductor (1)" transform="translate(8.142 16)">
      <path id="Trazado_715333" data-name="Trazado 715333" d="M30.592,349.4v-5.125H14.729V349.4a2.266,2.266,0,0,1-1.6,2.166L3.2,354.622A4.532,4.532,0,0,0,0,358.954v4.584A2.266,2.266,0,0,0,2.266,365.8H43.055a2.266,2.266,0,0,0,2.266-2.266v-4.584a4.532,4.532,0,0,0-3.2-4.332l-9.93-3.056A2.266,2.266,0,0,1,30.592,349.4Z" transform="translate(0 -300.088)" fill="#e6af78"/>
      <path id="Trazado_715334" data-name="Trazado 715334" d="M104.564,351.423c10.751,3.586,17.124-6.391,17.124-6.391l.009-.755H105.873V349.4A2.246,2.246,0,0,1,104.564,351.423Z" transform="translate(-91.143 -300.089)" fill="#d29b6e"/>
      <path id="Trazado_715335" data-name="Trazado 715335" d="M42.122,406.653,33.4,403.969c-1.492,2.08-5.678,7.3-10.738,8.2-5.06-.9-9.246-6.121-10.738-8.2L3.2,406.653A4.532,4.532,0,0,0,0,410.985v4.584a2.266,2.266,0,0,0,2.266,2.266H43.055a2.266,2.266,0,0,0,2.266-2.266v-4.584A4.532,4.532,0,0,0,42.122,406.653Z" transform="translate(0 -352.119)" fill="#005b8b"/>
      <path id="Trazado_715336" data-name="Trazado 715336" d="M398.62,17.655h-6.465L385.89,35.406a1.133,1.133,0,0,0,1.068,1.51H398.62a3.4,3.4,0,0,0,3.4-3.4V21.054A3.4,3.4,0,0,0,398.62,17.655Z" transform="translate(-336.304 -15.389)" fill="#ffe559"/>
      <path id="Trazado_715337" data-name="Trazado 715337" d="M294.709,0a3.4,3.4,0,0,0-3.4,3.4V15.862a3.4,3.4,0,0,0,3.4,3.4v3.75a.793.793,0,0,0,1.354.561l4.311-4.311h3.4L310.039,1.51A1.133,1.133,0,0,0,308.97,0Z" transform="translate(-253.92)" fill="#196da1"/>
      <path id="Trazado_715338" data-name="Trazado 715338" d="M91.485,147.962l4.547-3.79a4.532,4.532,0,0,0,1.574-2.766l2.584-16.152a9.064,9.064,0,0,0-8.95-10.5h-8.2a9.064,9.064,0,0,0-8.95,10.5l2.584,16.152a4.532,4.532,0,0,0,1.574,2.766l4.547,3.79a3.4,3.4,0,0,0,2.176.788h4.337A3.4,3.4,0,0,0,91.485,147.962Z" transform="translate(-64.48 -100.03)" fill="#f0c087"/>
      <path id="Trazado_715339" data-name="Trazado 715339" d="M85.662,197.606h11.33v-3.4H75.133l-.255.3,2.584,16.152a4.533,4.533,0,0,0,1.574,2.766l4.547,3.789A3.4,3.4,0,0,0,85.76,218h1.035l-1.859-5.577a7.932,7.932,0,0,1-.407-2.508V198.739A1.133,1.133,0,0,1,85.662,197.606Z" transform="translate(-65.267 -169.28)" fill="#e6af78"/>
      <g id="Grupo_1006048" data-name="Grupo 1006048" transform="translate(0 55.685)">
        <path id="Trazado_715340" data-name="Trazado 715340" d="M6.708,438.39l-5.383-4.47A4.526,4.526,0,0,0,0,437.116v4.559a2.266,2.266,0,0,0,2.266,2.266H7.931V441A3.4,3.4,0,0,0,6.708,438.39Z" transform="translate(0 -433.911)" fill="#112e4c"/>
        <path id="Trazado_715341" data-name="Trazado 715341" d="M299.241,441.615v-4.559a4.526,4.526,0,0,0-1.333-3.205l-5.375,4.479a3.4,3.4,0,0,0-1.223,2.611v2.94h5.665A2.266,2.266,0,0,0,299.241,441.615Z" transform="translate(-253.92 -433.851)" fill="#112e4c"/>
      </g>
      <path id="Trazado_715342" data-name="Trazado 715342" d="M197.233,298.724c-.056.193-1.476,4.714-10.113,4.714V305.7c10.48,0,12.23-6.123,12.3-6.384Z" transform="translate(-163.103 -260.383)" fill="#464655"/>
      <circle id="Elipse_7752" data-name="Elipse 7752" cx="1.133" cy="1.133" r="1.133" transform="translate(22.884 43.055)" fill="#5b5d6e"/>
      <g id="Grupo_1006049" data-name="Grupo 1006049" transform="translate(8.24 32.858)">
        <path id="Trazado_715343" data-name="Trazado 715343" d="M66.792,256H65.333a1.133,1.133,0,0,0-1.133,1.133v4.532a1.133,1.133,0,0,0,1.133,1.133h2.546Z" transform="translate(-64.2 -256)" fill="#707487"/>
        <path id="Trazado_715344" data-name="Trazado 715344" d="M263.093,256h-1.768l-1.088,6.8h2.855a1.133,1.133,0,0,0,1.133-1.133v-4.532A1.133,1.133,0,0,0,263.093,256Z" transform="translate(-235.076 -256)" fill="#707487"/>
      </g>
      <path id="Trazado_715345" data-name="Trazado 715345" d="M431.609,61.719l-2.266-7.931a1.134,1.134,0,0,0-1.09-.822H427.12a1.134,1.134,0,0,0-1.09.822l-2.266,7.931a1.134,1.134,0,0,0,2.18.623l.412-1.445h2.66l.413,1.444a1.134,1.134,0,0,0,2.18-.623ZM427,58.631l.683-2.391.683,2.391Z" transform="translate(-369.336 -46.168)" fill="#005b8b"/>
      <path id="Trazado_715346" data-name="Trazado 715346" d="M327.988,27.615h-3.4a1.133,1.133,0,1,0-2.266,0h-3.4a1.133,1.133,0,1,0,0,2.266h5.524a8.145,8.145,0,0,1-.973,2.53,7.663,7.663,0,0,1-.421-.731,1.133,1.133,0,0,0-2.063.941,9.886,9.886,0,0,0,.942,1.632,8.128,8.128,0,0,1-2.3,1.375,1.133,1.133,0,1,0,.841,2.1,10.428,10.428,0,0,0,2.993-1.8,10.373,10.373,0,0,0,2.964,1.8,1.133,1.133,0,1,0,.841-2.1,8.1,8.1,0,0,1-2.283-1.389,10.484,10.484,0,0,0,1.756-4.358h1.239a1.133,1.133,0,1,0,0-2.266Z" transform="translate(-277.002 -23.083)" fill="#bfe5f9"/>
      <path id="Trazado_715347" data-name="Trazado 715347" d="M91.239,114.759h-8.2a9.064,9.064,0,0,0-8.95,10.5l1.221,7.632h1.8a1.133,1.133,0,0,0,1.118-.947l.817-4.9a1.133,1.133,0,0,1,1.118-.947H94.111a1.133,1.133,0,0,1,1.118.947l.817,4.9a1.133,1.133,0,0,0,1.118.947h1.8l1.221-7.632A9.064,9.064,0,0,0,91.239,114.759Z" transform="translate(-64.479 -100.03)" fill="#5a4146"/>
      <path id="Trazado_715348" data-name="Trazado 715348" d="M75.162,404.671c1.107,1.648,6.1,8.568,12.615,9.731l.4.071.4-.071c6.517-1.164,11.508-8.083,12.615-9.731l-2.275-.7c-1.492,2.08-5.678,7.3-10.738,8.2-5.06-.9-9.246-6.121-10.738-8.2Z" transform="translate(-65.515 -352.121)" fill="#14c0f7"/>
    </g>
  </g>
</svg>
