<svg xmlns="http://www.w3.org/2000/svg" xmlns:xlink="http://www.w3.org/1999/xlink" width="94.999" height="94.999" viewBox="0 0 94.999 94.999">
  <defs>
    <filter id="Trazado_734791" x="0" y="0" width="94.999" height="94.999" filterUnits="userSpaceOnUse">
      <feOffset dy="3" input="SourceAlpha"/>
      <feGaussianBlur stdDeviation="3" result="blur"/>
      <feFlood flood-opacity="0.161"/>
      <feComposite operator="in" in2="blur"/>
      <feComposite in="SourceGraphic"/>
    </filter>
  </defs>
  <g id="Grupo_1013533" data-name="Grupo 1013533" transform="translate(-191 -3081.736)">
    <g transform="matrix(1, 0, 0, 1, 191, 3081.74)" filter="url(#Trazado_734791)">
      <path id="Trazado_734791-2" data-name="Trazado 734791" d="M38.5,0A38.5,38.5,0,1,1,0,38.5,38.5,38.5,0,0,1,38.5,0Z" transform="translate(9 6)" fill="#e9f7ff"/>
    </g>
    <g id="terapia-del-lenguaje" transform="translate(203.5 3063.535)">
      <path id="Trazado_734897" data-name="Trazado 734897" d="M47.132,43.154a.939.939,0,0,1-.589-.207L38.132,36.2l-8.41,6.749a.943.943,0,1,1-1.18-1.47l9-7.222a.942.942,0,0,1,1.18,0l9,7.222a.942.942,0,0,1-.591,1.678Z" transform="translate(-21.751 2.728)" fill="#4c4c4c"/>
      <path id="Trazado_734898" data-name="Trazado 734898" d="M.628,117.613H26.135a.628.628,0,0,0,.628-.628V94.874a.628.628,0,0,0-.628-.628H.628A.628.628,0,0,0,0,94.874v22.11a.628.628,0,0,0,.628.628Z" transform="translate(3 -50.127)" fill="#00f2a6"/>
      <path id="Trazado_734899" data-name="Trazado 734899" d="M190.72,94.246h-3.268a.628.628,0,0,1,.628.628v22.11a.628.628,0,0,1-.628.628h3.268a.628.628,0,0,0,.628-.628V94.874A.628.628,0,0,0,190.72,94.246Z" transform="translate(-161.584 -50.127)" fill="#0ed290"/>
      <path id="Trazado_734907" data-name="Trazado 734907" d="M228.773,346.956l-3.039.367a.43.43,0,0,1-.12.379L222.395,351a4.853,4.853,0,0,0-1.382,3.392V366.07a.735.735,0,0,1-.735.735h3.528a.735.735,0,0,0,.735-.735V354.388A4.854,4.854,0,0,1,225.923,351l3.218-3.294A.441.441,0,0,0,228.773,346.956Z" transform="translate(-188.072 -272.965)" fill="#bedcf7"/>
      <path id="Trazado_734908" data-name="Trazado 734908" d="M69.762,139.791l-5.257-13.8a1.227,1.227,0,0,0-1.139-.765h0a1.227,1.227,0,0,0-1.139.763l-.01.025-5.2,13.783a.915.915,0,0,0,1.712.646L59.8,137.6h7.171l1.083,2.843a.915.915,0,1,0,1.71-.651Zm-9.273-4.022,2.879-7.627,2.905,7.627Z" transform="translate(-47.007 -77.325)" fill="#0681af"/>
      <path id="Trazado_734911" data-name="Trazado 734911" d="M94.325,25.923a2.135,2.135,0,1,1-2.135,2.135A2.135,2.135,0,0,1,94.325,25.923Z" transform="translate(-77.943 9.861)" fill="#212121"/>
      <g id="sordo" transform="translate(25.534 34.664)">
        <path id="Trazado_735008" data-name="Trazado 735008" d="M6,60.279V57a5.784,5.784,0,0,1,3.86-5.455L19.916,48a12.279,12.279,0,0,0,6.859,2.445l9.513-1.867,8.419,2.971A5.784,5.784,0,0,1,48.566,57v3.274Z" transform="translate(-6 -10.345)" fill="#0059bd"/>
        <path id="Trazado_735009" data-name="Trazado 735009" d="M13.812,57a5.784,5.784,0,0,1,3.86-5.455L27.728,48a12.279,12.279,0,0,0,6.859,2.445L44.1,48.578l5.884,2.077A12.219,12.219,0,0,1,38.86,57.823H13.812Z" transform="translate(-13.812 -10.345)" fill="#006bda"/>
        <path id="Trazado_735010" data-name="Trazado 735010" d="M21.274,15.1l-.516-.645A12.582,12.582,0,0,1,18,6.589,5.515,5.515,0,0,1,20.456,2a4.459,4.459,0,0,0,3.356,2.963l.386.077a12.04,12.04,0,0,0,2.362.234,12.285,12.285,0,0,0,5.493-1.3,3.221,3.221,0,0,1,4.565,2.1l.209.835h.463a6.9,6.9,0,0,1,6.444,9.382l-2.712,7.05L35.8,33.515Z" transform="translate(-11.451 -2)" fill="#212121"/>
        <path id="Trazado_735011" data-name="Trazado 735011" d="M18.633,3.479a4.451,4.451,0,0,0,2.723,1.753l.386.077a12.04,12.04,0,0,0,2.362.234,12.285,12.285,0,0,0,5.493-1.3,3.221,3.221,0,0,1,4.565,2.1l.209.835h.463a6.9,6.9,0,0,1,6.444,9.382l-2.712,7.05-4,7.79L21.274,14.547l-.516-.645A12.582,12.582,0,0,1,18,6.039a5.515,5.515,0,0,1,.633-2.56Z" transform="translate(-8.996 -2.268)" fill="#383838"/>
        <path id="Trazado_735012" data-name="Trazado 735012" d="M20,30.546a18.572,18.572,0,0,0,.36,3.618l.794,3.986a3,3,0,0,0,2.939,2.407h.156a17.282,17.282,0,0,0,4.011-.467V40.1a6.352,6.352,0,0,1-2.153,2.366v.008a12.547,12.547,0,0,0,3.111,1.547,12.258,12.258,0,0,0,7.76,0,12.548,12.548,0,0,0,3.111-1.547v-.008a6.417,6.417,0,0,1-2.9-5.362,6.516,6.516,0,0,1,.123-1.261l.7-3.471a1.649,1.649,0,0,0,1.637,1.637,1.345,1.345,0,0,0,1.187-.729l1.531-3.061a5.3,5.3,0,0,0,.557-2.374,2.051,2.051,0,0,0-.589-1.433,2.111,2.111,0,0,0-.941-.532,2.374,2.374,0,0,0-.491-.057,2.019,2.019,0,0,0-1.809,1.121L38.009,29.1V23.834a35.3,35.3,0,0,0-.483-5.8,2.374,2.374,0,0,0-.819-1.457,2.467,2.467,0,0,0-2.349-.45,29.3,29.3,0,0,1-9.315,1.514H21.637l-.417,2.488a29.5,29.5,0,0,0-.4,4.879l-.27,1.072A18.714,18.714,0,0,0,20,30.546Z" transform="translate(-11.814 -4.54)" fill="#cf8c78"/>
        <path id="Trazado_735013" data-name="Trazado 735013" d="M24.469,42.654v-.008a6.352,6.352,0,0,0,2.153-2.366v-.008a17.281,17.281,0,0,1-4.011.467h-.156a2.983,2.983,0,0,1-.447-.039,2.976,2.976,0,0,1-.855-1.555l-.793-3.981a18.426,18.426,0,0,1,.188-8.088L20.819,26a29.5,29.5,0,0,1,.4-4.879,2.981,2.981,0,0,1,2.94-2.488h.882a29.3,29.3,0,0,0,9.315-1.514A2.48,2.48,0,0,1,35.127,17c.07,0,.137.012.2.018a2.367,2.367,0,0,1,.557,1.193,35.3,35.3,0,0,1,.483,5.8v5.263l1.081-2.153A2.019,2.019,0,0,1,39.261,26a2.374,2.374,0,0,1,.491.057,2.111,2.111,0,0,1,.941.532,2.051,2.051,0,0,1,.589,1.432,5.3,5.3,0,0,1-.557,2.374L39.2,33.461a1.345,1.345,0,0,1-1.187.729,1.649,1.649,0,0,1-1.637-1.637l-.7,3.471a6.515,6.515,0,0,0-.123,1.261,6.417,6.417,0,0,0,2.9,5.362v.008A12.547,12.547,0,0,1,35.34,44.2a12.257,12.257,0,0,1-7.76,0,12.733,12.733,0,0,1-1.5-.615l.025-.122c-.025.034-.049.065-.074.1A12.36,12.36,0,0,1,24.469,42.654Z" transform="translate(-10.177 -4.721)" fill="#f1b8a0"/>
        <path id="Trazado_735014" data-name="Trazado 735014" d="M38.549,34l1.637,2.456-4.093,2.456.819,1.637L32,39.73l1.637-4.911.819,1.637Z" transform="translate(-18.903 -7.805)" fill="#a7d309"/>
        <path id="Trazado_735015" data-name="Trazado 735015" d="M34.655,34.819l.819,1.637L39.567,34l.8,1.206L33.018,39.73Z" transform="translate(-19.921 -7.805)" fill="#8cbe00"/>
        <path id="Trazado_735016" data-name="Trazado 735016" d="M21.571,60.407V58.77a3.612,3.612,0,0,0-.869-2.348l-1.841-2.147a9.142,9.142,0,0,1-1.929-3.765c.284.032.573.056.856.068L27.3,48.706l.819.289V53.71l2.511,6.7Z" transform="translate(2.986 -10.474)" fill="#004c9c"/>
        <path id="Trazado_735017" data-name="Trazado 735017" d="M24.1,42.141a2.463,2.463,0,0,1,2.061-1.932,3.57,3.57,0,0,1,1.761-.8l-.212-.847a4.584,4.584,0,0,0-1.206-2.131,2.774,2.774,0,0,1-.819-1.976,2.456,2.456,0,0,1,4.42-1.473,16.992,16.992,0,0,1,1.789,2.98l-.111.221a1.345,1.345,0,0,1-1.187.729,1.649,1.649,0,0,1-1.637-1.637l-.7,3.471a6.516,6.516,0,0,0-.123,1.261,6.417,6.417,0,0,0,2.9,5.362v.008a12.547,12.547,0,0,1-3.111,1.547,11.91,11.91,0,0,1-5.246.545,9.112,9.112,0,0,1-.271-2.177A3.756,3.756,0,0,1,24.1,42.141Z" transform="translate(-2.769 -7.443)" fill="#cf8c78"/>
        <path id="Trazado_735018" data-name="Trazado 735018" d="M22.911,57.557V55.92a4.426,4.426,0,0,0-1.064-2.881l-1.84-2.147A8.328,8.328,0,0,1,18,45.472a2.962,2.962,0,0,1,1.637-2.649,1.637,1.637,0,0,1,1.637-1.637,2.8,2.8,0,0,1,1.976-.819h.48l-.456-1.822a5.4,5.4,0,0,0-1.421-2.511,1.976,1.976,0,0,1-.579-1.4,1.637,1.637,0,0,1,2.947-.982,16.208,16.208,0,0,1,2.759,5.8l.446,1.784a13.3,13.3,0,0,1,.4,3.225v6.549l2.456,6.549Z" transform="translate(2.464 -7.624)" fill="#f1b8a0"/>
      </g>
      <path id="Trazado_734906" data-name="Trazado 734906" d="M57.078,348.286l11.028-1.33a.441.441,0,0,1,.368.746L65.256,351a4.853,4.853,0,0,0-1.382,3.392V366.07a.735.735,0,0,1-.735.735H33.6a.735.735,0,0,1-.735-.735V349.056a.735.735,0,0,1,.735-.735H56.5A4.855,4.855,0,0,0,57.078,348.286Z" transform="translate(-27.405 -272.965)" fill="#bedcf7"/>
      <g id="Grupo_1013499" data-name="Grupo 1013499" transform="translate(10.868 79.829)">
        <path id="Trazado_734909" data-name="Trazado 734909" d="M78.336,387.89a1.069,1.069,0,0,0-1.068,1.034,4.335,4.335,0,1,0,0,7.47,1.07,1.07,0,0,0,2.139-.036v-7.4A1.07,1.07,0,0,0,78.336,387.89Zm-3.265,6.963a2.194,2.194,0,1,1,2.194-2.194A2.2,2.2,0,0,1,75.072,394.853Z" transform="translate(-70.737 -387.89)" fill="#0681af"/>
        <path id="Trazado_734910" data-name="Trazado 734910" d="M159.128,387.89a1.069,1.069,0,0,0-1.068,1.034,4.335,4.335,0,1,0,0,7.47,1.07,1.07,0,0,0,2.139-.036v-7.4A1.07,1.07,0,0,0,159.128,387.89Zm-3.265,6.963a2.194,2.194,0,1,1,2.194-2.194A2.2,2.2,0,0,1,155.864,394.853Z" transform="translate(-140.001 -387.89)" fill="#0681af"/>
      </g>
    </g>
  </g>
</svg>
