<svg xmlns="http://www.w3.org/2000/svg" xmlns:xlink="http://www.w3.org/1999/xlink" width="94.999" height="94.999" viewBox="0 0 94.999 94.999">
  <defs>
    <filter id="Trazado_734791" x="0" y="0" width="94.999" height="94.999" filterUnits="userSpaceOnUse">
      <feOffset dy="3" input="SourceAlpha"/>
      <feGaussianBlur stdDeviation="3" result="blur"/>
      <feFlood flood-opacity="0.161"/>
      <feComposite operator="in" in2="blur"/>
      <feComposite in="SourceGraphic"/>
    </filter>
  </defs>
  <g id="Grupo_1013534" data-name="Grupo 1013534" transform="translate(-506 -3081.736)">
    <g transform="matrix(1, 0, 0, 1, 506, 3081.74)" filter="url(#Trazado_734791)">
      <path id="Trazado_734791-2" data-name="Trazado 734791" d="M38.5,0A38.5,38.5,0,1,1,0,38.5,38.5,38.5,0,0,1,38.5,0Z" transform="translate(9 6)" fill="#e9f7ff"/>
    </g>
    <g id="idiomas" transform="translate(515 3091.729)">
      <path id="Trazado_734920" data-name="Trazado 734920" d="M107.6,80.629A32.057,32.057,0,0,0,96.182,56.068c-5.592-4.72-21.3-5.261-21.3-5.261l-11.386.066c-.085.036-.187.011-.271.047-11.16,4.843-18.4,16.318-18.4,29.656,0,17.743,13.229,29.817,30.972,29.817,5.334,0,10.046,1.063,14.473-1.238A32.124,32.124,0,0,0,107.6,80.629Z" transform="translate(-38.596 -43.747)" fill="#94ccd4"/>
      <path id="Trazado_734921" data-name="Trazado 734921" d="M209.228,41.772c-3.267,2.137-6.774,4.257-8.089,4.544-3.608,1.055-8.305-1.18-9.27,4.142a20.909,20.909,0,0,1-.272,2.914,7.516,7.516,0,0,1-1.1,2.823c-.548.85-2.008,1.1-2.858,1.681a5.771,5.771,0,0,1-6.759.392l-.194-.1c-4.2-2.056-6.66-6.785-2.311-10.241,2.859-2.36,2.426-6.524.428-9.125l-1.2-1.391c.933-.386.553-1.51,1.529-1.808a32.185,32.185,0,0,1,30.1,6.172Z" transform="translate(-151.643 -29.452)" fill="#b7e546"/>
      <path id="Trazado_734922" data-name="Trazado 734922" d="M364.17,152.173a10,10,0,0,0-2.977-7.053c-1.611-1.843-2.169-2.942-4.383-.907-2.1,2.611-.029,5.851-4.49,10.3a4.12,4.12,0,0,0-1.189,3.034s0-.2,0-.2c.16,2.8,2.07,5.049,4.791,5.049C359.416,162.4,364.17,158.3,364.17,152.173Z" transform="translate(-302.378 -123.243)" fill="#b7e546"/>
      <path id="Trazado_734923" data-name="Trazado 734923" d="M348,152.365a4.126,4.126,0,0,0-1.19,3.035s0,0,0,0a5.777,5.777,0,0,0,4.371,4.865,5.218,5.218,0,0,1-1.37.193c-2.721,0-5.616-2.262-5.777-5.058,0,0,0,0,0,0a4.126,4.126,0,0,1,1.19-3.035c4.461-4.451,1.876-7.929,3.975-10.539a2.927,2.927,0,0,1,3.588-.6,4.249,4.249,0,0,0-.811.6C349.873,144.436,352.459,147.914,348,152.365Z" transform="translate(-296.264 -121.299)" fill="#abd641"/>
      <path id="Trazado_734924" data-name="Trazado 734924" d="M310.309,2.438V18.474l-1.022.97c0,1.342-1.526,1.544-2.868,1.544l-7.335-.055a1.619,1.619,0,0,0-.95.308l-6.053,4.2a.81.81,0,0,1-1.285-.656l.568-2.021a1.62,1.62,0,0,0-1.62-1.62H287.8a2.43,2.43,0,0,1-2.43-2.43l-.293-15.044c0-1.342.533-2.757,1.875-2.757l.677-.908h20.248a2.43,2.43,0,0,1,2.43,2.43Z" transform="translate(-245.5 -0.001)" fill="#54e360"/>
      <path id="Trazado_734925" data-name="Trazado 734925" d="M306.044,18.473v.81a2.43,2.43,0,0,1-2.43,2.43h-8.7a1.62,1.62,0,0,0-.949.308L287.4,26.775a.809.809,0,0,1-1.285-.656V23.333a1.62,1.62,0,0,0-1.62-1.62h-1.944a2.43,2.43,0,0,1-2.43-2.43V2.437a2.43,2.43,0,0,1,2.43-2.43h.81V18.149a.324.324,0,0,0,.324.324h.81a4.862,4.862,0,0,1,4.3,2.6.487.487,0,0,0,.717.172l2.55-1.848a4.832,4.832,0,0,1,2.851-.923Z" transform="translate(-241.234)" fill="#00ab5e"/>
      <path id="Trazado_734926" data-name="Trazado 734926" d="M73.963,110.651a32.85,32.85,0,0,1-32.9-32.8A32.262,32.262,0,0,1,54.077,51.622a32.152,32.152,0,0,0-16.108,44.82s7.635,6.046,11.5,8.888c5.326,3.919,15.673,6.447,15.673,6.447s11.514.391,15.929-1.895a33.063,33.063,0,0,1-7.1.768Z" transform="translate(-29.452 -44.449)" fill="#6fbbc6"/>
      <path id="Trazado_734927" data-name="Trazado 734927" d="M104.513,303.691c-2.582-3.6-7.33-7.56-7.126-12.334a12.92,12.92,0,0,0-.681-4.8c-.008-.021-.015-.041-.022-.061a7.183,7.183,0,0,0-1.185-2.1c-1.4-1.738-4.385-6.273-5.845-6.909A5.855,5.855,0,0,0,81.6,279.88c-1.295,3.275-1.652,7.762-5.033,9.528a5.391,5.391,0,0,1-6.473-.965c-2.668-3.465-6.4-.115-8.728,1.835.924,1.726,4.693,2.991,5.912,4.522,5.058,6.353,9.559,8.8,16.971,10.132,6.894,1.251,13.967,2.029,20.188-1.2Z" transform="translate(-52.847 -238.286)" fill="#b7e546"/>
      <path id="Trazado_734928" data-name="Trazado 734928" d="M104.451,367.179a32.164,32.164,0,0,1-18.088,3.4h0a32.227,32.227,0,0,1-24.993-16.84c1.838-1.542,4.561-3.962,6.939-3.189a33,33,0,0,0,36.142,16.634Z" transform="translate(-52.85 -301.742)" fill="#abd641"/>
      <path id="Trazado_734929" data-name="Trazado 734929" d="M266.78,255.864V271.9l-1.022.97c0,1.342-1.526,1.544-2.868,1.544l-7.335-.055a1.619,1.619,0,0,0-.95.308l-6.053,4.2a.81.81,0,0,1-1.285-.656l.568-2.021a1.62,1.62,0,0,0-1.62-1.62h-1.944a2.43,2.43,0,0,1-2.43-2.43L241.55,257.1c0-1.342.533-2.757,1.875-2.757l.677-.908H264.35a2.43,2.43,0,0,1,2.43,2.43Z" transform="translate(-208.014 -218.242)" fill="#006bda"/>
      <path id="Trazado_734930" data-name="Trazado 734930" d="M262.516,271.9v.81a2.43,2.43,0,0,1-2.43,2.43h-8.7a1.62,1.62,0,0,0-.949.308l-6.565,4.754a.809.809,0,0,1-1.285-.656v-2.786a1.62,1.62,0,0,0-1.62-1.62h-1.944a2.43,2.43,0,0,1-2.43-2.43V255.863a2.43,2.43,0,0,1,2.43-2.43h.81v18.142a.324.324,0,0,0,.324.324h.81a4.862,4.862,0,0,1,4.3,2.6.487.487,0,0,0,.717.172l2.55-1.848a4.832,4.832,0,0,1,2.851-.923Z" transform="translate(-203.749 -218.241)" fill="#0059bd"/>
      <path id="Trazado_734931" data-name="Trazado 734931" d="M332.563,26.9a1.041,1.041,0,0,0,0-2.083h-5.39V23.048a1.041,1.041,0,1,0-2.083,0v1.771H319.7a1.041,1.041,0,1,0,0,2.083h2.159a14.877,14.877,0,0,0,2.866,5.987,12.906,12.906,0,0,1-3.662,2.453l-1.435.639a1.041,1.041,0,1,0,.848,1.9l1.435-.639a14.991,14.991,0,0,0,4.221-2.817,14.992,14.992,0,0,0,4.221,2.817l1.435.639a1.041,1.041,0,0,0,.848-1.9l-1.435-.639a12.9,12.9,0,0,1-3.662-2.453A14.877,14.877,0,0,0,330.4,26.9Zm-6.432,4.4A12.8,12.8,0,0,1,324,26.9h4.258a12.8,12.8,0,0,1-2.129,4.4Z" transform="translate(-274.417 -18.946)" fill="#faf8f8"/>
      <path id="Trazado_734932" data-name="Trazado 734932" d="M281.981,285.507h-4.844a1.041,1.041,0,0,0,0,2.083h1.381v3.263h-4.142a3.713,3.713,0,0,0-3.336-5.345h-3.007a1.041,1.041,0,1,0,0,2.083h3.007a1.631,1.631,0,0,1,0,3.263H267.7a1.041,1.041,0,0,0,0,2.083h3.341a1.633,1.633,0,0,1,1.631,1.631,1.614,1.614,0,0,1-1.631,1.631,5.738,5.738,0,0,1-4.275-1.365,1.041,1.041,0,0,0-1.473,1.472,7.705,7.705,0,0,0,5.747,1.975,3.713,3.713,0,0,0,3.336-5.345h4.142v4.3a1.041,1.041,0,0,0,2.083,0V287.59h1.381a1.041,1.041,0,0,0,0-2.083Z" transform="translate(-228.197 -245.862)" fill="#faf8f8"/>
      <path id="Trazado_734933" data-name="Trazado 734933" d="M175.61,58.355l-.04.033a43.066,43.066,0,0,0-3.715,3.59,5.3,5.3,0,0,1,1.988-5.765c2.859-2.36,1.8-6.959-.194-9.56l-1.2-1.392q1.4-.579,2.865-1.025c.864,1.312,1.631,2.417,1.631,2.417,2.07,3.856,2.163,8.818-1.331,11.7Z" transform="translate(-147.82 -38.089)" fill="#abd641"/>
      <path id="Trazado_734934" data-name="Trazado 734934" d="M186.8,142.871c-.037.064-.076.126-.117.189a7.684,7.684,0,0,1-10.006,2.65l-.194-.1c-3.949-1.935-6.649-7.054-3.329-10.531-1.057,3.19,1.438,6.874,4.8,8.448l.2.1a8.326,8.326,0,0,0,8.248-.476C186.536,143.063,186.669,142.97,186.8,142.871Z" transform="translate(-147.826 -116.317)" fill="#abd641"/>
      <g id="Grupo_1013501" data-name="Grupo 1013501" transform="translate(23.205 65.434)">
        <path id="Trazado_734935" data-name="Trazado 734935" d="M238.862,495.452l.027,0Z" transform="translate(-228.904 -492.093)" fill="#94ccd4"/>
        <path id="Trazado_734936" data-name="Trazado 734936" d="M167.135,475.042l.095.044Z" transform="translate(-167.135 -474.516)" fill="#94ccd4"/>
        <path id="Trazado_734937" data-name="Trazado 734937" d="M360.918,471.257q-.86.446-1.748.837.875-.387,1.724-.829l.011-.006Z" transform="translate(-332.508 -471.257)" fill="#94ccd4"/>
      </g>
      <path id="Trazado_734938" data-name="Trazado 734938" d="M8.053,110.15l.2,13.972a2.484,2.484,0,0,0,2.49,2.477l7.817.255a1.666,1.666,0,0,1,.974.314l5.335,4.51a.83.83,0,0,0,1.317-.669l.337-2.18a1.656,1.656,0,0,1,1.66-1.652l2.58-.009c1.375,0,2.73-.327,2.73-1.695V108.3a2.484,2.484,0,0,0-2.49-2.477H9.425c-1.375,0-1.372,2.962-1.372,4.33Z" transform="translate(-6.935 -91.122)" fill="#00d8e0"/>
      <path id="Trazado_734939" data-name="Trazado 734939" d="M59.817,133.854l-.009-.024a1.32,1.32,0,0,0-1.225-.823h0a1.32,1.32,0,0,0-1.225.82l-.011.029L52.7,146.176a1.041,1.041,0,1,0,1.948.735l.9-2.395h6.1l.913,2.4a1.041,1.041,0,1,0,1.946-.741Zm-3.483,8.581,2.251-5.964,2.272,5.964Z" transform="translate(-45.322 -114.535)" fill="#fef4f5"/>
      <path id="Trazado_734940" data-name="Trazado 734940" d="M26.562,125.172v.3a2.484,2.484,0,0,1-2.491,2.477H22.079A1.656,1.656,0,0,0,20.42,129.6v2.842a.831.831,0,0,1-1.318.668l-6.727-4.848a1.668,1.668,0,0,0-.975-.314H2.491A2.484,2.484,0,0,1,0,125.472V108.3a2.484,2.484,0,0,1,2.491-2.478h.286v18.661a.694.694,0,0,0,.694.694H11.4a4.445,4.445,0,0,1,2.6.839l3.1,2.237a.558.558,0,0,0,.844-.257,4.445,4.445,0,0,1,4.133-2.818Z" transform="translate(0 -91.12)" fill="#00acb3"/>
    </g>
  </g>
</svg>
