<svg xmlns="http://www.w3.org/2000/svg" xmlns:xlink="http://www.w3.org/1999/xlink" width="94.999" height="94.999" viewBox="0 0 94.999 94.999">
  <defs>
    <filter id="Trazado_734791" x="0" y="0" width="94.999" height="94.999" filterUnits="userSpaceOnUse">
      <feOffset dy="3" input="SourceAlpha"/>
      <feGaussianBlur stdDeviation="3" result="blur"/>
      <feFlood flood-opacity="0.161"/>
      <feComposite operator="in" in2="blur"/>
      <feComposite in="SourceGraphic"/>
    </filter>
  </defs>
  <g id="Grupo_1013535" data-name="Grupo 1013535" transform="translate(-821 -3081.736)">
    <g transform="matrix(1, 0, 0, 1, 821, 3081.74)" filter="url(#Trazado_734791)">
      <path id="Trazado_734791-2" data-name="Trazado 734791" d="M38.5,0A38.5,38.5,0,1,1,0,38.5,38.5,38.5,0,0,1,38.5,0Z" transform="translate(9 6)" fill="#e9f7ff"/>
    </g>
    <g id="hola_1_" data-name="hola (1)" transform="translate(833.985 3095)">
      <path id="Trazado_734941" data-name="Trazado 734941" d="M47.426,45.572A6.74,6.74,0,0,1,45,40.394V39.62H33v.774a6.74,6.74,0,0,1-2.426,5.178L35,50h8Z" fill="#cf8c78"/>
      <path id="Trazado_734942" data-name="Trazado 734942" d="M47.427,45.572a6.729,6.729,0,0,1-2.409-4.847c-.131.08-.26.163-.4.238a11.465,11.465,0,0,1-9.763.672.468.468,0,0,0-.629.337l-.012.048A6.675,6.675,0,0,1,30.8,46.213l-1,.531,2.864,4.005,2.631.438S37.3,50.512,38.476,50H43Z" fill="#f1b8a0"/>
      <path id="Trazado_734943" data-name="Trazado 734943" d="M54,10.574v2.355a99.371,99.371,0,0,1-.7,11.8H24.7a99.372,99.372,0,0,1-.7-11.8v-.907Z" fill="#4c4c4c"/>
      <path id="Trazado_734944" data-name="Trazado 734944" d="M27,24a4,4,0,0,0,0,8h.368" fill="#cf8c78"/>
      <path id="Trazado_734945" data-name="Trazado 734945" d="M51,24a4,4,0,0,1,0,8h-.368" fill="#cf8c78"/>
      <path id="Trazado_734946" data-name="Trazado 734946" d="M49.6,15.2l.06.121A12.7,12.7,0,0,1,51,21v8a12.4,12.4,0,0,1-6.378,10.839,11.561,11.561,0,0,1-11.244,0A12.4,12.4,0,0,1,27,29V21a12.7,12.7,0,0,1,1.342-5.684l.22-.44" fill="#cf8c78"/>
      <path id="Trazado_734947" data-name="Trazado 734947" d="M35.378,39.839A11.567,11.567,0,0,0,40,41.232a11.567,11.567,0,0,0,4.622-1.393A12.4,12.4,0,0,0,51,29V21a12.7,12.7,0,0,0-1.342-5.684L49.6,15.2l-19.051-.29-.2.411A12.7,12.7,0,0,0,29,21v8a12.4,12.4,0,0,0,6.378,10.839Z" fill="#f1b8a0"/>
      <path id="Trazado_734948" data-name="Trazado 734948" d="M39,38a6.006,6.006,0,0,1-6-6h2a4,4,0,0,0,8,0h2a6.006,6.006,0,0,1-6,6Z" fill="#cf8c78"/>
      <path id="Trazado_734949" data-name="Trazado 734949" d="M62,63V55.516a8.49,8.49,0,0,0-6.05-8.128L48,45l-.465.465a12.071,12.071,0,0,1-17.07,0L30,45,17,48V59l7,1v3Z" fill="#0059bd"/>
      <path id="Trazado_734950" data-name="Trazado 734950" d="M55.95,47.385,48,45l-.465.465a12.071,12.071,0,0,1-17.071,0L30,45l-3.916.9A23.672,23.672,0,0,0,47.72,60H62V55.516a8.49,8.49,0,0,0-6.049-8.131Z" fill="#006bda"/>
      <path id="Trazado_734951" data-name="Trazado 734951" d="M53,59h2v4H53Z" fill="#004c9c"/>
      <path id="Trazado_734954" data-name="Trazado 734954" d="M34.925,14.973l-6.363-.1-.22.441A12.7,12.7,0,0,0,27,21v7.083c.258-.419.5-.85.725-1.3l.147-.294L34.456,16.14a3.305,3.305,0,0,0,.469-1.167Z" fill="#a0695f"/>
      <path id="Trazado_734955" data-name="Trazado 734955" d="M25.587,4.522a5.133,5.133,0,0,0,.054,8.945A28.073,28.073,0,0,0,39.275,17h3a15.758,15.758,0,0,0,7.046-1.663A10.263,10.263,0,0,0,55,6.157V4L53.688,5.312A2.348,2.348,0,0,1,52.027,6a8.577,8.577,0,0,1-3.842-.908A29.306,29.306,0,0,0,35.083,2a19.136,19.136,0,0,0-9.5,2.522Z" fill="#212121"/>
      <path id="Trazado_734956" data-name="Trazado 734956" d="M52.027,6a8.577,8.577,0,0,1-3.842-.908A29.306,29.306,0,0,0,35.083,2a19.142,19.142,0,0,0-9.432,2.488,5.121,5.121,0,0,0,1.99,6.979A28.073,28.073,0,0,0,41.275,15H44.28a15.758,15.758,0,0,0,7.046-1.663,10.162,10.162,0,0,0,1.589-1.011,10.407,10.407,0,0,0,.623-.889A10.262,10.262,0,0,0,55,6.157V4L53.688,5.312A2.348,2.348,0,0,1,52.027,6Z" fill="#383838"/>
      <path id="Trazado_734957" data-name="Trazado 734957" d="M34,14.3a2.346,2.346,0,0,1-.38,1.29L27,26l-.17.34A15.25,15.25,0,0,1,18,34L12,48h5V58L9.18,56.96A8.288,8.288,0,0,1,2.71,45.39L10,29v-.79A13.475,13.475,0,0,1,16,17L19.84,11.63A3.882,3.882,0,0,1,23,10h1.8l.17-.29A3.541,3.541,0,0,1,28,8h1.47a2.439,2.439,0,0,1,1.98-1A1.558,1.558,0,0,1,33,8.55a1.516,1.516,0,0,1-.24.83l-1.23,1.97,1.39.93A2.417,2.417,0,0,1,34,14.3Z" fill="#cf8c78"/>
      <path id="Trazado_734958" data-name="Trazado 734958" d="M33.465,12.8a2.378,2.378,0,0,0-.545-.518l-1.39-.93,1.23-1.97A1.516,1.516,0,0,0,33,8.55,1.558,1.558,0,0,0,31.45,7a2.439,2.439,0,0,0-1.98,1H28a3.541,3.541,0,0,0-3.03,1.709L24.8,10H23a3.882,3.882,0,0,0-3.16,1.63L16,17a13.476,13.476,0,0,0-6,11.21V29L2.71,45.39A8.288,8.288,0,0,0,9.18,56.96L17,58V48H10l6-14a15.25,15.25,0,0,0,8.83-7.66Z" fill="#f1b8a0"/>
      <g id="Grupo_1013502" data-name="Grupo 1013502">
        <path id="Trazado_734959" data-name="Trazado 734959" d="M16.832,26.555l-1.664-1.11a9.7,9.7,0,0,1,5.569-3.992l.516,1.932a7.7,7.7,0,0,0-4.421,3.17Z" fill="#cf8c78"/>
        <path id="Trazado_734960" data-name="Trazado 734960" d="M23.148,14.7l2.51-4.19L24.8,10H23.634l-2.2,3.676Z" fill="#cf8c78"/>
        <path id="Trazado_734961" data-name="Trazado 734961" d="M27.152,16.47l1.7,1.06,3.513-5.624-.825-.552-.854-.534Z" fill="#cf8c78"/>
        <path id="Trazado_734962" data-name="Trazado 734962" d="M25.874,16.486l4.3-7.738a1.517,1.517,0,0,1,.1-.148l-.8-.6H28.3l-4.174,7.514Z" fill="#cf8c78"/>
        <path id="Trazado_734963" data-name="Trazado 734963" d="M22,27H20V22.569a1.435,1.435,0,0,0-.149-.632,8.093,8.093,0,0,1-.851-3.6,2.334,2.334,0,0,1,4.2-1.4L24,18a10.071,10.071,0,0,1,2,6H24a8.061,8.061,0,0,0-1.6-4.8l-.8-1.065a.347.347,0,0,0-.6.2,6.084,6.084,0,0,0,.64,2.71A3.447,3.447,0,0,1,22,22.569Z" fill="#cf8c78"/>
      </g>
      <g id="Grupo_1013503" data-name="Grupo 1013503" transform="translate(16.553 13.786) rotate(-166)">
        <path id="Trazado_734952" data-name="Trazado 734952" d="M10,9H9v3L2,7,9,2V5h.394A6.738,6.738,0,0,0,15,2l3,3a10,10,0,0,1-8,4Z" transform="translate(-2 -2)" fill="#a7d309"/>
        <path id="Trazado_734953" data-name="Trazado 734953" d="M10,7.371H9v3l-7-5h8.528A7.227,7.227,0,0,0,16.628,2L18,3.371a10,10,0,0,1-8,4Z" transform="translate(-2 -0.371)" fill="#8cbe00"/>
      </g>
    </g>
  </g>
</svg>
