<svg xmlns="http://www.w3.org/2000/svg" xmlns:xlink="http://www.w3.org/1999/xlink" width="94.999" height="94.999" viewBox="0 0 94.999 94.999">
  <defs>
    <filter id="Trazado_734791" x="0" y="0" width="94.999" height="94.999" filterUnits="userSpaceOnUse">
      <feOffset dy="3" input="SourceAlpha"/>
      <feGaussianBlur stdDeviation="3" result="blur"/>
      <feFlood flood-opacity="0.161"/>
      <feComposite operator="in" in2="blur"/>
      <feComposite in="SourceGraphic"/>
    </filter>
  </defs>
  <g id="Grupo_1013536" data-name="Grupo 1013536" transform="translate(-1136 -3081.736)">
    <g transform="matrix(1, 0, 0, 1, 1136, 3081.74)" filter="url(#Trazado_734791)">
      <path id="Trazado_734791-2" data-name="Trazado 734791" d="M38.5,0A38.5,38.5,0,1,1,0,38.5,38.5,38.5,0,0,1,38.5,0Z" transform="translate(9 6)" fill="#e9f7ff"/>
    </g>
    <g id="Grupo_1013514" data-name="Grupo 1013514" transform="translate(2 -60)">
      <g id="traducir" transform="translate(1176.891 3146.787)">
        <g id="Grupo_1013507" data-name="Grupo 1013507" transform="translate(5.875 14.837)">
          <g id="Grupo_1013506" data-name="Grupo 1013506" transform="translate(14.801 20.253)">
            <path id="Trazado_734915" data-name="Trazado 734915" d="M170.441,208.867H159.157a3.232,3.232,0,0,0-3.229,3.229v6.131L153,220.315a.878.878,0,0,0,0,1.429l2.959,2.113a3.234,3.234,0,0,0,3.194,2.752h11.284a3.232,3.232,0,0,0,3.229-3.229V212.1a3.232,3.232,0,0,0-3.229-3.229Zm0,0" transform="translate(-152.637 -208.867)" fill="#54e360"/>
            <path id="Trazado_734916" data-name="Trazado 734916" d="M366.076,208.867h-5.642v17.742h5.642a3.232,3.232,0,0,0,3.229-3.229V212.1A3.232,3.232,0,0,0,366.076,208.867Zm0,0" transform="translate(-348.272 -208.867)" fill="#00ab5e"/>
            <path id="Trazado_734917" data-name="Trazado 734917" d="M315.684,307.646a.543.543,0,0,1,.019-.094l1.815-5.915a.764.764,0,0,1,.78-.414c.358,0,.706.132.79.414l1.815,5.915a.421.421,0,0,1,.019.094c0,.291-.442.508-.771.508-.207,0-.367-.066-.414-.244l-.357-1.251h-2.154l-.357,1.251c-.047.179-.207.244-.414.244C316.126,308.153,315.684,307.946,315.684,307.646Zm3.433-1.947-.819-2.887-.818,2.887Zm0,0" transform="translate(-306.141 -295.817)" fill="#fef4f5"/>
          </g>
          <g id="Grupo_1013500" data-name="Grupo 1013500" transform="translate(26.963 25.659)">
            <path id="Trazado_734919" data-name="Trazado 734919" d="M363.033,307.555l-1.815-5.915a.767.767,0,0,0-.785-.414v1.606l.813,2.87h-.813v.959h1.077l.357,1.251c.047.179.207.244.414.244.329,0,.771-.216.771-.508A.4.4,0,0,0,363.033,307.555Zm0,0" transform="translate(-360.433 -301.226)" fill="#d5eded"/>
          </g>
        </g>
        <g id="Grupo_1013508" data-name="Grupo 1013508" transform="translate(-33.891 13.373)">
          <g id="Grupo_1013506-2" data-name="Grupo 1013506" transform="translate(0 -0.001)">
            <path id="Trazado_734915-2" data-name="Trazado 734915" d="M156.185,208.867h12.4a3.552,3.552,0,0,1,3.548,3.548v6.737l3.213,2.295a.965.965,0,0,1,0,1.57l-3.252,2.322a3.554,3.554,0,0,1-3.509,3.024h-12.4a3.552,3.552,0,0,1-3.548-3.548v-12.4a3.552,3.552,0,0,1,3.548-3.548Zm0,0" transform="translate(-152.637 -208.867)" fill="#00d8e0"/>
            <path id="Trazado_734916-2" data-name="Trazado 734916" d="M363.982,208.867h6.2v19.5h-6.2a3.552,3.552,0,0,1-3.548-3.548v-12.4A3.552,3.552,0,0,1,363.982,208.867Zm0,0" transform="translate(-360.434 -208.867)" fill="#00acb3"/>
          </g>
          <path id="Trazado_734985" data-name="Trazado 734985" d="M97.493,98.09a3.6,3.6,0,0,0,1.854-.512,4.558,4.558,0,0,1-1.2-2.628h-.659a.478.478,0,0,1,0-.956h2.126v-1.16a.478.478,0,1,1,.956,0v1.16H102.7a.478.478,0,0,1,0,.956h-.659a4.556,4.556,0,0,1-1.195,2.628,3.6,3.6,0,0,0,1.854.512.478.478,0,1,1,0,.956,4.549,4.549,0,0,1-2.6-.817,4.547,4.547,0,0,1-2.6.817.478.478,0,1,1,0-.956Zm1.622-3.14a3.607,3.607,0,0,0,.982,2.031,3.608,3.608,0,0,0,.982-2.031Zm0,0" transform="translate(-90.375 -86.009)" fill="#fef4f5"/>
          <path id="Trazado_734986" data-name="Trazado 734986" d="M153.114,95.023a.478.478,0,0,1,0-.956h2.126v-1.16a.478.478,0,0,1,.417-.474v2.59h-.921a3.606,3.606,0,0,0,.921,1.965v1.355a4.546,4.546,0,0,1-2.544.776.478.478,0,0,1,0-.956,3.6,3.6,0,0,0,1.854-.512,4.558,4.558,0,0,1-1.2-2.628Zm0,0" transform="translate(-145.996 -86.083)" fill="#d5eded"/>
        </g>
      </g>
      <g id="gracias_1_" data-name="gracias (1)" transform="translate(1151 3155.037)">
        <path id="Trazado_734964" data-name="Trazado 734964" d="M39.523,45.066a6.379,6.379,0,0,1-2.3-4.9v-.733H25.87v.733a6.379,6.379,0,0,1-2.3,4.9l4.188,4.191h7.571Z" transform="translate(-0.942 -2.016)" fill="#cf8c78"/>
        <path id="Trazado_734965" data-name="Trazado 734965" d="M39.483,45.125a6.37,6.37,0,0,1-2.28-4.587c-.124.076-.246.154-.379.225a10.851,10.851,0,0,1-9.24.636.442.442,0,0,0-.6.319l-.011.044a6.321,6.321,0,0,1-3.231,3.969l-.946.5,2.711,3.786,2.495.419s1.9-.639,3.011-1.123h4.277L37.7,46.9l.6.268s.846-.447.937-.517S40,45.489,40,45.489Z" transform="translate(-0.9 -2.075)" fill="#f1b8a0"/>
        <path id="Trazado_734966" data-name="Trazado 734966" d="M6,62.036V54.789a7.636,7.636,0,0,1,5.92-7.442l8.306-1.917,17.476.887a11.45,11.45,0,0,0,.983-.876l.44-.44,10.169,2.347a7.636,7.636,0,0,1,5.92,7.442v7.247Z" transform="translate(0 -2.314)" fill="#0059bd"/>
        <path id="Trazado_734967" data-name="Trazado 734967" d="M55.428,54.789a7.637,7.637,0,0,0-5.92-7.442L39.339,45l-.44.44a11.326,11.326,0,0,1-.984.876L20.44,45.43l-8.306,1.917a7.562,7.562,0,0,0-1.448.511A7.631,7.631,0,0,0,10,51a7.247,7.247,0,0,0,7.247,7.247H55.428Z" transform="translate(-0.214 -2.314)" fill="#006bda"/>
        <path id="Trazado_734968" data-name="Trazado 734968" d="M45.393,10.386v2.23a94.061,94.061,0,0,1-.662,11.168H17.662A94.046,94.046,0,0,1,17,12.616v-.858Z" transform="translate(-0.589 -0.459)" fill="#4c4c4c"/>
        <g id="Grupo_1013504" data-name="Grupo 1013504" transform="translate(15.464 13.998)">
          <path id="Trazado_734969" data-name="Trazado 734969" d="M19.786,23.813a3.786,3.786,0,1,0,0,7.571h.348" transform="translate(-16 -15.177)" fill="#cf8c78"/>
          <path id="Trazado_734970" data-name="Trazado 734970" d="M43.98,23.813a3.786,3.786,0,0,1,0,7.571h-.348" transform="translate(-17.481 -15.177)" fill="#cf8c78"/>
          <path id="Trazado_734971" data-name="Trazado 734971" d="M41.389,14.991l.057.115a12.02,12.02,0,0,1,1.268,5.379v7.571a11.735,11.735,0,0,1-6.035,10.257,10.955,10.955,0,0,1-10.645,0A11.736,11.736,0,0,1,20,28.056V20.485A12.021,12.021,0,0,1,21.271,15.1l.207-.416" transform="translate(-16.214 -14.688)" fill="#cf8c78"/>
        </g>
        <path id="Trazado_734972" data-name="Trazado 734972" d="M28.036,38.315a10.934,10.934,0,0,0,4.374,1.319,10.934,10.934,0,0,0,4.374-1.319,11.736,11.736,0,0,0,6.036-10.257V20.486a12.022,12.022,0,0,0-1.271-5.381l-.056-.113-18.03-.274-.194.388A12.02,12.02,0,0,0,22,20.486v7.571a11.735,11.735,0,0,0,6.035,10.257Z" transform="translate(-0.857 -0.691)" fill="#f1b8a0"/>
        <path id="Trazado_734973" data-name="Trazado 734973" d="M18.448,4.2a4.858,4.858,0,0,0,.051,8.465,26.569,26.569,0,0,0,12.9,3.344h2.844a14.913,14.913,0,0,0,6.668-1.574,9.713,9.713,0,0,0,5.37-8.688V3.706L45.044,4.948a2.226,2.226,0,0,1-1.572.651,8.127,8.127,0,0,1-3.633-.858,27.736,27.736,0,0,0-12.4-2.928A18.11,18.11,0,0,0,18.448,4.2Z" transform="translate(-0.536)" fill="#212121"/>
        <path id="Trazado_734974" data-name="Trazado 734974" d="M43.579,5.6a8.126,8.126,0,0,1-3.633-.858,27.736,27.736,0,0,0-12.4-2.928,18.116,18.116,0,0,0-8.931,2.354A4.848,4.848,0,0,0,20.5,10.773a26.569,26.569,0,0,0,12.9,3.344h2.844a14.913,14.913,0,0,0,6.668-1.574,9.687,9.687,0,0,0,1.5-.956,9.852,9.852,0,0,0,.59-.841,9.712,9.712,0,0,0,1.384-5V3.706L45.151,4.948a2.226,2.226,0,0,1-1.572.651Z" transform="translate(-0.643 0)" fill="#383838"/>
        <path id="Trazado_734975" data-name="Trazado 734975" d="M39.139,32.624a1.762,1.762,0,0,0-.189.007c.034-.37.051-.736.051-1.1a2.7,2.7,0,0,0-2.7-2.7h-.146v-.316a2.526,2.526,0,0,0-4.68-1.325,3.071,3.071,0,0,0-4.213,2.075l-1.338,5.361a6.057,6.057,0,0,0-1.012-1.347,2.3,2.3,0,0,0-1.616-.662,2.271,2.271,0,0,0-2.013,1.23,11.725,11.725,0,0,0,4.822,5.064,10.955,10.955,0,0,0,10.642,0,11.729,11.729,0,0,0,4.74-4.9,2.689,2.689,0,0,0-2.347-1.394Z" transform="translate(-0.819 -1.295)" fill="#b7796a"/>
        <path id="Trazado_734976" data-name="Trazado 734976" d="M48,59h1.893v3.786H48Z" transform="translate(-2.25 -3.064)" fill="#004c9c"/>
        <path id="Trazado_734977" data-name="Trazado 734977" d="M14,59h1.893v3.786H14Z" transform="translate(-0.429 -3.064)" fill="#004c9c"/>
        <path id="Trazado_734978" data-name="Trazado 734978" d="M40.768,35.376a8.2,8.2,0,0,1-.284,2.139l-2.536,9.5-1.628,3.549a7.229,7.229,0,0,1-1.883,1.618,7.382,7.382,0,0,0-3.085,3.71l-1.94,5.177H19l3.786-8.518V49.714l-1.467-3.663a5.962,5.962,0,0,1-.426-2.224,5.855,5.855,0,0,1,.18-1.457l.767-3.066V34.959a1.338,1.338,0,0,1,2.281-.946,5.131,5.131,0,0,1,1.5,3.625V39.3l2.432-9.748a2.13,2.13,0,0,1,3.776-.748l.132-.577a1.581,1.581,0,0,1,3.123.35,13.3,13.3,0,0,1-.113,1.729l.009-.007a1.755,1.755,0,0,1,2.943,1.287,11.561,11.561,0,0,1-.208,2.148l-.123.606a1.754,1.754,0,0,1,3.171,1.032Z" transform="translate(-0.697 -1.35)" fill="#cf8c78"/>
        <path id="Trazado_734979" data-name="Trazado 734979" d="M32.543,52.184a7.229,7.229,0,0,0,1.883-1.618l1.628-3.549,3.734-13.2a1.722,1.722,0,0,0-.771-.189,1.757,1.757,0,0,0-1.42.719l.123-.606a11.56,11.56,0,0,0,.208-2.148A1.755,1.755,0,0,0,34.985,30.3l-.009.009a13.3,13.3,0,0,0,.114-1.732,1.581,1.581,0,0,0-3.123-.35l-.132.577a2.13,2.13,0,0,0-3.776.748L25.625,39.3V37.638a5.131,5.131,0,0,0-1.5-3.625,1.338,1.338,0,0,0-2.281.946V39.3l-.767,3.066a5.855,5.855,0,0,0-.18,1.457,5.963,5.963,0,0,0,.426,2.224l1.467,3.663v2.839L19,61.071h8.518l1.94-5.177a7.382,7.382,0,0,1,3.085-3.71Z" transform="translate(-0.697 -1.35)" fill="#f1b8a0"/>
        <path id="Trazado_734980" data-name="Trazado 734980" d="M34.879,40.6l-1.863-.339,1.666-9.171c.044-.237.079-.473.1-.7l1.881.208c-.031.278-.072.557-.124.836Z" transform="translate(-1.448 -1.531)" fill="#cf8c78"/>
        <path id="Trazado_734981" data-name="Trazado 734981" d="M0,0H10.771V1.893H0Z" transform="translate(27.789 37.766) rotate(-76.992)" fill="#cf8c78"/>
        <path id="Trazado_734982" data-name="Trazado 734982" d="M0,0H7.954V1.893H0Z" transform="matrix(0.196, -0.981, 0.981, 0.196, 34.418, 40.582)" fill="#cf8c78"/>
        <path id="Trazado_734983" data-name="Trazado 734983" d="M33,47.839a10.221,10.221,0,0,1,5.124,5.909l.555,1.663-2.839.946,5.679,3.786,2.839-6.625-2.839.946-.048-.34A12.114,12.114,0,0,0,34.893,45Z" transform="translate(-1.447 -2.314)" fill="#8cbe00"/>
        <path id="Trazado_734984" data-name="Trazado 734984" d="M41.559,54.464l-.048-.34A12.114,12.114,0,0,0,34.934,45l-1.166,1.749a15.048,15.048,0,0,1,7.791,13.176v.218L44.4,53.518Z" transform="translate(-1.488 -2.314)" fill="#a7d309"/>
      </g>
    </g>
  </g>
</svg>
